<svg xmlns="http://www.w3.org/2000/svg" xmlns:xlink="http://www.w3.org/1999/xlink" width="500" zoomAndPan="magnify" viewBox="0 0 375 374.999991" height="500" preserveAspectRatio="xMidYMid meet" version="1.0"><defs><clipPath id="7e669e9017"><path d="M 301 0 L 337.261719 0 L 337.261719 47 L 301 47 Z M 301 0 " clip-rule="nonzero"/></clipPath><clipPath id="ff972dd344"><path d="M 127 2 L 337.261719 2 L 337.261719 201 L 127 201 Z M 127 2 " clip-rule="nonzero"/></clipPath><clipPath id="408d80bb51"><path d="M 36.511719 210 L 40 210 L 40 213 L 36.511719 213 Z M 36.511719 210 " clip-rule="nonzero"/></clipPath></defs><g clip-path="url(#7e669e9017)"><path fill="#cb8e8c" d="M 494.148438 -168.0625 C 496.632812 -163.582031 495.335938 -160.566406 492.550781 -157.609375 C 482.148438 -146.558594 482.382812 -146.054688 494.839844 -138.804688 C 501.542969 -134.898438 507.785156 -130.199219 514 -126.019531 C 513.117188 -111.261719 513.117188 -111.261719 527.628906 -97.496094 C 523.347656 -87.683594 525.960938 -78.820312 534.777344 -71.296875 C 532.226562 -67.273438 530.28125 -63.636719 527.792969 -60.425781 C 524.953125 -56.769531 525.039062 -52.757812 524.960938 -48.503906 C 524.878906 -44.230469 527.300781 -42.082031 530.09375 -39.460938 C 533.871094 -35.917969 533.535156 -35.558594 529.898438 -25.277344 C 527.484375 -25.648438 525 -26.03125 522.488281 -26.414062 C 520.21875 -23.988281 520.777344 -21.417969 522.992188 -19.675781 C 526.25 -17.117188 530.023438 -15.230469 533.398438 -12.8125 C 534.816406 -11.792969 535.785156 -10.140625 537.15625 -8.546875 C 532.25 -5.828125 529.261719 -8.410156 526.089844 -10.007812 C 522.886719 -11.621094 519.691406 -13.253906 516.769531 -14.734375 C 503.441406 -3.992188 502.386719 -0.847656 506.1875 17.453125 C 504.074219 17.335938 501.945312 17.804688 500.53125 17.007812 C 497.851562 15.496094 495.574219 13.257812 493.382812 11.515625 C 484.65625 11.921875 480.738281 16.617188 480.351562 24.808594 C 476.632812 26.691406 473.023438 28.515625 468.914062 30.589844 C 470.148438 34.988281 471.25 38.914062 472.3125 42.710938 C 469.535156 45.445312 467.488281 44.425781 465.753906 42.015625 C 463.496094 38.890625 465.574219 33.027344 458.671875 32.148438 C 455.9375 36.355469 452.980469 40.921875 449.386719 46.464844 C 445.753906 42.75 442.996094 39.929688 439.679688 36.535156 C 432.742188 39.160156 425.929688 41.734375 418.066406 44.707031 C 413.839844 41.402344 409.0625 37.664062 403.425781 33.25 C 401.585938 37.800781 400.175781 41.292969 398.773438 44.757812 C 396.929688 44.101562 395.671875 44.042969 395.246094 43.414062 C 394.378906 42.148438 394.003906 40.558594 393.359375 39.128906 C 388.660156 28.648438 387.683594 28.15625 374.363281 30.207031 C 370.878906 24.898438 368.609375 16.890625 358.714844 17.488281 C 355.414062 20.203125 351.597656 23.335938 347.660156 26.578125 C 344.203125 21.121094 348.777344 19.152344 350.171875 16.15625 C 352.535156 11.070312 352.476562 7.757812 347.703125 5.449219 C 341.402344 2.402344 339.082031 -3.347656 335.5625 -9.582031 C 331.445312 -7.96875 327.859375 -6.320312 324.113281 -5.242188 C 323 -4.921875 320.820312 -5.828125 320.257812 -6.820312 C 319.761719 -7.6875 320.414062 -9.890625 321.296875 -10.742188 C 323.832031 -13.195312 326.738281 -15.257812 330.152344 -17.996094 C 328.019531 -22.21875 326.933594 -26.664062 324.132812 -29.238281 C 321.550781 -31.605469 317.128906 -31.960938 312.238281 -33.644531 C 314.90625 -36.152344 316.246094 -37.707031 317.867188 -38.859375 C 319.519531 -40.027344 321.453125 -40.800781 323.089844 -41.65625 C 321.511719 -53.277344 320.125 -54.667969 311.25 -53.863281 C 308.683594 -53.632812 306.136719 -53.074219 303.570312 -53.019531 C 302.847656 -53.003906 301.375 -54.476562 301.5 -54.882812 C 301.890625 -56.164062 302.683594 -58.058594 303.664062 -58.296875 C 307.636719 -59.257812 311.757812 -59.589844 315.777344 -60.390625 C 316.65625 -60.5625 317.34375 -61.699219 318.390625 -62.636719 C 321.175781 -71.09375 317.519531 -77.375 310.621094 -82.058594 C 312.730469 -90.117188 320.242188 -84.832031 324.542969 -88.917969 C 322.929688 -91.625 321.210938 -94.503906 319.460938 -97.4375 C 321.527344 -102.058594 328.523438 -99.5 329.816406 -105.667969 C 331.234375 -112.417969 333.695312 -118.757812 329.707031 -125.40625 C 329.027344 -126.542969 329.328125 -128.261719 329.207031 -129.386719 C 333.464844 -133.984375 337.277344 -128.675781 341.148438 -129.660156 C 348.09375 -132.453125 351.90625 -137.6875 352.480469 -145.691406 C 354.929688 -146.023438 356.90625 -146.21875 358.859375 -146.566406 C 366.414062 -147.90625 368.015625 -150.375 365.902344 -157.015625 C 364.8125 -160.433594 363.953125 -163.929688 362.945312 -167.375 C 362.65625 -168.351562 362.421875 -169.460938 361.796875 -170.199219 C 359.75 -172.621094 353.835938 -173.492188 357.753906 -178.296875 C 360.945312 -182.203125 365.425781 -180.582031 369.414062 -178.957031 C 370.34375 -178.582031 371.109375 -177.804688 372.871094 -176.574219 C 371.460938 -174.234375 370.015625 -171.835938 368.046875 -168.558594 C 369.683594 -165.1875 371.6875 -161.050781 373.507812 -157.292969 C 382.835938 -157 383.054688 -157 383.027344 -163.445312 C 383.011719 -166.191406 382.53125 -168.65625 386.273438 -169.890625 C 391.613281 -169.300781 390.632812 -162.042969 396.476562 -159.941406 C 398.882812 -160.539062 402.492188 -161.074219 405.828125 -162.339844 C 411.125 -164.34375 414.125 -168.167969 414.695312 -174.140625 C 415.285156 -180.355469 416.644531 -186.5 417.714844 -192.988281 C 425.925781 -185.707031 421.367188 -175.964844 423.835938 -166.9375 C 427.617188 -168.71875 430.71875 -170.179688 433.769531 -171.621094 C 439.882812 -162.515625 439.882812 -162.515625 451.21875 -163.589844 C 453.742188 -169.734375 456.300781 -175.96875 458.859375 -182.203125 C 459.382812 -182.117188 459.914062 -182.03125 460.441406 -181.945312 C 460.261719 -178.621094 460.734375 -175.09375 459.769531 -172.011719 C 457.890625 -166 459.925781 -161.816406 464.515625 -158.292969 C 466.1875 -157.015625 467.832031 -155.691406 469.613281 -154.585938 C 475.84375 -150.707031 480.195312 -151.605469 484.152344 -157.820312 C 486.625 -161.703125 487.574219 -166.847656 494.148438 -168.0625 " fill-opacity="1" fill-rule="nonzero"/></g><g clip-path="url(#ff972dd344)"><path fill="#cb8e8c" d="M 178.820312 73.871094 C 185.738281 70.988281 185.738281 70.984375 192.480469 74.242188 C 194.691406 75.3125 196.894531 76.402344 199.71875 77.785156 C 200.371094 76.273438 200.957031 75.019531 201.457031 73.734375 C 202 72.347656 202.460938 70.933594 203.117188 69.078125 C 196.496094 65.675781 189.808594 64.765625 183.039062 65.367188 C 178.925781 65.734375 175.128906 65.21875 171.144531 64.464844 C 166.320312 63.550781 161.296875 62.941406 156.414062 63.21875 C 146.722656 63.761719 137.476562 61.488281 127.996094 59.742188 C 129.722656 58.625 131.632812 58.460938 133.503906 58.523438 C 143.691406 58.867188 153.980469 58.527344 163.9375 61.105469 C 170.695312 62.851562 177.496094 61.265625 184.246094 62.121094 C 188.523438 62.667969 192.890625 62.46875 197.195312 62.84375 C 200.960938 63.179688 203.898438 62.132812 206.046875 58.472656 C 203.070312 55.121094 197.066406 55.871094 195.089844 50.894531 C 198.710938 48.234375 201.324219 52.644531 204.710938 52.160156 C 207.21875 51.261719 207.308594 48.984375 206.996094 46.839844 C 206.78125 45.371094 206.070312 43.835938 205.183594 42.617188 C 199.320312 34.589844 193.011719 26.941406 183.898438 22.363281 C 178.367188 19.589844 172.777344 16.828125 166.976562 14.722656 C 163.101562 13.316406 159.742188 11.28125 156.433594 9.015625 C 153.542969 7.039062 153.039062 5.625 154.285156 3.824219 C 155.527344 2.027344 156.988281 1.621094 160.054688 3.039062 C 164.53125 5.109375 169.015625 7.25 173.199219 9.839844 C 178.972656 13.414062 184.40625 17.527344 190.105469 21.222656 C 192.953125 23.070312 195.957031 24.792969 199.09375 26.050781 C 208.558594 29.84375 218.125 33.378906 228.191406 37.222656 C 230.042969 34.34375 231.832031 31.359375 233.824219 28.523438 C 236.007812 25.421875 238.84375 24.34375 242.710938 25.515625 C 246.542969 26.675781 250.519531 27.429688 254.480469 28.058594 C 256.964844 28.453125 258.597656 27.007812 259.109375 24.578125 C 259.234375 23.980469 259.195312 23.347656 259.277344 22.734375 C 259.890625 18.246094 260.882812 16.3125 262.164062 17.046875 C 264.691406 18.488281 263.542969 20.804688 263.347656 22.851562 C 263.234375 24.078125 262.8125 25.277344 262.75 26.5 C 262.523438 30.84375 264.277344 32.488281 268.882812 32.308594 C 269.78125 32.273438 270.671875 32.015625 271.796875 31.824219 C 274.070312 34.613281 276.355469 37.410156 278.824219 40.4375 C 280.285156 40.363281 282.003906 40.28125 284.136719 40.175781 C 283.621094 42.328125 283.203125 44.082031 282.644531 46.414062 C 284 47.921875 285.574219 49.683594 287.378906 51.695312 C 291.285156 50.003906 294.90625 48.433594 298.660156 46.808594 C 300.003906 48.820312 298.320312 49.773438 297.160156 50.101562 C 293.539062 51.128906 289.949219 52.011719 287.886719 56.210938 C 289.175781 59.765625 288.433594 64.824219 294.496094 65.8125 C 295.675781 69.476562 296.878906 73.214844 298.210938 77.363281 C 297.671875 80.394531 289.78125 80.6875 294.238281 86.265625 C 290.179688 88.292969 288.796875 91.734375 288.351562 95.503906 C 292.265625 98.222656 295.722656 100.695312 299.253906 103.058594 C 303.316406 105.777344 305.695312 109.90625 306.386719 114.332031 C 307.421875 120.957031 310.777344 125.933594 315.660156 129.804688 C 320.097656 133.320312 323.613281 137.507812 327.21875 141.746094 C 329.945312 144.953125 332.195312 148.894531 336.835938 149.910156 C 337.519531 154.699219 342.386719 156.28125 344.566406 159.964844 C 345.484375 161.515625 347.253906 162.546875 348.304688 164.042969 C 348.917969 164.917969 348.871094 166.253906 349.214844 167.800781 C 347.910156 167.644531 346.84375 167.847656 346.332031 167.40625 C 344.015625 165.386719 341.773438 163.273438 339.660156 161.039062 C 332.429688 153.398438 325.273438 145.691406 318.078125 138.019531 C 315.75 135.542969 313.449219 133.039062 311.035156 130.644531 C 309.785156 129.40625 308.3125 128.394531 307.140625 127.441406 C 306.605469 130.945312 306.117188 134.148438 305.507812 138.132812 C 309.789062 140.242188 311.847656 144.714844 312.835938 150.121094 C 313.65625 154.621094 315.304688 158.964844 316.800781 164.117188 C 316.023438 164.929688 314.804688 166.210938 313.15625 167.929688 C 313.648438 169.3125 314.238281 170.984375 314.855469 172.714844 C 314.648438 173.164062 314.550781 173.957031 314.140625 174.183594 C 311.890625 175.429688 309.9375 176.8125 309.925781 179.738281 C 309.90625 182.867188 307.75 184.507812 305.695312 186.507812 C 300.960938 191.121094 295.148438 193.980469 289.582031 197.246094 C 288.355469 197.96875 286.382812 198.550781 285.234375 198.0625 C 280.390625 196.019531 276.167969 197.074219 272.058594 200.527344 C 270.996094 199.195312 270.132812 198.375 269.582031 197.378906 C 267.464844 193.578125 265.890625 192.910156 262.453125 194.65625 C 261.636719 195.070312 260.972656 195.773438 260.21875 196.3125 C 259.730469 196.667969 259.199219 196.964844 258.355469 197.5 C 256.664062 196.65625 254.789062 195.71875 252.917969 194.789062 C 253.878906 188.855469 253.84375 188.894531 249.289062 184.921875 C 247.199219 183.097656 245.25 181.117188 243.292969 179.148438 C 242.882812 178.738281 242.734375 178.066406 242.46875 177.511719 C 242.480469 176.90625 242.320312 176.234375 242.53125 175.707031 C 245.066406 169.230469 245.082031 169.234375 239.585938 164.023438 C 240.867188 162.164062 243.039062 160.34375 243.277344 158.300781 C 243.527344 156.1875 241.898438 153.851562 241.015625 151.40625 C 242.726562 149.75 244.992188 148.082031 246.535156 145.90625 C 247.875 144.019531 247.789062 140.617188 249.421875 139.542969 C 252.574219 137.476562 251.117188 134.585938 251.953125 132.03125 C 253.339844 131.820312 254.75 131.601562 256.164062 131.386719 C 256.164062 130.800781 256.390625 129.988281 256.121094 129.753906 C 254.746094 128.566406 253.121094 127.65625 251.820312 126.40625 C 250.445312 125.085938 249.5625 123.445312 250.597656 121.417969 C 251.664062 119.332031 253 117.882812 255.679688 118.53125 C 256.433594 118.714844 257.324219 118.320312 258.308594 118.167969 C 257.828125 115.402344 255.871094 115.90625 254.183594 115.574219 C 252.445312 115.230469 250.808594 114.347656 248.652344 113.515625 C 246.941406 114.796875 245.03125 116.226562 242.6875 117.980469 C 241.257812 116.335938 239.929688 114.8125 238.636719 113.324219 C 236.046875 113.234375 234.710938 114.914062 233.425781 116.730469 C 232.371094 118.222656 231.285156 119.707031 230.070312 121.070312 C 229.8125 121.363281 228.851562 121.316406 228.40625 121.074219 C 227.957031 120.828125 227.398438 120.046875 227.503906 119.671875 C 227.832031 118.519531 228.5 117.464844 228.945312 116.335938 C 229.460938 115.042969 229.878906 113.710938 230.519531 111.871094 C 221.847656 114.925781 221.847656 114.925781 211.652344 114.226562 C 211.90625 112.777344 211.886719 111.269531 212.460938 110.039062 C 213.097656 108.667969 214.375 107.609375 215.191406 106.304688 C 216.523438 104.171875 215.160156 102.046875 212.460938 102.058594 C 210.324219 102.066406 208.1875 102.261719 205.421875 102.402344 C 205.652344 99.921875 205.941406 97.875 206.011719 95.824219 C 206.085938 93.703125 204.617188 92.269531 202.542969 92.449219 C 200.5 92.625 198.480469 93.035156 196.558594 93.324219 C 196.3125 92.21875 196 91.613281 196.09375 91.078125 C 196.292969 89.945312 197.171875 88.703125 196.894531 87.777344 C 196.585938 86.757812 195.421875 85.75 194.382812 85.257812 C 192.730469 84.476562 190.886719 84.054688 189.089844 83.617188 C 187.597656 83.257812 186.046875 83.140625 184.539062 82.847656 C 178.882812 81.746094 178.050781 80.421875 178.847656 73.867188 L 178.820312 73.871094 " fill-opacity="1" fill-rule="nonzero"/></g><path fill="#cb8e8c" d="M 226.214844 276.609375 C 225.675781 277.679688 226.507812 279.386719 225.183594 279.933594 C 223.484375 280.632812 223.128906 278.585938 222.09375 277.875 C 221.664062 277.585938 221.253906 277.265625 220.695312 276.851562 C 219.261719 278.585938 218.164062 280.480469 216.128906 281.445312 C 215.339844 281.824219 215.363281 282.769531 215.183594 283.578125 C 214.734375 285.628906 214.449219 285.785156 212.453125 285.554688 C 211.917969 285.488281 211.386719 285.25 210.863281 285.28125 C 209.507812 285.371094 208.476562 286.988281 208.929688 288.285156 C 209.105469 288.785156 209.558594 289.195312 209.691406 289.695312 C 209.925781 290.582031 210.074219 291.5 210.117188 292.410156 C 210.128906 292.679688 209.710938 293.140625 209.414062 293.207031 C 209.101562 293.28125 208.546875 293.109375 208.367188 292.851562 C 207.914062 292.199219 207.527344 291.472656 207.277344 290.722656 C 206.863281 289.476562 206.113281 288.605469 204.710938 287.984375 C 201.996094 289.402344 199.222656 290.90625 197.78125 293.941406 C 195.816406 293.851562 195.660156 291.710938 193.777344 291.214844 C 190.472656 293.089844 187.011719 295.378906 183.398438 296.886719 C 181.296875 296.15625 182.226562 294.160156 181.363281 293.046875 C 180.007812 292.820312 178.796875 294.558594 177.449219 293.132812 C 176.574219 292.347656 177.40625 291.46875 177.460938 290.574219 C 177.515625 289.714844 177.21875 288.945312 176.351562 288.601562 C 175.21875 288.144531 174.085938 287.664062 172.902344 287.378906 C 171.289062 286.996094 169.699219 286.957031 168.308594 288.207031 C 167.695312 288.761719 166.835938 289.050781 166.066406 288.496094 C 165.136719 287.835938 165.261719 286.847656 165.550781 285.910156 C 165.785156 285.136719 166.101562 284.390625 166.335938 283.746094 C 165.757812 282.0625 164.652344 281.492188 163.113281 281.808594 C 161.496094 282.140625 160.035156 282.769531 158.898438 284.066406 C 158.386719 284.652344 157.726562 285.1875 157.027344 285.5 C 156.675781 285.660156 155.902344 285.410156 155.648438 285.085938 C 155.394531 284.757812 155.363281 284.03125 155.550781 283.621094 C 156.023438 282.5625 157.039062 282.082031 158.109375 281.800781 C 159.542969 281.414062 160.519531 280.566406 160.941406 279.164062 C 161.035156 278.855469 160.941406 278.308594 160.722656 278.136719 C 160.503906 277.957031 159.941406 277.976562 159.675781 278.144531 C 159.113281 278.503906 158.660156 279.027344 158.136719 279.453125 C 157.578125 279.90625 156.808594 280.230469 156.347656 279.621094 C 156.019531 279.1875 155.914062 278.207031 156.1875 277.769531 C 157.421875 275.789062 157.636719 273.828125 156.96875 271.574219 C 156.472656 269.898438 155.855469 268.558594 154.089844 267.984375 C 153.726562 267.867188 153.4375 267.519531 153.078125 267.257812 C 153.015625 266.867188 152.878906 266.46875 152.902344 266.082031 C 153.082031 262.8125 152.828125 262.621094 149.578125 263.519531 C 148.933594 263.699219 148.257812 263.917969 147.617188 263.859375 C 147.164062 263.820312 146.53125 263.425781 146.375 263.035156 C 146.230469 262.671875 146.507812 262.023438 146.785156 261.636719 C 147.300781 260.933594 148.101562 260.792969 148.964844 260.8125 C 150.195312 260.839844 151.417969 260.757812 152.605469 259.632812 C 151.953125 257.128906 153.195312 254.28125 151.816406 251.445312 C 150.710938 251.367188 149.636719 251.386719 148.613281 251.175781 C 148.203125 251.09375 147.664062 250.535156 147.609375 250.128906 C 147.554688 249.714844 147.894531 249.046875 148.265625 248.8125 C 148.804688 248.46875 149.523438 248.339844 150.179688 248.261719 C 151.117188 248.15625 152.074219 248.101562 153.011719 248.167969 C 154.914062 248.28125 155.96875 245.679688 155.128906 244.265625 C 154.597656 243.367188 153.566406 242.683594 154.03125 241.273438 C 154.25 241.113281 154.550781 240.726562 154.894531 240.6875 C 157.492188 240.367188 158.285156 238.808594 157.933594 236.371094 C 157.144531 235.503906 156.269531 234.664062 155.554688 233.703125 C 155.304688 233.367188 155.257812 232.59375 155.480469 232.269531 C 155.710938 231.933594 156.425781 231.695312 156.847656 231.785156 C 157.625 231.945312 158.324219 232.453125 159.09375 232.683594 C 159.722656 232.875 160.410156 232.875 161.140625 232.964844 C 161.757812 232.382812 162.289062 231.757812 162.933594 231.292969 C 164.847656 229.90625 165.902344 228.417969 165.074219 225.792969 C 164.457031 223.847656 166.699219 220.585938 168.847656 219.789062 C 171.164062 218.921875 172.273438 217.390625 172.273438 215.023438 C 170.96875 214.035156 169.820312 214.457031 168.726562 215.035156 C 167.472656 215.703125 166.1875 215.910156 164.796875 215.675781 C 162.785156 215.34375 161.617188 213.34375 162.835938 211.8125 C 163.890625 210.492188 164.3125 208.972656 165.078125 207.574219 C 166.507812 204.949219 168.367188 202.597656 170.917969 200.953125 C 171.804688 200.378906 172.878906 200.074219 173.902344 199.757812 C 174.203125 199.664062 174.851562 199.859375 174.953125 200.089844 C 175.140625 200.527344 175.214844 201.15625 175.03125 201.570312 C 174.765625 202.167969 174.253906 202.667969 173.796875 203.164062 C 173.253906 203.753906 172.660156 204.296875 171.925781 205.019531 C 172.40625 205.863281 172.742188 206.769531 173.355469 207.398438 C 173.742188 207.789062 174.699219 208.101562 175.140625 207.894531 C 176.824219 207.117188 178.441406 207.367188 180.195312 207.421875 C 181.773438 207.46875 183.761719 206.535156 184.910156 205.382812 C 187.175781 203.101562 190.0625 201.960938 192.640625 200.269531 C 193.070312 199.984375 193.453125 199.628906 194.046875 199.160156 C 193.265625 198.550781 192.664062 198.046875 192.023438 197.59375 C 191.460938 197.199219 190.722656 196.792969 190.960938 196.0625 C 191.175781 195.40625 191.808594 194.886719 192.414062 194.101562 C 193.074219 194.785156 193.613281 195.1875 193.953125 195.722656 C 194.640625 196.8125 195.640625 197.429688 196.761719 197.972656 C 197.851562 198.5 198.84375 198.4375 199.824219 197.78125 C 200.164062 197.554688 200.507812 197.335938 200.816406 197.070312 C 202.324219 195.761719 203.933594 195.621094 205.710938 196.507812 C 206.277344 196.792969 206.957031 196.851562 207.730469 197.046875 C 208.875 195.023438 209.632812 193.292969 208.675781 190.921875 C 207.828125 188.832031 207.398438 186.601562 206.339844 184.523438 C 205.425781 182.726562 206.304688 180.683594 207.5 179.269531 C 209.882812 176.449219 214.351562 176.652344 216.835938 179.445312 C 219.402344 182.332031 218.460938 187.011719 214.960938 188.679688 C 214.597656 188.855469 214.183594 188.910156 213.796875 189.035156 C 212.195312 189.546875 211.429688 190.734375 211.167969 192.324219 C 210.929688 193.78125 210.683594 195.234375 210.421875 196.6875 C 210.226562 197.808594 210.726562 198.808594 211.847656 199.28125 C 213.59375 200.015625 215.371094 200.660156 217.105469 201.402344 C 218.246094 201.894531 219.253906 201.566406 220.191406 200.996094 C 221.113281 200.4375 221.929688 199.707031 222.832031 199.105469 C 223.238281 198.835938 223.738281 198.703125 224.324219 198.453125 C 224.65625 201.09375 221.824219 201.265625 221.296875 203.191406 C 222.710938 205.375 225.875 203.523438 227.089844 206.222656 C 228.304688 204.929688 229.0625 204.015625 229.9375 203.226562 C 230.90625 202.351562 232.679688 202.976562 232.734375 204.273438 C 232.785156 205.445312 232.480469 206.652344 232.238281 207.824219 C 232.164062 208.183594 231.734375 208.453125 231.523438 208.792969 C 230.214844 210.910156 230.242188 211.589844 231.957031 213.414062 C 232.878906 214.398438 233.886719 215.335938 234.972656 216.132812 C 237.144531 217.722656 238.710938 219.613281 239 222.425781 C 239.089844 223.347656 239.460938 224.265625 239.816406 225.136719 C 240.5625 226.980469 240.835938 228.796875 239.703125 230.371094 C 240.40625 231.917969 241 233.222656 241.628906 234.597656 C 242.015625 234.703125 242.523438 234.835938 243.011719 234.964844 C 243.328125 235.925781 242.414062 236.070312 242.089844 236.582031 C 241.773438 237.082031 242.101562 237.917969 241.253906 238.300781 C 240.429688 237.480469 239.628906 236.683594 238.78125 235.839844 C 237.023438 239.03125 234.722656 246.402344 234.113281 250.617188 C 235.132812 251.625 236.203125 252.601562 237.160156 253.683594 C 237.46875 254.03125 237.472656 254.644531 237.632812 255.203125 C 236.015625 255.640625 235.265625 254.433594 234.261719 253.894531 C 232.351562 252.867188 231.242188 253.003906 230.257812 254.960938 C 229.289062 256.871094 228.632812 258.960938 227.996094 261.023438 C 227.824219 261.574219 228.105469 262.359375 228.371094 262.941406 C 228.691406 263.652344 229.222656 264.261719 229.597656 264.824219 C 228.992188 266.957031 227.15625 267.519531 225.671875 268.714844 C 225.59375 269.234375 225.316406 269.921875 225.429688 270.542969 C 225.742188 272.273438 225.894531 273.988281 225.707031 275.738281 C 225.671875 276.0625 226.046875 276.429688 226.230469 276.769531 L 226.214844 276.609375 " fill-opacity="1" fill-rule="nonzero"/><path fill="#cb8e8c" d="M 317.980469 194.699219 C 319.449219 194.542969 320.917969 194.382812 322.53125 194.207031 C 322.796875 193.023438 322.945312 191.992188 323.265625 191.015625 C 324.292969 187.949219 327.445312 186.808594 330.570312 188.269531 C 333.121094 189.464844 333.648438 193.425781 331.703125 195.664062 C 330.230469 197.347656 327.8125 197.886719 325.796875 196.898438 C 324.957031 196.488281 324.1875 195.925781 323.257812 195.355469 C 321.671875 195.480469 319.953125 195.621094 318.238281 195.753906 C 318.152344 195.402344 318.066406 195.050781 317.980469 194.699219 " fill-opacity="1" fill-rule="nonzero"/><path fill="#cb8e8c" d="M 220.136719 326.402344 C 221.949219 330.539062 222.058594 334.496094 221.554688 338.480469 C 221.507812 338.832031 220.855469 339.28125 220.421875 339.371094 C 219.714844 339.511719 219.035156 339.121094 218.898438 338.390625 C 218.746094 337.621094 218.800781 336.804688 218.835938 336.011719 C 218.960938 333.34375 219.074219 330.675781 219.296875 328.011719 C 219.34375 327.453125 219.847656 326.933594 220.136719 326.402344 " fill-opacity="1" fill-rule="nonzero"/><path fill="#cb8e8c" d="M 128.84375 294.75 C 129.378906 296.644531 128.730469 297.863281 127.753906 298.796875 C 126.699219 299.8125 125.492188 300.714844 124.210938 301.421875 C 123.695312 301.710938 122.816406 301.339844 121.785156 301.230469 C 123.277344 297.84375 124.925781 295.261719 128.84375 294.75 " fill-opacity="1" fill-rule="nonzero"/><path fill="#cb8e8c" d="M 154.746094 290.761719 C 154.257812 291.183594 153.125 292.304688 151.851562 293.222656 C 151.390625 293.558594 150.5625 293.578125 149.964844 293.441406 C 149.632812 293.371094 149.125 292.582031 149.222656 292.304688 C 150.007812 290.085938 151.738281 288.605469 153.53125 287.214844 C 154.207031 286.695312 155.453125 286.796875 155.667969 287.40625 C 155.863281 287.953125 155.722656 288.636719 155.65625 289.253906 C 155.625 289.488281 155.394531 289.707031 154.746094 290.761719 " fill-opacity="1" fill-rule="nonzero"/><path fill="#cb8e8c" d="M 121.488281 268.886719 C 120.246094 270.882812 116.578125 272.625 114.507812 272.28125 C 113.917969 272.175781 113.382812 271.066406 113.808594 270.6875 C 115.6875 269.027344 117.46875 267.125 120.253906 267.167969 C 120.699219 267.171875 121.238281 267.515625 121.535156 267.867188 C 121.710938 268.078125 121.511719 268.613281 121.488281 268.886719 " fill-opacity="1" fill-rule="nonzero"/><path fill="#cb8e8c" d="M 176.574219 312.648438 C 174.988281 317.046875 172.953125 321.269531 171.109375 325.566406 C 171.058594 325.683594 170.636719 325.644531 170.152344 325.707031 C 169.792969 324.386719 169.976562 323.046875 170.570312 321.902344 C 172.242188 318.675781 174.070312 315.535156 175.832031 312.359375 C 176.082031 312.453125 176.328125 312.550781 176.574219 312.648438 " fill-opacity="1" fill-rule="nonzero"/><path fill="#cb8e8c" d="M 246.960938 240.265625 C 247.859375 240.898438 248.324219 242.132812 247.984375 243.074219 C 247.613281 244.113281 246.710938 244.460938 245.75 244.421875 C 244.984375 244.394531 244.15625 244.207031 243.492188 243.84375 C 242.34375 243.222656 242.332031 241.695312 243.355469 240.828125 C 244.730469 239.660156 245.871094 239.484375 246.960938 240.265625 " fill-opacity="1" fill-rule="nonzero"/><path fill="#cb8e8c" d="M 283.738281 229.816406 C 280.316406 230.445312 277.488281 229.910156 275.007812 227.53125 C 275.378906 227.183594 275.644531 226.714844 275.921875 226.710938 C 278.496094 226.621094 280.882812 227.472656 283.234375 228.378906 C 283.507812 228.480469 283.542969 229.21875 283.738281 229.816406 " fill-opacity="1" fill-rule="nonzero"/><path fill="#cb8e8c" d="M 209.863281 303.847656 C 210.410156 307.035156 211.332031 310.058594 210.597656 313.128906 C 210.507812 313.515625 210.332031 313.90625 210.097656 314.214844 C 209.96875 314.378906 209.617188 314.480469 209.394531 314.445312 C 209.164062 314.40625 208.808594 314.179688 208.78125 314 C 208.667969 313.21875 208.578125 312.421875 208.613281 311.640625 C 208.71875 309.484375 208.847656 307.332031 209.074219 305.1875 C 209.121094 304.71875 209.589844 304.289062 209.863281 303.847656 " fill-opacity="1" fill-rule="nonzero"/><path fill="#cb8e8c" d="M 242.398438 259.546875 C 242.136719 259.566406 241.628906 259.765625 241.410156 259.597656 C 240.820312 259.144531 239.980469 258.570312 239.914062 257.976562 C 239.792969 256.839844 240.078125 255.640625 240.320312 254.492188 C 240.464844 253.792969 241.730469 253.5625 242.351562 254.042969 C 243.652344 255.039062 243.746094 258.332031 242.398438 259.546875 " fill-opacity="1" fill-rule="nonzero"/><path fill="#cb8e8c" d="M 120.535156 256.242188 C 121.527344 255.53125 121.8125 255.199219 122.167969 255.089844 C 124.96875 254.222656 127.777344 253.390625 130.59375 252.59375 C 130.917969 252.503906 131.316406 252.691406 131.742188 252.753906 C 130.09375 254.34375 129.964844 254.660156 128.550781 254.859375 C 126.121094 255.203125 123.953125 256.921875 120.535156 256.242188 " fill-opacity="1" fill-rule="nonzero"/><path fill="#cb8e8c" d="M 72.199219 220.03125 C 76.191406 220.261719 79.660156 220.449219 83.128906 220.6875 C 83.484375 220.707031 83.828125 221.007812 84.160156 221.214844 C 84.253906 221.269531 84.265625 221.449219 84.40625 221.785156 C 83.742188 221.90625 83.113281 222.15625 82.511719 222.109375 C 79.304688 221.867188 76.101562 221.558594 72.902344 221.230469 C 72.753906 221.21875 72.648438 220.816406 72.199219 220.03125 " fill-opacity="1" fill-rule="nonzero"/><path fill="#cb8e8c" d="M 139.222656 153.253906 C 139.976562 153.253906 140.460938 153.101562 140.703125 153.277344 C 142.277344 154.433594 143.824219 155.644531 145.324219 156.898438 C 145.515625 157.0625 145.390625 157.605469 145.429688 158.210938 C 142.867188 157.113281 140.78125 155.789062 139.222656 153.253906 " fill-opacity="1" fill-rule="nonzero"/><path fill="#cb8e8c" d="M 288.382812 244.585938 C 294.765625 244.414062 295.003906 244.484375 295.941406 246.449219 C 293.269531 246.6875 292.597656 246.539062 288.382812 244.585938 " fill-opacity="1" fill-rule="nonzero"/><path fill="#cb8e8c" d="M 145.3125 215.316406 C 142.652344 214.585938 140.636719 214.03125 138.734375 213.507812 C 138.511719 212.464844 139.097656 212.289062 139.597656 212.328125 C 140.792969 212.40625 142.003906 212.519531 143.160156 212.804688 C 144.035156 213.015625 144.820312 213.527344 145.3125 215.316406 " fill-opacity="1" fill-rule="nonzero"/><path fill="#cb8e8c" d="M 84.457031 204.238281 C 87.167969 202.671875 88.992188 202.75 91.230469 204.285156 C 89.058594 205.453125 89.058594 205.453125 84.457031 204.238281 " fill-opacity="1" fill-rule="nonzero"/><path fill="#cb8e8c" d="M 226.847656 193.285156 C 227.765625 193.796875 228.171875 194.859375 227.757812 195.675781 C 227.238281 196.703125 225.992188 197.132812 225.007812 196.621094 C 224.210938 196.207031 223.96875 195.074219 224.476562 194.144531 C 225.015625 193.167969 225.992188 192.8125 226.847656 193.285156 " fill-opacity="1" fill-rule="nonzero"/><path fill="#cb8e8c" d="M 196.683594 155.753906 C 198.242188 157.476562 198.523438 159.523438 198.730469 161.5 C 197.90625 162.097656 197.578125 161.726562 197.367188 161.195312 C 196.675781 159.464844 196.066406 157.71875 196.683594 155.753906 " fill-opacity="1" fill-rule="nonzero"/><path fill="#cb8e8c" d="M 186.910156 191.789062 C 186.855469 191.3125 186.527344 190.503906 186.75 189.902344 C 187.105469 188.945312 188.589844 188.863281 189.570312 189.601562 C 190.175781 190.0625 190.355469 190.730469 190.050781 191.398438 C 189.625 192.335938 188.203125 192.601562 186.910156 191.789062 " fill-opacity="1" fill-rule="nonzero"/><path fill="#cb8e8c" d="M 79.582031 257.289062 C 81.496094 255.832031 83.75 255.71875 86.214844 255.441406 C 84.632812 257.238281 84.207031 257.378906 79.703125 257.808594 C 79.660156 257.632812 79.621094 257.460938 79.582031 257.289062 " fill-opacity="1" fill-rule="nonzero"/><path fill="#cb8e8c" d="M 79.703125 257.808594 C 78.527344 258.746094 77.183594 259.207031 75.695312 259.136719 C 75.375 259.117188 75.074219 258.785156 74.765625 258.589844 C 74.949219 258.304688 75.101562 257.789062 75.324219 257.753906 C 76.734375 257.539062 78.160156 257.429688 79.582031 257.289062 C 79.621094 257.460938 79.660156 257.632812 79.703125 257.808594 " fill-opacity="1" fill-rule="nonzero"/><path fill="#cb8e8c" d="M 174.289062 155.042969 C 173.382812 154.121094 172.457031 153.222656 171.589844 152.269531 C 171.335938 151.996094 171.257812 151.566406 170.96875 150.917969 C 171.554688 150.855469 172.148438 150.601562 172.40625 150.792969 C 173.730469 151.785156 174.175781 153.285156 174.289062 155.042969 " fill-opacity="1" fill-rule="nonzero"/><path fill="#cb8e8c" d="M 139.175781 220.800781 C 137.613281 221.746094 136.160156 221.710938 134.34375 220.570312 C 136.292969 219.566406 137.765625 219.597656 139.175781 220.800781 " fill-opacity="1" fill-rule="nonzero"/><path fill="#cb8e8c" d="M 235.230469 200.675781 C 235.226562 200.273438 234.984375 199.425781 235.265625 199.175781 C 235.65625 198.832031 236.480469 198.785156 237.058594 198.898438 C 237.699219 199.023438 237.808594 200.046875 237.304688 200.5625 C 236.789062 201.082031 236.195312 201.3125 235.230469 200.675781 " fill-opacity="1" fill-rule="nonzero"/><path fill="#cb8e8c" d="M 168.1875 341.359375 C 167.328125 339.636719 167.304688 339.609375 169.96875 338.417969 C 169.796875 339.761719 169.207031 340.679688 168.1875 341.359375 " fill-opacity="1" fill-rule="nonzero"/><g clip-path="url(#408d80bb51)"><path fill="#cb8e8c" d="M 39.914062 212.679688 C 38.363281 211.886719 37.644531 211.507812 36.757812 211.050781 C 38.121094 210.539062 38.539062 211.527344 39.914062 212.679688 " fill-opacity="1" fill-rule="nonzero"/></g><path fill="#cb8e8c" d="M 226.230469 276.769531 C 226.535156 276.546875 226.839844 276.320312 227.226562 276.035156 C 227.378906 276.4375 227.5625 276.757812 227.609375 277.089844 C 227.644531 277.300781 227.480469 277.546875 227.402344 277.777344 C 227.101562 277.628906 226.757812 277.539062 226.515625 277.328125 C 226.34375 277.183594 226.308594 276.875 226.21875 276.621094 C 226.214844 276.609375 226.230469 276.769531 226.230469 276.769531 " fill-opacity="1" fill-rule="nonzero"/><path fill="#cb8e8c" d="M 243.507812 301.242188 C 243.425781 301.214844 243.28125 301.195312 243.277344 301.171875 C 243.269531 301.070312 243.3125 300.960938 243.332031 300.859375 C 243.464844 300.902344 243.59375 300.949219 243.726562 300.992188 C 243.652344 301.078125 243.578125 301.160156 243.507812 301.242188 " fill-opacity="1" fill-rule="nonzero"/><path fill="#cb8e8c" d="M 68.125 265.222656 C 67.933594 265.332031 67.738281 265.433594 67.542969 265.546875 C 67.511719 265.429688 67.421875 265.25 67.457031 265.214844 C 67.609375 265.089844 67.800781 265.007812 67.976562 264.902344 C 68.023438 265.007812 68.074219 265.113281 68.125 265.222656 " fill-opacity="1" fill-rule="nonzero"/><path fill="#cb8e8c" d="M 278.226562 267.054688 C 278.011719 267.128906 277.804688 267.214844 277.59375 267.289062 C 277.582031 267.058594 277.484375 266.773438 277.582031 266.613281 C 277.679688 266.460938 277.980469 266.441406 278.191406 266.359375 C 278.203125 266.589844 278.214844 266.820312 278.226562 267.054688 " fill-opacity="1" fill-rule="nonzero"/></svg>