<svg xmlns="http://www.w3.org/2000/svg" xmlns:xlink="http://www.w3.org/1999/xlink" width="816" zoomAndPan="magnify" viewBox="0 0 612 791.999994" height="1056" preserveAspectRatio="xMidYMid meet" version="1.0"><defs><clipPath id="f902ba6f2f"><path d="M 56 111.652344 L 65 111.652344 L 65 123 L 56 123 Z M 56 111.652344 " clip-rule="nonzero"/></clipPath><clipPath id="d7b90ed732"><path d="M 602.121094 275.203125 L 606.679688 275.203125 L 606.679688 279 L 602.121094 279 Z M 602.121094 275.203125 " clip-rule="nonzero"/></clipPath><clipPath id="69566b6cb5"><path d="M 25.25 143.359375 L 538.675781 143.359375 L 538.675781 674.902344 L 25.25 674.902344 Z M 25.25 143.359375 " clip-rule="nonzero"/></clipPath><clipPath id="159f2bfbb0"><path d="M 12 94.972656 L 605 94.972656 L 605 665 L 12 665 Z M 12 94.972656 " clip-rule="nonzero"/></clipPath><clipPath id="e7562da5ee"><path d="M 196 677 L 211 677 L 211 691.972656 L 196 691.972656 Z M 196 677 " clip-rule="nonzero"/></clipPath></defs><path fill="#cb8e8c" d="M 146.148438 180.660156 C 144.878906 177.113281 144.550781 173.976562 145.359375 170.980469 C 144.386719 171.761719 143.398438 172.539062 142.390625 173.3125 C 121.875 190.179688 103.757812 209.835938 87.167969 230.550781 C 63.285156 262.691406 42.589844 297.246094 26.179688 333.777344 C 18.835938 352.355469 12.765625 371.433594 8.832031 391.003906 C 9.25 391.132812 9.652344 391.285156 10.085938 391.398438 C 18.160156 393.453125 26.445312 394.863281 34.722656 395.933594 C 43.273438 397.046875 46.476562 393.289062 44.789062 384.957031 C 44.058594 381.355469 44.039062 378.113281 46.535156 374.945312 C 51.90625 368.117188 52.195312 361.886719 46.394531 355.316406 C 42.417969 350.816406 42.832031 346.578125 43.570312 341.347656 C 45.332031 328.882812 50.1875 317.585938 55.875 306.628906 C 59.21875 300.179688 62.863281 293.167969 70.574219 291.167969 C 75.4375 289.90625 76.746094 286.992188 78.007812 283 C 79.148438 279.367188 78.574219 276.121094 77.546875 272.625 C 76.351562 268.554688 74.28125 263.960938 75.164062 260.199219 C 78.261719 247.042969 83.507812 234.679688 93.695312 225.160156 C 101.867188 217.523438 111.046875 211.261719 121.125 206.414062 C 128.535156 202.84375 135.351562 197.636719 144.484375 198.785156 C 147.570312 199.171875 149.507812 196.96875 148.632812 193.230469 C 147.652344 189.070312 147.574219 184.632812 146.148438 180.660156 " fill-opacity="1" fill-rule="nonzero"/><path fill="#cb8e8c" d="M 36.488281 525.371094 C 37.355469 523.570312 38.277344 521.78125 39.3125 520.015625 C 40.617188 517.789062 42.042969 515.640625 43.570312 513.570312 C 41.546875 511.675781 39.382812 509.886719 37.269531 508.167969 C 35.851562 507.011719 32.042969 507.34375 30.246094 508.460938 C 27.671875 510.066406 28.925781 513.089844 30.265625 515.277344 C 32.332031 518.648438 34.410156 522.007812 36.488281 525.371094 " fill-opacity="1" fill-rule="nonzero"/><path fill="#cb8e8c" d="M 27.492188 475.433594 C 26.925781 473.976562 26.28125 472.546875 25.675781 471.101562 C 26.957031 478.429688 24.363281 484.921875 21.652344 492.558594 C 19.164062 486.042969 16.957031 480.699219 15.070312 475.242188 C 11.941406 466.1875 8.890625 457.097656 6.058594 447.945312 C 5.488281 446.109375 5.0625 444.222656 4.679688 442.328125 C 3.667969 445.644531 2.378906 448.863281 0.867188 451.976562 C 0.640625 455.589844 0.425781 459.203125 0.214844 462.816406 C 0.160156 463.8125 0.273438 464.855469 0.519531 465.828125 C 2.730469 474.652344 5.046875 483.445312 7.207031 492.28125 C 8.339844 496.90625 12.273438 499.050781 15.558594 501.582031 C 16.59375 502.378906 19.402344 501.691406 20.898438 500.824219 C 22.246094 500.039062 22.902344 498.074219 23.960938 496.492188 C 26.339844 498.355469 28.585938 500.433594 31.164062 501.949219 C 32.003906 502.441406 34.789062 501.578125 34.832031 501.140625 C 35.1875 497.796875 37.558594 494.09375 34.597656 491.105469 C 30.214844 486.695312 29.574219 480.78125 27.492188 475.433594 " fill-opacity="1" fill-rule="nonzero"/><path fill="#cb8e8c" d="M 236.121094 127.613281 C 232.234375 128.332031 228.308594 129.816406 224.460938 129.621094 C 215.296875 129.164062 207.777344 131.542969 201.636719 138.734375 C 194.066406 147.597656 183.492188 149.089844 172.628906 148.992188 C 168.851562 148.960938 167.28125 145.621094 169.621094 142.59375 C 171.421875 140.257812 173.730469 137.894531 176.339844 136.679688 C 187.269531 131.597656 197.832031 125.285156 210.058594 123.816406 C 215.472656 123.171875 221.0625 123.636719 226.539062 124.046875 C 229.765625 124.28125 232.921875 125.394531 236.109375 126.113281 C 236.113281 126.613281 236.117188 127.113281 236.121094 127.613281 " fill-opacity="1" fill-rule="nonzero"/><path fill="#cb8e8c" d="M 60.222656 497.160156 C 57.019531 497.242188 53.59375 498.152344 49.828125 499.914062 C 44.597656 502.359375 43.574219 505.011719 47.15625 509.113281 C 51.03125 504.628906 55.417969 500.609375 60.222656 497.160156 " fill-opacity="1" fill-rule="nonzero"/><path fill="#cb8e8c" d="M 567.519531 332.933594 C 561.152344 333.054688 557.136719 330.539062 555.816406 325.597656 C 554.242188 319.671875 556.464844 315.558594 562.910156 312.492188 C 571.617188 308.347656 577 310.222656 579.722656 318.363281 C 582.46875 326.582031 578.523438 332.378906 569.796875 332.929688 C 569.042969 332.976562 568.277344 332.9375 567.519531 332.933594 " fill-opacity="1" fill-rule="nonzero"/><path fill="#cb8e8c" d="M 29.691406 550.421875 C 29.871094 548.273438 30.132812 546.132812 30.503906 544.007812 C 28.804688 542.066406 26.914062 540.265625 24.777344 538.660156 C 25.34375 540.679688 25.703125 542.8125 26.660156 544.632812 C 27.671875 546.5625 28.679688 548.492188 29.691406 550.421875 " fill-opacity="1" fill-rule="nonzero"/><path fill="#cb8e8c" d="M 598.722656 294.570312 C 598.601562 300.296875 593.546875 305.160156 587.878906 305.003906 C 580.398438 304.792969 574.492188 299.90625 574.726562 294.117188 C 574.992188 287.523438 579.382812 283.6875 586.300781 283.992188 C 593.769531 284.324219 598.847656 288.640625 598.722656 294.570312 " fill-opacity="1" fill-rule="nonzero"/><g clip-path="url(#f902ba6f2f)"><path fill="#cb8e8c" d="M 56.566406 114.894531 C 58.585938 113.835938 60.605469 112.777344 62.742188 111.65625 C 65.175781 118.804688 64.382812 120.402344 57.789062 122.523438 C 57.335938 119.859375 56.886719 117.238281 56.441406 114.617188 L 56.566406 114.894531 " fill-opacity="1" fill-rule="nonzero"/></g><path fill="#cb8e8c" d="M 130.429688 265.992188 C 126.246094 265.679688 125.277344 263.695312 125.386719 261.246094 C 125.515625 258.308594 127.894531 257.777344 130.234375 257.632812 C 132.667969 257.476562 134.507812 258.972656 133.90625 261.167969 C 133.359375 263.171875 131.355469 264.78125 130.429688 265.992188 " fill-opacity="1" fill-rule="nonzero"/><path fill="#cb8e8c" d="M 311.375 302.40625 C 309.777344 303.15625 308.902344 303.925781 308.171875 303.804688 C 307.523438 303.703125 307.046875 302.601562 306.492188 301.9375 C 307.226562 301.410156 307.9375 300.515625 308.699219 300.46875 C 309.335938 300.429688 310.035156 301.382812 311.375 302.40625 " fill-opacity="1" fill-rule="nonzero"/><g clip-path="url(#d7b90ed732)"><path fill="#cb8e8c" d="M 606.679688 277.480469 C 605.34375 278.25 604.679688 278.878906 603.945312 278.972656 C 603.539062 279.023438 602.570312 278.089844 602.640625 277.773438 C 602.8125 277.019531 603.445312 276.363281 603.890625 275.667969 C 604.601562 276.128906 605.308594 276.589844 606.679688 277.480469 " fill-opacity="1" fill-rule="nonzero"/></g><path fill="#cb8e8c" d="M 216.320312 219.4375 C 215.4375 220.113281 214.933594 220.503906 214.425781 220.894531 C 214.089844 220.394531 213.65625 219.921875 213.460938 219.367188 C 213.40625 219.207031 214.066406 218.550781 214.347656 218.578125 C 214.894531 218.628906 215.410156 219.011719 216.320312 219.4375 " fill-opacity="1" fill-rule="nonzero"/><path fill="#cb8e8c" d="M 282.675781 202.71875 C 282.589844 202.332031 282.503906 202.144531 282.53125 201.976562 C 282.542969 201.914062 282.808594 201.890625 282.960938 201.847656 C 282.882812 202.078125 282.808594 202.3125 282.675781 202.71875 " fill-opacity="1" fill-rule="nonzero"/><path fill="#cb8e8c" d="M 24.648438 538.191406 C 24.265625 538.007812 23.886719 537.828125 23.503906 537.644531 C 23.710938 537.457031 23.921875 537.269531 24.128906 537.082031 C 24.234375 537.515625 24.339844 537.953125 24.445312 538.386719 L 24.648438 538.191406 " fill-opacity="1" fill-rule="nonzero"/><path fill="#cb8e8c" d="M 56.441406 114.617188 C 56.566406 114.671875 56.695312 114.730469 56.824219 114.785156 C 56.746094 114.832031 56.675781 114.871094 56.585938 114.90625 L 56.441406 114.617188 " fill-opacity="1" fill-rule="nonzero"/><g clip-path="url(#69566b6cb5)"><path fill="#cb8e8c" d="M 302.972656 665.582031 L 302.960938 665.363281 L 310.09375 664.820312 L 310.113281 665.042969 Z M 291.621094 642.347656 L 291.492188 641.722656 L 295.234375 641.335938 L 295.550781 642.03125 Z M 289.335938 665.996094 L 285.089844 665.894531 L 285.078125 665.675781 L 289.324219 665.78125 L 293.570312 665.6875 L 293.582031 665.902344 Z M 253.375 640.234375 C 249.152344 639.0625 244.839844 638.230469 240.730469 636.8125 C 244.269531 637.324219 247.605469 637.515625 250.660156 637.898438 C 253.714844 638.300781 256.5625 638.46875 259.1875 638.6875 C 261.8125 638.902344 264.210938 639.199219 266.429688 639.414062 C 268.652344 639.574219 270.679688 639.777344 272.539062 640.015625 C 274.394531 640.257812 276.082031 640.535156 277.617188 640.855469 C 279.160156 641.09375 280.550781 641.382812 281.816406 641.71875 C 284.339844 642.398438 286.355469 643.277344 288.015625 644.363281 C 287.8125 644.433594 287.5625 644.601562 287.402344 644.570312 C 276.167969 642.648438 264.503906 642.761719 253.375 640.234375 Z M 187.535156 621.855469 C 187.910156 622.082031 188.117188 622.207031 187.535156 621.855469 Z M 53.859375 510.144531 C 52.523438 507.699219 51.453125 505.136719 50.234375 502.632812 L 50.683594 502.320312 C 51.804688 504.726562 52.816406 507.179688 54.023438 509.542969 Z M 34.035156 430.164062 C 33.746094 426.371094 33.5625 423.933594 33.402344 421.71875 C 34.625 424.21875 34.628906 424.1875 34.035156 430.164062 Z M 58.582031 311.441406 C 58.582031 311.441406 58.816406 311.363281 58.960938 311.3125 L 58.851562 311.925781 L 58.472656 312.386719 C 58.5 312.082031 58.519531 311.78125 58.582031 311.441406 Z M 68.039062 293.148438 L 68.714844 293.027344 C 68.648438 293.242188 68.621094 293.519531 68.511719 293.652344 C 68.285156 293.933594 68.015625 294.132812 67.761719 294.367188 Z M 89.601562 239.332031 L 90.207031 239.011719 C 90.144531 239.21875 90.078125 239.566406 90.011719 239.605469 C 89.726562 239.78125 89.433594 239.867188 89.144531 239.984375 Z M 221.816406 166.855469 L 222.125 167.300781 L 219.164062 168.5625 L 218.789062 168.035156 Z M 229.949219 164.78125 C 233.496094 163.566406 237.015625 162.148438 240.636719 161.09375 C 244.261719 160.039062 247.910156 158.957031 251.621094 158.070312 C 255.488281 157.277344 259.765625 157.457031 263.566406 156.582031 C 266.507812 156.039062 269.296875 155.828125 272.011719 155.929688 C 274.726562 156.015625 277.371094 156.453125 280.03125 157.402344 C 279.78125 159.152344 278.449219 159.554688 276.820312 159.582031 C 275.199219 159.675781 273.265625 159.425781 271.859375 159.730469 L 271.921875 159.761719 C 268.53125 159.261719 265.125 159.09375 261.773438 159.605469 C 258.417969 160.0625 255.085938 160.832031 251.769531 161.679688 C 247.050781 163.152344 242.292969 164.476562 237.511719 165.75 C 234.984375 166.453125 232.171875 166.394531 229.136719 166.714844 C 229.566406 165.628906 229.566406 164.914062 229.949219 164.78125 Z M 259.917969 161.585938 C 259.613281 161.601562 259.328125 161.417969 259.039062 161.324219 C 259.464844 161.21875 259.894531 161.050781 260.3125 161.019531 C 260.621094 161 260.910156 161.164062 261.261719 161.257812 C 260.753906 161.390625 260.328125 161.5625 259.917969 161.585938 Z M 284.410156 156.171875 C 284.46875 156.238281 284.484375 156.316406 284.503906 156.402344 L 284.046875 155.980469 C 284.167969 156.039062 284.34375 156.09375 284.410156 156.171875 Z M 295.535156 154.523438 C 293.367188 155.046875 293.554688 156.722656 293.097656 158.050781 C 292.871094 158.71875 292.484375 159.300781 291.578125 159.609375 C 290.667969 159.902344 289.238281 159.9375 286.90625 159.664062 C 288.207031 159.246094 288.886719 159.027344 289.769531 158.746094 C 288.035156 157.988281 286.332031 157.242188 284.625 156.496094 C 286.414062 156.132812 288.210938 155.726562 290.007812 155.394531 Z M 302.179688 155.367188 C 303.125 155.828125 304.167969 156.359375 304.113281 156.394531 C 303.5 156.910156 302.71875 157.308594 301.988281 157.8125 C 301.550781 157.519531 300.691406 157.183594 300.761719 156.945312 C 300.914062 156.449219 301.558594 156.003906 302.179688 155.367188 Z M 317.800781 155.9375 C 316.789062 157.515625 316.296875 158.304688 315.304688 158.226562 C 314.308594 158.191406 312.828125 157.316406 309.785156 155.554688 C 312.675781 155.683594 315.105469 155.652344 317.800781 155.9375 Z M 341.109375 158.097656 L 339.1875 159.171875 L 338.316406 158.515625 Z M 469.460938 235.589844 C 469.734375 235.621094 470.039062 235.722656 470.335938 235.800781 L 470.488281 236.730469 C 470.175781 236.511719 469.847656 236.316406 469.566406 236.0625 C 469.472656 235.976562 469.425781 235.582031 469.460938 235.589844 Z M 527.3125 452.3125 C 527.214844 453.097656 527.125 453.882812 527.085938 454.648438 C 526.976562 457 526.660156 459.304688 526.300781 461.601562 C 525.949219 463.902344 525.546875 466.191406 525.085938 468.472656 C 523.992188 472.992188 522.601562 477.476562 520.730469 481.886719 C 517.113281 489.976562 514.332031 498.8125 509.746094 506.3125 C 507.65625 509.753906 505.804688 513.320312 503.746094 516.796875 L 500.824219 522.097656 C 499.851562 523.867188 498.753906 525.570312 497.726562 527.304688 L 494.574219 532.464844 C 493.460938 534.140625 492.277344 535.761719 491.09375 537.378906 C 489.90625 538.988281 488.703125 540.578125 487.449219 542.117188 C 486.121094 543.609375 484.761719 545.054688 483.355469 546.449219 C 482.9375 546.867188 482.828125 547.773438 482.460938 548.414062 C 478.257812 555.585938 473.285156 562.355469 466.527344 567.203125 C 465.226562 568.207031 463.683594 569.300781 462.59375 570.582031 C 457.863281 576.210938 452.203125 581.074219 446.613281 585.875 C 441.015625 590.699219 435.441406 595.410156 430.613281 601.058594 C 430.300781 601.410156 429.84375 601.828125 429.441406 601.996094 C 426.363281 603.277344 423.878906 605.105469 421.425781 606.964844 C 418.972656 608.828125 416.699219 610.945312 414.308594 613.109375 C 412.625 614.578125 410.527344 615.808594 408.351562 616.964844 C 406.160156 618.089844 403.914062 619.191406 401.675781 619.972656 C 389.382812 624.90625 376.679688 628.148438 364.007812 630.730469 C 350.039062 633.5625 336.152344 635.960938 322.03125 638.488281 C 317.671875 639.183594 313.234375 640.128906 308.851562 640.027344 C 305.726562 639.984375 302.628906 640.121094 299.519531 639.882812 L 290.238281 639.289062 C 284.074219 638.585938 277.945312 638.027344 271.875 636.945312 C 270.226562 636.6875 268.527344 636.578125 266.820312 636.523438 C 265.109375 636.453125 263.402344 636.300781 261.703125 636.175781 C 257.828125 635.863281 253.9375 635.699219 250.082031 635.148438 C 238.683594 633.953125 227.410156 631.558594 216.257812 628.699219 C 214.148438 628.140625 212.066406 627.542969 210.023438 626.890625 C 208.007812 626.164062 206.046875 625.320312 204.121094 624.449219 C 202.203125 623.542969 200.296875 622.667969 198.511719 621.542969 C 196.734375 620.414062 195.003906 619.214844 193.34375 617.917969 C 191.859375 616.757812 189.605469 615.796875 187.765625 615.167969 C 184.613281 614.171875 181.242188 613.265625 178.238281 612.992188 C 174.859375 612.582031 172.113281 611.378906 169.289062 609.082031 C 167.984375 608.0625 166.441406 607.117188 164.996094 606.15625 L 165.023438 606.21875 C 160.78125 600.714844 153.53125 599.050781 148.601562 594.269531 C 147.675781 593.324219 145.460938 593.199219 143.824219 592.683594 C 145.226562 595.171875 146.898438 597.238281 148.988281 598.675781 C 151.886719 600.640625 154.855469 602.5 157.804688 604.363281 C 160.84375 606.09375 163.84375 607.851562 166.71875 609.800781 C 171.84375 612.941406 176.796875 616.273438 182.523438 617.972656 C 184.804688 618.695312 186.546875 619.746094 187.175781 621.597656 C 183.585938 620.085938 179.925781 618.679688 176.382812 616.980469 C 164.871094 611.085938 153.894531 604.125 143.441406 596.4375 C 140.984375 594.570312 138.429688 592.003906 135.675781 592.570312 L 135.089844 592.101562 C 132.84375 590.410156 130.53125 588.796875 128.210938 587.179688 C 125.9375 585.507812 123.726562 583.753906 121.527344 581.960938 C 120.441406 581.058594 119.335938 580.160156 118.308594 579.179688 C 117.300781 578.183594 116.3125 577.160156 115.359375 576.09375 C 113.476562 573.949219 111.601562 571.765625 110.164062 569.183594 C 109.59375 568.1875 108.46875 567.304688 107.605469 566.363281 C 103.535156 562.121094 99.683594 557.644531 96.132812 552.976562 C 87.679688 541.148438 80.605469 528.441406 74.496094 515.363281 C 66.398438 498.339844 60.652344 480.324219 56.609375 462.023438 C 55.945312 459.089844 55.28125 456.15625 54.828125 453.175781 C 54.339844 450.207031 53.769531 447.253906 53.335938 444.277344 C 52.609375 438.296875 51.777344 432.339844 51.457031 426.324219 C 51.21875 423.320312 50.976562 420.320312 50.964844 417.308594 L 50.742188 408.28125 C 50.917969 402.265625 50.890625 396.234375 51.453125 390.234375 C 51.597656 388.246094 51.792969 386.238281 51.984375 384.230469 C 52.28125 382.238281 52.5625 380.234375 52.773438 378.238281 C 52.980469 376.238281 53.109375 374.242188 53.101562 372.242188 C 53.191406 370.257812 53.140625 368.273438 52.882812 366.28125 C 52.714844 364.988281 53.128906 363.269531 53.378906 361.761719 C 56.367188 345.433594 60.984375 329.355469 67.445312 314 C 72.34375 302.273438 78.410156 291.054688 85.152344 280.292969 C 87.308594 276.953125 89.429688 273.585938 91.828125 270.410156 C 94.15625 267.183594 96.40625 263.914062 98.828125 260.773438 C 109.316406 246.417969 121.191406 232.875 135.179688 221.574219 C 138.5625 219.015625 141.894531 216.339844 145.253906 213.722656 C 148.699219 211.226562 151.964844 208.492188 155.28125 205.917969 C 157.660156 204.078125 160.175781 202.390625 162.738281 200.773438 C 165.34375 199.222656 168.050781 197.832031 170.695312 196.351562 C 173.316406 194.828125 176.03125 193.507812 178.628906 191.980469 C 181.230469 190.476562 183.695312 188.726562 186.152344 186.980469 C 187.230469 186.179688 188.96875 185.773438 190.398438 185.199219 C 191.601562 184.71875 192.902344 184.3125 194.136719 183.871094 C 195.390625 183.449219 196.601562 183.042969 197.597656 182.425781 C 204.535156 178.089844 212.09375 176.019531 220.152344 174.066406 C 235.121094 170.414062 250.320312 166.535156 265.851562 164.746094 C 271.476562 164.238281 277.085938 163.167969 282.753906 163.207031 C 296.792969 162.992188 310.839844 164.015625 324.640625 166.351562 C 336.921875 168.425781 349.054688 171.25 360.914062 174.96875 C 377.203125 179.980469 393.464844 185.890625 407.949219 195.074219 C 410.320312 196.617188 412.902344 197.917969 415.40625 199.296875 C 425.644531 205.320312 435.53125 211.976562 444.933594 219.300781 C 446.519531 220.535156 448.304688 222.054688 449.898438 222.640625 C 452.28125 223.550781 454.550781 224.636719 456.59375 225.992188 C 458.609375 227.386719 460.480469 228.953125 462.222656 230.65625 C 463.097656 231.507812 463.941406 232.390625 464.75 233.304688 C 465.539062 234.246094 466.273438 235.238281 466.996094 236.242188 C 468.433594 238.253906 469.769531 240.355469 471.035156 242.511719 L 471.015625 242.4375 C 473.507812 244.992188 475.902344 247.644531 478.28125 250.308594 C 479.285156 251.398438 480.675781 253.03125 480.726562 253.921875 C 480.941406 256.859375 482.292969 259.359375 484.054688 261.515625 C 485.832031 263.660156 487.8125 265.625 489.582031 267.191406 C 493.78125 270.875 496.042969 275.347656 497.960938 279.554688 C 502.371094 289.980469 507.851562 299.746094 512.199219 310.171875 C 513.914062 313.832031 515.359375 317.605469 516.953125 321.324219 C 519.851562 319.554688 522.820312 318.050781 525.875 316.773438 C 525.191406 315.34375 524.375 313.957031 523.441406 312.625 C 521.871094 310.28125 520.484375 307.988281 519.519531 305.59375 C 518.515625 303.214844 517.890625 300.75 517.3125 298.308594 C 515.882812 292.847656 513.289062 288.046875 510.292969 283.246094 C 506.90625 277.339844 502.015625 274.285156 498.027344 269.621094 L 496.601562 269.230469 L 497.128906 268.261719 C 495.683594 265.800781 493.46875 263.109375 492.945312 260.921875 C 492.226562 257.671875 490.402344 254.847656 488.464844 252.042969 C 487.476562 250.652344 486.480469 249.253906 485.492188 247.867188 C 484.484375 246.492188 483.449219 245.152344 482.5625 243.742188 C 480.527344 240.546875 477.523438 237.5625 474.726562 234.695312 L 474.78125 234.714844 L 472.105469 233.046875 L 474.308594 232.875 L 474.242188 232.863281 C 472.914062 228.0625 472.988281 228.042969 468.800781 226.917969 C 467.410156 226.542969 465.074219 225.640625 464.453125 224.734375 C 461.164062 219.710938 455.789062 216.253906 452.097656 211.621094 C 451.648438 211.109375 451.472656 210.5 451.070312 209.753906 C 448.949219 209.304688 447.03125 209.066406 445.039062 208.441406 C 443.820312 208.058594 441.988281 207.203125 441.257812 206.3125 C 438.242188 202.9375 434.871094 199.875 431.207031 197.148438 C 427.433594 194.582031 423.535156 192.070312 419.285156 190.042969 C 416.257812 188.605469 413.445312 186.339844 410.570312 184.410156 C 406.757812 182.0625 403.417969 179.195312 399.792969 176.625 C 396.117188 174.183594 392.339844 171.652344 387.722656 170.195312 C 385.261719 169.421875 382.8125 168.617188 380.375 167.785156 C 377.953125 166.90625 375.449219 166.253906 373 165.441406 C 371.320312 164.898438 369.6875 164.121094 368.003906 163.65625 C 364.722656 162.714844 361.285156 162.832031 358.308594 160.554688 C 357.570312 160.007812 354.402344 159.65625 353.644531 160.070312 C 351.070312 161.527344 348.570312 160.480469 345.710938 159.347656 C 344.328125 158.804688 342.785156 158.441406 341.3125 157.996094 C 340.695312 157.332031 340.074219 156.667969 339.292969 155.824219 C 342.535156 155.820312 345.5625 156.171875 348.5625 156.324219 C 351.550781 156.546875 354.496094 156.664062 357.390625 157.0625 L 357.488281 156.027344 C 353.171875 154.128906 348.808594 152.417969 344.238281 150.980469 C 340.125 149.792969 335.921875 148.910156 331.71875 147.933594 C 327.507812 147.007812 323.226562 146.453125 318.957031 145.78125 C 315.652344 145.230469 312.28125 145.210938 308.9375 144.992188 L 303.910156 144.726562 C 302.238281 144.636719 300.5625 144.65625 298.894531 144.574219 C 290.5625 144.121094 282.195312 143.660156 273.839844 144.117188 C 270.519531 144.382812 267.207031 144.816406 263.914062 145.296875 C 260.625 145.804688 257.371094 146.589844 254.105469 147.179688 L 254.160156 147.136719 C 251.449219 147.351562 248.714844 147.695312 246.054688 147.945312 C 242.445312 148.226562 238.824219 148.289062 235.8125 150.21875 L 235.847656 150.1875 C 229.277344 151.390625 222.5625 152.234375 216.167969 154.257812 C 210.765625 155.734375 205.5625 157.816406 200.328125 159.769531 C 197.707031 160.722656 195.191406 161.953125 192.621094 163.039062 C 190.082031 164.195312 187.476562 165.191406 184.996094 166.46875 C 183.503906 167.203125 181.992188 168.09375 180.480469 168.578125 C 167.746094 172.679688 156.035156 179.371094 145.398438 187.542969 L 141.914062 190.101562 L 138.496094 192.765625 C 136.191406 194.5 133.878906 196.234375 131.566406 197.972656 C 127.082031 201.625 122.34375 204.976562 117.90625 208.722656 L 112.578125 213.074219 C 110.84375 214.574219 109.167969 216.148438 107.472656 217.695312 C 105.792969 219.261719 104.089844 220.808594 102.453125 222.417969 L 97.703125 227.410156 C 96.378906 228.78125 95.03125 230.175781 93.683594 231.570312 C 92.382812 233.011719 91.101562 234.464844 89.90625 235.960938 C 88.710938 237.453125 87.617188 238.988281 86.699219 240.582031 C 85.792969 242.191406 85.15625 243.925781 84.742188 245.703125 C 84.609375 246.261719 83.875 247.414062 83.4375 247.675781 C 78.085938 250.78125 76.496094 256.414062 73.835938 261.203125 L 73.855469 261.113281 C 72.855469 263.71875 71.769531 265.894531 69.421875 266.242188 C 67.074219 268.601562 65.660156 271.046875 64.867188 273.636719 C 64.101562 276.25 63.820312 278.929688 63.492188 281.660156 C 65.46875 278.710938 67.289062 275.671875 69.394531 272.816406 L 75.628906 264.242188 C 61.773438 287.441406 50.800781 312.113281 43.738281 337.921875 C 41.835938 344.332031 40.472656 350.878906 38.972656 357.390625 C 37.796875 363.964844 36.496094 370.523438 35.734375 377.167969 C 34.019531 390.414062 33.085938 403.800781 33.351562 417.203125 C 32.605469 415.671875 32.230469 414.019531 32.210938 412.382812 C 32.195312 411.164062 32.285156 409.945312 32.371094 408.726562 C 32.511719 407.511719 32.648438 406.300781 32.65625 405.089844 C 32.535156 390.269531 33.191406 375.429688 36.8125 360.703125 C 40.148438 347.105469 42.191406 332.667969 46.398438 318.851562 C 46.847656 317.496094 46.628906 316.019531 46.699219 314.585938 C 46.019531 316.167969 45.375 317.878906 44.746094 319.53125 C 44.144531 321.246094 43.492188 322.867188 42.644531 324.136719 C 40.46875 327.394531 38.777344 330.992188 37.589844 334.777344 C 36.367188 338.558594 35.113281 342.371094 34.070312 346.191406 C 33.035156 349.777344 31.851562 353.351562 30.953125 356.996094 C 30.089844 360.648438 29.285156 364.324219 28.605469 368.019531 C 26.007812 384.296875 25.242188 400.828125 25.84375 417.25 C 25.886719 422.25 26.179688 427.292969 26.816406 432.199219 C 29.285156 448.773438 32.101562 465.164062 36.070312 481.464844 C 36.558594 483.46875 37.136719 485.46875 37.828125 487.441406 C 38.59375 489.386719 39.363281 491.335938 40.125 493.265625 C 42.152344 498.722656 44.886719 503.855469 47.136719 509.195312 C 50.246094 516.027344 53.1875 522.964844 56.765625 529.582031 C 61.125 537.9375 66.273438 545.832031 71.335938 553.738281 C 78.917969 565.285156 87.117188 576.453125 96.320312 586.824219 C 100.015625 590.808594 103.699219 594.824219 107.699219 598.515625 C 109.679688 600.382812 111.585938 602.324219 113.609375 604.140625 L 119.667969 609.601562 C 132.035156 620.710938 145.148438 631.183594 159.644531 639.664062 L 163.234375 641.785156 L 166.921875 643.734375 L 174.324219 647.59375 L 181.910156 651.074219 C 184.4375 652.242188 186.980469 653.382812 189.585938 654.363281 L 197.359375 657.421875 C 199.964844 658.40625 202.625 659.234375 205.257812 660.144531 C 210.5 662.035156 215.894531 663.441406 221.238281 665 C 224.265625 665.917969 227.378906 666.515625 230.4375 667.292969 C 233.515625 668.03125 236.585938 668.796875 239.703125 669.324219 L 249.023438 671.097656 L 258.417969 672.429688 C 276.257812 674.773438 294.410156 675.824219 312.363281 674.027344 L 317 673.578125 L 321.613281 672.902344 C 324.683594 672.429688 327.761719 672.007812 330.8125 671.457031 C 336.886719 670.167969 342.984375 669.042969 348.945312 667.3125 C 360.941406 664.234375 372.601562 660.019531 383.941406 655.238281 C 387.3125 653.722656 390.71875 652.316406 393.984375 650.609375 L 403.75 645.5 C 406.929688 643.65625 410.117188 641.832031 413.324219 640.050781 C 416.523438 638.246094 419.632812 636.273438 422.871094 634.488281 C 425.664062 632.992188 428.273438 631.175781 430.902344 629.40625 C 433.515625 627.613281 436.152344 625.855469 438.609375 623.863281 C 445.605469 618.53125 452.3125 612.839844 458.492188 606.699219 C 460.570312 604.605469 462.175781 602.199219 463.90625 599.90625 C 464.667969 598.835938 465.191406 597.664062 466.0625 596.691406 C 468.902344 593.503906 471.84375 590.417969 474.503906 587.074219 C 477.226562 583.792969 479.9375 580.535156 482.300781 577.035156 C 486.386719 571.425781 489.4375 565.324219 492.941406 559.460938 C 494.691406 556.226562 496.460938 552.96875 498.226562 549.703125 C 499.902344 546.402344 501.617188 543.136719 503.597656 540.054688 C 510.179688 529.21875 516.722656 518.289062 522.164062 506.722656 C 522.683594 505.527344 523.140625 504.175781 523.355469 502.957031 C 524.085938 498.640625 525.929688 495.058594 528.011719 491.328125 C 529.402344 488.929688 530.789062 486.21875 531.679688 483.46875 C 534.351562 474.59375 537.828125 465.6875 538.058594 456.3125 C 534.414062 455.289062 530.8125 453.933594 527.3125 452.3125 " fill-opacity="1" fill-rule="nonzero"/></g><path fill="#cb8e8c" d="M 499.117188 274.648438 L 499.113281 274.570312 L 499.117188 274.648438 " fill-opacity="1" fill-rule="nonzero"/><path fill="#cb8e8c" d="M 328.84375 153.046875 L 328.890625 153.082031 L 330.449219 153.359375 L 330.507812 153.335938 L 328.84375 153.046875 " fill-opacity="1" fill-rule="nonzero"/><path fill="#cb8e8c" d="M 333.550781 661.128906 L 333.683594 661.328125 C 333.441406 661.367188 333.191406 661.425781 332.953125 661.445312 L 332.824219 661.25 C 333.066406 661.207031 333.308594 661.148438 333.550781 661.128906 " fill-opacity="1" fill-rule="nonzero"/><path fill="#cb8e8c" d="M 225.09375 638.261719 L 225.585938 638.226562 L 225.621094 638.515625 Z M 225.09375 638.261719 " fill-opacity="1" fill-rule="nonzero"/><path fill="#cb8e8c" d="M 185.5 625.070312 L 185.136719 624.730469 L 185.582031 624.765625 Z M 185.5 625.070312 " fill-opacity="1" fill-rule="nonzero"/><path fill="#cb8e8c" d="M 80.113281 285.539062 L 80.40625 285.027344 L 80.476562 285.414062 Z M 80.113281 285.539062 " fill-opacity="1" fill-rule="nonzero"/><path fill="#cb8e8c" d="M 288.367188 161.140625 C 288.523438 161.101562 288.746094 161.136719 288.941406 161.140625 C 288.921875 161.238281 288.953125 161.398438 288.871094 161.421875 C 288.714844 161.46875 288.492188 161.433594 288.300781 161.429688 C 288.316406 161.328125 288.285156 161.167969 288.367188 161.140625 " fill-opacity="1" fill-rule="nonzero"/><path fill="#cb8e8c" d="M 426.972656 196.414062 L 426.996094 196.082031 C 427.171875 196.25 427.347656 196.421875 427.59375 196.65625 C 427.308594 196.546875 427.136719 196.480469 426.972656 196.414062 " fill-opacity="1" fill-rule="nonzero"/><path fill="#cb8e8c" d="M 98.101562 548.253906 C 96.089844 546.167969 94.574219 544.84375 93.332031 543.261719 C 91.292969 540.714844 89.519531 537.972656 87.617188 535.308594 C 85.691406 532.65625 84.03125 529.835938 82.390625 527.007812 C 81.339844 525.152344 80.300781 523.285156 79.460938 521.316406 L 76.972656 515.414062 C 76.367188 513.96875 75.71875 512.542969 75.175781 511.078125 L 73.589844 506.65625 C 72.550781 503.710938 71.378906 500.828125 70.402344 497.855469 C 66.039062 486.367188 62.671875 474.523438 60.019531 462.558594 C 59.597656 460.613281 59.050781 458.695312 58.480469 456.773438 C 57.960938 454.84375 57.515625 452.890625 57.113281 450.929688 C 56.703125 448.890625 55.8125 446.433594 57.625 444.792969 C 58.160156 445.992188 58.878906 447.09375 59.160156 448.324219 C 59.703125 450.859375 60.246094 453.402344 60.792969 455.945312 L 62.765625 463.480469 C 65.808594 474.167969 69.636719 484.570312 74.027344 494.714844 L 75.847656 499.304688 L 77.753906 503.871094 C 78.984375 506.941406 80.140625 510.046875 81.5625 513.03125 L 84.171875 518.941406 C 85.054688 520.910156 86.066406 522.808594 87.003906 524.753906 C 87.972656 526.679688 88.875 528.648438 89.902344 530.554688 L 93.085938 536.210938 C 93.839844 537.546875 94.441406 538.617188 94.933594 539.570312 C 95.449219 540.5 95.886719 541.289062 96.242188 542.105469 C 96.964844 543.734375 97.4375 545.417969 98.101562 548.253906 " fill-opacity="1" fill-rule="nonzero"/><path fill="#cb8e8c" d="M 51.3125 305.535156 C 50.890625 307.691406 50.019531 309.355469 48.742188 308.949219 C 48.277344 308.804688 48.132812 306.503906 48.617188 305.449219 C 49.753906 302.769531 51.285156 300.234375 52.855469 297.277344 C 55.046875 299.988281 50.796875 303.292969 51.316406 305.613281 L 51.3125 305.535156 " fill-opacity="1" fill-rule="nonzero"/><path fill="#cb8e8c" d="M 388.992188 167.273438 C 390.292969 167.828125 391.585938 168.398438 392.84375 169.046875 L 392.628906 169.589844 C 391.308594 168.96875 389.957031 168.429688 388.597656 167.902344 L 388.992188 167.273438 " fill-opacity="1" fill-rule="nonzero"/><path fill="#cb8e8c" d="M 412.832031 179.550781 C 412.746094 179.648438 412.703125 179.839844 412.570312 179.824219 C 412.359375 179.796875 412.085938 179.628906 411.835938 179.523438 L 412.183594 179.101562 L 412.832031 179.550781 " fill-opacity="1" fill-rule="nonzero"/><path fill="#cb8e8c" d="M 374.042969 162.671875 C 374.222656 162.570312 374.3125 162.449219 374.457031 162.460938 C 374.578125 162.472656 374.753906 162.632812 374.910156 162.726562 C 374.652344 162.710938 374.390625 162.691406 374.042969 162.671875 " fill-opacity="1" fill-rule="nonzero"/><path fill="#cb8e8c" d="M 73.855469 261.113281 L 73.070312 261.28125 C 73.203125 261.214844 73.359375 261.097656 73.46875 261.089844 C 73.605469 261.078125 73.714844 261.160156 73.835938 261.203125 L 73.855469 261.113281 " fill-opacity="1" fill-rule="nonzero"/><path fill="#cb8e8c" d="M 46.765625 314.425781 L 46.4375 314.109375 L 46.703125 314.488281 Z M 46.765625 314.425781 " fill-opacity="1" fill-rule="nonzero"/><path fill="#cb8e8c" d="M 254.160156 147.136719 L 254.101562 147.179688 L 254.160156 147.136719 " fill-opacity="1" fill-rule="nonzero"/><path fill="#cb8e8c" d="M 69.445312 266.21875 L 69.378906 266.253906 L 69.445312 266.21875 " fill-opacity="1" fill-rule="nonzero"/><path fill="#cb8e8c" d="M 474.242188 232.863281 L 474.726562 234.695312 L 474.78125 234.714844 L 474.308594 232.875 L 474.242188 232.863281 " fill-opacity="1" fill-rule="nonzero"/><path fill="#cb8e8c" d="M 497.136719 268.277344 C 497.460938 268.703125 497.726562 269.167969 498.023438 269.609375 L 498.078125 269.632812 C 497.765625 269.164062 497.484375 268.679688 497.148438 268.226562 L 497.136719 268.277344 " fill-opacity="1" fill-rule="nonzero"/><g clip-path="url(#159f2bfbb0)"><path fill="#9e8cb0" d="M 307.289062 664.507812 C 385.570312 663.296875 462.898438 632.058594 504.496094 565.9375 C 505.707031 564.796875 506.90625 563.632812 508.101562 562.460938 C 515.851562 554.933594 523.152344 546.972656 529.976562 538.585938 C 539.089844 527.40625 547.378906 515.496094 554.742188 502.929688 C 562.105469 501.757812 568.550781 464.671875 573.964844 463.347656 C 579.375 450.769531 583.765625 445.597656 587.023438 420.375 C 589.597656 414.558594 591.496094 394.6875 592.652344 389.898438 C 594.578125 368.777344 594.4375 352.285156 591.980469 338.726562 C 589.527344 314.011719 584.753906 311.851562 577.390625 288.921875 C 570.027344 282.84375 560.082031 263.496094 547.285156 242.582031 C 541.378906 242.527344 534.789062 222.792969 527.488281 222.792969 C 526.828125 222.792969 526.171875 222.945312 525.503906 223.292969 C 525.199219 223.335938 524.890625 223.359375 524.578125 223.359375 C 516.722656 223.359375 508.089844 209.542969 498.625 208.402344 C 494.566406 205.941406 490.558594 203.550781 486.597656 201.183594 C 477.132812 192.859375 467.113281 185.121094 456.644531 178.078125 C 454.445312 176.597656 452.222656 175.148438 449.988281 173.730469 C 431.703125 153.023438 408.980469 137.015625 379.304688 129.015625 C 370.882812 126.410156 362.203125 124.394531 353.40625 122.808594 C 335.5 119.589844 317.113281 118.117188 298.875 118.117188 C 272.273438 118.117188 246.007812 121.242188 222.070312 126.628906 C 168.429688 138.699219 117.46875 166.796875 83.765625 210.738281 C 73.257812 224.425781 64.347656 239.078125 56.953125 254.421875 C 53.246094 262.101562 49.589844 270.332031 44.792969 280.585938 C 20.4375 326.246094 20.859375 375.964844 35.347656 422.929688 C 39.992188 458.726562 50.21875 494.476562 62.203125 527.4375 C 67.121094 536.527344 72.5625 545.285156 78.5 553.675781 C 89.679688 569.488281 102.605469 583.980469 116.988281 596.867188 C 112.671875 593.273438 108.464844 589.558594 104.375 585.710938 C 104.289062 585.941406 104.144531 586.125 103.871094 586.125 C 103.847656 586.125 103.824219 586.125 103.800781 586.125 C 102.503906 585.964844 101.714844 585.097656 101.707031 583.792969 C 101.707031 583.609375 101.824219 583.496094 101.960938 583.425781 C 81.816406 564.0625 64.515625 541.746094 50.769531 517.183594 C 46.375 509.273438 42.839844 501.617188 40.480469 494.914062 C 19.601562 434.011719 -0.00390625 368.640625 23.65625 305.890625 C 27.992188 291.851562 32.183594 279.878906 37.09375 268.285156 C 80.179688 166.40625 181.027344 94.925781 298.578125 94.925781 C 320.34375 94.925781 341.539062 97.378906 361.902344 102.015625 C 368.683594 103.5625 375.375 105.363281 381.949219 107.441406 C 425.714844 127.996094 470.476562 155.429688 509.71875 189.503906 C 517.566406 196.316406 525.199219 203.390625 532.554688 210.730469 C 567.523438 246.613281 593.664062 295.644531 596.9375 347.941406 C 596.9375 344.667969 600.199219 341.402344 600.199219 338.128906 C 606.738281 357.742188 603.472656 374.089844 603.472656 393.699219 L 600.199219 390.425781 C 590.402344 426.382812 590.402344 465.605469 573.214844 497.304688 C 568.792969 504.46875 563.714844 511.367188 557.722656 517.902344 C 554.449219 517.902344 551.179688 514.632812 547.914062 514.632812 C 546.285156 527.703125 543.066406 539.507812 538.527344 550.183594 C 535.082031 558.273438 530.875 565.730469 526.023438 572.605469 C 524.667969 570.691406 523.472656 569.878906 522.453125 569.878906 C 519.695312 569.878906 518.21875 575.800781 518.210938 581.726562 C 518.210938 581.75 518.210938 581.773438 518.210938 581.800781 C 460.117188 635.394531 383.871094 664.230469 307.289062 664.507812 M 498.976562 559.5625 C 499.117188 558.886719 499.414062 558.375 499.78125 557.929688 C 499.613281 558.359375 499.453125 558.796875 499.300781 559.226562 C 499.191406 559.332031 499.085938 559.457031 498.976562 559.5625 M 499.78125 557.929688 C 503.199219 548.933594 508.53125 539.828125 506.65625 529.34375 C 509.113281 524.042969 509.039062 519.089844 508.886719 514.332031 C 513.167969 507.34375 517.015625 500.085938 520.539062 492.644531 C 522.929688 485.960938 525.273438 479.300781 527.582031 472.65625 C 538.117188 442.730469 541.378906 410.039062 544.644531 377.351562 C 541.378906 380.625 541.378906 387.164062 541.378906 390.425781 C 538.117188 370.816406 538.117188 351.203125 528.308594 334.867188 C 528.308594 338.128906 528.308594 344.667969 528.308594 347.941406 C 518.507812 315.253906 508.699219 282.570312 495.332031 249.632812 C 491.03125 239.808594 486.488281 230.152344 481.578125 220.824219 C 485.101562 223.964844 488.535156 227.199219 491.875 230.527344 C 530.980469 269.179688 563.523438 324.535156 568.511719 380.097656 C 569.515625 391.214844 569.40625 402.335938 568.035156 413.332031 C 567.523438 439.457031 554.449219 459.070312 543.730469 480.863281 C 540.199219 488.964844 536.390625 496.875 532.332031 504.539062 C 551.179688 478.679688 564.25 449.261719 568.242188 417.042969 C 569.730469 407.324219 570.394531 397.445312 570.304688 387.523438 C 569.738281 327.976562 541.695312 266.652344 498.042969 228.066406 C 492.011719 223.398438 485.539062 219.121094 478.597656 215.296875 C 470.429688 200.46875 461.234375 186.582031 450.5 174.320312 C 461.960938 183.105469 473.28125 191.847656 485.429688 200.484375 C 485.820312 200.722656 486.207031 200.953125 486.597656 201.183594 C 489.738281 203.949219 492.808594 206.769531 495.820312 209.65625 C 496.019531 209.644531 496.210938 209.636719 496.410156 209.636719 C 504.25 209.636719 511.636719 223.535156 518.5 234.121094 C 533.480469 239.117188 545.433594 276.585938 554.582031 281.664062 C 563.585938 298.125 569.867188 333.300781 573.652344 333.300781 C 573.714844 333.300781 573.773438 333.296875 573.835938 333.28125 C 577.605469 364.539062 578.785156 356.828125 577.613281 386.535156 C 576.910156 399.269531 575.351562 396.128906 573 418.261719 C 569.214844 434.921875 564.21875 471.085938 558.082031 471.085938 C 557.59375 471.085938 557.085938 470.855469 556.574219 470.351562 C 549.746094 507.765625 541.59375 502.660156 532.207031 517.304688 C 528.859375 522.53125 525.351562 527.621094 521.6875 532.5625 C 521.742188 532.050781 521.773438 531.519531 521.773438 530.976562 C 521.390625 531.996094 521.007812 533 520.609375 534.011719 C 517.765625 537.789062 514.839844 541.484375 511.8125 545.078125 C 508.609375 549.054688 505.253906 552.902344 501.75 556.648438 C 501.851562 556.089844 501.933594 555.539062 502.011719 554.980469 C 501.628906 556.3125 500.554688 556.980469 499.78125 557.929688 M 508.699219 514.632812 C 508.761719 514.507812 508.824219 514.386719 508.886719 514.261719 C 508.886719 514.285156 508.886719 514.308594 508.886719 514.332031 C 508.824219 514.429688 508.761719 514.53125 508.699219 514.632812 M 69.78125 514.285156 C 67.144531 504.199219 64.53125 493.871094 62.082031 483.371094 C 65.214844 488.796875 68.492188 494.144531 71.886719 499.378906 C 71.886719 502.605469 68.699219 509.019531 69.78125 514.285156 M 508.886719 514.261719 C 508.714844 508.777344 508.480469 503.535156 511.972656 498.292969 C 511.972656 504.707031 511.972656 507.972656 508.886719 514.261719 " fill-opacity="1" fill-rule="nonzero"/></g><path fill="#9e8cb0" d="M 327.59375 636.097656 C 327.515625 636.097656 327.433594 636.097656 327.355469 636.097656 C 391.664062 631.644531 455.601562 604.242188 498.976562 559.5625 C 498.925781 559.816406 498.902344 560.089844 498.902344 560.398438 C 499.03125 560.007812 499.160156 559.617188 499.300781 559.226562 C 500.128906 558.375 500.945312 557.515625 501.75 556.648438 C 501.660156 557.1875 501.558594 557.722656 501.453125 558.257812 C 497.46875 563.109375 493.269531 567.496094 488.902344 570.859375 C 445.757812 618.957031 387.902344 636.097656 327.59375 636.097656 " fill-opacity="1" fill-rule="nonzero"/><path fill="#bba6d2" d="M 498.902344 560.398438 C 498.902344 560.089844 498.925781 559.816406 498.976562 559.5625 C 499.085938 559.457031 499.191406 559.332031 499.300781 559.226562 C 499.160156 559.617188 499.03125 560.007812 498.902344 560.398438 M 501.453125 558.257812 C 501.558594 557.722656 501.660156 557.1875 501.75 556.648438 C 505.253906 552.902344 508.609375 549.054688 511.8125 545.078125 C 514.839844 541.484375 517.765625 537.789062 520.609375 534.011719 C 519.496094 536.832031 518.316406 539.628906 517.097656 542.351562 C 513.710938 546.433594 509.121094 549.84375 505.582031 552.988281 C 504.234375 554.789062 502.863281 556.550781 501.453125 558.257812 " fill-opacity="1" fill-rule="nonzero"/><path fill="#9e8cb0" d="M 226.292969 622.449219 C 206.738281 617.546875 187.667969 611.621094 169.515625 605.167969 C 166.007812 603.597656 162.460938 601.980469 158.914062 600.292969 C 148.410156 593.640625 138.292969 586.179688 128.664062 577.902344 C 120.984375 571.3125 113.617188 564.199219 106.597656 556.574219 C 106.742188 556.574219 106.894531 556.566406 107.070312 556.550781 C 107.761719 556.480469 107.753906 555.546875 107.070312 555.476562 C 106.058594 555.378906 106.023438 555.226562 105.808594 554.273438 C 105.761719 554.089844 105.601562 554 105.433594 554 C 105.269531 554 105.109375 554.089844 105.070312 554.273438 C 105.027344 554.464844 104.996094 554.640625 104.972656 554.804688 C 104.429688 554.199219 103.882812 553.59375 103.347656 552.988281 C 98.015625 544.863281 92.742188 536.410156 87.617188 527.675781 C 87.917969 527.683594 88.222656 527.683594 88.554688 527.683594 C 90.789062 527.683594 93.71875 527.566406 97.347656 527.277344 C 97.539062 526.847656 97.417969 526.515625 97.746094 526.058594 C 96.277344 526.019531 94.917969 525.996094 93.671875 525.996094 C 90.773438 525.996094 88.476562 526.09375 86.78125 526.242188 C 76.882812 509.257812 67.589844 491.242188 59.644531 472.597656 C 56.171875 456.753906 53.167969 440.617188 51.09375 424.460938 C 62.625 462.378906 81.609375 499.019531 101.570312 530.714844 C 102.476562 537.558594 103.953125 544.6875 111.339844 553.195312 C 118.648438 561.632812 127.78125 567.308594 137.375 572.285156 C 143.4375 575.425781 149.695312 578.292969 155.792969 581.386719 C 155.011719 581.703125 155.113281 582.914062 156.085938 583.003906 C 156.628906 583.050781 157.175781 583.105469 157.71875 583.160156 C 157.757812 583.160156 157.785156 583.160156 157.824219 583.160156 C 158.140625 583.160156 158.363281 583.011719 158.507812 582.789062 C 161.128906 584.171875 163.703125 585.609375 166.222656 587.152344 C 184.136719 602.671875 204.488281 614.34375 226.292969 622.449219 " fill-opacity="1" fill-rule="nonzero"/><path fill="#bba6d2" d="M 504.496094 565.9375 C 509.160156 558.519531 513.382812 550.65625 517.097656 542.351562 C 519.488281 539.476562 521.28125 536.257812 521.6875 532.5625 C 525.351562 527.621094 528.859375 522.53125 532.207031 517.304688 C 541.59375 502.660156 549.746094 507.765625 556.574219 470.351562 C 557.085938 470.855469 557.59375 471.085938 558.082031 471.085938 C 564.21875 471.085938 569.214844 434.921875 573 418.261719 C 575.351562 396.128906 576.910156 399.269531 577.613281 386.535156 C 578.785156 356.828125 577.605469 364.539062 573.835938 333.28125 C 573.773438 333.296875 573.714844 333.300781 573.652344 333.300781 C 569.867188 333.300781 563.585938 298.125 554.582031 281.664062 C 545.433594 276.585938 533.480469 239.117188 518.5 234.121094 C 511.636719 223.535156 504.25 209.636719 496.410156 209.636719 C 496.210938 209.636719 496.019531 209.644531 495.820312 209.65625 C 492.808594 206.769531 489.738281 203.949219 486.597656 201.183594 C 490.558594 203.550781 494.566406 205.941406 498.625 208.402344 C 508.089844 209.542969 516.722656 223.359375 524.578125 223.359375 C 524.890625 223.359375 525.199219 223.335938 525.503906 223.292969 C 526.171875 222.945312 526.828125 222.792969 527.488281 222.792969 C 534.789062 222.792969 541.378906 242.527344 547.285156 242.582031 C 560.082031 263.496094 570.027344 282.84375 577.390625 288.921875 C 584.753906 311.851562 589.527344 314.011719 591.980469 338.726562 C 594.4375 352.285156 594.578125 368.777344 592.652344 389.898438 C 591.496094 394.6875 589.597656 414.558594 587.023438 420.375 C 583.765625 445.597656 579.375 450.769531 573.964844 463.347656 C 568.550781 464.671875 562.105469 501.757812 554.742188 502.929688 C 547.378906 515.496094 539.089844 527.40625 529.976562 538.585938 C 523.152344 546.972656 515.851562 554.933594 508.101562 562.460938 C 506.90625 563.632812 505.707031 564.796875 504.496094 565.9375 " fill-opacity="1" fill-rule="nonzero"/><path fill="#9e8cb0" d="M 34.066406 356.898438 C 34.75 323.332031 43.851562 290.378906 65.207031 260.136719 C 70.5 251.777344 74.738281 244.765625 79.011719 238.136719 C 79.671875 240.40625 80.84375 242.550781 82.398438 244.414062 C 65.652344 262.445312 54.496094 281.933594 47.8125 302.25 C 40.488281 319.667969 36.105469 338.039062 34.066406 356.898438 M 99.507812 210.546875 C 107.347656 201.335938 115.84375 192.515625 125.148438 184.261719 C 174.886719 140.058594 236.796875 118.332031 298.476562 118.332031 C 315.769531 118.332031 333.039062 120.039062 350.019531 123.433594 C 361.097656 125.648438 372.027344 128.640625 382.484375 132.839844 C 389.355469 134.914062 395.90625 137.644531 402.199219 140.871094 C 408.488281 144.097656 414.527344 147.828125 420.386719 151.914062 C 430.242188 158.886719 439.472656 165.875 448.578125 172.851562 C 437.054688 165.636719 425.046875 159.269531 412.6875 153.851562 C 405.378906 149.652344 397.832031 145.820312 390.046875 142.378906 C 382.269531 138.9375 374.246094 135.894531 365.996094 133.273438 C 358.617188 130.914062 351.070312 129.039062 343.398438 127.613281 C 330.558594 125.214844 317.839844 124.09375 305.242188 124.09375 C 229.59375 124.09375 158.9375 164.449219 99.507812 210.546875 M 450.5 174.320312 C 449.863281 173.832031 449.21875 173.339844 448.578125 172.851562 C 449.050781 173.140625 449.519531 173.441406 449.988281 173.730469 C 450.15625 173.929688 450.332031 174.121094 450.5 174.320312 " fill-opacity="1" fill-rule="nonzero"/><path fill="#bba6d2" d="M 486.597656 201.183594 C 486.207031 200.953125 485.820312 200.722656 485.429688 200.484375 C 473.28125 191.847656 461.960938 183.105469 450.5 174.320312 C 450.332031 174.121094 450.15625 173.929688 449.988281 173.730469 C 452.222656 175.148438 454.445312 176.597656 456.644531 178.078125 C 467.113281 185.121094 477.132812 192.859375 486.597656 201.183594 " fill-opacity="1" fill-rule="nonzero"/><path fill="#9e8cb0" d="M 481.578125 220.824219 C 477.65625 217.320312 473.617188 213.933594 469.488281 210.664062 C 472.605469 212.125 475.648438 213.675781 478.597656 215.296875 C 479.027344 216.066406 479.445312 216.839844 479.859375 217.613281 C 480.4375 218.679688 481.011719 219.75 481.578125 220.824219 " fill-opacity="1" fill-rule="nonzero"/><path fill="#bba6d2" d="M 532.332031 504.539062 C 536.390625 496.875 540.199219 488.964844 543.730469 480.863281 C 554.449219 459.070312 567.523438 439.457031 568.035156 413.332031 C 569.40625 402.335938 569.515625 391.214844 568.511719 380.097656 C 563.523438 324.535156 530.980469 269.179688 491.875 230.527344 C 488.535156 227.199219 485.101562 223.964844 481.578125 220.824219 C 481.011719 219.75 480.4375 218.679688 479.859375 217.613281 C 479.445312 216.839844 479.027344 216.066406 478.597656 215.296875 C 485.539062 219.121094 492.011719 223.398438 498.042969 228.066406 C 541.695312 266.652344 569.738281 327.976562 570.304688 387.523438 C 570.394531 397.445312 569.730469 407.324219 568.242188 417.042969 C 564.25 449.261719 551.179688 478.679688 532.332031 504.539062 " fill-opacity="1" fill-rule="nonzero"/><path fill="#9e8cb0" d="M 418.234375 174.160156 C 411.882812 172.230469 405.484375 170.605469 399.226562 169.164062 C 387.210938 166.390625 374.875 164.972656 362.59375 163.421875 C 350.304688 161.859375 338.050781 160.175781 326.191406 156.839844 C 313.808594 153.363281 302.667969 145.542969 290.546875 141.113281 C 288.816406 140.488281 287.078125 139.902344 285.320312 139.351562 C 286.464844 139.34375 287.589844 139.269531 288.730469 139.269531 C 320.214844 139.269531 350.355469 144.953125 378.230469 155.324219 C 385.195312 157.90625 392.023438 160.796875 398.6875 163.953125 C 405.363281 167.117188 411.867188 170.542969 418.234375 174.160156 " fill-opacity="1" fill-rule="nonzero"/><path fill="#9e8cb0" d="M 302.523438 664.546875 C 263.125 664.546875 223.65625 656.964844 188.589844 642.421875 C 180.917969 639.148438 173.417969 635.523438 166.125 631.570312 C 158.835938 627.613281 151.757812 623.316406 144.914062 618.695312 L 144.652344 618.808594 C 144.171875 618.808594 143.972656 618.417969 144.003906 618.050781 C 134.523438 611.589844 125.5 604.507812 116.988281 596.867188 C 126.050781 604.433594 135.597656 611.445312 145.574219 617.84375 C 152.929688 622.566406 160.515625 626.957031 168.324219 631.003906 C 211.566406 653.632812 258.910156 664.507812 306.164062 664.507812 C 306.539062 664.507812 306.914062 664.507812 307.289062 664.507812 C 305.703125 664.53125 304.109375 664.546875 302.523438 664.546875 M 278.59375 650.175781 C 244.90625 650.175781 211.796875 643.402344 180.472656 623.148438 C 174.875 618.027344 168.90625 613.40625 162.730469 609.070312 C 144.210938 596.042969 123.828125 585.542969 105.59375 572.085938 C 94.160156 563.65625 85.289062 554.6875 78.378906 544.394531 C 71.464844 534.113281 67.261719 523.039062 69.828125 514.476562 C 69.8125 514.417969 69.796875 514.347656 69.78125 514.285156 C 71.558594 521.0625 73.34375 527.726562 75.097656 534.257812 C 80.230469 542.765625 86.5 550.472656 93.554688 557.484375 C 109.453125 573.273438 129.375 585.566406 149.488281 595.695312 C 152.628906 597.28125 155.773438 598.816406 158.914062 600.292969 C 160.230469 601.128906 161.558594 601.949219 162.882812 602.761719 C 168.84375 606.394531 174.925781 609.765625 181.085938 612.910156 C 219.734375 635.601562 262.6875 646.015625 305.726562 646.015625 C 321.914062 646.015625 338.121094 644.542969 354.125 641.691406 C 328.957031 646.4375 303.617188 650.175781 278.59375 650.175781 M 361.875 640.207031 C 411.371094 629.984375 458.484375 606.648438 496.585938 573.15625 C 488.417969 590.785156 472.675781 604.96875 453.496094 610.992188 C 447.289062 615.582031 441.191406 621.414062 434.878906 626.210938 C 411.085938 629.828125 386.582031 635.363281 361.875 640.207031 M 62.082031 483.371094 C 51.015625 464.167969 41.792969 443.828125 35.347656 422.929688 C 32.464844 400.710938 31.730469 378.480469 34.066406 356.898438 C 33.277344 395.746094 43.785156 435.414062 59.644531 472.597656 C 60.433594 476.199219 61.246094 479.800781 62.082031 483.371094 " fill-opacity="1" fill-rule="nonzero"/><path fill="#bba6d2" d="M 306.164062 664.507812 C 258.910156 664.507812 211.566406 653.632812 168.324219 631.003906 C 160.515625 626.957031 152.929688 622.566406 145.574219 617.84375 C 135.597656 611.445312 126.050781 604.433594 116.988281 596.867188 C 102.605469 583.980469 89.679688 569.488281 78.5 553.675781 C 72.5625 545.285156 67.121094 536.527344 62.203125 527.4375 C 50.21875 494.476562 39.992188 458.726562 35.347656 422.929688 C 41.792969 443.828125 51.015625 464.167969 62.082031 483.371094 C 64.53125 493.871094 67.144531 504.199219 69.78125 514.285156 C 69.796875 514.347656 69.8125 514.417969 69.828125 514.476562 C 67.261719 523.039062 71.464844 534.113281 78.378906 544.394531 C 85.289062 554.6875 94.160156 563.65625 105.59375 572.085938 C 123.828125 585.542969 144.210938 596.042969 162.730469 609.070312 C 168.90625 613.40625 174.875 618.027344 180.472656 623.148438 C 211.796875 643.402344 244.90625 650.175781 278.59375 650.175781 C 303.617188 650.175781 328.957031 646.4375 354.125 641.691406 C 356.710938 641.234375 359.296875 640.734375 361.875 640.207031 C 386.582031 635.363281 411.085938 629.828125 434.878906 626.210938 C 441.191406 621.414062 447.289062 615.582031 453.496094 610.992188 C 472.675781 604.96875 488.417969 590.785156 496.585938 573.15625 C 499.269531 570.796875 501.90625 568.398438 504.496094 565.9375 C 462.898438 632.058594 385.570312 663.296875 307.289062 664.507812 C 306.914062 664.507812 306.539062 664.507812 306.164062 664.507812 " fill-opacity="1" fill-rule="nonzero"/><path fill="#9e8cb0" d="M 308.882812 636.742188 C 280.472656 636.742188 252.359375 632.136719 226.292969 622.449219 C 259.324219 630.726562 293.710938 636.074219 327.355469 636.097656 C 321.1875 636.527344 315.035156 636.742188 308.882812 636.742188 M 51.09375 424.460938 C 38.703125 383.691406 34.925781 341.441406 47.8125 302.25 C 55.550781 283.847656 66.578125 266.5 81.609375 250.710938 C 90.667969 240.320312 98.269531 231.820312 105.953125 224.074219 C 121.316406 208.570312 138.632812 195.011719 157.503906 183.792969 C 146.417969 193.609375 137.34375 206.859375 129.484375 218.257812 C 125.460938 224.089844 120.800781 230.027344 113.714844 236.871094 C 50.542969 284.1875 42.105469 354.453125 51.09375 424.460938 " fill-opacity="1" fill-rule="nonzero"/><path fill="#bba6d2" d="M 305.726562 646.015625 C 262.6875 646.015625 219.734375 635.601562 181.085938 612.910156 C 174.925781 609.765625 168.84375 606.394531 162.882812 602.761719 C 161.558594 601.949219 160.230469 601.128906 158.914062 600.292969 C 162.460938 601.980469 166.007812 603.597656 169.515625 605.167969 C 187.667969 611.621094 206.738281 617.546875 226.292969 622.449219 C 252.359375 632.136719 280.472656 636.742188 308.882812 636.742188 C 315.035156 636.742188 321.1875 636.527344 327.355469 636.097656 C 327.433594 636.097656 327.515625 636.097656 327.59375 636.097656 C 387.902344 636.097656 445.757812 618.957031 488.902344 570.859375 C 493.269531 567.496094 497.46875 563.109375 501.453125 558.257812 C 500.441406 563.410156 498.785156 568.40625 496.585938 573.15625 C 458.484375 606.648438 411.371094 629.984375 361.875 640.207031 C 359.292969 640.710938 356.710938 641.210938 354.125 641.691406 C 338.121094 644.542969 321.914062 646.015625 305.726562 646.015625 " fill-opacity="1" fill-rule="nonzero"/><path fill="#5e17eb" d="M 354.125 641.691406 C 356.710938 641.210938 359.292969 640.710938 361.875 640.207031 C 359.296875 640.734375 356.710938 641.234375 354.125 641.691406 M 496.585938 573.15625 C 498.785156 568.40625 500.441406 563.410156 501.453125 558.257812 C 502.863281 556.550781 504.234375 554.789062 505.582031 552.988281 C 509.121094 549.84375 513.710938 546.433594 517.097656 542.351562 C 513.382812 550.65625 509.160156 558.519531 504.496094 565.9375 C 501.90625 568.398438 499.269531 570.796875 496.585938 573.15625 " fill-opacity="1" fill-rule="nonzero"/><path fill="#bba6d2" d="M 59.644531 472.597656 C 43.785156 435.414062 33.277344 395.746094 34.066406 356.898438 C 36.105469 338.039062 40.488281 319.667969 47.8125 302.25 C 34.925781 341.441406 38.703125 383.691406 51.09375 424.460938 C 53.167969 440.617188 56.171875 456.753906 59.644531 472.597656 " fill-opacity="1" fill-rule="nonzero"/><path fill="#bba6d2" d="M 520.609375 534.011719 C 521.007812 533 521.390625 531.996094 521.773438 530.976562 C 521.773438 531.519531 521.742188 532.050781 521.6875 532.5625 C 521.328125 533.054688 520.96875 533.527344 520.609375 534.011719 " fill-opacity="1" fill-rule="nonzero"/><path fill="#5e17eb" d="M 517.097656 542.351562 C 518.316406 539.628906 519.496094 536.832031 520.609375 534.011719 C 520.96875 533.527344 521.328125 533.054688 521.6875 532.5625 C 521.28125 536.257812 519.488281 539.476562 517.097656 542.351562 " fill-opacity="1" fill-rule="nonzero"/><path fill="#9e8cb0" d="M 436.25 187.328125 C 436.242188 187.328125 436.21875 187.3125 436.171875 187.28125 C 436.171875 187.257812 436.164062 187.234375 436.164062 187.210938 C 436.234375 187.289062 436.265625 187.328125 436.25 187.328125 M 436.164062 187.210938 C 435.804688 186.8125 434.488281 185.527344 433.511719 184.757812 C 434.648438 185.402344 435.917969 185.933594 436.164062 187.210938 M 433.511719 184.757812 C 433.207031 184.582031 432.90625 184.40625 432.640625 184.191406 C 432.839844 184.261719 433.152344 184.476562 433.511719 184.757812 " fill-opacity="1" fill-rule="nonzero"/><path fill="#9e8cb0" d="M 437.910156 197.664062 C 435.535156 195.035156 435.683594 194.332031 436.648438 194.332031 C 437.222656 194.332031 438.078125 194.578125 438.875 194.820312 C 439.679688 195.074219 440.417969 195.328125 440.746094 195.328125 C 440.945312 195.328125 441 195.234375 440.816406 194.988281 C 445.183594 195.3125 441.550781 196.613281 437.910156 197.664062 " fill-opacity="1" fill-rule="nonzero"/><path fill="#9e8cb0" d="M 433.039062 207.621094 C 432.386719 207.621094 431.957031 207.542969 431.964844 207.367188 C 432.363281 207.4375 432.722656 207.464844 433.0625 207.464844 C 435.789062 207.464844 436.632812 205.40625 437.296875 203.351562 C 437.957031 201.296875 438.441406 199.242188 440.441406 199.242188 C 440.945312 199.242188 441.535156 199.375 442.246094 199.65625 C 438.921875 199.789062 439.097656 202.761719 437.886719 206.722656 C 436.984375 207.238281 434.480469 207.621094 433.039062 207.621094 " fill-opacity="1" fill-rule="nonzero"/><path fill="#9e8cb0" d="M 405.800781 207.320312 C 407.347656 204.210938 408.964844 203.351562 410.925781 203.351562 C 412.941406 203.351562 415.308594 204.253906 418.328125 204.578125 C 418.617188 204.539062 418.863281 204.523438 419.046875 204.523438 C 421.269531 204.523438 416.480469 206.632812 413.253906 207 C 409.140625 207.160156 409.140625 207.160156 405.800781 207.320312 " fill-opacity="1" fill-rule="nonzero"/><path fill="#9e8cb0" d="M 433.445312 215.734375 C 433.039062 215.734375 432.695312 215.710938 432.433594 215.660156 C 430.105469 215.054688 429.734375 212.277344 426.617188 212.277344 C 426.519531 212.277344 426.417969 212.285156 426.320312 212.285156 C 428.019531 210.59375 429.566406 209.988281 431.03125 209.988281 C 432.878906 209.988281 434.570312 210.945312 436.234375 211.902344 C 437.894531 212.863281 439.527344 213.820312 441.238281 213.820312 C 441.488281 213.820312 441.734375 213.796875 441.988281 213.757812 C 442.667969 214.441406 436.417969 215.734375 433.445312 215.734375 " fill-opacity="1" fill-rule="nonzero"/><path fill="#9e8cb0" d="M 190.410156 167.277344 C 190.257812 167.277344 190.105469 167.117188 190.207031 166.941406 C 191.445312 164.589844 194.566406 162.617188 197.460938 162.617188 C 198.503906 162.617188 199.515625 162.871094 200.394531 163.453125 C 200.726562 163.667969 200.5625 164.167969 200.210938 164.167969 C 200.179688 164.167969 200.144531 164.167969 200.105469 164.152344 C 199.054688 163.875 197.980469 163.714844 196.941406 163.714844 C 194.417969 163.714844 192.058594 164.65625 190.597656 167.171875 C 190.550781 167.246094 190.480469 167.277344 190.410156 167.277344 " fill-opacity="1" fill-rule="nonzero"/><path fill="#9e8cb0" d="M 206.871094 158.957031 L 206.609375 158.800781 C 208.164062 155.515625 211.4375 153.140625 214.785156 151.90625 C 214.839844 151.882812 214.890625 151.875 214.945312 151.875 C 215.34375 151.875 215.511719 152.503906 215.144531 152.742188 C 212.125 154.695312 208.832031 155.691406 206.871094 158.957031 " fill-opacity="1" fill-rule="nonzero"/><path fill="#9e8cb0" d="M 229.617188 149.308594 C 229.3125 149.308594 229.320312 148.863281 229.617188 148.847656 C 232.460938 148.6875 234.9375 147.144531 237.785156 146.984375 C 237.792969 146.976562 237.800781 146.976562 237.816406 146.976562 C 238.375 146.976562 238.367188 147.90625 237.785156 147.90625 C 234.964844 147.90625 232.4375 149.300781 229.617188 149.308594 " fill-opacity="1" fill-rule="nonzero"/><path fill="#9e8cb0" d="M 237.785156 158.050781 C 237.472656 158.050781 237.15625 157.90625 237.027344 157.621094 L 236.988281 157.515625 C 235.96875 157.804688 234.914062 157.90625 233.800781 157.90625 C 232.980469 157.90625 232.132812 157.851562 231.25 157.785156 C 230.5625 157.730469 230.5625 156.765625 231.25 156.710938 C 233.136719 156.566406 234.851562 156.152344 236.605469 155.699219 C 236.566406 154.886719 237.171875 154.480469 237.785156 154.480469 C 238.222656 154.480469 238.675781 154.695312 238.875 155.117188 L 239.257812 155.023438 C 239.296875 155.015625 239.339844 155.007812 239.386719 155.007812 C 239.886719 155.007812 240.324219 155.675781 239.855469 156.042969 C 239.511719 156.320312 239.15625 156.550781 238.804688 156.75 C 238.746094 157.046875 238.667969 157.339844 238.546875 157.621094 C 238.414062 157.90625 238.101562 158.050781 237.785156 158.050781 " fill-opacity="1" fill-rule="nonzero"/><path fill="#9e8cb0" d="M 249.234375 152.648438 C 249.003906 152.648438 248.78125 152.410156 248.644531 152.3125 C 247.347656 151.40625 247.707031 149.191406 249.457031 149.191406 C 249.464844 149.191406 249.480469 149.191406 249.484375 149.191406 C 250.078125 149.191406 250.550781 149.398438 251.074219 149.644531 C 251.914062 150.035156 251.847656 151.367188 251.074219 151.78125 C 250.453125 152.105469 250.046875 152.449219 249.300781 152.640625 C 249.28125 152.648438 249.257812 152.648438 249.234375 152.648438 " fill-opacity="1" fill-rule="nonzero"/><path fill="#9e8cb0" d="M 255.761719 137.144531 C 254.273438 137.144531 254.273438 134.855469 255.761719 134.855469 C 257.242188 134.855469 257.242188 137.144531 255.761719 137.144531 " fill-opacity="1" fill-rule="nonzero"/><path fill="#9e8cb0" d="M 272.144531 148.417969 C 271.484375 148.417969 271.15625 147.929688 271.15625 147.445312 C 271.15625 146.953125 271.484375 146.464844 272.136719 146.464844 C 272.210938 146.464844 272.28125 146.472656 272.363281 146.488281 C 272.847656 146.554688 273.390625 146.570312 273.851562 146.746094 C 274.542969 147.015625 274.542969 147.875 273.851562 148.140625 C 273.390625 148.320312 272.847656 148.335938 272.363281 148.402344 C 272.289062 148.410156 272.210938 148.417969 272.144531 148.417969 " fill-opacity="1" fill-rule="nonzero"/><path fill="#9e8cb0" d="M 234.515625 169.683594 C 233.226562 169.683594 233.226562 167.691406 234.515625 167.691406 C 235.800781 167.691406 235.800781 169.683594 234.515625 169.683594 " fill-opacity="1" fill-rule="nonzero"/><path fill="#9e8cb0" d="M 216.699219 181.332031 C 216.5625 181.332031 216.410156 181.304688 216.242188 181.234375 C 215.742188 181.042969 215.261719 180.84375 214.769531 180.652344 C 214.257812 180.445312 214.257812 179.816406 214.769531 179.609375 C 215.261719 179.417969 215.742188 179.210938 216.242188 179.019531 C 216.410156 178.949219 216.5625 178.917969 216.699219 178.917969 C 217.304688 178.917969 217.621094 179.523438 217.621094 180.128906 C 217.621094 180.726562 217.3125 181.332031 216.699219 181.332031 " fill-opacity="1" fill-rule="nonzero"/><path fill="#9e8cb0" d="M 197.90625 169.441406 C 197.566406 169.441406 197.199219 169.394531 196.769531 169.285156 C 196.1875 169.125 196.1875 168.25 196.769531 168.097656 C 197.199219 167.984375 197.566406 167.9375 197.914062 167.9375 C 198.65625 167.9375 199.277344 168.144531 200.203125 168.230469 C 200.792969 168.28125 200.792969 169.09375 200.203125 169.148438 C 199.277344 169.242188 198.65625 169.441406 197.90625 169.441406 " fill-opacity="1" fill-rule="nonzero"/><path fill="#9e8cb0" d="M 172.476562 167.867188 C 172.0625 167.867188 171.664062 167.585938 171.664062 167.046875 C 171.664062 166.527344 172.054688 166.234375 172.476562 166.234375 C 172.75 166.234375 173.035156 166.367188 173.21875 166.636719 C 173.308594 166.757812 173.945312 166.789062 174.121094 166.835938 C 174.34375 166.878906 174.34375 167.226562 174.121094 167.277344 C 173.945312 167.316406 173.308594 167.347656 173.21875 167.476562 C 173.042969 167.746094 172.75 167.867188 172.476562 167.867188 " fill-opacity="1" fill-rule="nonzero"/><path fill="#9e8cb0" d="M 195.246094 197.160156 C 194.839844 197.160156 194.632812 196.8125 194.632812 196.46875 C 194.632812 196.125 194.839844 195.78125 195.246094 195.78125 C 195.269531 195.78125 195.285156 195.78125 195.300781 195.78125 C 196.394531 195.855469 197.476562 195.933594 198.570312 196.007812 C 199.160156 196.054688 199.160156 196.890625 198.570312 196.929688 C 197.476562 197.003906 196.394531 197.082031 195.300781 197.160156 C 195.285156 197.160156 195.269531 197.160156 195.246094 197.160156 " fill-opacity="1" fill-rule="nonzero"/><path fill="#9e8cb0" d="M 241.050781 189.164062 C 240.550781 189.164062 240.039062 188.796875 240.167969 188.054688 C 240.269531 187.433594 240.269531 186.796875 240.675781 186.285156 C 240.757812 186.175781 240.90625 186.132812 241.050781 186.132812 C 241.203125 186.132812 241.347656 186.175781 241.433594 186.285156 C 241.832031 186.796875 241.832031 187.433594 241.9375 188.054688 C 242.0625 188.796875 241.554688 189.164062 241.050781 189.164062 " fill-opacity="1" fill-rule="nonzero"/><path fill="#9e8cb0" d="M 249.226562 174.511719 C 248.039062 174.511719 248.039062 172.671875 249.226562 172.671875 C 250.40625 172.671875 250.40625 174.511719 249.226562 174.511719 " fill-opacity="1" fill-rule="nonzero"/><path fill="#9e8cb0" d="M 268.832031 178.160156 C 267.148438 178.160156 267.148438 175.554688 268.832031 175.554688 C 270.511719 175.554688 270.511719 178.160156 268.832031 178.160156 " fill-opacity="1" fill-rule="nonzero"/><path fill="#9e8cb0" d="M 285.152344 182.445312 C 284.929688 182.445312 284.707031 182.335938 284.570312 182.109375 L 284.5625 182.078125 L 284.378906 182.101562 L 283.867188 182.070312 C 283.597656 182.054688 283.335938 182.039062 283.078125 182.015625 L 282.839844 181.761719 L 283.078125 181.503906 C 283.335938 181.496094 283.597656 181.480469 283.867188 181.457031 C 284.101562 181.441406 284.339844 181.425781 284.570312 181.410156 C 284.707031 181.1875 284.929688 181.089844 285.152344 181.089844 C 285.503906 181.089844 285.859375 181.339844 285.859375 181.761719 C 285.859375 182.183594 285.503906 182.445312 285.152344 182.445312 " fill-opacity="1" fill-rule="nonzero"/><path fill="#9e8cb0" d="M 280.273438 166.015625 C 279.941406 166.015625 279.621094 165.816406 279.652344 165.417969 C 279.707031 164.871094 279.757812 164.328125 279.804688 163.785156 C 279.835938 163.492188 280.050781 163.339844 280.265625 163.339844 C 280.480469 163.339844 280.703125 163.492188 280.722656 163.785156 C 280.777344 164.328125 280.832031 164.871094 280.878906 165.417969 C 280.917969 165.816406 280.59375 166.015625 280.273438 166.015625 " fill-opacity="1" fill-rule="nonzero"/><path fill="#9e8cb0" d="M 250.859375 172.726562 C 249.871094 172.726562 249.871094 171.195312 250.859375 171.195312 C 251.847656 171.195312 251.847656 172.726562 250.859375 172.726562 " fill-opacity="1" fill-rule="nonzero"/><path fill="#9e8cb0" d="M 242.691406 175.609375 C 242.191406 175.609375 242.191406 174.84375 242.691406 174.84375 C 243.179688 174.84375 243.179688 175.609375 242.691406 175.609375 " fill-opacity="1" fill-rule="nonzero"/><path fill="#9e8cb0" d="M 232.882812 172.566406 C 232.09375 172.566406 232.09375 171.339844 232.882812 171.339844 C 233.671875 171.339844 233.671875 172.566406 232.882812 172.566406 " fill-opacity="1" fill-rule="nonzero"/><g clip-path="url(#e7562da5ee)"><path fill="#9e8cb0" d="M 203.476562 691.828125 C 200.578125 691.828125 197.683594 690.195312 196.902344 686.929688 C 196.527344 685.398438 196.328125 683.71875 196.917969 682.195312 C 198.011719 679.328125 200.210938 677.207031 203.460938 677.207031 C 203.460938 677.207031 203.46875 677.207031 203.46875 677.207031 C 206.714844 677.207031 208.914062 679.335938 210.027344 682.203125 C 210.617188 683.726562 210.417969 685.398438 210.042969 686.929688 C 209.261719 690.195312 206.363281 691.828125 203.476562 691.828125 " fill-opacity="1" fill-rule="nonzero"/></g><path fill="#9e8cb0" d="M 185.5 658.5625 C 183.914062 658.5625 183.914062 656.109375 185.5 656.109375 C 187.078125 656.117188 187.078125 658.5625 185.5 658.5625 " fill-opacity="1" fill-rule="nonzero"/><path fill="#9e8cb0" d="M 185.5 666.761719 C 184.605469 666.761719 183.707031 666.109375 184.304688 664.8125 C 184.503906 664.386719 184.703125 663.957031 184.902344 663.527344 C 185.011719 663.304688 185.253906 663.191406 185.5 663.191406 C 185.746094 663.191406 185.992188 663.304688 186.089844 663.527344 C 186.289062 663.957031 186.488281 664.386719 186.6875 664.8125 C 187.292969 666.109375 186.398438 666.761719 185.5 666.761719 " fill-opacity="1" fill-rule="nonzero"/><path fill="#9e8cb0" d="M 165.902344 653.816406 C 165.164062 653.816406 164.515625 653.210938 164.515625 652.4375 C 164.515625 651.640625 165.195312 651.058594 165.917969 651.058594 C 166.136719 651.058594 166.367188 651.121094 166.589844 651.242188 C 166.789062 651.363281 166.957031 651.535156 167.082031 651.738281 L 167.15625 651.917969 L 167.648438 651.992188 C 168.085938 652.0625 168.085938 652.804688 167.648438 652.875 C 167.511719 652.90625 167.363281 652.972656 167.273438 652.972656 C 167.210938 652.972656 167.179688 652.9375 167.21875 652.796875 C 167.097656 653.265625 166.722656 653.632812 166.253906 653.761719 C 166.136719 653.800781 166.015625 653.816406 165.902344 653.816406 " fill-opacity="1" fill-rule="nonzero"/><path fill="#9e8cb0" d="M 234.789062 677.34375 C 234.539062 677.34375 234.40625 676.890625 234.398438 676.433594 C 234.390625 675.972656 234.5 675.511719 234.714844 675.511719 C 234.78125 675.511719 234.867188 675.558594 234.953125 675.664062 C 234.988281 676.179688 235.027344 676.683594 235.066406 677.199219 C 234.960938 677.304688 234.867188 677.34375 234.789062 677.34375 " fill-opacity="1" fill-rule="nonzero"/><path fill="#9e8cb0" d="M 158.507812 582.789062 C 157.601562 582.316406 156.699219 581.855469 155.792969 581.386719 C 155.878906 581.351562 155.980469 581.328125 156.085938 581.320312 C 156.628906 581.265625 157.175781 581.21875 157.71875 581.167969 C 157.757812 581.167969 157.785156 581.167969 157.816406 581.167969 C 158.390625 581.167969 158.683594 581.664062 158.683594 582.164062 C 158.683594 582.382812 158.621094 582.613281 158.507812 582.789062 " fill-opacity="1" fill-rule="nonzero"/><path fill="#bba6d2" d="M 157.824219 583.160156 C 157.785156 583.160156 157.757812 583.160156 157.71875 583.160156 C 157.175781 583.105469 156.628906 583.050781 156.085938 583.003906 C 155.113281 582.914062 155.011719 581.703125 155.792969 581.386719 C 156.699219 581.855469 157.601562 582.316406 158.507812 582.789062 C 158.363281 583.011719 158.140625 583.160156 157.824219 583.160156 " fill-opacity="1" fill-rule="nonzero"/><path fill="#9e8cb0" d="M 128.496094 548.917969 C 127.445312 548.40625 130.71875 548.40625 129.929688 547.746094 C 130.570312 547.960938 129.621094 548.75 128.496094 548.917969 " fill-opacity="1" fill-rule="nonzero"/><path fill="#9e8cb0" d="M 117.1875 508.140625 C 114.664062 508.140625 115.4375 507.796875 117.261719 507.441406 C 119.085938 507.097656 121.953125 506.753906 123.605469 506.753906 C 124.296875 506.753906 124.777344 506.8125 124.878906 506.960938 C 124.917969 506.960938 124.957031 506.953125 124.984375 506.953125 C 125.773438 506.953125 125.398438 507.671875 124.472656 507.78125 C 120.855469 508.039062 118.542969 508.140625 117.1875 508.140625 " fill-opacity="1" fill-rule="nonzero"/><path fill="#9e8cb0" d="M 87.617188 527.675781 C 84.039062 527.621094 82.628906 527.230469 83.417969 526.839844 C 83.855469 526.625 84.972656 526.402344 86.78125 526.242188 C 87.058594 526.714844 87.34375 527.199219 87.617188 527.675781 " fill-opacity="1" fill-rule="nonzero"/><path fill="#bba6d2" d="M 88.554688 527.683594 C 88.222656 527.683594 87.917969 527.683594 87.617188 527.675781 C 87.34375 527.199219 87.058594 526.714844 86.78125 526.242188 C 88.476562 526.09375 90.773438 525.996094 93.671875 525.996094 C 94.917969 525.996094 96.277344 526.019531 97.746094 526.058594 C 97.417969 526.515625 97.539062 526.847656 97.347656 527.277344 C 93.71875 527.566406 90.789062 527.683594 88.554688 527.683594 " fill-opacity="1" fill-rule="nonzero"/><path fill="#9e8cb0" d="M 106.496094 556.582031 C 105.242188 556.582031 104.804688 556.050781 104.972656 554.804688 C 105.507812 555.394531 106.054688 555.992188 106.597656 556.574219 C 106.558594 556.582031 106.535156 556.582031 106.496094 556.582031 " fill-opacity="1" fill-rule="nonzero"/><path fill="#bba6d2" d="M 106.597656 556.574219 C 106.054688 555.992188 105.507812 555.394531 104.972656 554.804688 C 104.996094 554.640625 105.027344 554.464844 105.070312 554.273438 C 105.109375 554.089844 105.269531 554 105.433594 554 C 105.601562 554 105.761719 554.089844 105.808594 554.273438 C 106.023438 555.226562 106.058594 555.378906 107.070312 555.476562 C 107.753906 555.546875 107.761719 556.480469 107.070312 556.550781 C 106.894531 556.566406 106.742188 556.574219 106.597656 556.574219 " fill-opacity="1" fill-rule="nonzero"/><path fill="#9e8cb0" d="M 95.632812 605.734375 C 94.742188 605.734375 94.742188 604.355469 95.632812 604.355469 C 96.519531 604.355469 96.519531 605.734375 95.632812 605.734375 " fill-opacity="1" fill-rule="nonzero"/><path fill="#9e8cb0" d="M 72.707031 573.164062 C 72.324219 573.164062 71.941406 572.90625 71.917969 572.351562 C 71.847656 571.050781 70.339844 570.550781 70.507812 569.089844 C 70.554688 568.710938 70.859375 568.484375 71.160156 568.484375 C 71.390625 568.484375 71.613281 568.621094 71.710938 568.917969 C 72.117188 570.207031 73.375 570.734375 73.566406 572.128906 C 73.65625 572.796875 73.175781 573.164062 72.707031 573.164062 " fill-opacity="1" fill-rule="nonzero"/><path fill="#9e8cb0" d="M 54.777344 534.355469 C 53.199219 534.355469 53.199219 531.914062 54.777344 531.914062 C 56.363281 531.914062 56.363281 534.355469 54.777344 534.355469 " fill-opacity="1" fill-rule="nonzero"/><path fill="#9e8cb0" d="M 81.457031 586.214844 C 81.289062 586.214844 81.121094 586.199219 80.945312 586.15625 C 80.484375 586.046875 80.15625 585.488281 80.308594 585.035156 C 80.453125 584.605469 80.484375 584.140625 80.5625 583.695312 C 80.585938 583.511719 80.753906 583.417969 80.921875 583.417969 C 81.097656 583.417969 81.265625 583.511719 81.296875 583.695312 C 81.441406 584.628906 81.808594 584.636719 82.722656 584.835938 C 83.304688 584.96875 83.3125 585.886719 82.722656 586.023438 C 82.300781 586.117188 81.878906 586.214844 81.457031 586.214844 " fill-opacity="1" fill-rule="nonzero"/><path fill="#9e8cb0" d="M 118.511719 610.777344 C 117.984375 610.777344 117.714844 610.363281 117.714844 609.941406 C 117.714844 609.527344 117.976562 609.109375 118.511719 609.109375 C 118.582031 609.109375 118.648438 609.117188 118.734375 609.128906 C 119.246094 609.230469 119.769531 609.328125 120.28125 609.429688 C 120.792969 609.519531 120.792969 610.363281 120.28125 610.464844 C 119.769531 610.554688 119.246094 610.65625 118.734375 610.753906 C 118.65625 610.769531 118.582031 610.777344 118.511719 610.777344 " fill-opacity="1" fill-rule="nonzero"/><path fill="#9e8cb0" d="M 38.105469 539.316406 C 37.992188 539.316406 37.875 539.300781 37.769531 539.253906 C 37.308594 539.078125 36.863281 538.894531 36.421875 538.703125 C 35.914062 538.472656 35.921875 537.597656 36.421875 537.375 C 36.773438 537.214844 37.117188 537.054688 37.453125 536.878906 C 37.660156 536.777344 37.890625 536.726562 38.128906 536.726562 C 38.390625 536.726562 38.65625 536.792969 38.871094 536.941406 C 39.164062 536.839844 39.378906 536.640625 39.410156 536.21875 C 39.476562 535.875 39.746094 535.722656 40.027344 535.722656 C 40.390625 535.722656 40.765625 535.972656 40.765625 536.402344 C 40.765625 537.574219 40.183594 538.242188 39.21875 538.648438 C 38.988281 539.03125 38.542969 539.316406 38.105469 539.316406 " fill-opacity="1" fill-rule="nonzero"/><path fill="#9e8cb0" d="M 18.835938 487.898438 C 18.605469 487.898438 18.367188 487.769531 18.324219 487.515625 C 18.269531 487.25 18.222656 486.957031 18.144531 486.6875 L 17.871094 486.683594 C 17.785156 486.695312 17.710938 486.703125 17.632812 486.703125 C 17.257812 486.703125 17.011719 486.535156 16.714844 486.222656 C 16.453125 485.953125 16.445312 485.523438 16.714844 485.257812 C 17.019531 484.941406 17.433594 484.789062 17.855469 484.789062 C 18.316406 484.789062 18.789062 484.972656 19.140625 485.316406 C 19.722656 485.898438 19.480469 486.804688 19.355469 487.515625 C 19.3125 487.777344 19.074219 487.898438 18.835938 487.898438 " fill-opacity="1" fill-rule="nonzero"/><path fill="#9e8cb0" d="M 138.539062 492.582031 C 137.941406 492.582031 137.289062 492.367188 137.320312 491.96875 C 137.34375 491.53125 138.164062 491.1875 138.691406 491.1875 C 138.992188 491.1875 139.199219 491.304688 139.105469 491.570312 C 139.878906 492.269531 139.253906 492.582031 138.539062 492.582031 " fill-opacity="1" fill-rule="nonzero"/><path fill="#9e8cb0" d="M 501.90625 610.355469 C 501.898438 610.355469 501.707031 609.269531 501.246094 606.339844 C 501.613281 608.417969 501.921875 610.355469 501.90625 610.355469 M 500.394531 608.617188 C 500.394531 608.617188 500.394531 608.617188 500.402344 608.617188 C 500.394531 608.617188 500.394531 608.617188 500.394531 608.617188 M 500.402344 608.617188 C 500.457031 605.835938 500.503906 603.0625 497.476562 600.699219 C 498.121094 601.199219 500.5625 603.136719 500.917969 604.265625 C 501.039062 605.039062 501.144531 605.734375 501.246094 606.339844 C 501.160156 605.882812 501.078125 605.414062 500.984375 604.960938 C 500.464844 605.78125 500.402344 608.546875 500.402344 608.617188 M 497.476562 600.699219 C 497.390625 600.632812 497.339844 600.59375 497.324219 600.585938 C 497.375 600.625 497.421875 600.664062 497.476562 600.699219 M 497.324219 600.585938 C 497.324219 600.585938 497.324219 600.578125 497.316406 600.578125 C 497.316406 600.578125 497.324219 600.578125 497.324219 600.585938 " fill-opacity="1" fill-rule="nonzero"/><path fill="#9e8cb0" d="M 522.785156 593.574219 C 519.679688 593.574219 518.21875 587.695312 518.210938 581.800781 C 519.214844 580.875 520.195312 579.957031 521.183594 579.019531 C 522.859375 576.9375 524.476562 574.804688 526.023438 572.605469 C 526.253906 572.929688 526.492188 573.289062 526.730469 573.679688 C 529.566406 573.320312 531.886719 571.265625 533.542969 571.265625 C 534.765625 571.265625 535.625 572.390625 536.054688 576.160156 C 536.300781 575.625 536.550781 574.941406 536.820312 574.175781 C 536.730469 575.171875 536.628906 576.261719 536.523438 577.449219 C 536.90625 579.449219 536.90625 579.855469 536.53125 579.855469 C 536.398438 579.855469 536.230469 579.808594 536.015625 579.765625 C 535.800781 579.71875 535.542969 579.671875 535.242188 579.671875 C 533.640625 579.671875 530.835938 581.011719 526.890625 590.890625 C 525.296875 592.777344 523.925781 593.574219 522.785156 593.574219 " fill-opacity="1" fill-rule="nonzero"/><path fill="#bba6d2" d="M 518.210938 581.800781 C 518.210938 581.773438 518.210938 581.75 518.210938 581.726562 C 518.21875 575.800781 519.695312 569.878906 522.453125 569.878906 C 523.472656 569.878906 524.667969 570.691406 526.023438 572.605469 C 524.476562 574.804688 522.859375 576.9375 521.183594 579.019531 C 520.195312 579.957031 519.214844 580.875 518.210938 581.800781 " fill-opacity="1" fill-rule="nonzero"/><path fill="#9e8cb0" d="M 543.570312 577.863281 C 543.507812 577.863281 542.851562 573.816406 542.230469 572.375 C 542.070312 568.667969 541.792969 566.519531 541.425781 565.488281 C 541.433594 565.488281 541.441406 565.488281 541.449219 565.488281 C 542.113281 565.488281 542.667969 567.953125 543.074219 573.320312 C 543.472656 576.691406 543.609375 577.863281 543.570312 577.863281 M 538.527344 576.277344 C 538.453125 573.777344 538.398438 571.433594 538.34375 569.546875 C 539.210938 566.949219 540.085938 564.703125 540.789062 564.703125 C 541.019531 564.703125 541.234375 564.941406 541.425781 565.488281 C 540.597656 565.546875 539.601562 569.417969 538.527344 576.277344 M 536.820312 574.175781 C 537.417969 567.707031 537.761719 565.203125 537.984375 565.203125 C 538.167969 565.203125 538.261719 566.925781 538.34375 569.546875 C 537.824219 571.105469 537.304688 572.78125 536.820312 574.175781 " fill-opacity="1" fill-rule="nonzero"/><path fill="#9e8cb0" d="M 508.699219 645.371094 C 508.699219 642.40625 503.300781 636.734375 509.214844 636.734375 C 509.804688 636.734375 510.507812 636.789062 511.34375 636.910156 C 511.382812 637.011719 511.414062 637.101562 511.445312 637.195312 C 511.46875 637.371094 511.488281 637.5625 511.519531 637.753906 C 508.699219 638.84375 508.699219 642.105469 508.699219 645.371094 M 511.949219 638.230469 C 511.867188 638.230469 511.703125 637.929688 511.445312 637.195312 C 511.039062 634.121094 510.976562 633.0625 511.082031 633.0625 C 511.191406 633.0625 511.496094 634.351562 511.726562 635.648438 C 511.957031 636.933594 512.117188 638.230469 511.949219 638.230469 " fill-opacity="1" fill-rule="nonzero"/><path fill="#9e8cb0" d="M 486.472656 654.882812 C 486.417969 654.882812 486.265625 653.34375 486.304688 651.808594 C 486.496094 654.0625 486.511719 654.882812 486.472656 654.882812 M 486.304688 651.808594 C 486.265625 651.3125 486.210938 650.734375 486.152344 650.09375 C 486.265625 649.96875 486.351562 649.816406 486.410156 649.664062 C 486.390625 649.992188 486.359375 650.4375 486.34375 651.035156 C 486.328125 651.289062 486.3125 651.546875 486.304688 651.808594 M 486.410156 649.664062 C 486.457031 649.074219 486.511719 648.867188 486.535156 648.867188 C 486.574219 648.867188 486.566406 649.273438 486.410156 649.664062 " fill-opacity="1" fill-rule="nonzero"/><path fill="#9e8cb0" d="M 526.882812 639.019531 C 526.476562 639.019531 525.640625 636.894531 524.921875 632.902344 C 524.90625 632.8125 524.90625 632.773438 524.914062 632.773438 C 524.9375 632.773438 525.105469 633.46875 525.265625 634.167969 C 525.425781 634.863281 525.597656 635.5625 525.617188 635.5625 C 525.640625 635.5625 525.488281 634.644531 524.929688 631.746094 C 524.5 629.386719 524.5 628.542969 524.675781 628.542969 C 524.929688 628.542969 525.527344 630.144531 525.847656 631.59375 C 526.355469 633.960938 526.828125 636.160156 527.074219 637.195312 C 527.183594 638.421875 527.097656 639.019531 526.882812 639.019531 M 527.234375 637.800781 C 527.21875 637.800781 527.167969 637.578125 527.074219 637.195312 C 527.035156 636.8125 526.984375 636.367188 526.90625 635.855469 C 527.160156 637.226562 527.257812 637.800781 527.234375 637.800781 M 526.90625 635.855469 C 526.761719 635.0625 526.5625 634.023438 526.300781 632.671875 C 526.578125 633.921875 526.777344 634.980469 526.90625 635.855469 " fill-opacity="1" fill-rule="nonzero"/><path fill="#9e8cb0" d="M 405.96875 210.855469 C 402.589844 209.910156 401.714844 209.664062 400.128906 209.664062 C 399.585938 209.664062 398.957031 209.6875 398.113281 209.726562 C 399.339844 209.671875 400.574219 209.613281 401.722656 209.613281 C 403.691406 209.613281 405.441406 209.78125 406.605469 210.402344 C 406.503906 210.515625 406.296875 210.667969 405.96875 210.855469 M 398.070312 209.734375 C 398.085938 209.726562 398.097656 209.726562 398.113281 209.726562 C 398.097656 209.726562 398.085938 209.726562 398.070312 209.734375 " fill-opacity="1" fill-rule="nonzero"/><path fill="#9e8cb0" d="M 422.265625 200.820312 C 422.144531 200.820312 422.066406 200.800781 422.082031 200.753906 C 422.203125 200.5625 423.46875 192.167969 424.066406 192.167969 C 424.363281 192.167969 424.496094 194.207031 424.242188 200.269531 C 424.25 200.460938 422.800781 200.820312 422.265625 200.820312 " fill-opacity="1" fill-rule="nonzero"/><path fill="#9e8cb0" d="M 505.574219 175.363281 C 495.078125 175.363281 486.558594 166.847656 486.558594 156.34375 C 486.558594 145.835938 495.078125 137.320312 505.574219 137.320312 C 516.085938 137.320312 524.601562 145.835938 524.601562 156.34375 C 524.601562 166.847656 516.085938 175.363281 505.574219 175.363281 " fill-opacity="1" fill-rule="nonzero"/><path fill="#9e8cb0" d="M 533.003906 196.199219 C 529.074219 196.199219 525.894531 193.011719 525.894531 189.082031 C 525.894531 185.140625 529.074219 181.960938 533.003906 181.960938 C 536.9375 181.960938 540.121094 185.140625 540.121094 189.082031 C 540.121094 193.011719 536.9375 196.199219 533.003906 196.199219 " fill-opacity="1" fill-rule="nonzero"/><path fill="#9e8cb0" d="M 345.117188 196.285156 C 341.1875 196.285156 338 193.097656 338 189.164062 C 338 185.242188 341.1875 182.054688 345.117188 182.054688 C 349.046875 182.054688 352.226562 185.242188 352.226562 189.164062 C 352.226562 193.097656 349.046875 196.285156 345.117188 196.285156 " fill-opacity="1" fill-rule="nonzero"/></svg>