<svg xmlns="http://www.w3.org/2000/svg" xmlns:xlink="http://www.w3.org/1999/xlink" width="500" zoomAndPan="magnify" viewBox="0 0 375 374.999991" height="500" preserveAspectRatio="xMidYMid meet" version="1.0"><defs><clipPath id="b734051b92"><path d="M 22.5 0 L 55 0 L 55 37 L 22.5 37 Z M 22.5 0 " clip-rule="nonzero"/></clipPath><clipPath id="c556a6b9c7"><path d="M 258 308.441406 L 323.648438 308.441406 L 323.648438 374.871094 L 258 374.871094 Z M 258 308.441406 " clip-rule="nonzero"/></clipPath></defs><g clip-path="url(#b734051b92)"><path fill="#af9bc4" d="M 10.257812 -184.421875 C 12.816406 -179.804688 11.480469 -176.699219 8.609375 -173.652344 C -2.105469 -162.265625 -1.867188 -161.746094 10.96875 -154.273438 C 17.875 -150.25 24.308594 -145.410156 30.710938 -141.101562 C 29.800781 -125.894531 29.800781 -125.894531 44.753906 -111.710938 C 40.34375 -101.597656 43.035156 -92.464844 52.121094 -84.710938 C 49.492188 -80.566406 47.488281 -76.820312 44.925781 -73.511719 C 42 -69.742188 42.085938 -65.609375 42.003906 -61.222656 C 41.921875 -56.820312 44.414062 -54.609375 47.296875 -51.90625 C 51.183594 -48.253906 50.839844 -47.886719 47.09375 -37.292969 C 44.605469 -37.675781 42.046875 -38.066406 39.457031 -38.464844 C 37.117188 -35.964844 37.695312 -33.316406 39.976562 -31.519531 C 43.332031 -28.882812 47.21875 -26.941406 50.699219 -24.445312 C 52.160156 -23.398438 53.15625 -21.695312 54.570312 -20.054688 C 49.515625 -17.253906 46.433594 -19.910156 43.167969 -21.558594 C 39.867188 -23.222656 36.574219 -24.902344 33.566406 -26.429688 C 19.828125 -15.359375 18.746094 -12.117188 22.660156 6.738281 C 20.484375 6.617188 18.289062 7.101562 16.835938 6.28125 C 14.070312 4.722656 11.726562 2.414062 9.46875 0.625 C 0.476562 1.039062 -3.558594 5.878906 -3.957031 14.320312 C -7.789062 16.257812 -11.511719 18.136719 -15.742188 20.277344 C -14.472656 24.804688 -13.335938 28.851562 -12.242188 32.765625 C -15.101562 35.585938 -17.210938 34.53125 -19.003906 32.050781 C -21.328125 28.828125 -19.1875 22.789062 -26.300781 21.882812 C -29.113281 26.21875 -32.160156 30.921875 -35.867188 36.636719 C -39.609375 32.808594 -42.449219 29.902344 -45.867188 26.402344 C -53.015625 29.105469 -60.035156 31.761719 -68.136719 34.824219 C -72.496094 31.417969 -77.414062 27.5625 -83.222656 23.015625 C -85.117188 27.707031 -86.574219 31.304688 -88.015625 34.875 C -89.917969 34.199219 -91.214844 34.136719 -91.652344 33.492188 C -92.542969 32.1875 -92.933594 30.550781 -93.59375 29.074219 C -98.4375 18.273438 -99.441406 17.769531 -113.171875 19.878906 C -116.757812 14.410156 -119.097656 6.160156 -129.292969 6.777344 C -132.695312 9.574219 -136.625 12.804688 -140.683594 16.140625 C -144.246094 10.519531 -139.53125 8.492188 -138.097656 5.402344 C -135.660156 0.164062 -135.722656 -3.253906 -140.636719 -5.628906 C -147.128906 -8.765625 -149.519531 -14.691406 -153.144531 -21.117188 C -157.390625 -19.453125 -161.085938 -17.757812 -164.949219 -16.644531 C -166.089844 -16.316406 -168.339844 -17.253906 -168.917969 -18.273438 C -169.429688 -19.167969 -168.757812 -21.4375 -167.847656 -22.316406 C -165.238281 -24.839844 -162.242188 -26.964844 -158.722656 -29.789062 C -160.921875 -34.140625 -162.039062 -38.71875 -164.925781 -41.375 C -167.582031 -43.8125 -172.140625 -44.175781 -177.183594 -45.914062 C -174.433594 -48.496094 -173.054688 -50.097656 -171.378906 -51.285156 C -169.679688 -52.488281 -167.6875 -53.285156 -166 -54.167969 C -167.625 -66.144531 -169.054688 -67.578125 -178.199219 -66.75 C -180.84375 -66.511719 -183.46875 -65.9375 -186.113281 -65.878906 C -186.855469 -65.863281 -188.375 -67.378906 -188.246094 -67.800781 C -187.84375 -69.121094 -187.027344 -71.070312 -186.015625 -71.316406 C -181.921875 -72.304688 -177.675781 -72.648438 -173.535156 -73.472656 C -172.628906 -73.652344 -171.921875 -74.820312 -170.84375 -75.785156 C -167.972656 -84.503906 -171.738281 -90.972656 -178.847656 -95.800781 C -176.671875 -104.105469 -168.933594 -98.65625 -164.503906 -102.871094 C -166.167969 -105.65625 -167.933594 -108.625 -169.738281 -111.648438 C -167.609375 -116.410156 -160.398438 -113.773438 -159.066406 -120.128906 C -157.605469 -127.082031 -155.074219 -133.617188 -159.179688 -140.46875 C -159.882812 -141.636719 -159.574219 -143.414062 -159.699219 -144.570312 C -155.308594 -149.308594 -151.382812 -143.839844 -147.394531 -144.851562 C -140.234375 -147.730469 -136.308594 -153.125 -135.714844 -161.371094 C -133.191406 -161.714844 -131.15625 -161.914062 -129.144531 -162.273438 C -121.359375 -163.65625 -119.707031 -166.199219 -121.886719 -173.039062 C -123.011719 -176.5625 -123.894531 -180.164062 -124.933594 -183.714844 C -125.230469 -184.722656 -125.472656 -185.863281 -126.113281 -186.625 C -128.226562 -189.121094 -134.320312 -190.019531 -130.28125 -194.96875 C -126.996094 -198.996094 -122.378906 -197.324219 -118.269531 -195.648438 C -117.3125 -195.261719 -116.519531 -194.464844 -114.707031 -193.195312 C -116.15625 -190.785156 -117.648438 -188.3125 -119.675781 -184.9375 C -117.992188 -181.460938 -115.925781 -177.199219 -114.046875 -173.328125 C -104.4375 -173.027344 -104.210938 -173.027344 -104.242188 -179.664062 C -104.257812 -182.496094 -104.753906 -185.039062 -100.898438 -186.308594 C -95.394531 -185.699219 -96.40625 -178.222656 -90.382812 -176.058594 C -87.902344 -176.671875 -84.183594 -177.222656 -80.75 -178.527344 C -75.289062 -180.59375 -72.195312 -184.53125 -71.609375 -190.6875 C -71 -197.09375 -69.605469 -203.425781 -68.5 -210.109375 C -60.039062 -202.605469 -64.738281 -192.566406 -62.191406 -183.265625 C -58.296875 -185.101562 -55.101562 -186.605469 -51.957031 -188.089844 C -45.660156 -178.707031 -45.660156 -178.707031 -33.976562 -179.8125 C -31.375 -186.148438 -28.738281 -192.570312 -26.105469 -198.996094 C -25.5625 -198.90625 -25.019531 -198.816406 -24.476562 -198.730469 C -24.660156 -195.304688 -24.175781 -191.667969 -25.167969 -188.496094 C -27.101562 -182.296875 -25.007812 -177.984375 -20.273438 -174.359375 C -18.554688 -173.042969 -16.859375 -171.679688 -15.027344 -170.535156 C -8.601562 -166.539062 -4.121094 -167.464844 -0.0429688 -173.871094 C 2.503906 -177.871094 3.484375 -183.171875 10.257812 -184.421875 " fill-opacity="1" fill-rule="nonzero"/></g><path fill="#af9bc4" d="M 32.796875 57.214844 C 32.148438 54.730469 31.714844 53.074219 31.136719 50.875 C 33.34375 47.9375 38.699219 47.207031 38.578125 41.667969 C 38.496094 38.097656 43.46875 34.664062 37.453125 30.871094 C 45.371094 25.816406 52.210938 21.402344 59.109375 17.074219 C 62.035156 15.238281 64.976562 13.382812 68.085938 11.890625 C 71.765625 10.128906 72.765625 6.941406 73.042969 3.328125 C 76.902344 4.308594 81.136719 6.863281 83.769531 5.726562 C 88.125 3.847656 91.292969 8.683594 95.332031 6.105469 C 96.164062 4.554688 97.140625 2.734375 98.121094 0.90625 C 98.832031 1.339844 99.808594 1.578125 100.089844 2.15625 C 103.636719 9.460938 105.480469 10.25 111.722656 6.785156 C 113.210938 5.957031 114.542969 4.835938 115.382812 4.242188 C 124.992188 13.183594 134.511719 20.824219 149.457031 19.039062 C 148.449219 21.75 147.609375 23.992188 146.605469 26.691406 C 148.464844 30.855469 150.539062 35.5 152.617188 40.144531 C 154.296875 40.589844 155.96875 41.027344 157.886719 41.527344 C 156.972656 43.152344 156.152344 44.609375 155.015625 46.628906 C 156.945312 47.945312 158.921875 49.292969 160.882812 50.628906 C 160.53125 53.992188 159.046875 57.761719 160.117188 60.554688 C 161.492188 64.136719 158.753906 66.25 158.871094 69.203125 C 159.035156 73.25 163.023438 73.292969 165.105469 75.617188 C 163.160156 78.875 157.886719 78.777344 157.882812 83.738281 C 157.875 88.257812 163.128906 88.117188 163.992188 91.550781 C 162.851562 95.207031 159.269531 92.613281 157.195312 94.429688 C 157.8125 96.203125 158.464844 98.070312 159.253906 100.324219 C 157.769531 100.414062 156.5625 100.574219 155.359375 100.542969 C 151.789062 100.445312 148.890625 101.953125 148.992188 105.566406 C 149.097656 109.175781 147.683594 110.847656 145.105469 112.976562 C 144.007812 113.882812 145.25 117.625 145.433594 120.199219 C 142.929688 122.238281 139.011719 118.789062 136.40625 123.074219 C 135.035156 125.328125 130.078125 125.195312 126.988281 126.664062 C 123.847656 128.152344 120.765625 129.996094 118.140625 132.246094 C 116.757812 133.433594 116.410156 135.824219 115.277344 138.386719 C 112.675781 136.433594 110.644531 134.917969 107.96875 132.910156 C 106.511719 134.054688 104.910156 135.308594 103.316406 136.566406 C 96.519531 133.175781 96.519531 133.175781 89.464844 137.21875 C 85.820312 137.015625 83.964844 131.855469 79.261719 133.304688 C 75.074219 134.59375 72.058594 132.742188 69.234375 129.089844 C 67.957031 127.4375 63.789062 128.023438 59.929688 127.445312 C 58.335938 124.171875 57.894531 118.363281 51.261719 118.898438 C 50.542969 118.957031 49.699219 116.167969 48.742188 114.820312 C 47.527344 113.121094 46.425781 110.640625 44.757812 110.105469 C 41.484375 109.046875 41.25 107.082031 40.945312 104.257812 C 40.574219 100.828125 40.21875 100.867188 34.988281 98.066406 C 35.40625 95.894531 35.84375 93.609375 36.402344 90.710938 C 32.726562 90.269531 29.511719 89.886719 26.429688 89.519531 C 26.382812 83.726562 33.03125 86.832031 33.867188 81.839844 C 33.117188 79.410156 31.492188 76.238281 31.328125 72.996094 C 31.1875 70.1875 32.710938 67.296875 33.589844 64.101562 C 30.152344 62.144531 27.304688 60.515625 24.484375 58.90625 C 24.949219 57.96875 25.125 57.269531 25.324219 57.261719 C 27.703125 57.1875 30.085938 57.214844 32.796875 57.214844 " fill-opacity="1" fill-rule="nonzero"/><g clip-path="url(#c556a6b9c7)"><path fill="#af9bc4" d="M 323.292969 346.097656 C 317.554688 349.714844 318.613281 355.847656 317.90625 360.984375 C 314.996094 363.523438 312.265625 365.710938 309.769531 368.136719 C 303.382812 374.304688 295.957031 376.183594 287.398438 374.035156 C 285.710938 373.609375 283.941406 373.558594 282.214844 373.300781 C 268.09375 371.179688 253.492188 353.871094 259.46875 334.300781 C 262.296875 325.035156 269.660156 318.628906 278.0625 313.765625 C 285.421875 314.835938 291.421875 310.464844 298.113281 308.84375 C 302.097656 307.875 306.277344 310.375 306.582031 314.839844 C 306.9375 320.09375 308.976562 322.453125 313.847656 324.179688 C 315.847656 324.882812 316.054688 330.195312 318.144531 331.222656 C 322.011719 333.109375 322.164062 334.800781 320.324219 338.0625 C 318.269531 341.691406 322.035156 343.46875 323.292969 346.097656 " fill-opacity="1" fill-rule="nonzero"/></g><path fill="#af9bc4" d="M 212.070312 209.152344 C 221.707031 213.140625 227.398438 219.015625 225.742188 230.125 C 229.621094 232.949219 233.4375 235.785156 237.308594 238.527344 C 247.820312 245.964844 249.761719 257.386719 240.605469 267.917969 C 238.078125 270.832031 234.949219 273.222656 232.554688 275.425781 C 216.386719 272.800781 210.542969 261.214844 205.550781 247.714844 C 206.808594 247.007812 208.554688 246.128906 210.179688 245.078125 C 211.800781 244.027344 213.292969 242.804688 215.367188 241.265625 C 209.863281 239.128906 205.320312 237.609375 200.988281 235.613281 C 197.890625 234.179688 196.128906 236.671875 193.761719 237.359375 C 190.917969 238.175781 188.523438 237.597656 186.925781 235.070312 C 185.386719 232.625 186.664062 229.511719 189.917969 227.507812 C 190.640625 227.066406 191.734375 227.164062 192.363281 226.652344 C 193.644531 225.601562 195.089844 224.496094 195.839844 223.082031 C 201.136719 213.066406 201.082031 213.042969 212.070312 209.152344 " fill-opacity="1" fill-rule="nonzero"/><path fill="#af9bc4" d="M 110.453125 292.78125 C 97.554688 292.847656 88.792969 284.394531 88.578125 271.664062 C 88.40625 261.597656 99.882812 251.066406 110.570312 251.484375 C 121.6875 251.917969 130.738281 261.550781 130.828125 273.046875 C 130.910156 283.628906 121.515625 292.722656 110.453125 292.78125 " fill-opacity="1" fill-rule="nonzero"/><path fill="#af9bc4" d="M 269.160156 303.605469 C 267.921875 305.507812 266.820312 307.398438 265.542969 309.15625 C 259.339844 317.710938 247.980469 319.902344 239.140625 314.304688 C 229.285156 308.066406 228.71875 291.644531 238.300781 285.015625 C 240.757812 283.3125 243.699219 281.902344 246.617188 281.320312 C 251.332031 280.375 257.132812 279.558594 260.332031 283.21875 C 263.730469 287.089844 269.65625 290.238281 268.15625 297.296875 C 267.742188 299.246094 268.789062 301.515625 269.160156 303.605469 " fill-opacity="1" fill-rule="nonzero"/><path fill="#af9bc4" d="M 173.347656 184.195312 C 178.0625 184.28125 181.5 187.929688 181.371094 192.714844 C 181.234375 197.839844 178.175781 201.015625 173.269531 201.148438 C 167.675781 201.300781 164.164062 197.636719 164.59375 192.101562 C 164.957031 187.367188 168.566406 184.105469 173.347656 184.195312 " fill-opacity="1" fill-rule="nonzero"/><path fill="#af9bc4" d="M 146.355469 189.167969 C 145.988281 192.75 142.753906 195.5625 139.214844 195.375 C 135.566406 195.1875 132.855469 191.9375 133.25 188.21875 C 133.628906 184.636719 136.980469 181.640625 140.308594 181.898438 C 143.75 182.167969 146.710938 185.722656 146.355469 189.167969 " fill-opacity="1" fill-rule="nonzero"/><path fill="#af9bc4" d="M 105.320312 166.527344 C 102.132812 166.335938 99.445312 163.710938 99.511719 160.859375 C 99.59375 157.378906 102.667969 154.066406 105.902344 153.984375 C 109.175781 153.898438 112.277344 157.160156 112.261719 160.675781 C 112.246094 164.183594 109.1875 166.761719 105.320312 166.527344 " fill-opacity="1" fill-rule="nonzero"/><path fill="#af9bc4" d="M 323.082031 307.179688 C 322.097656 308.5625 321.25 310.746094 319.671875 311.675781 C 318.078125 312.597656 315.75 312.308594 313.742188 312.441406 C 313.4375 312.46875 312.777344 311.832031 312.824219 311.632812 C 313.285156 309.671875 313.390625 307.382812 314.523438 305.890625 C 316.105469 303.800781 318.578125 302.542969 321.285156 304.394531 C 321.917969 304.832031 322.203125 305.773438 323.082031 307.179688 " fill-opacity="1" fill-rule="nonzero"/><path fill="#af9bc4" d="M 337.179688 239.269531 C 334.886719 240.691406 333.671875 241.917969 332.277344 242.183594 C 330.347656 242.554688 328.125 239.855469 328.898438 238 C 329.425781 236.722656 331.425781 234.886719 332.199219 235.121094 C 333.78125 235.613281 335 237.332031 337.179688 239.269531 " fill-opacity="1" fill-rule="nonzero"/><path fill="#af9bc4" d="M 157.722656 315.765625 C 156.320312 317.042969 155.589844 318.203125 154.589844 318.507812 C 152.433594 319.164062 149.929688 317.023438 150.652344 315.027344 C 151.101562 313.796875 152.988281 312.222656 154.078125 312.335938 C 155.277344 312.453125 156.296875 314.324219 157.722656 315.765625 " fill-opacity="1" fill-rule="nonzero"/><path fill="#af9bc4" d="M 211.011719 104.105469 C 216.113281 102.265625 216.234375 106.210938 216.378906 109.945312 C 214.695312 107.914062 213.007812 105.878906 211.320312 103.847656 L 211.011719 104.105469 " fill-opacity="1" fill-rule="nonzero"/><path fill="#af9bc4" d="M 340.449219 280 C 337.105469 281.226562 336.105469 281.589844 335.113281 281.957031 C 334.757812 280.964844 334.234375 279.984375 334.132812 278.976562 C 334.109375 278.691406 335.382812 277.910156 335.9375 278.015625 C 337.027344 278.222656 338.027344 278.886719 340.449219 280 " fill-opacity="1" fill-rule="nonzero"/></svg>