<svg xmlns="http://www.w3.org/2000/svg" xmlns:xlink="http://www.w3.org/1999/xlink" width="500" zoomAndPan="magnify" viewBox="0 0 375 374.999991" height="500" preserveAspectRatio="xMidYMid meet" version="1.0"><defs><g/></defs><g fill="#000000" fill-opacity="1"><g transform="translate(11.556883, 201.126278)"><g><path d="M 19.828125 0.953125 C 14.710938 0.953125 10.769531 -0.253906 8 -2.671875 C 5.238281 -5.085938 3.875 -8.707031 3.90625 -13.53125 L 12.53125 -13.53125 C 12.488281 -11.519531 13.082031 -9.984375 14.3125 -8.921875 C 15.550781 -7.867188 17.28125 -7.34375 19.5 -7.34375 C 21.332031 -7.34375 22.773438 -7.640625 23.828125 -8.234375 C 24.890625 -8.835938 25.421875 -9.757812 25.421875 -11 C 25.421875 -12.019531 24.882812 -12.757812 23.8125 -13.21875 C 22.738281 -13.675781 21.671875 -14 20.609375 -14.1875 C 19.554688 -14.382812 18.90625 -14.5 18.65625 -14.53125 C 15.945312 -15.0625 13.601562 -15.707031 11.625 -16.46875 C 9.65625 -17.226562 8 -18.378906 6.65625 -19.921875 C 5.320312 -21.472656 4.65625 -23.519531 4.65625 -26.0625 C 4.65625 -28.59375 5.320312 -30.75 6.65625 -32.53125 C 8 -34.3125 9.785156 -35.640625 12.015625 -36.515625 C 14.253906 -37.398438 16.695312 -37.84375 19.34375 -37.84375 C 22.550781 -37.84375 25.328125 -37.242188 27.671875 -36.046875 C 30.015625 -34.847656 31.859375 -33.035156 33.203125 -30.609375 C 33.867188 -29.441406 34.269531 -28.320312 34.40625 -27.25 C 34.550781 -26.175781 34.625 -25.128906 34.625 -24.109375 L 26 -24.109375 C 26 -26.003906 25.488281 -27.398438 24.46875 -28.296875 C 23.445312 -29.203125 21.863281 -29.65625 19.71875 -29.65625 C 17.988281 -29.65625 16.644531 -29.351562 15.6875 -28.75 C 14.738281 -28.15625 14.265625 -27.347656 14.265625 -26.328125 C 14.265625 -25.191406 14.898438 -24.359375 16.171875 -23.828125 C 17.441406 -23.304688 19.046875 -22.832031 20.984375 -22.40625 C 24.160156 -21.769531 26.632812 -21.160156 28.40625 -20.578125 C 30.1875 -20.003906 31.726562 -18.976562 33.03125 -17.5 C 34.34375 -16.019531 35 -13.941406 35 -11.265625 C 35 -8.722656 34.289062 -6.535156 32.875 -4.703125 C 31.46875 -2.867188 29.609375 -1.46875 27.296875 -0.5 C 24.992188 0.46875 22.503906 0.953125 19.828125 0.953125 Z M 19.828125 0.953125 "/></g></g></g><g fill="#000000" fill-opacity="1"><g transform="translate(50.664172, 201.126278)"><g><path d="M 4.234375 -22.46875 C 4.234375 -25.21875 4.921875 -27.769531 6.296875 -30.125 C 7.671875 -32.488281 9.523438 -34.359375 11.859375 -35.734375 C 14.203125 -37.109375 16.769531 -37.796875 19.5625 -37.796875 C 22.34375 -37.796875 24.90625 -37.109375 27.25 -35.734375 C 29.59375 -34.359375 31.453125 -32.488281 32.828125 -30.125 C 34.203125 -27.769531 34.890625 -25.21875 34.890625 -22.46875 L 34.890625 -14.328125 C 34.890625 -11.578125 34.203125 -9.019531 32.828125 -6.65625 C 31.453125 -4.300781 29.59375 -2.4375 27.25 -1.0625 C 24.90625 0.3125 22.34375 1 19.5625 1 C 16.769531 1 14.203125 0.3125 11.859375 -1.0625 C 9.523438 -2.4375 7.671875 -4.300781 6.296875 -6.65625 C 4.921875 -9.019531 4.234375 -11.578125 4.234375 -14.328125 Z M 13.84375 -14.328125 C 13.84375 -12.628906 14.367188 -11.179688 15.421875 -9.984375 C 16.484375 -8.785156 17.863281 -8.1875 19.5625 -8.1875 C 21.21875 -8.1875 22.570312 -8.785156 23.625 -9.984375 C 24.6875 -11.179688 25.21875 -12.628906 25.21875 -14.328125 L 25.21875 -22.515625 C 25.21875 -24.242188 24.6875 -25.6875 23.625 -26.84375 C 22.570312 -28.007812 21.21875 -28.59375 19.5625 -28.59375 C 17.863281 -28.59375 16.484375 -28.007812 15.421875 -26.84375 C 14.367188 -25.6875 13.84375 -24.242188 13.84375 -22.515625 Z M 13.84375 -14.328125 "/></g></g></g><g fill="#000000" fill-opacity="1"><g transform="translate(89.771461, 201.126278)"><g><path d="M 4.703125 -36.84375 L 6.8125 -36.84375 L 19.65625 -14.109375 L 32.453125 -36.84375 L 34.40625 -36.84375 L 34.40625 -0.046875 L 4.703125 -0.046875 Z M 6.65625 -1.953125 L 32.453125 -1.953125 L 32.453125 -32.875 L 20.5625 -11.953125 L 18.71875 -11.953125 L 6.65625 -33.203125 Z M 6.65625 -1.953125 "/></g></g></g><g fill="#000000" fill-opacity="1"><g transform="translate(128.878749, 201.126278)"><g><path d="M 4.703125 -36.84375 L 6.8125 -36.84375 L 19.65625 -14.109375 L 32.453125 -36.84375 L 34.40625 -36.84375 L 34.40625 -0.046875 L 4.703125 -0.046875 Z M 6.65625 -1.953125 L 32.453125 -1.953125 L 32.453125 -32.875 L 20.5625 -11.953125 L 18.71875 -11.953125 L 6.65625 -33.203125 Z M 6.65625 -1.953125 "/></g></g></g><g fill="#000000" fill-opacity="1"><g transform="translate(167.986038, 201.126278)"><g><path d="M 34.734375 -13.90625 C 34.765625 -9.289062 33.441406 -5.6875 30.765625 -3.09375 C 28.085938 -0.5 24.40625 0.796875 19.71875 0.796875 C 16.9375 0.796875 14.375 0.160156 12.03125 -1.109375 C 9.6875 -2.378906 7.828125 -4.175781 6.453125 -6.5 C 5.078125 -8.820312 4.390625 -11.5 4.390625 -14.53125 L 4.390625 -22.25 C 4.390625 -25.25 5.050781 -27.910156 6.375 -30.234375 C 7.695312 -32.554688 9.507812 -34.359375 11.8125 -35.640625 C 14.125 -36.929688 16.707031 -37.578125 19.5625 -37.578125 C 24.25 -37.578125 27.921875 -36.300781 30.578125 -33.75 C 33.234375 -31.195312 34.582031 -27.59375 34.625 -22.9375 L 25.109375 -22.9375 C 25.078125 -24.738281 24.59375 -26.128906 23.65625 -27.109375 C 22.71875 -28.097656 21.351562 -28.59375 19.5625 -28.59375 C 17.9375 -28.59375 16.59375 -28.082031 15.53125 -27.0625 C 14.476562 -26.039062 13.953125 -24.597656 13.953125 -22.734375 L 13.953125 -14.109375 C 13.953125 -12.242188 14.503906 -10.789062 15.609375 -9.75 C 16.722656 -8.707031 18.09375 -8.1875 19.71875 -8.1875 C 23.414062 -8.1875 25.265625 -10.09375 25.265625 -13.90625 Z M 34.734375 -13.90625 "/></g></g></g><g fill="#000000" fill-opacity="1"><g transform="translate(207.093327, 201.126278)"><g><path d="M 4.234375 -22.46875 C 4.234375 -25.21875 4.921875 -27.769531 6.296875 -30.125 C 7.671875 -32.488281 9.523438 -34.359375 11.859375 -35.734375 C 14.203125 -37.109375 16.769531 -37.796875 19.5625 -37.796875 C 22.34375 -37.796875 24.90625 -37.109375 27.25 -35.734375 C 29.59375 -34.359375 31.453125 -32.488281 32.828125 -30.125 C 34.203125 -27.769531 34.890625 -25.21875 34.890625 -22.46875 L 34.890625 -14.328125 C 34.890625 -11.578125 34.203125 -9.019531 32.828125 -6.65625 C 31.453125 -4.300781 29.59375 -2.4375 27.25 -1.0625 C 24.90625 0.3125 22.34375 1 19.5625 1 C 16.769531 1 14.203125 0.3125 11.859375 -1.0625 C 9.523438 -2.4375 7.671875 -4.300781 6.296875 -6.65625 C 4.921875 -9.019531 4.234375 -11.578125 4.234375 -14.328125 Z M 13.84375 -14.328125 C 13.84375 -12.628906 14.367188 -11.179688 15.421875 -9.984375 C 16.484375 -8.785156 17.863281 -8.1875 19.5625 -8.1875 C 21.21875 -8.1875 22.570312 -8.785156 23.625 -9.984375 C 24.6875 -11.179688 25.21875 -12.628906 25.21875 -14.328125 L 25.21875 -22.515625 C 25.21875 -24.242188 24.6875 -25.6875 23.625 -26.84375 C 22.570312 -28.007812 21.21875 -28.59375 19.5625 -28.59375 C 17.863281 -28.59375 16.484375 -28.007812 15.421875 -26.84375 C 14.367188 -25.6875 13.84375 -24.242188 13.84375 -22.515625 Z M 13.84375 -14.328125 "/></g></g></g><g fill="#000000" fill-opacity="1"><g transform="translate(246.200615, 201.126278)"><g><path d="M 6.34375 0 L 6.34375 -36.796875 L 20.03125 -36.796875 C 22.707031 -36.796875 25.179688 -36.125 27.453125 -34.78125 C 29.734375 -33.4375 31.539062 -31.628906 32.875 -29.359375 C 34.21875 -27.085938 34.890625 -24.613281 34.890625 -21.9375 L 34.890625 -14.859375 C 34.890625 -12.179688 34.21875 -9.703125 32.875 -7.421875 C 31.539062 -5.148438 29.734375 -3.34375 27.453125 -2 C 25.179688 -0.664062 22.707031 0 20.03125 0 Z M 6.34375 0 "/></g></g></g><g fill="#000000" fill-opacity="1"><g transform="translate(285.307904, 201.126278)"><g><path d="M 6.34375 -36.796875 L 33.140625 -36.796875 L 33.140625 -27.484375 L 15.96875 -27.484375 L 15.96875 -22.828125 L 30.234375 -22.828125 L 30.234375 -14 L 15.96875 -14 L 15.96875 -9.296875 L 33.140625 -9.296875 L 33.140625 0 L 6.34375 0 Z M 6.34375 -36.796875 "/></g></g></g><g fill="#000000" fill-opacity="1"><g transform="translate(324.415193, 201.126278)"><g><path d="M 34.78125 0 L 6.5 0 L 6.5 -36.796875 L 20.828125 -36.796875 C 23.890625 -36.796875 26.390625 -36.25 28.328125 -35.15625 C 30.234375 -34.09375 31.710938 -32.644531 32.765625 -30.8125 C 33.828125 -28.976562 34.359375 -26.953125 34.359375 -24.734375 C 34.359375 -21.984375 33.507812 -19.523438 31.8125 -17.359375 C 30.125 -15.191406 27.992188 -13.757812 25.421875 -13.0625 Z M 9.828125 -34.828125 L 24.203125 -14.75 C 26.566406 -15.238281 28.523438 -16.414062 30.078125 -18.28125 C 31.628906 -20.15625 32.40625 -22.304688 32.40625 -24.734375 C 32.40625 -26.671875 31.925781 -28.429688 30.96875 -30.015625 C 30.019531 -31.609375 28.679688 -32.828125 26.953125 -33.671875 C 25.398438 -34.441406 23.375 -34.828125 20.875 -34.828125 Z M 8.453125 -33.5625 L 8.453125 -14.59375 L 22.046875 -14.59375 Z M 8.453125 -1.953125 L 31.078125 -1.953125 L 23.359375 -12.6875 L 21.71875 -12.640625 L 8.453125 -12.640625 Z M 8.453125 -1.953125 "/></g></g></g><path stroke-linecap="butt" transform="matrix(0.000000000000000046, -0.75174, 0.75, 0.000000000000000046, 108.889685, 220.47192)" fill="none" stroke-linejoin="miter" d="M -0.000979498 1.001254 L 26.946916 1.001254 " stroke="#000000" stroke-width="2" stroke-opacity="1" stroke-miterlimit="4"/><path stroke-linecap="butt" transform="matrix(0.000000000000000046, -0.75174, 0.75, 0.000000000000000046, 148.200873, 220.47192)" fill="none" stroke-linejoin="miter" d="M -0.000979498 0.997794 L 26.946916 0.997794 " stroke="#000000" stroke-width="2" stroke-opacity="1" stroke-miterlimit="4"/><path stroke-linecap="butt" transform="matrix(-0.75174, -0.000000000000000092, 0.000000000000000092, -0.75, 119.741248, 223.099922)" fill="none" stroke-linejoin="miter" d="M -0.00124998 1.497813 L 26.946645 1.497813 " stroke="#000000" stroke-width="3" stroke-opacity="1" stroke-miterlimit="4"/><path stroke-linecap="butt" transform="matrix(-0.75174, -0.000000000000000092, 0.000000000000000092, -0.75, 159.052436, 223.099922)" fill="none" stroke-linejoin="miter" d="M 0.00220183 1.497813 L 26.944901 1.497813 " stroke="#000000" stroke-width="3" stroke-opacity="1" stroke-miterlimit="4"/></svg>