<svg xmlns="http://www.w3.org/2000/svg" xmlns:xlink="http://www.w3.org/1999/xlink" width="500" zoomAndPan="magnify" viewBox="0 0 375 374.999991" height="500" preserveAspectRatio="xMidYMid meet" version="1.0"><defs><g/></defs><g fill="#ffffff" fill-opacity="1"><g transform="translate(11.504675, 207.755187)"><g><path d="M 19.828125 0.953125 C 14.710938 0.953125 10.769531 -0.253906 8 -2.671875 C 5.238281 -5.085938 3.875 -8.707031 3.90625 -13.53125 L 12.53125 -13.53125 C 12.488281 -11.519531 13.082031 -9.984375 14.3125 -8.921875 C 15.550781 -7.867188 17.28125 -7.34375 19.5 -7.34375 C 21.332031 -7.34375 22.773438 -7.640625 23.828125 -8.234375 C 24.890625 -8.835938 25.421875 -9.757812 25.421875 -11 C 25.421875 -12.019531 24.882812 -12.757812 23.8125 -13.21875 C 22.738281 -13.675781 21.671875 -14 20.609375 -14.1875 C 19.554688 -14.382812 18.90625 -14.5 18.65625 -14.53125 C 15.945312 -15.0625 13.601562 -15.707031 11.625 -16.46875 C 9.65625 -17.226562 8 -18.378906 6.65625 -19.921875 C 5.320312 -21.472656 4.65625 -23.519531 4.65625 -26.0625 C 4.65625 -28.59375 5.320312 -30.75 6.65625 -32.53125 C 8 -34.3125 9.785156 -35.640625 12.015625 -36.515625 C 14.253906 -37.398438 16.695312 -37.84375 19.34375 -37.84375 C 22.550781 -37.84375 25.328125 -37.242188 27.671875 -36.046875 C 30.015625 -34.847656 31.859375 -33.035156 33.203125 -30.609375 C 33.867188 -29.441406 34.269531 -28.320312 34.40625 -27.25 C 34.550781 -26.175781 34.625 -25.128906 34.625 -24.109375 L 26 -24.109375 C 26 -26.003906 25.488281 -27.398438 24.46875 -28.296875 C 23.445312 -29.203125 21.863281 -29.65625 19.71875 -29.65625 C 17.988281 -29.65625 16.644531 -29.351562 15.6875 -28.75 C 14.738281 -28.15625 14.265625 -27.347656 14.265625 -26.328125 C 14.265625 -25.191406 14.898438 -24.359375 16.171875 -23.828125 C 17.441406 -23.304688 19.046875 -22.832031 20.984375 -22.40625 C 24.160156 -21.769531 26.632812 -21.160156 28.40625 -20.578125 C 30.1875 -20.003906 31.726562 -18.976562 33.03125 -17.5 C 34.34375 -16.019531 35 -13.941406 35 -11.265625 C 35 -8.722656 34.289062 -6.535156 32.875 -4.703125 C 31.46875 -2.867188 29.609375 -1.46875 27.296875 -0.5 C 24.992188 0.46875 22.503906 0.953125 19.828125 0.953125 Z M 19.828125 0.953125 "/></g></g></g><g fill="#ffffff" fill-opacity="1"><g transform="translate(50.614776, 207.755187)"><g><path d="M 4.234375 -22.46875 C 4.234375 -25.21875 4.921875 -27.769531 6.296875 -30.125 C 7.671875 -32.488281 9.523438 -34.359375 11.859375 -35.734375 C 14.203125 -37.109375 16.769531 -37.796875 19.5625 -37.796875 C 22.34375 -37.796875 24.90625 -37.109375 27.25 -35.734375 C 29.59375 -34.359375 31.453125 -32.488281 32.828125 -30.125 C 34.203125 -27.769531 34.890625 -25.21875 34.890625 -22.46875 L 34.890625 -14.328125 C 34.890625 -11.578125 34.203125 -9.019531 32.828125 -6.65625 C 31.453125 -4.300781 29.59375 -2.4375 27.25 -1.0625 C 24.90625 0.3125 22.34375 1 19.5625 1 C 16.769531 1 14.203125 0.3125 11.859375 -1.0625 C 9.523438 -2.4375 7.671875 -4.300781 6.296875 -6.65625 C 4.921875 -9.019531 4.234375 -11.578125 4.234375 -14.328125 Z M 13.84375 -14.328125 C 13.84375 -12.628906 14.367188 -11.179688 15.421875 -9.984375 C 16.484375 -8.785156 17.863281 -8.1875 19.5625 -8.1875 C 21.21875 -8.1875 22.570312 -8.785156 23.625 -9.984375 C 24.6875 -11.179688 25.21875 -12.628906 25.21875 -14.328125 L 25.21875 -22.515625 C 25.21875 -24.242188 24.6875 -25.6875 23.625 -26.84375 C 22.570312 -28.007812 21.21875 -28.59375 19.5625 -28.59375 C 17.863281 -28.59375 16.484375 -28.007812 15.421875 -26.84375 C 14.367188 -25.6875 13.84375 -24.242188 13.84375 -22.515625 Z M 13.84375 -14.328125 "/></g></g></g><g fill="#ffffff" fill-opacity="1"><g transform="translate(89.724877, 207.755187)"><g><path d="M 4.703125 -36.84375 L 6.8125 -36.84375 L 19.65625 -14.109375 L 32.453125 -36.84375 L 34.40625 -36.84375 L 34.40625 -0.046875 L 4.703125 -0.046875 Z M 6.65625 -1.953125 L 32.453125 -1.953125 L 32.453125 -32.875 L 20.5625 -11.953125 L 18.71875 -11.953125 L 6.65625 -33.203125 Z M 6.65625 -1.953125 "/></g></g></g><g fill="#ffffff" fill-opacity="1"><g transform="translate(128.834979, 207.755187)"><g><path d="M 4.703125 -36.84375 L 6.8125 -36.84375 L 19.65625 -14.109375 L 32.453125 -36.84375 L 34.40625 -36.84375 L 34.40625 -0.046875 L 4.703125 -0.046875 Z M 6.65625 -1.953125 L 32.453125 -1.953125 L 32.453125 -32.875 L 20.5625 -11.953125 L 18.71875 -11.953125 L 6.65625 -33.203125 Z M 6.65625 -1.953125 "/></g></g></g><g fill="#ffffff" fill-opacity="1"><g transform="translate(167.94508, 207.755187)"><g><path d="M 34.734375 -13.90625 C 34.765625 -9.289062 33.441406 -5.6875 30.765625 -3.09375 C 28.085938 -0.5 24.40625 0.796875 19.71875 0.796875 C 16.9375 0.796875 14.375 0.160156 12.03125 -1.109375 C 9.6875 -2.378906 7.828125 -4.175781 6.453125 -6.5 C 5.078125 -8.820312 4.390625 -11.5 4.390625 -14.53125 L 4.390625 -22.25 C 4.390625 -25.25 5.050781 -27.910156 6.375 -30.234375 C 7.695312 -32.554688 9.507812 -34.359375 11.8125 -35.640625 C 14.125 -36.929688 16.707031 -37.578125 19.5625 -37.578125 C 24.25 -37.578125 27.921875 -36.300781 30.578125 -33.75 C 33.234375 -31.195312 34.582031 -27.59375 34.625 -22.9375 L 25.109375 -22.9375 C 25.078125 -24.738281 24.59375 -26.128906 23.65625 -27.109375 C 22.71875 -28.097656 21.351562 -28.59375 19.5625 -28.59375 C 17.9375 -28.59375 16.59375 -28.082031 15.53125 -27.0625 C 14.476562 -26.039062 13.953125 -24.597656 13.953125 -22.734375 L 13.953125 -14.109375 C 13.953125 -12.242188 14.503906 -10.789062 15.609375 -9.75 C 16.722656 -8.707031 18.09375 -8.1875 19.71875 -8.1875 C 23.414062 -8.1875 25.265625 -10.09375 25.265625 -13.90625 Z M 34.734375 -13.90625 "/></g></g></g><g fill="#ffffff" fill-opacity="1"><g transform="translate(207.05517, 207.755187)"><g><path d="M 4.234375 -22.46875 C 4.234375 -25.21875 4.921875 -27.769531 6.296875 -30.125 C 7.671875 -32.488281 9.523438 -34.359375 11.859375 -35.734375 C 14.203125 -37.109375 16.769531 -37.796875 19.5625 -37.796875 C 22.34375 -37.796875 24.90625 -37.109375 27.25 -35.734375 C 29.59375 -34.359375 31.453125 -32.488281 32.828125 -30.125 C 34.203125 -27.769531 34.890625 -25.21875 34.890625 -22.46875 L 34.890625 -14.328125 C 34.890625 -11.578125 34.203125 -9.019531 32.828125 -6.65625 C 31.453125 -4.300781 29.59375 -2.4375 27.25 -1.0625 C 24.90625 0.3125 22.34375 1 19.5625 1 C 16.769531 1 14.203125 0.3125 11.859375 -1.0625 C 9.523438 -2.4375 7.671875 -4.300781 6.296875 -6.65625 C 4.921875 -9.019531 4.234375 -11.578125 4.234375 -14.328125 Z M 13.84375 -14.328125 C 13.84375 -12.628906 14.367188 -11.179688 15.421875 -9.984375 C 16.484375 -8.785156 17.863281 -8.1875 19.5625 -8.1875 C 21.21875 -8.1875 22.570312 -8.785156 23.625 -9.984375 C 24.6875 -11.179688 25.21875 -12.628906 25.21875 -14.328125 L 25.21875 -22.515625 C 25.21875 -24.242188 24.6875 -25.6875 23.625 -26.84375 C 22.570312 -28.007812 21.21875 -28.59375 19.5625 -28.59375 C 17.863281 -28.59375 16.484375 -28.007812 15.421875 -26.84375 C 14.367188 -25.6875 13.84375 -24.242188 13.84375 -22.515625 Z M 13.84375 -14.328125 "/></g></g></g><g fill="#ffffff" fill-opacity="1"><g transform="translate(246.16526, 207.755187)"><g><path d="M 6.34375 0 L 6.34375 -36.796875 L 20.03125 -36.796875 C 22.707031 -36.796875 25.179688 -36.125 27.453125 -34.78125 C 29.734375 -33.4375 31.539062 -31.628906 32.875 -29.359375 C 34.21875 -27.085938 34.890625 -24.613281 34.890625 -21.9375 L 34.890625 -14.859375 C 34.890625 -12.179688 34.21875 -9.703125 32.875 -7.421875 C 31.539062 -5.148438 29.734375 -3.34375 27.453125 -2 C 25.179688 -0.664062 22.707031 0 20.03125 0 Z M 6.34375 0 "/></g></g></g><g fill="#ffffff" fill-opacity="1"><g transform="translate(285.27535, 207.755187)"><g><path d="M 6.875 -36.796875 L 32.765625 -36.796875 L 32.765625 -34.828125 L 8.828125 -34.828125 L 8.828125 -19.921875 L 29.65625 -19.921875 L 29.65625 -17.96875 L 8.828125 -17.96875 L 8.828125 -1.953125 L 32.765625 -1.953125 L 32.765625 0 L 6.875 0 Z M 6.875 -36.796875 "/></g></g></g><g fill="#ffffff" fill-opacity="1"><g transform="translate(324.385439, 207.755187)"><g><path d="M 34.78125 0 L 6.5 0 L 6.5 -36.796875 L 20.828125 -36.796875 C 23.890625 -36.796875 26.390625 -36.25 28.328125 -35.15625 C 30.234375 -34.09375 31.710938 -32.644531 32.765625 -30.8125 C 33.828125 -28.976562 34.359375 -26.953125 34.359375 -24.734375 C 34.359375 -21.984375 33.507812 -19.523438 31.8125 -17.359375 C 30.125 -15.191406 27.992188 -13.757812 25.421875 -13.0625 Z M 9.828125 -34.828125 L 24.203125 -14.75 C 26.566406 -15.238281 28.523438 -16.414062 30.078125 -18.28125 C 31.628906 -20.15625 32.40625 -22.304688 32.40625 -24.734375 C 32.40625 -26.671875 31.925781 -28.429688 30.96875 -30.015625 C 30.019531 -31.609375 28.679688 -32.828125 26.953125 -33.671875 C 25.398438 -34.441406 23.375 -34.828125 20.875 -34.828125 Z M 8.453125 -33.5625 L 8.453125 -14.59375 L 22.046875 -14.59375 Z M 8.453125 -1.953125 L 31.078125 -1.953125 L 23.359375 -12.6875 L 21.71875 -12.640625 L 8.453125 -12.640625 Z M 8.453125 -1.953125 "/></g></g></g><path stroke-linecap="butt" transform="matrix(0.000000000000000046, -0.75174, 0.75, 0.000000000000000046, 108.664898, 227.747798)" fill="none" stroke-linejoin="miter" d="M 0.00226687 0.998886 L 26.944966 0.998886 " stroke="#ffffff" stroke-width="2" stroke-opacity="1" stroke-miterlimit="4"/><path stroke-linecap="butt" transform="matrix(0.000000000000000046, -0.75174, 0.75, 0.000000000000000046, 147.97608, 227.747798)" fill="none" stroke-linejoin="miter" d="M 0.00226687 1.000644 L 26.944966 1.000644 " stroke="#ffffff" stroke-width="2" stroke-opacity="1" stroke-miterlimit="4"/><path stroke-linecap="butt" transform="matrix(-0.75174, -0.000000000000000092, 0.000000000000000092, -0.75, 119.516459, 230.3758)" fill="none" stroke-linejoin="miter" d="M 0.00110949 1.501067 L 26.943808 1.501067 " stroke="#ffffff" stroke-width="3" stroke-opacity="1" stroke-miterlimit="4"/><path stroke-linecap="butt" transform="matrix(-0.75174, -0.000000000000000092, 0.000000000000000092, -0.75, 158.82764, 230.3758)" fill="none" stroke-linejoin="miter" d="M -0.000644544 1.501067 L 26.94725 1.501067 " stroke="#ffffff" stroke-width="3" stroke-opacity="1" stroke-miterlimit="4"/><g fill="#ffffff" fill-opacity="1"><g transform="translate(204.118556, 227.977514)"><g><path d="M 8.328125 0 L 5.546875 0 L 4.8125 -5.71875 L 4.0625 0 L 1.3125 0 L 0.0625 -8.5 L 2.375 -8.5 L 2.921875 -1.578125 L 3.8125 -7.421875 L 5.9375 -7.421875 L 6.75 -1.578125 L 7.3125 -8.5 L 9.546875 -8.5 Z M 8.328125 0 "/></g></g></g><g fill="#ffffff" fill-opacity="1"><g transform="translate(213.716143, 227.977514)"><g><path d="M 3.3125 -3.515625 C 3.375 -3.046875 3.492188 -2.664062 3.671875 -2.375 C 3.859375 -2.09375 4.09375 -1.882812 4.375 -1.75 C 4.664062 -1.625 4.992188 -1.5625 5.359375 -1.5625 C 5.742188 -1.5625 6.117188 -1.625 6.484375 -1.75 C 6.847656 -1.882812 7.195312 -2.054688 7.53125 -2.265625 L 8.546875 -0.890625 C 8.140625 -0.554688 7.648438 -0.28125 7.078125 -0.0625 C 6.515625 0.15625 5.875 0.265625 5.15625 0.265625 C 4.1875 0.265625 3.375 0.0703125 2.71875 -0.3125 C 2.0625 -0.695312 1.566406 -1.226562 1.234375 -1.90625 C 0.898438 -2.582031 0.734375 -3.359375 0.734375 -4.234375 C 0.734375 -5.078125 0.894531 -5.835938 1.21875 -6.515625 C 1.539062 -7.203125 2.007812 -7.75 2.625 -8.15625 C 3.238281 -8.570312 3.988281 -8.78125 4.875 -8.78125 C 5.6875 -8.78125 6.390625 -8.601562 6.984375 -8.25 C 7.578125 -7.90625 8.035156 -7.40625 8.359375 -6.75 C 8.691406 -6.101562 8.859375 -5.328125 8.859375 -4.421875 C 8.859375 -4.273438 8.851562 -4.117188 8.84375 -3.953125 C 8.84375 -3.785156 8.832031 -3.640625 8.8125 -3.515625 Z M 4.875 -7.078125 C 4.425781 -7.078125 4.0625 -6.914062 3.78125 -6.59375 C 3.507812 -6.269531 3.34375 -5.75 3.28125 -5.03125 L 6.40625 -5.03125 C 6.394531 -5.644531 6.269531 -6.140625 6.03125 -6.515625 C 5.800781 -6.890625 5.414062 -7.078125 4.875 -7.078125 Z M 4.875 -7.078125 "/></g></g></g><g fill="#ffffff" fill-opacity="1"><g transform="translate(223.31373, 227.977514)"><g><path d="M 3.640625 -7.625 C 3.910156 -7.976562 4.234375 -8.257812 4.609375 -8.46875 C 4.984375 -8.675781 5.390625 -8.78125 5.828125 -8.78125 C 6.554688 -8.78125 7.148438 -8.59375 7.609375 -8.21875 C 8.066406 -7.851562 8.40625 -7.332031 8.625 -6.65625 C 8.84375 -5.988281 8.953125 -5.191406 8.953125 -4.265625 C 8.953125 -3.390625 8.820312 -2.609375 8.5625 -1.921875 C 8.3125 -1.242188 7.929688 -0.707031 7.421875 -0.3125 C 6.910156 0.0703125 6.289062 0.265625 5.5625 0.265625 C 4.664062 0.265625 3.960938 -0.078125 3.453125 -0.765625 L 3.359375 0 L 1.125 0 L 1.125 -11.875 L 3.640625 -12.140625 Z M 4.890625 -1.5625 C 5.335938 -1.5625 5.691406 -1.769531 5.953125 -2.1875 C 6.222656 -2.601562 6.359375 -3.285156 6.359375 -4.234375 C 6.359375 -4.941406 6.300781 -5.488281 6.1875 -5.875 C 6.082031 -6.257812 5.925781 -6.523438 5.71875 -6.671875 C 5.519531 -6.828125 5.289062 -6.90625 5.03125 -6.90625 C 4.738281 -6.90625 4.476562 -6.816406 4.25 -6.640625 C 4.03125 -6.472656 3.828125 -6.234375 3.640625 -5.921875 L 3.640625 -2.34375 C 3.804688 -2.09375 3.988281 -1.898438 4.1875 -1.765625 C 4.382812 -1.628906 4.617188 -1.5625 4.890625 -1.5625 Z M 4.890625 -1.5625 "/></g></g></g><g fill="#ffffff" fill-opacity="1"><g transform="translate(232.911317, 227.977514)"><g/></g></g><g fill="#ffffff" fill-opacity="1"><g transform="translate(242.508904, 227.977514)"><g><path d="M 4.53125 -1.53125 C 4.945312 -1.53125 5.285156 -1.597656 5.546875 -1.734375 C 5.804688 -1.867188 5.9375 -2.070312 5.9375 -2.34375 C 5.9375 -2.519531 5.882812 -2.664062 5.78125 -2.78125 C 5.675781 -2.90625 5.476562 -3.023438 5.1875 -3.140625 C 4.90625 -3.253906 4.484375 -3.390625 3.921875 -3.546875 C 3.398438 -3.679688 2.941406 -3.851562 2.546875 -4.0625 C 2.148438 -4.28125 1.835938 -4.554688 1.609375 -4.890625 C 1.390625 -5.234375 1.28125 -5.65625 1.28125 -6.15625 C 1.28125 -6.65625 1.421875 -7.101562 1.703125 -7.5 C 1.992188 -7.894531 2.410156 -8.207031 2.953125 -8.4375 C 3.503906 -8.664062 4.175781 -8.78125 4.96875 -8.78125 C 5.726562 -8.78125 6.390625 -8.679688 6.953125 -8.484375 C 7.515625 -8.285156 8.003906 -8.039062 8.421875 -7.75 L 7.40625 -6.25 C 7.050781 -6.46875 6.671875 -6.640625 6.265625 -6.765625 C 5.859375 -6.898438 5.453125 -6.96875 5.046875 -6.96875 C 4.640625 -6.96875 4.332031 -6.910156 4.125 -6.796875 C 3.925781 -6.691406 3.828125 -6.53125 3.828125 -6.3125 C 3.828125 -6.175781 3.878906 -6.054688 3.984375 -5.953125 C 4.085938 -5.847656 4.285156 -5.738281 4.578125 -5.625 C 4.867188 -5.519531 5.289062 -5.382812 5.84375 -5.21875 C 6.382812 -5.0625 6.859375 -4.882812 7.265625 -4.6875 C 7.679688 -4.488281 8 -4.21875 8.21875 -3.875 C 8.445312 -3.539062 8.5625 -3.09375 8.5625 -2.53125 C 8.5625 -1.914062 8.375 -1.398438 8 -0.984375 C 7.632812 -0.566406 7.144531 -0.253906 6.53125 -0.046875 C 5.925781 0.160156 5.265625 0.265625 4.546875 0.265625 C 3.722656 0.265625 2.992188 0.148438 2.359375 -0.078125 C 1.734375 -0.316406 1.203125 -0.628906 0.765625 -1.015625 L 2.03125 -2.4375 C 2.363281 -2.175781 2.738281 -1.957031 3.15625 -1.78125 C 3.570312 -1.613281 4.03125 -1.53125 4.53125 -1.53125 Z M 4.53125 -1.53125 "/></g></g></g><g fill="#ffffff" fill-opacity="1"><g transform="translate(252.10649, 227.977514)"><g><path d="M 3.3125 -3.515625 C 3.375 -3.046875 3.492188 -2.664062 3.671875 -2.375 C 3.859375 -2.09375 4.09375 -1.882812 4.375 -1.75 C 4.664062 -1.625 4.992188 -1.5625 5.359375 -1.5625 C 5.742188 -1.5625 6.117188 -1.625 6.484375 -1.75 C 6.847656 -1.882812 7.195312 -2.054688 7.53125 -2.265625 L 8.546875 -0.890625 C 8.140625 -0.554688 7.648438 -0.28125 7.078125 -0.0625 C 6.515625 0.15625 5.875 0.265625 5.15625 0.265625 C 4.1875 0.265625 3.375 0.0703125 2.71875 -0.3125 C 2.0625 -0.695312 1.566406 -1.226562 1.234375 -1.90625 C 0.898438 -2.582031 0.734375 -3.359375 0.734375 -4.234375 C 0.734375 -5.078125 0.894531 -5.835938 1.21875 -6.515625 C 1.539062 -7.203125 2.007812 -7.75 2.625 -8.15625 C 3.238281 -8.570312 3.988281 -8.78125 4.875 -8.78125 C 5.6875 -8.78125 6.390625 -8.601562 6.984375 -8.25 C 7.578125 -7.90625 8.035156 -7.40625 8.359375 -6.75 C 8.691406 -6.101562 8.859375 -5.328125 8.859375 -4.421875 C 8.859375 -4.273438 8.851562 -4.117188 8.84375 -3.953125 C 8.84375 -3.785156 8.832031 -3.640625 8.8125 -3.515625 Z M 4.875 -7.078125 C 4.425781 -7.078125 4.0625 -6.914062 3.78125 -6.59375 C 3.507812 -6.269531 3.34375 -5.75 3.28125 -5.03125 L 6.40625 -5.03125 C 6.394531 -5.644531 6.269531 -6.140625 6.03125 -6.515625 C 5.800781 -6.890625 5.414062 -7.078125 4.875 -7.078125 Z M 4.875 -7.078125 "/></g></g></g><g fill="#ffffff" fill-opacity="1"><g transform="translate(261.704077, 227.977514)"><g><path d="M 1.203125 0 L 1.203125 -1.703125 L 2.3125 -1.703125 L 2.3125 -6.8125 L 1.203125 -6.8125 L 1.203125 -8.5 L 4.25 -8.5 L 4.71875 -6.578125 C 5.019531 -7.316406 5.40625 -7.863281 5.875 -8.21875 C 6.34375 -8.570312 6.921875 -8.75 7.609375 -8.75 C 7.898438 -8.75 8.15625 -8.722656 8.375 -8.671875 C 8.601562 -8.628906 8.816406 -8.570312 9.015625 -8.5 L 8.234375 -6.40625 C 8.085938 -6.445312 7.9375 -6.476562 7.78125 -6.5 C 7.625 -6.519531 7.453125 -6.53125 7.265625 -6.53125 C 6.710938 -6.53125 6.222656 -6.300781 5.796875 -5.84375 C 5.378906 -5.394531 5.0625 -4.820312 4.84375 -4.125 L 4.84375 -1.703125 L 6.53125 -1.703125 L 6.53125 0 Z M 6.953125 -4.9375 L 6.953125 -7.421875 L 7.328125 -8.5 L 9.015625 -8.5 L 8.53125 -4.9375 Z M 6.953125 -4.9375 "/></g></g></g><g fill="#ffffff" fill-opacity="1"><g transform="translate(271.301664, 227.977514)"><g><path d="M 9.140625 -8.5 L 6.296875 0 L 3.328125 0 L 0.46875 -8.5 L 3.1875 -8.5 L 4.84375 -1.9375 L 6.578125 -8.5 Z M 9.140625 -8.5 "/></g></g></g><g fill="#ffffff" fill-opacity="1"><g transform="translate(280.899251, 227.977514)"><g><path d="M 6.3125 -8.5 L 6.3125 -1.734375 L 8.46875 -1.734375 L 8.46875 0 L 1.375 0 L 1.375 -1.734375 L 3.78125 -1.734375 L 3.78125 -6.765625 L 1.453125 -6.765625 L 1.453125 -8.5 Z M 4.78125 -12.9375 C 5.21875 -12.9375 5.570312 -12.800781 5.84375 -12.53125 C 6.125 -12.257812 6.265625 -11.921875 6.265625 -11.515625 C 6.265625 -11.109375 6.125 -10.769531 5.84375 -10.5 C 5.570312 -10.226562 5.21875 -10.09375 4.78125 -10.09375 C 4.34375 -10.09375 3.984375 -10.226562 3.703125 -10.5 C 3.421875 -10.769531 3.28125 -11.109375 3.28125 -11.515625 C 3.28125 -11.921875 3.421875 -12.257812 3.703125 -12.53125 C 3.984375 -12.800781 4.34375 -12.9375 4.78125 -12.9375 Z M 4.78125 -12.9375 "/></g></g></g><g fill="#ffffff" fill-opacity="1"><g transform="translate(290.496838, 227.977514)"><g><path d="M 5.625 -1.71875 C 5.96875 -1.71875 6.289062 -1.785156 6.59375 -1.921875 C 6.90625 -2.054688 7.210938 -2.234375 7.515625 -2.453125 L 8.640625 -0.84375 C 8.273438 -0.53125 7.820312 -0.265625 7.28125 -0.046875 C 6.75 0.160156 6.148438 0.265625 5.484375 0.265625 C 4.578125 0.265625 3.796875 0.078125 3.140625 -0.296875 C 2.484375 -0.671875 1.976562 -1.191406 1.625 -1.859375 C 1.269531 -2.523438 1.09375 -3.300781 1.09375 -4.1875 C 1.09375 -5.070312 1.269531 -5.859375 1.625 -6.546875 C 1.988281 -7.242188 2.503906 -7.789062 3.171875 -8.1875 C 3.835938 -8.582031 4.625 -8.78125 5.53125 -8.78125 C 6.175781 -8.78125 6.75 -8.6875 7.25 -8.5 C 7.757812 -8.320312 8.222656 -8.0625 8.640625 -7.71875 L 7.546875 -6.1875 C 7.265625 -6.394531 6.960938 -6.550781 6.640625 -6.65625 C 6.316406 -6.769531 5.984375 -6.828125 5.640625 -6.828125 C 5.066406 -6.828125 4.601562 -6.625 4.25 -6.21875 C 3.90625 -5.820312 3.734375 -5.144531 3.734375 -4.1875 C 3.734375 -3.5625 3.816406 -3.066406 3.984375 -2.703125 C 4.148438 -2.347656 4.375 -2.09375 4.65625 -1.9375 C 4.945312 -1.789062 5.269531 -1.71875 5.625 -1.71875 Z M 5.625 -1.71875 "/></g></g></g><g fill="#ffffff" fill-opacity="1"><g transform="translate(300.094425, 227.977514)"><g><path d="M 3.3125 -3.515625 C 3.375 -3.046875 3.492188 -2.664062 3.671875 -2.375 C 3.859375 -2.09375 4.09375 -1.882812 4.375 -1.75 C 4.664062 -1.625 4.992188 -1.5625 5.359375 -1.5625 C 5.742188 -1.5625 6.117188 -1.625 6.484375 -1.75 C 6.847656 -1.882812 7.195312 -2.054688 7.53125 -2.265625 L 8.546875 -0.890625 C 8.140625 -0.554688 7.648438 -0.28125 7.078125 -0.0625 C 6.515625 0.15625 5.875 0.265625 5.15625 0.265625 C 4.1875 0.265625 3.375 0.0703125 2.71875 -0.3125 C 2.0625 -0.695312 1.566406 -1.226562 1.234375 -1.90625 C 0.898438 -2.582031 0.734375 -3.359375 0.734375 -4.234375 C 0.734375 -5.078125 0.894531 -5.835938 1.21875 -6.515625 C 1.539062 -7.203125 2.007812 -7.75 2.625 -8.15625 C 3.238281 -8.570312 3.988281 -8.78125 4.875 -8.78125 C 5.6875 -8.78125 6.390625 -8.601562 6.984375 -8.25 C 7.578125 -7.90625 8.035156 -7.40625 8.359375 -6.75 C 8.691406 -6.101562 8.859375 -5.328125 8.859375 -4.421875 C 8.859375 -4.273438 8.851562 -4.117188 8.84375 -3.953125 C 8.84375 -3.785156 8.832031 -3.640625 8.8125 -3.515625 Z M 4.875 -7.078125 C 4.425781 -7.078125 4.0625 -6.914062 3.78125 -6.59375 C 3.507812 -6.269531 3.34375 -5.75 3.28125 -5.03125 L 6.40625 -5.03125 C 6.394531 -5.644531 6.269531 -6.140625 6.03125 -6.515625 C 5.800781 -6.890625 5.414062 -7.078125 4.875 -7.078125 Z M 4.875 -7.078125 "/></g></g></g><g fill="#ffffff" fill-opacity="1"><g transform="translate(309.692012, 227.977514)"><g><path d="M 4.53125 -1.53125 C 4.945312 -1.53125 5.285156 -1.597656 5.546875 -1.734375 C 5.804688 -1.867188 5.9375 -2.070312 5.9375 -2.34375 C 5.9375 -2.519531 5.882812 -2.664062 5.78125 -2.78125 C 5.675781 -2.90625 5.476562 -3.023438 5.1875 -3.140625 C 4.90625 -3.253906 4.484375 -3.390625 3.921875 -3.546875 C 3.398438 -3.679688 2.941406 -3.851562 2.546875 -4.0625 C 2.148438 -4.28125 1.835938 -4.554688 1.609375 -4.890625 C 1.390625 -5.234375 1.28125 -5.65625 1.28125 -6.15625 C 1.28125 -6.65625 1.421875 -7.101562 1.703125 -7.5 C 1.992188 -7.894531 2.410156 -8.207031 2.953125 -8.4375 C 3.503906 -8.664062 4.175781 -8.78125 4.96875 -8.78125 C 5.726562 -8.78125 6.390625 -8.679688 6.953125 -8.484375 C 7.515625 -8.285156 8.003906 -8.039062 8.421875 -7.75 L 7.40625 -6.25 C 7.050781 -6.46875 6.671875 -6.640625 6.265625 -6.765625 C 5.859375 -6.898438 5.453125 -6.96875 5.046875 -6.96875 C 4.640625 -6.96875 4.332031 -6.910156 4.125 -6.796875 C 3.925781 -6.691406 3.828125 -6.53125 3.828125 -6.3125 C 3.828125 -6.175781 3.878906 -6.054688 3.984375 -5.953125 C 4.085938 -5.847656 4.285156 -5.738281 4.578125 -5.625 C 4.867188 -5.519531 5.289062 -5.382812 5.84375 -5.21875 C 6.382812 -5.0625 6.859375 -4.882812 7.265625 -4.6875 C 7.679688 -4.488281 8 -4.21875 8.21875 -3.875 C 8.445312 -3.539062 8.5625 -3.09375 8.5625 -2.53125 C 8.5625 -1.914062 8.375 -1.398438 8 -0.984375 C 7.632812 -0.566406 7.144531 -0.253906 6.53125 -0.046875 C 5.925781 0.160156 5.265625 0.265625 4.546875 0.265625 C 3.722656 0.265625 2.992188 0.148438 2.359375 -0.078125 C 1.734375 -0.316406 1.203125 -0.628906 0.765625 -1.015625 L 2.03125 -2.4375 C 2.363281 -2.175781 2.738281 -1.957031 3.15625 -1.78125 C 3.570312 -1.613281 4.03125 -1.53125 4.53125 -1.53125 Z M 4.53125 -1.53125 "/></g></g></g></svg>