<svg xmlns="http://www.w3.org/2000/svg" xmlns:xlink="http://www.w3.org/1999/xlink" width="612" zoomAndPan="magnify" viewBox="0 0 458.88 449.999984" height="600" preserveAspectRatio="xMidYMid meet" version="1.0"><defs><clipPath id="549d2cd1e8"><path d="M 3.15625 260 L 29 260 L 29 306 L 3.15625 306 Z M 3.15625 260 " clip-rule="nonzero"/></clipPath><clipPath id="fb6fc82fac"><path d="M 44 13.96875 L 50 13.96875 L 50 22.445312 L 44 22.445312 Z M 44 13.96875 " clip-rule="nonzero"/></clipPath><clipPath id="3b427ba9c8"><path d="M 451.246094 136.136719 L 454.648438 136.136719 L 454.648438 138.972656 L 451.246094 138.972656 Z M 451.246094 136.136719 " clip-rule="nonzero"/></clipPath><clipPath id="f10d642bda"><path d="M 21 38 L 403.90625 38 L 403.90625 434.699219 L 21 434.699219 Z M 21 38 " clip-rule="nonzero"/></clipPath><clipPath id="2d4a5848c0"><path d="M 11 1.511719 L 453 1.511719 L 453 427 L 11 427 Z M 11 1.511719 " clip-rule="nonzero"/></clipPath><clipPath id="f2023e30b8"><path d="M 148.226562 436.265625 L 159 436.265625 L 159 447.449219 L 148.226562 447.449219 Z M 148.226562 436.265625 " clip-rule="nonzero"/></clipPath></defs><path fill="#cb8e8c" d="M 111.03125 65.515625 C 110.085938 62.867188 109.839844 60.523438 110.441406 58.285156 C 109.71875 58.871094 108.980469 59.449219 108.226562 60.027344 C 92.921875 72.628906 79.402344 87.308594 67.023438 102.78125 C 49.203125 126.789062 33.761719 152.601562 21.519531 179.890625 C 16.039062 193.765625 11.511719 208.015625 8.574219 222.636719 C 8.886719 222.730469 9.1875 222.84375 9.511719 222.929688 C 15.535156 224.464844 21.71875 225.519531 27.894531 226.316406 C 34.273438 227.148438 36.664062 224.34375 35.40625 218.117188 C 34.859375 215.429688 34.84375 213.007812 36.707031 210.640625 C 40.714844 205.539062 40.929688 200.886719 36.601562 195.976562 C 33.636719 192.617188 33.945312 189.449219 34.496094 185.542969 C 35.808594 176.234375 39.433594 167.796875 43.675781 159.609375 C 46.171875 154.792969 48.890625 149.554688 54.644531 148.0625 C 58.273438 147.121094 59.25 144.941406 60.191406 141.960938 C 61.039062 139.246094 60.613281 136.820312 59.847656 134.210938 C 58.953125 131.171875 57.410156 127.738281 58.066406 124.929688 C 60.378906 115.101562 64.292969 105.867188 71.894531 98.757812 C 77.992188 93.050781 84.839844 88.375 92.359375 84.753906 C 97.890625 82.085938 102.976562 78.195312 109.789062 79.054688 C 112.09375 79.34375 113.539062 77.699219 112.886719 74.90625 C 112.152344 71.796875 112.09375 68.484375 111.03125 65.515625 " fill-opacity="1" fill-rule="nonzero"/><path fill="#cb8e8c" d="M 29.210938 323.003906 C 29.859375 321.65625 30.546875 320.320312 31.316406 319.003906 C 32.292969 317.339844 33.355469 315.734375 34.496094 314.1875 C 32.984375 312.773438 31.371094 311.4375 29.792969 310.152344 C 28.734375 309.289062 25.894531 309.539062 24.554688 310.371094 C 22.632812 311.570312 23.570312 313.828125 24.566406 315.464844 C 26.109375 317.980469 27.660156 320.492188 29.210938 323.003906 " fill-opacity="1" fill-rule="nonzero"/><g clip-path="url(#549d2cd1e8)"><path fill="#cb8e8c" d="M 22.5 285.703125 C 22.074219 284.613281 21.59375 283.546875 21.144531 282.464844 C 22.097656 287.9375 20.164062 292.789062 18.140625 298.492188 C 16.285156 293.625 14.636719 289.632812 13.230469 285.558594 C 10.894531 278.796875 8.621094 272.003906 6.507812 265.167969 C 6.082031 263.796875 5.761719 262.386719 5.476562 260.972656 C 4.722656 263.449219 3.761719 265.855469 2.632812 268.179688 C 2.464844 270.878906 2.304688 273.578125 2.144531 276.277344 C 2.105469 277.019531 2.191406 277.800781 2.375 278.527344 C 4.023438 285.117188 5.75 291.6875 7.363281 298.285156 C 8.207031 301.742188 11.144531 303.34375 13.59375 305.234375 C 14.367188 305.828125 16.460938 305.316406 17.578125 304.667969 C 18.585938 304.082031 19.074219 302.613281 19.863281 301.429688 C 21.640625 302.824219 23.316406 304.375 25.238281 305.507812 C 25.863281 305.875 27.941406 305.230469 27.976562 304.902344 C 28.242188 302.40625 30.007812 299.640625 27.800781 297.40625 C 24.53125 294.113281 24.050781 289.695312 22.5 285.703125 " fill-opacity="1" fill-rule="nonzero"/></g><path fill="#cb8e8c" d="M 178.164062 25.890625 C 175.261719 26.429688 172.332031 27.539062 169.460938 27.390625 C 162.625 27.050781 157.015625 28.828125 152.433594 34.199219 C 146.785156 40.820312 138.894531 41.933594 130.789062 41.863281 C 127.972656 41.839844 126.800781 39.34375 128.546875 37.082031 C 129.890625 35.335938 131.609375 33.570312 133.558594 32.664062 C 141.714844 28.867188 149.59375 24.152344 158.714844 23.054688 C 162.757812 22.574219 166.925781 22.921875 171.011719 23.226562 C 173.421875 23.402344 175.777344 24.234375 178.152344 24.773438 C 178.15625 25.144531 178.160156 25.519531 178.164062 25.890625 " fill-opacity="1" fill-rule="nonzero"/><path fill="#cb8e8c" d="M 46.917969 301.929688 C 44.53125 301.992188 41.972656 302.671875 39.164062 303.988281 C 35.261719 305.8125 34.496094 307.796875 37.171875 310.859375 C 40.0625 307.507812 43.335938 304.507812 46.917969 301.929688 " fill-opacity="1" fill-rule="nonzero"/><path fill="#cb8e8c" d="M 425.429688 179.257812 C 420.675781 179.347656 417.679688 177.46875 416.695312 173.78125 C 415.523438 169.351562 417.179688 166.28125 421.988281 163.988281 C 428.484375 160.894531 432.503906 162.292969 434.535156 168.375 C 436.582031 174.515625 433.640625 178.84375 427.128906 179.257812 C 426.566406 179.292969 425.992188 179.261719 425.429688 179.257812 " fill-opacity="1" fill-rule="nonzero"/><path fill="#cb8e8c" d="M 24.140625 341.714844 C 24.273438 340.109375 24.46875 338.511719 24.746094 336.925781 C 23.476562 335.472656 22.066406 334.128906 20.472656 332.929688 C 20.894531 334.4375 21.164062 336.03125 21.878906 337.390625 C 22.632812 338.832031 23.386719 340.273438 24.140625 341.714844 " fill-opacity="1" fill-rule="nonzero"/><path fill="#cb8e8c" d="M 448.710938 150.601562 C 448.621094 154.878906 444.847656 158.511719 440.621094 158.398438 C 435.039062 158.238281 430.632812 154.589844 430.804688 150.265625 C 431.003906 145.339844 434.28125 142.472656 439.441406 142.703125 C 445.015625 142.949219 448.804688 146.175781 448.710938 150.601562 " fill-opacity="1" fill-rule="nonzero"/><g clip-path="url(#fb6fc82fac)"><path fill="#cb8e8c" d="M 44.191406 16.390625 C 45.699219 15.601562 47.207031 14.808594 48.800781 13.972656 C 50.617188 19.3125 50.023438 20.507812 45.105469 22.089844 C 44.765625 20.101562 44.429688 18.140625 44.097656 16.183594 L 44.191406 16.390625 " fill-opacity="1" fill-rule="nonzero"/></g><path fill="#cb8e8c" d="M 99.304688 129.257812 C 96.183594 129.023438 95.460938 127.539062 95.539062 125.710938 C 95.636719 123.515625 97.410156 123.121094 99.15625 123.011719 C 100.972656 122.894531 102.347656 124.011719 101.898438 125.652344 C 101.488281 127.148438 99.992188 128.351562 99.304688 129.257812 " fill-opacity="1" fill-rule="nonzero"/><path fill="#cb8e8c" d="M 234.3125 156.457031 C 233.121094 157.015625 232.46875 157.589844 231.921875 157.5 C 231.4375 157.425781 231.082031 156.601562 230.667969 156.105469 C 231.214844 155.710938 231.746094 155.042969 232.316406 155.007812 C 232.789062 154.980469 233.3125 155.691406 234.3125 156.457031 " fill-opacity="1" fill-rule="nonzero"/><g clip-path="url(#3b427ba9c8)"><path fill="#cb8e8c" d="M 454.648438 137.835938 C 453.648438 138.414062 453.15625 138.882812 452.605469 138.953125 C 452.304688 138.988281 451.582031 138.292969 451.632812 138.054688 C 451.761719 137.492188 452.234375 137.003906 452.566406 136.484375 C 453.097656 136.828125 453.625 137.171875 454.648438 137.835938 " fill-opacity="1" fill-rule="nonzero"/></g><path fill="#cb8e8c" d="M 163.390625 94.480469 C 162.730469 94.988281 162.355469 95.277344 161.976562 95.570312 C 161.722656 95.195312 161.402344 94.84375 161.253906 94.429688 C 161.214844 94.308594 161.707031 93.820312 161.917969 93.839844 C 162.324219 93.878906 162.710938 94.164062 163.390625 94.480469 " fill-opacity="1" fill-rule="nonzero"/><path fill="#cb8e8c" d="M 212.898438 81.992188 C 212.835938 81.703125 212.769531 81.5625 212.789062 81.4375 C 212.800781 81.390625 212.996094 81.375 213.109375 81.34375 C 213.054688 81.515625 212.996094 81.691406 212.898438 81.992188 " fill-opacity="1" fill-rule="nonzero"/><path fill="#cb8e8c" d="M 20.378906 332.578125 C 20.089844 332.441406 19.808594 332.308594 19.523438 332.171875 C 19.675781 332.03125 19.835938 331.890625 19.988281 331.75 C 20.066406 332.074219 20.148438 332.402344 20.226562 332.726562 L 20.378906 332.578125 " fill-opacity="1" fill-rule="nonzero"/><path fill="#cb8e8c" d="M 44.097656 16.183594 C 44.191406 16.226562 44.289062 16.269531 44.382812 16.308594 C 44.324219 16.34375 44.273438 16.375 44.207031 16.402344 L 44.097656 16.183594 " fill-opacity="1" fill-rule="nonzero"/><g clip-path="url(#f10d642bda)"><path fill="#cb8e8c" d="M 228.042969 427.734375 L 228.035156 427.570312 L 233.355469 427.167969 L 233.371094 427.332031 Z M 219.574219 410.378906 L 219.476562 409.914062 L 222.269531 409.625 L 222.503906 410.144531 Z M 217.867188 428.042969 L 214.699219 427.96875 L 214.691406 427.804688 L 217.859375 427.882812 L 221.027344 427.8125 L 221.035156 427.976562 Z M 191.035156 408.800781 C 187.886719 407.925781 184.667969 407.304688 181.601562 406.246094 C 184.242188 406.628906 186.730469 406.769531 189.011719 407.058594 C 191.289062 407.355469 193.414062 407.484375 195.375 407.644531 C 197.332031 407.808594 199.121094 408.027344 200.777344 408.1875 C 202.433594 408.308594 203.949219 408.460938 205.335938 408.636719 C 206.71875 408.820312 207.980469 409.027344 209.125 409.265625 C 210.273438 409.445312 211.3125 409.660156 212.257812 409.910156 C 214.140625 410.417969 215.644531 411.074219 216.882812 411.886719 C 216.730469 411.9375 216.542969 412.0625 216.425781 412.039062 C 208.042969 410.605469 199.339844 410.691406 191.035156 408.800781 Z M 141.910156 395.074219 C 142.191406 395.242188 142.34375 395.335938 141.910156 395.074219 Z M 42.171875 311.628906 C 41.175781 309.800781 40.375 307.886719 39.46875 306.019531 L 39.800781 305.785156 C 40.640625 307.582031 41.394531 309.414062 42.292969 311.179688 Z M 27.378906 251.886719 C 27.164062 249.054688 27.027344 247.234375 26.910156 245.578125 C 27.820312 247.445312 27.824219 247.421875 27.378906 251.886719 Z M 45.695312 163.207031 C 45.695312 163.207031 45.871094 163.148438 45.976562 163.109375 L 45.898438 163.566406 L 45.613281 163.910156 C 45.632812 163.683594 45.648438 163.460938 45.695312 163.207031 Z M 52.75 149.542969 L 53.257812 149.449219 C 53.207031 149.609375 53.1875 149.816406 53.105469 149.917969 C 52.9375 150.128906 52.734375 150.277344 52.546875 150.453125 Z M 68.839844 109.34375 L 69.292969 109.101562 C 69.246094 109.257812 69.195312 109.515625 69.144531 109.546875 C 68.933594 109.675781 68.714844 109.742188 68.5 109.828125 Z M 167.488281 55.203125 L 167.71875 55.539062 L 165.511719 56.480469 L 165.230469 56.085938 Z M 173.558594 53.65625 C 176.203125 52.746094 178.832031 51.6875 181.53125 50.902344 C 184.238281 50.113281 186.957031 49.304688 189.726562 48.644531 C 192.613281 48.050781 195.804688 48.183594 198.640625 47.53125 C 200.835938 47.125 202.917969 46.96875 204.941406 47.042969 C 206.96875 47.109375 208.941406 47.433594 210.925781 48.144531 C 210.738281 49.449219 209.746094 49.75 208.53125 49.773438 C 207.320312 49.84375 205.878906 49.65625 204.828125 49.882812 L 204.875 49.90625 C 202.34375 49.53125 199.804688 49.40625 197.300781 49.789062 C 194.800781 50.128906 192.3125 50.707031 189.839844 51.339844 C 186.316406 52.4375 182.769531 53.429688 179.199219 54.378906 C 177.316406 54.902344 175.214844 54.859375 172.953125 55.101562 C 173.273438 54.289062 173.273438 53.753906 173.558594 53.65625 Z M 195.917969 51.269531 C 195.691406 51.28125 195.476562 51.144531 195.261719 51.074219 C 195.582031 50.996094 195.902344 50.867188 196.210938 50.84375 C 196.441406 50.832031 196.660156 50.953125 196.921875 51.023438 C 196.542969 51.121094 196.222656 51.25 195.917969 51.269531 Z M 214.191406 47.222656 C 214.234375 47.273438 214.246094 47.332031 214.261719 47.398438 L 213.921875 47.082031 C 214.011719 47.125 214.144531 47.167969 214.191406 47.222656 Z M 222.492188 45.992188 C 220.875 46.382812 221.015625 47.636719 220.675781 48.628906 C 220.503906 49.125 220.21875 49.5625 219.539062 49.792969 C 218.863281 50.011719 217.796875 50.039062 216.054688 49.832031 C 217.027344 49.519531 217.53125 49.359375 218.191406 49.148438 C 216.898438 48.582031 215.625 48.023438 214.351562 47.464844 C 215.6875 47.195312 217.027344 46.890625 218.367188 46.644531 Z M 227.449219 46.625 C 228.15625 46.96875 228.933594 47.363281 228.894531 47.390625 C 228.4375 47.777344 227.851562 48.074219 227.308594 48.449219 C 226.980469 48.230469 226.339844 47.980469 226.394531 47.800781 C 226.507812 47.433594 226.988281 47.097656 227.449219 46.625 Z M 239.105469 47.050781 C 238.351562 48.226562 237.984375 48.816406 237.242188 48.757812 C 236.5 48.734375 235.394531 48.078125 233.125 46.761719 C 235.28125 46.859375 237.09375 46.835938 239.105469 47.050781 Z M 256.496094 48.664062 L 255.0625 49.464844 L 254.414062 48.976562 Z M 352.265625 106.546875 C 352.46875 106.570312 352.695312 106.644531 352.917969 106.703125 L 353.03125 107.398438 C 352.796875 107.234375 352.550781 107.089844 352.34375 106.898438 C 352.273438 106.835938 352.238281 106.542969 352.265625 106.546875 Z M 395.429688 268.429688 C 395.355469 269.015625 395.289062 269.605469 395.261719 270.175781 C 395.179688 271.933594 394.941406 273.652344 394.675781 275.371094 C 394.410156 277.089844 394.113281 278.796875 393.765625 280.5 C 392.953125 283.878906 391.914062 287.226562 390.519531 290.523438 C 387.820312 296.566406 385.742188 303.164062 382.320312 308.765625 C 380.761719 311.335938 379.382812 314 377.84375 316.597656 L 375.664062 320.558594 C 374.941406 321.878906 374.121094 323.152344 373.355469 324.449219 L 371 328.300781 C 370.171875 329.554688 369.289062 330.765625 368.40625 331.972656 C 367.519531 333.175781 366.621094 334.363281 365.6875 335.511719 C 364.695312 336.625 363.679688 337.707031 362.632812 338.746094 C 362.320312 339.058594 362.238281 339.738281 361.964844 340.214844 C 358.828125 345.574219 355.117188 350.628906 350.074219 354.25 C 349.105469 355 347.953125 355.816406 347.140625 356.773438 C 343.609375 360.976562 339.386719 364.609375 335.21875 368.195312 C 331.039062 371.800781 326.882812 375.320312 323.277344 379.539062 C 323.046875 379.800781 322.703125 380.113281 322.40625 380.238281 C 320.109375 381.195312 318.253906 382.5625 316.421875 383.949219 C 314.59375 385.34375 312.898438 386.921875 311.113281 388.539062 C 309.855469 389.636719 308.292969 390.554688 306.667969 391.421875 C 305.035156 392.261719 303.359375 393.082031 301.6875 393.667969 C 292.515625 397.351562 283.039062 399.773438 273.582031 401.703125 C 263.160156 403.816406 252.800781 405.609375 242.261719 407.496094 C 239.011719 408.015625 235.699219 408.722656 232.429688 408.648438 C 230.097656 408.613281 227.785156 408.71875 225.464844 408.539062 L 218.542969 408.09375 C 213.941406 407.570312 209.367188 407.152344 204.839844 406.34375 C 203.609375 406.152344 202.34375 406.070312 201.066406 406.03125 C 199.792969 405.976562 198.519531 405.863281 197.25 405.769531 C 194.359375 405.535156 191.457031 405.414062 188.578125 405.003906 C 180.074219 404.109375 171.664062 402.320312 163.34375 400.183594 C 161.769531 399.769531 160.214844 399.320312 158.691406 398.835938 C 157.1875 398.292969 155.722656 397.660156 154.285156 397.011719 C 152.855469 396.332031 151.433594 395.679688 150.101562 394.839844 C 148.773438 393.996094 147.484375 393.101562 146.246094 392.132812 C 145.136719 391.265625 143.457031 390.546875 142.082031 390.078125 C 139.730469 389.332031 137.214844 388.65625 134.976562 388.453125 C 132.453125 388.144531 130.40625 387.246094 128.296875 385.53125 C 127.324219 384.769531 126.171875 384.0625 125.09375 383.347656 L 125.113281 383.394531 C 121.949219 379.28125 116.539062 378.039062 112.863281 374.46875 C 112.171875 373.761719 110.519531 373.667969 109.296875 373.28125 C 110.34375 375.140625 111.589844 376.683594 113.152344 377.757812 C 115.3125 379.226562 117.527344 380.617188 119.730469 382.007812 C 121.996094 383.300781 124.234375 384.613281 126.378906 386.070312 C 130.203125 388.414062 133.898438 390.902344 138.171875 392.171875 C 139.875 392.710938 141.175781 393.496094 141.644531 394.878906 C 138.964844 393.75 136.234375 392.699219 133.589844 391.433594 C 125 387.027344 116.8125 381.828125 109.011719 376.085938 C 107.179688 374.691406 105.273438 372.773438 103.21875 373.199219 L 102.78125 372.847656 C 101.105469 371.585938 99.378906 370.378906 97.648438 369.171875 C 95.953125 367.921875 94.300781 366.613281 92.660156 365.273438 C 91.851562 364.597656 91.027344 363.929688 90.257812 363.195312 C 89.507812 362.453125 88.769531 361.6875 88.058594 360.890625 C 86.652344 359.289062 85.253906 357.65625 84.183594 355.730469 C 83.757812 354.984375 82.917969 354.324219 82.273438 353.621094 C 79.238281 350.453125 76.363281 347.109375 73.714844 343.625 C 67.40625 334.789062 62.128906 325.296875 57.570312 315.527344 C 51.527344 302.8125 47.242188 289.355469 44.222656 275.683594 C 43.726562 273.492188 43.234375 271.300781 42.894531 269.074219 C 42.53125 266.859375 42.105469 264.652344 41.78125 262.429688 C 41.238281 257.960938 40.617188 253.511719 40.378906 249.019531 C 40.203125 246.773438 40.019531 244.535156 40.011719 242.285156 L 39.847656 235.542969 C 39.976562 231.046875 39.957031 226.542969 40.375 222.0625 C 40.484375 220.574219 40.628906 219.074219 40.773438 217.574219 C 40.996094 216.089844 41.203125 214.589844 41.363281 213.101562 C 41.515625 211.605469 41.613281 210.113281 41.605469 208.621094 C 41.671875 207.140625 41.636719 205.65625 41.445312 204.167969 C 41.316406 203.203125 41.628906 201.917969 41.8125 200.792969 C 44.042969 188.597656 47.488281 176.585938 52.308594 165.117188 C 55.964844 156.355469 60.488281 147.976562 65.519531 139.9375 C 67.128906 137.445312 68.710938 134.929688 70.5 132.554688 C 72.238281 130.144531 73.917969 127.703125 75.722656 125.359375 C 83.550781 114.636719 92.410156 104.519531 102.847656 96.078125 C 105.371094 94.167969 107.859375 92.167969 110.363281 90.210938 C 112.933594 88.347656 115.371094 86.304688 117.847656 84.382812 C 119.621094 83.007812 121.496094 81.75 123.410156 80.539062 C 125.355469 79.382812 127.375 78.34375 129.347656 77.238281 C 131.300781 76.097656 133.328125 75.113281 135.265625 73.972656 C 137.207031 72.847656 139.046875 71.542969 140.878906 70.238281 C 141.683594 69.640625 142.980469 69.335938 144.046875 68.90625 C 144.945312 68.546875 145.914062 68.246094 146.835938 67.914062 C 147.773438 67.601562 148.675781 67.296875 149.417969 66.835938 C 154.59375 63.597656 160.234375 62.050781 166.246094 60.589844 C 177.417969 57.863281 188.757812 54.964844 200.34375 53.628906 C 204.542969 53.25 208.726562 52.449219 212.957031 52.480469 C 223.433594 52.320312 233.914062 53.082031 244.210938 54.828125 C 253.371094 56.378906 262.425781 58.488281 271.273438 61.265625 C 283.429688 65.007812 295.5625 69.421875 306.367188 76.28125 C 308.136719 77.4375 310.0625 78.40625 311.933594 79.4375 C 319.570312 83.9375 326.949219 88.910156 333.964844 94.378906 C 335.148438 95.300781 336.480469 96.4375 337.667969 96.875 C 339.445312 97.554688 341.140625 98.367188 342.664062 99.378906 C 344.167969 100.417969 345.5625 101.589844 346.863281 102.863281 C 347.515625 103.496094 348.144531 104.15625 348.75 104.839844 C 349.339844 105.542969 349.886719 106.285156 350.425781 107.035156 C 351.496094 108.535156 352.496094 110.105469 353.4375 111.71875 L 353.425781 111.660156 C 355.285156 113.570312 357.070312 115.550781 358.84375 117.542969 C 359.59375 118.355469 360.632812 119.574219 360.667969 120.242188 C 360.828125 122.433594 361.839844 124.300781 363.152344 125.914062 C 364.480469 127.515625 365.957031 128.980469 367.277344 130.152344 C 370.410156 132.902344 372.097656 136.246094 373.527344 139.386719 C 376.820312 147.175781 380.910156 154.46875 384.152344 162.257812 C 385.433594 164.992188 386.511719 167.808594 387.699219 170.585938 C 389.863281 169.265625 392.078125 168.140625 394.355469 167.1875 C 393.847656 166.121094 393.238281 165.085938 392.539062 164.089844 C 391.367188 162.339844 390.335938 160.625 389.613281 158.835938 C 388.867188 157.058594 388.398438 155.21875 387.96875 153.394531 C 386.902344 149.316406 384.964844 145.730469 382.730469 142.144531 C 380.203125 137.734375 376.554688 135.449219 373.578125 131.96875 L 372.515625 131.675781 L 372.90625 130.953125 C 371.828125 129.113281 370.175781 127.101562 369.785156 125.46875 C 369.25 123.042969 367.890625 120.933594 366.445312 118.835938 C 365.707031 117.796875 364.964844 116.753906 364.226562 115.71875 C 363.472656 114.691406 362.703125 113.691406 362.039062 112.636719 C 360.519531 110.25 358.28125 108.019531 356.191406 105.878906 L 356.234375 105.894531 L 354.238281 104.648438 L 355.882812 104.519531 L 355.832031 104.511719 C 354.839844 100.925781 354.894531 100.910156 351.773438 100.070312 C 350.734375 99.789062 348.992188 99.113281 348.527344 98.4375 C 346.074219 94.6875 342.0625 92.105469 339.308594 88.644531 C 338.972656 88.261719 338.84375 87.804688 338.542969 87.25 C 336.960938 86.914062 335.527344 86.734375 334.042969 86.269531 C 333.132812 85.980469 331.765625 85.34375 331.222656 84.679688 C 328.972656 82.15625 326.457031 79.871094 323.722656 77.832031 C 320.90625 75.914062 317.996094 74.039062 314.828125 72.523438 C 312.566406 71.453125 310.46875 69.757812 308.324219 68.316406 C 305.480469 66.5625 302.988281 64.421875 300.28125 62.503906 C 297.539062 60.679688 294.722656 58.789062 291.277344 57.699219 C 289.441406 57.121094 287.613281 56.519531 285.792969 55.898438 C 283.988281 55.242188 282.121094 54.753906 280.292969 54.148438 C 279.039062 53.742188 277.820312 53.164062 276.5625 52.816406 C 274.117188 52.113281 271.550781 52.199219 269.332031 50.5 C 268.78125 50.089844 266.414062 49.828125 265.851562 50.136719 C 263.929688 51.226562 262.0625 50.441406 259.929688 49.597656 C 258.898438 49.191406 257.746094 48.917969 256.648438 48.585938 C 256.1875 48.089844 255.726562 47.59375 255.140625 46.964844 C 257.5625 46.960938 259.820312 47.222656 262.058594 47.339844 C 264.289062 47.503906 266.484375 47.59375 268.644531 47.890625 L 268.71875 47.117188 C 265.496094 45.699219 262.242188 44.421875 258.832031 43.347656 C 255.761719 42.460938 252.625 41.800781 249.492188 41.070312 C 246.347656 40.378906 243.15625 39.964844 239.96875 39.464844 C 237.503906 39.050781 234.988281 39.035156 232.492188 38.875 L 228.742188 38.675781 C 227.496094 38.609375 226.246094 38.621094 225 38.5625 C 218.78125 38.222656 212.539062 37.878906 206.304688 38.21875 C 203.828125 38.417969 201.355469 38.742188 198.898438 39.101562 C 196.445312 39.480469 194.019531 40.066406 191.582031 40.507812 L 191.621094 40.476562 C 189.597656 40.636719 187.558594 40.894531 185.574219 41.078125 C 182.882812 41.289062 180.179688 41.335938 177.933594 42.777344 L 177.957031 42.753906 C 173.054688 43.652344 168.046875 44.285156 163.273438 45.792969 C 159.246094 46.898438 155.363281 48.453125 151.457031 49.910156 C 149.5 50.625 147.625 51.542969 145.707031 52.355469 C 143.8125 53.21875 141.867188 53.960938 140.015625 54.914062 C 138.902344 55.464844 137.777344 56.128906 136.648438 56.492188 C 127.144531 59.554688 118.410156 64.554688 110.472656 70.65625 L 107.871094 72.570312 L 105.320312 74.558594 C 103.601562 75.855469 101.875 77.148438 100.152344 78.449219 C 96.804688 81.175781 93.269531 83.679688 89.960938 86.476562 L 85.984375 89.726562 C 84.691406 90.847656 83.4375 92.023438 82.175781 93.179688 C 80.921875 94.351562 79.652344 95.503906 78.429688 96.707031 L 74.886719 100.4375 C 73.898438 101.460938 72.890625 102.503906 71.886719 103.542969 C 70.914062 104.621094 69.960938 105.707031 69.066406 106.824219 C 68.175781 107.9375 67.359375 109.085938 66.675781 110.277344 C 66 111.476562 65.523438 112.773438 65.214844 114.101562 C 65.117188 114.519531 64.566406 115.378906 64.242188 115.574219 C 60.25 117.894531 59.0625 122.101562 57.078125 125.679688 L 57.089844 125.613281 C 56.34375 127.558594 55.535156 129.183594 53.785156 129.441406 C 52.03125 131.207031 50.976562 133.03125 50.386719 134.964844 C 49.8125 136.917969 49.605469 138.921875 49.359375 140.960938 C 50.835938 138.757812 52.191406 136.488281 53.761719 134.355469 L 58.414062 127.949219 C 48.078125 145.277344 39.890625 163.707031 34.621094 182.984375 C 33.199219 187.773438 32.183594 192.664062 31.066406 197.527344 C 30.1875 202.4375 29.21875 207.335938 28.648438 212.300781 C 27.367188 222.195312 26.671875 232.195312 26.871094 242.207031 C 26.3125 241.0625 26.035156 239.828125 26.019531 238.605469 C 26.007812 237.695312 26.074219 236.785156 26.140625 235.875 C 26.242188 234.964844 26.347656 234.0625 26.351562 233.15625 C 26.261719 222.085938 26.75 211.003906 29.453125 200.003906 C 31.941406 189.84375 33.464844 179.0625 36.605469 168.742188 C 36.941406 167.726562 36.777344 166.625 36.828125 165.554688 C 36.324219 166.734375 35.839844 168.015625 35.371094 169.25 C 34.921875 170.527344 34.4375 171.738281 33.804688 172.6875 C 32.179688 175.121094 30.917969 177.808594 30.03125 180.636719 C 29.121094 183.460938 28.183594 186.308594 27.40625 189.164062 C 26.632812 191.839844 25.75 194.511719 25.082031 197.234375 C 24.4375 199.960938 23.835938 202.707031 23.328125 205.46875 C 21.390625 217.625 20.820312 229.972656 21.269531 242.242188 C 21.300781 245.976562 21.519531 249.742188 21.996094 253.40625 C 23.835938 265.789062 25.9375 278.03125 28.898438 290.207031 C 29.261719 291.703125 29.695312 293.199219 30.210938 294.671875 C 30.78125 296.125 31.355469 297.578125 31.925781 299.019531 C 33.4375 303.097656 35.476562 306.929688 37.15625 310.921875 C 39.476562 316.023438 41.671875 321.207031 44.339844 326.148438 C 47.59375 332.390625 51.433594 338.285156 55.210938 344.191406 C 60.867188 352.816406 66.988281 361.160156 73.851562 368.90625 C 76.609375 371.882812 79.359375 374.882812 82.34375 377.640625 C 83.820312 379.035156 85.242188 380.484375 86.753906 381.839844 L 91.273438 385.921875 C 100.5 394.21875 110.285156 402.042969 121.101562 408.375 L 123.78125 409.960938 L 126.53125 411.417969 L 132.054688 414.300781 L 137.714844 416.898438 C 139.601562 417.769531 141.496094 418.625 143.441406 419.355469 L 149.242188 421.640625 C 151.183594 422.375 153.171875 422.992188 155.132812 423.675781 C 159.046875 425.085938 163.070312 426.136719 167.058594 427.300781 C 169.316406 427.988281 171.640625 428.433594 173.921875 429.011719 C 176.21875 429.566406 178.507812 430.136719 180.835938 430.53125 L 187.789062 431.855469 L 194.800781 432.851562 C 208.109375 434.601562 221.652344 435.386719 235.050781 434.042969 L 238.507812 433.707031 L 241.949219 433.203125 C 244.242188 432.851562 246.539062 432.535156 248.816406 432.125 C 253.347656 431.160156 257.894531 430.320312 262.34375 429.027344 C 271.292969 426.730469 279.996094 423.582031 288.457031 420.007812 C 290.972656 418.875 293.511719 417.828125 295.949219 416.550781 L 303.234375 412.734375 C 305.609375 411.359375 307.984375 409.996094 310.378906 408.664062 C 312.765625 407.316406 315.085938 405.84375 317.503906 404.507812 C 319.585938 403.390625 321.53125 402.035156 323.496094 400.714844 C 325.445312 399.375 327.410156 398.0625 329.246094 396.574219 C 334.464844 392.589844 339.46875 388.339844 344.078125 383.753906 C 345.628906 382.1875 346.828125 380.390625 348.121094 378.679688 C 348.6875 377.878906 349.078125 377.003906 349.726562 376.277344 C 351.847656 373.894531 354.042969 371.589844 356.027344 369.09375 C 358.058594 366.640625 360.082031 364.207031 361.84375 361.59375 C 364.894531 357.402344 367.167969 352.847656 369.785156 348.46875 C 371.089844 346.050781 372.410156 343.617188 373.726562 341.179688 C 374.976562 338.710938 376.257812 336.273438 377.734375 333.972656 C 382.644531 325.878906 387.527344 317.714844 391.585938 309.074219 C 391.976562 308.179688 392.316406 307.171875 392.476562 306.261719 C 393.019531 303.035156 394.398438 300.359375 395.949219 297.574219 C 396.988281 295.78125 398.023438 293.757812 398.6875 291.703125 C 400.679688 285.074219 403.273438 278.421875 403.445312 271.417969 C 400.726562 270.652344 398.039062 269.640625 395.429688 268.429688 " fill-opacity="1" fill-rule="nonzero"/></g><path fill="#cb8e8c" d="M 374.390625 135.722656 L 374.386719 135.664062 L 374.390625 135.722656 " fill-opacity="1" fill-rule="nonzero"/><path fill="#cb8e8c" d="M 247.347656 44.890625 L 247.378906 44.917969 L 248.542969 45.125 L 248.585938 45.105469 L 247.347656 44.890625 " fill-opacity="1" fill-rule="nonzero"/><path fill="#cb8e8c" d="M 250.859375 424.410156 L 250.957031 424.558594 C 250.777344 424.585938 250.589844 424.632812 250.410156 424.644531 L 250.316406 424.5 C 250.496094 424.46875 250.675781 424.421875 250.859375 424.410156 " fill-opacity="1" fill-rule="nonzero"/><path fill="#cb8e8c" d="M 169.933594 407.328125 L 170.300781 407.300781 L 170.328125 407.519531 Z M 169.933594 407.328125 " fill-opacity="1" fill-rule="nonzero"/><path fill="#cb8e8c" d="M 140.394531 397.476562 L 140.121094 397.222656 L 140.453125 397.246094 Z M 140.394531 397.476562 " fill-opacity="1" fill-rule="nonzero"/><path fill="#cb8e8c" d="M 61.761719 143.855469 L 61.980469 143.476562 L 62.03125 143.765625 Z M 61.761719 143.855469 " fill-opacity="1" fill-rule="nonzero"/><path fill="#cb8e8c" d="M 217.144531 50.9375 C 217.261719 50.90625 217.425781 50.933594 217.574219 50.9375 C 217.558594 51.007812 217.582031 51.128906 217.519531 51.144531 C 217.40625 51.179688 217.238281 51.15625 217.09375 51.152344 C 217.105469 51.074219 217.082031 50.957031 217.144531 50.9375 " fill-opacity="1" fill-rule="nonzero"/><path fill="#cb8e8c" d="M 320.5625 77.285156 L 320.578125 77.035156 C 320.710938 77.160156 320.84375 77.289062 321.027344 77.464844 C 320.8125 77.382812 320.683594 77.332031 320.5625 77.285156 " fill-opacity="1" fill-rule="nonzero"/><path fill="#cb8e8c" d="M 75.183594 340.09375 C 73.679688 338.539062 72.550781 337.546875 71.625 336.367188 C 70.101562 334.464844 68.777344 332.414062 67.359375 330.425781 C 65.921875 328.445312 64.683594 326.339844 63.460938 324.226562 C 62.675781 322.839844 61.902344 321.445312 61.273438 319.972656 L 59.417969 315.566406 C 58.964844 314.484375 58.480469 313.421875 58.078125 312.328125 L 56.894531 309.023438 C 56.117188 306.824219 55.242188 304.671875 54.515625 302.449219 C 51.257812 293.867188 48.746094 285.023438 46.769531 276.085938 C 46.453125 274.632812 46.046875 273.199219 45.621094 271.761719 C 45.230469 270.320312 44.898438 268.863281 44.601562 267.398438 C 44.292969 265.875 43.628906 264.039062 44.980469 262.8125 C 45.382812 263.710938 45.917969 264.53125 46.128906 265.453125 C 46.53125 267.34375 46.9375 269.246094 47.34375 271.144531 L 48.816406 276.773438 C 51.085938 284.757812 53.945312 292.527344 57.21875 300.105469 L 58.578125 303.53125 L 60 306.941406 C 60.917969 309.238281 61.78125 311.554688 62.84375 313.785156 L 64.789062 318.199219 C 65.449219 319.671875 66.203125 321.089844 66.902344 322.542969 C 67.625 323.980469 68.296875 325.449219 69.066406 326.875 L 71.441406 331.101562 C 72.003906 332.097656 72.453125 332.898438 72.820312 333.609375 C 73.203125 334.304688 73.53125 334.894531 73.796875 335.503906 C 74.335938 336.71875 74.6875 337.976562 75.183594 340.09375 " fill-opacity="1" fill-rule="nonzero"/><path fill="#cb8e8c" d="M 40.273438 158.792969 C 39.957031 160.402344 39.308594 161.648438 38.355469 161.34375 C 38.007812 161.234375 37.898438 159.515625 38.261719 158.730469 C 39.109375 156.726562 40.25 154.835938 41.421875 152.625 C 43.058594 154.648438 39.886719 157.117188 40.273438 158.851562 L 40.273438 158.792969 " fill-opacity="1" fill-rule="nonzero"/><path fill="#cb8e8c" d="M 292.222656 55.515625 C 293.195312 55.929688 294.160156 56.355469 295.097656 56.839844 L 294.9375 57.246094 C 293.953125 56.785156 292.945312 56.378906 291.929688 55.988281 L 292.222656 55.515625 " fill-opacity="1" fill-rule="nonzero"/><path fill="#cb8e8c" d="M 310.011719 64.6875 C 309.949219 64.761719 309.914062 64.902344 309.816406 64.890625 C 309.660156 64.871094 309.453125 64.746094 309.269531 64.667969 L 309.527344 64.351562 L 310.011719 64.6875 " fill-opacity="1" fill-rule="nonzero"/><path fill="#cb8e8c" d="M 281.070312 52.078125 C 281.203125 52.003906 281.269531 51.914062 281.378906 51.921875 C 281.46875 51.929688 281.601562 52.050781 281.71875 52.121094 C 281.523438 52.109375 281.328125 52.09375 281.070312 52.078125 " fill-opacity="1" fill-rule="nonzero"/><path fill="#cb8e8c" d="M 57.089844 125.613281 L 56.507812 125.738281 C 56.605469 125.6875 56.722656 125.601562 56.804688 125.59375 C 56.90625 125.585938 56.988281 125.648438 57.078125 125.679688 L 57.089844 125.613281 " fill-opacity="1" fill-rule="nonzero"/><path fill="#cb8e8c" d="M 36.878906 165.433594 L 36.632812 165.199219 L 36.832031 165.480469 Z M 36.878906 165.433594 " fill-opacity="1" fill-rule="nonzero"/><path fill="#cb8e8c" d="M 191.621094 40.476562 L 191.578125 40.507812 L 191.621094 40.476562 " fill-opacity="1" fill-rule="nonzero"/><path fill="#cb8e8c" d="M 53.800781 129.425781 L 53.75 129.453125 L 53.800781 129.425781 " fill-opacity="1" fill-rule="nonzero"/><path fill="#cb8e8c" d="M 355.832031 104.511719 L 356.191406 105.878906 L 356.234375 105.894531 L 355.882812 104.519531 L 355.832031 104.511719 " fill-opacity="1" fill-rule="nonzero"/><path fill="#cb8e8c" d="M 372.914062 130.964844 C 373.15625 131.28125 373.355469 131.628906 373.574219 131.957031 L 373.617188 131.976562 C 373.382812 131.625 373.171875 131.265625 372.921875 130.925781 L 372.914062 130.964844 " fill-opacity="1" fill-rule="nonzero"/><g clip-path="url(#2d4a5848c0)"><path fill="#9e8cb0" d="M 231.261719 426.933594 C 289.671875 426.027344 347.367188 402.695312 378.40625 353.304688 C 379.308594 352.453125 380.203125 351.582031 381.09375 350.707031 C 386.878906 345.085938 392.324219 339.136719 397.417969 332.875 C 404.214844 324.523438 410.402344 315.625 415.894531 306.238281 C 421.390625 305.363281 426.199219 277.664062 430.238281 276.671875 C 434.273438 267.277344 437.550781 263.414062 439.980469 244.574219 C 441.902344 240.230469 443.316406 225.386719 444.179688 221.808594 C 445.617188 206.03125 445.511719 193.714844 443.679688 183.585938 C 441.847656 165.125 438.289062 163.511719 432.792969 146.382812 C 427.300781 141.84375 419.878906 127.390625 410.332031 111.769531 C 405.925781 111.730469 401.007812 96.988281 395.558594 96.988281 C 395.066406 96.988281 394.578125 97.101562 394.078125 97.363281 C 393.851562 97.394531 393.621094 97.410156 393.386719 97.410156 C 387.527344 97.410156 381.085938 87.089844 374.023438 86.238281 C 370.996094 84.402344 368.003906 82.613281 365.050781 80.847656 C 357.988281 74.628906 350.511719 68.847656 342.703125 63.585938 C 341.0625 62.480469 339.402344 61.398438 337.734375 60.339844 C 324.09375 44.871094 307.136719 32.914062 284.996094 26.941406 C 278.710938 24.992188 272.234375 23.488281 265.671875 22.304688 C 252.3125 19.898438 238.59375 18.800781 224.984375 18.800781 C 205.136719 18.800781 185.539062 21.132812 167.679688 25.15625 C 127.65625 34.171875 89.632812 55.160156 64.484375 87.984375 C 56.644531 98.207031 49.996094 109.152344 44.480469 120.613281 C 41.714844 126.351562 38.988281 132.496094 35.40625 140.15625 C 17.234375 174.265625 17.550781 211.402344 28.359375 246.484375 C 31.824219 273.222656 39.457031 299.925781 48.398438 324.546875 C 52.066406 331.335938 56.128906 337.878906 60.558594 344.144531 C 68.898438 355.957031 78.542969 366.78125 89.273438 376.40625 C 86.054688 373.722656 82.914062 370.949219 79.863281 368.074219 C 79.800781 368.246094 79.691406 368.382812 79.488281 368.382812 C 79.46875 368.382812 79.453125 368.382812 79.433594 368.382812 C 78.46875 368.265625 77.878906 367.617188 77.871094 366.640625 C 77.871094 366.503906 77.960938 366.421875 78.0625 366.367188 C 63.03125 351.902344 50.121094 335.234375 39.867188 316.886719 C 36.585938 310.980469 33.949219 305.257812 32.191406 300.253906 C 16.613281 254.761719 1.984375 205.929688 19.636719 159.058594 C 22.871094 148.574219 26 139.628906 29.664062 130.96875 C 61.808594 54.871094 137.054688 1.476562 224.761719 1.476562 C 241.003906 1.476562 256.816406 3.308594 272.011719 6.773438 C 277.070312 7.925781 282.0625 9.273438 286.96875 10.824219 C 319.625 26.179688 353.023438 46.671875 382.300781 72.121094 C 388.15625 77.210938 393.851562 82.496094 399.339844 87.976562 C 425.429688 114.78125 444.9375 151.40625 447.378906 190.46875 C 447.378906 188.023438 449.8125 185.585938 449.8125 183.140625 C 454.691406 197.789062 452.253906 210 452.253906 224.648438 L 449.8125 222.203125 C 442.503906 249.0625 442.503906 278.359375 429.679688 302.039062 C 426.378906 307.390625 422.589844 312.542969 418.117188 317.425781 C 415.675781 317.425781 413.238281 314.980469 410.800781 314.980469 C 409.585938 324.746094 407.183594 333.5625 403.796875 341.535156 C 401.226562 347.578125 398.085938 353.148438 394.46875 358.285156 C 393.457031 356.855469 392.5625 356.25 391.804688 356.25 C 389.746094 356.25 388.644531 360.671875 388.636719 365.097656 C 388.636719 365.117188 388.636719 365.132812 388.636719 365.152344 C 345.292969 405.1875 288.402344 426.726562 231.261719 426.933594 M 374.285156 348.542969 C 374.390625 348.039062 374.613281 347.65625 374.886719 347.324219 C 374.761719 347.644531 374.640625 347.972656 374.527344 348.292969 C 374.445312 348.371094 374.367188 348.464844 374.285156 348.542969 M 374.886719 347.324219 C 377.4375 340.601562 381.414062 333.800781 380.015625 325.96875 C 381.851562 322.011719 381.792969 318.3125 381.679688 314.757812 C 384.875 309.539062 387.746094 304.117188 390.375 298.558594 C 392.160156 293.566406 393.90625 288.589844 395.628906 283.625 C 403.492188 261.273438 405.925781 236.855469 408.359375 212.4375 C 405.925781 214.882812 405.925781 219.765625 405.925781 222.203125 C 403.492188 207.554688 403.492188 192.90625 396.171875 180.703125 C 396.171875 183.140625 396.171875 188.023438 396.171875 190.46875 C 388.859375 166.054688 381.539062 141.640625 371.566406 117.035156 C 368.359375 109.699219 364.96875 102.484375 361.304688 95.515625 C 363.933594 97.863281 366.496094 100.28125 368.988281 102.765625 C 398.164062 131.636719 422.445312 172.984375 426.167969 214.488281 C 426.917969 222.792969 426.835938 231.101562 425.8125 239.3125 C 425.429688 258.828125 415.675781 273.480469 407.679688 289.757812 C 405.042969 295.808594 402.203125 301.71875 399.175781 307.441406 C 413.238281 288.125 422.988281 266.152344 425.96875 242.085938 C 427.078125 234.828125 427.574219 227.445312 427.507812 220.035156 C 427.082031 175.554688 406.160156 129.75 373.589844 100.925781 C 369.089844 97.441406 364.261719 94.246094 359.082031 91.390625 C 352.988281 80.3125 346.125 69.941406 338.117188 60.78125 C 346.667969 67.34375 355.113281 73.871094 364.179688 80.324219 C 364.46875 80.503906 364.757812 80.675781 365.050781 80.847656 C 367.394531 82.914062 369.683594 85.019531 371.933594 87.175781 C 372.082031 87.167969 372.222656 87.160156 372.371094 87.160156 C 378.222656 87.160156 383.734375 97.542969 388.855469 105.449219 C 400.03125 109.183594 408.949219 137.167969 415.777344 140.960938 C 422.492188 153.257812 427.179688 179.535156 430.003906 179.535156 C 430.050781 179.535156 430.09375 179.53125 430.140625 179.519531 C 432.953125 202.867188 433.835938 197.109375 432.960938 219.296875 C 432.433594 228.808594 431.273438 226.464844 429.519531 242.996094 C 426.695312 255.441406 422.964844 282.453125 418.386719 282.453125 C 418.023438 282.453125 417.644531 282.28125 417.261719 281.90625 C 412.167969 309.851562 406.085938 306.039062 399.082031 316.976562 C 396.582031 320.882812 393.964844 324.683594 391.230469 328.375 C 391.273438 327.992188 391.296875 327.59375 391.296875 327.191406 C 391.011719 327.953125 390.726562 328.703125 390.425781 329.457031 C 388.304688 332.277344 386.121094 335.039062 383.863281 337.722656 C 381.472656 340.695312 378.96875 343.566406 376.355469 346.367188 C 376.433594 345.949219 376.492188 345.539062 376.550781 345.121094 C 376.265625 346.113281 375.464844 346.613281 374.886719 347.324219 M 381.539062 314.980469 C 381.585938 314.886719 381.632812 314.796875 381.679688 314.703125 C 381.679688 314.722656 381.679688 314.738281 381.679688 314.757812 C 381.632812 314.832031 381.585938 314.90625 381.539062 314.980469 M 54.050781 314.722656 C 52.085938 307.1875 50.132812 299.472656 48.308594 291.628906 C 50.644531 295.683594 53.089844 299.679688 55.621094 303.585938 C 55.621094 305.996094 53.246094 310.789062 54.050781 314.722656 M 381.679688 314.703125 C 381.550781 310.609375 381.378906 306.691406 383.984375 302.777344 C 383.984375 307.566406 383.984375 310.007812 381.679688 314.703125 " fill-opacity="1" fill-rule="nonzero"/></g><path fill="#9e8cb0" d="M 246.414062 405.710938 C 246.355469 405.710938 246.292969 405.710938 246.234375 405.710938 C 294.21875 402.386719 341.921875 381.917969 374.285156 348.542969 C 374.25 348.730469 374.230469 348.9375 374.230469 349.167969 C 374.328125 348.875 374.421875 348.582031 374.527344 348.292969 C 375.144531 347.65625 375.753906 347.015625 376.355469 346.367188 C 376.289062 346.769531 376.214844 347.167969 376.132812 347.566406 C 373.160156 351.191406 370.027344 354.46875 366.769531 356.980469 C 334.578125 392.910156 291.410156 405.710938 246.414062 405.710938 " fill-opacity="1" fill-rule="nonzero"/><path fill="#bba6d2" d="M 374.230469 349.167969 C 374.230469 348.9375 374.25 348.730469 374.285156 348.542969 C 374.367188 348.464844 374.445312 348.371094 374.527344 348.292969 C 374.421875 348.582031 374.328125 348.875 374.230469 349.167969 M 376.132812 347.566406 C 376.214844 347.167969 376.289062 346.769531 376.355469 346.367188 C 378.96875 343.566406 381.472656 340.695312 383.863281 337.722656 C 386.121094 335.039062 388.304688 332.277344 390.425781 329.457031 C 389.597656 331.5625 388.714844 333.652344 387.808594 335.6875 C 385.28125 338.734375 381.855469 341.28125 379.214844 343.632812 C 378.210938 344.976562 377.1875 346.292969 376.132812 347.566406 " fill-opacity="1" fill-rule="nonzero"/><path fill="#9e8cb0" d="M 170.828125 395.515625 C 156.238281 391.855469 142.011719 387.429688 128.464844 382.609375 C 125.847656 381.433594 123.203125 380.226562 120.554688 378.96875 C 112.71875 373.996094 105.171875 368.425781 97.984375 362.242188 C 92.257812 357.320312 86.757812 352.007812 81.523438 346.3125 C 81.628906 346.3125 81.742188 346.304688 81.875 346.292969 C 82.390625 346.242188 82.382812 345.542969 81.875 345.492188 C 81.121094 345.417969 81.09375 345.304688 80.933594 344.59375 C 80.898438 344.453125 80.777344 344.386719 80.652344 344.386719 C 80.53125 344.386719 80.410156 344.453125 80.382812 344.59375 C 80.351562 344.734375 80.328125 344.867188 80.308594 344.988281 C 79.902344 344.535156 79.496094 344.085938 79.097656 343.632812 C 75.117188 337.5625 71.183594 331.25 67.359375 324.722656 C 67.585938 324.730469 67.8125 324.730469 68.058594 324.730469 C 69.726562 324.730469 71.914062 324.644531 74.621094 324.425781 C 74.761719 324.105469 74.671875 323.859375 74.917969 323.515625 C 73.820312 323.488281 72.808594 323.46875 71.878906 323.46875 C 69.714844 323.46875 68 323.542969 66.734375 323.652344 C 59.351562 310.96875 52.417969 297.511719 46.488281 283.582031 C 43.898438 271.75 41.65625 259.695312 40.109375 247.625 C 48.710938 275.949219 62.878906 303.320312 77.769531 326.996094 C 78.445312 332.105469 79.546875 337.429688 85.058594 343.785156 C 90.511719 350.089844 97.328125 354.328125 104.484375 358.046875 C 109.007812 360.390625 113.679688 362.535156 118.226562 364.84375 C 117.644531 365.082031 117.71875 365.984375 118.445312 366.050781 C 118.851562 366.085938 119.257812 366.128906 119.664062 366.167969 C 119.695312 366.167969 119.714844 366.167969 119.742188 366.167969 C 119.980469 366.167969 120.144531 366.058594 120.253906 365.890625 C 122.207031 366.925781 124.128906 368 126.007812 369.152344 C 139.375 380.742188 154.5625 389.460938 170.828125 395.515625 " fill-opacity="1" fill-rule="nonzero"/><path fill="#bba6d2" d="M 378.40625 353.304688 C 381.886719 347.761719 385.035156 341.890625 387.808594 335.6875 C 389.589844 333.539062 390.929688 331.136719 391.230469 328.375 C 393.964844 324.683594 396.582031 320.882812 399.082031 316.976562 C 406.085938 306.039062 412.167969 309.851562 417.261719 281.90625 C 417.644531 282.28125 418.023438 282.453125 418.386719 282.453125 C 422.964844 282.453125 426.695312 255.441406 429.519531 242.996094 C 431.273438 226.464844 432.433594 228.808594 432.960938 219.296875 C 433.835938 197.109375 432.953125 202.867188 430.140625 179.519531 C 430.09375 179.53125 430.050781 179.535156 430.003906 179.535156 C 427.179688 179.535156 422.492188 153.257812 415.777344 140.960938 C 408.949219 137.167969 400.03125 109.183594 388.855469 105.449219 C 383.734375 97.542969 378.222656 87.160156 372.371094 87.160156 C 372.222656 87.160156 372.082031 87.167969 371.933594 87.175781 C 369.683594 85.019531 367.394531 82.914062 365.050781 80.847656 C 368.003906 82.613281 370.996094 84.402344 374.023438 86.238281 C 381.085938 87.089844 387.527344 97.410156 393.386719 97.410156 C 393.621094 97.410156 393.851562 97.394531 394.078125 97.363281 C 394.578125 97.101562 395.066406 96.988281 395.558594 96.988281 C 401.007812 96.988281 405.925781 111.730469 410.332031 111.769531 C 419.878906 127.390625 427.300781 141.84375 432.792969 146.382812 C 438.289062 163.511719 441.847656 165.125 443.679688 183.585938 C 445.511719 193.714844 445.617188 206.03125 444.179688 221.808594 C 443.316406 225.386719 441.902344 240.230469 439.980469 244.574219 C 437.550781 263.414062 434.273438 267.277344 430.238281 276.671875 C 426.199219 277.664062 421.390625 305.363281 415.894531 306.238281 C 410.402344 315.625 404.214844 324.523438 397.417969 332.875 C 392.324219 339.136719 386.878906 345.085938 381.09375 350.707031 C 380.203125 351.582031 379.308594 352.453125 378.40625 353.304688 " fill-opacity="1" fill-rule="nonzero"/><path fill="#9e8cb0" d="M 27.402344 197.160156 C 27.914062 172.085938 34.703125 147.472656 50.640625 124.882812 C 54.589844 118.636719 57.75 113.402344 60.9375 108.449219 C 61.429688 110.144531 62.304688 111.746094 63.464844 113.136719 C 50.972656 126.605469 42.648438 141.164062 37.660156 156.339844 C 32.195312 169.351562 28.925781 183.074219 27.402344 197.160156 M 76.230469 87.839844 C 82.082031 80.960938 88.421875 74.371094 95.363281 68.207031 C 132.472656 35.1875 178.667969 18.960938 224.6875 18.960938 C 237.589844 18.960938 250.476562 20.234375 263.144531 22.769531 C 271.410156 24.425781 279.566406 26.660156 287.367188 29.796875 C 292.496094 31.347656 297.382812 33.386719 302.078125 35.796875 C 306.769531 38.207031 311.277344 40.992188 315.648438 44.042969 C 323 49.253906 329.890625 54.472656 336.683594 59.683594 C 328.085938 54.292969 319.125 49.539062 309.902344 45.492188 C 304.449219 42.355469 298.820312 39.492188 293.011719 36.921875 C 287.207031 34.351562 281.222656 32.078125 275.066406 30.121094 C 269.558594 28.359375 263.929688 26.957031 258.207031 25.890625 C 248.625 24.101562 239.136719 23.261719 229.734375 23.261719 C 173.292969 23.261719 120.574219 53.40625 76.230469 87.839844 M 338.117188 60.78125 C 337.640625 60.417969 337.160156 60.046875 336.683594 59.683594 C 337.035156 59.898438 337.386719 60.125 337.734375 60.339844 C 337.859375 60.488281 337.992188 60.632812 338.117188 60.78125 " fill-opacity="1" fill-rule="nonzero"/><path fill="#bba6d2" d="M 365.050781 80.847656 C 364.757812 80.675781 364.46875 80.503906 364.179688 80.324219 C 355.113281 73.871094 346.667969 67.34375 338.117188 60.78125 C 337.992188 60.632812 337.859375 60.488281 337.734375 60.339844 C 339.402344 61.398438 341.0625 62.480469 342.703125 63.585938 C 350.511719 68.847656 357.988281 74.628906 365.050781 80.847656 " fill-opacity="1" fill-rule="nonzero"/><path fill="#9e8cb0" d="M 361.304688 95.515625 C 358.378906 92.898438 355.367188 90.371094 352.285156 87.929688 C 354.609375 89.019531 356.878906 90.179688 359.082031 91.390625 C 359.402344 91.964844 359.714844 92.542969 360.023438 93.117188 C 360.453125 93.914062 360.882812 94.714844 361.304688 95.515625 " fill-opacity="1" fill-rule="nonzero"/><path fill="#bba6d2" d="M 399.175781 307.441406 C 402.203125 301.71875 405.042969 295.808594 407.679688 289.757812 C 415.675781 273.480469 425.429688 258.828125 425.8125 239.3125 C 426.835938 231.101562 426.917969 222.792969 426.167969 214.488281 C 422.445312 172.984375 398.164062 131.636719 368.988281 102.765625 C 366.496094 100.28125 363.933594 97.863281 361.304688 95.515625 C 360.882812 94.714844 360.453125 93.914062 360.023438 93.117188 C 359.714844 92.542969 359.402344 91.964844 359.082031 91.390625 C 364.261719 94.246094 369.089844 97.441406 373.589844 100.925781 C 406.160156 129.75 427.082031 175.554688 427.507812 220.035156 C 427.574219 227.445312 427.078125 234.828125 425.96875 242.085938 C 422.988281 266.152344 413.238281 288.125 399.175781 307.441406 " fill-opacity="1" fill-rule="nonzero"/><path fill="#9e8cb0" d="M 314.042969 60.660156 C 309.304688 59.21875 304.53125 58.007812 299.859375 56.929688 C 290.894531 54.859375 281.691406 53.796875 272.527344 52.640625 C 263.359375 51.472656 254.214844 50.214844 245.367188 47.722656 C 236.128906 45.125 227.816406 39.285156 218.769531 35.976562 C 217.480469 35.507812 216.183594 35.070312 214.871094 34.660156 C 215.726562 34.65625 216.566406 34.597656 217.417969 34.597656 C 240.90625 34.597656 263.394531 38.84375 284.195312 46.589844 C 289.390625 48.519531 294.484375 50.679688 299.457031 53.035156 C 304.4375 55.398438 309.292969 57.960938 314.042969 60.660156 " fill-opacity="1" fill-rule="nonzero"/><path fill="#9e8cb0" d="M 227.707031 426.960938 C 198.3125 426.960938 168.863281 421.296875 142.699219 410.4375 C 136.972656 407.992188 131.378906 405.28125 125.9375 402.328125 C 120.5 399.375 115.21875 396.164062 110.109375 392.710938 L 109.914062 392.796875 C 109.558594 392.796875 109.40625 392.503906 109.429688 392.230469 C 102.359375 387.40625 95.625 382.113281 89.273438 376.40625 C 96.035156 382.058594 103.160156 387.296875 110.601562 392.078125 C 116.089844 395.605469 121.75 398.882812 127.578125 401.90625 C 159.839844 418.808594 195.167969 426.933594 230.421875 426.933594 C 230.703125 426.933594 230.984375 426.933594 231.261719 426.933594 C 230.078125 426.949219 228.890625 426.960938 227.707031 426.960938 M 209.851562 416.226562 C 184.71875 416.226562 160.015625 411.167969 136.640625 396.039062 C 132.464844 392.214844 128.011719 388.761719 123.402344 385.523438 C 109.585938 375.792969 94.378906 367.949219 80.773438 357.898438 C 72.242188 351.601562 65.621094 344.902344 60.464844 337.210938 C 55.308594 329.53125 52.171875 321.261719 54.085938 314.863281 C 54.074219 314.820312 54.0625 314.769531 54.050781 314.722656 C 55.378906 319.785156 56.710938 324.761719 58.019531 329.640625 C 61.847656 335.996094 66.527344 341.753906 71.789062 346.992188 C 83.652344 358.785156 98.515625 367.964844 113.523438 375.53125 C 115.867188 376.71875 118.214844 377.863281 120.554688 378.96875 C 121.539062 379.589844 122.53125 380.203125 123.515625 380.8125 C 127.964844 383.523438 132.503906 386.042969 137.097656 388.390625 C 165.9375 405.339844 197.984375 413.121094 230.097656 413.121094 C 242.175781 413.121094 254.269531 412.019531 266.207031 409.890625 C 247.429688 413.433594 228.523438 416.226562 209.851562 416.226562 M 271.992188 408.78125 C 308.921875 401.144531 344.074219 383.714844 372.503906 358.695312 C 366.410156 371.863281 354.664062 382.460938 340.351562 386.957031 C 335.722656 390.386719 331.171875 394.742188 326.460938 398.328125 C 308.707031 401.027344 290.425781 405.164062 271.992188 408.78125 M 48.308594 291.628906 C 40.050781 277.285156 33.167969 262.09375 28.359375 246.484375 C 26.210938 229.886719 25.660156 213.28125 27.402344 197.160156 C 26.816406 226.179688 34.65625 255.808594 46.488281 283.582031 C 47.078125 286.273438 47.683594 288.964844 48.308594 291.628906 " fill-opacity="1" fill-rule="nonzero"/><path fill="#bba6d2" d="M 230.421875 426.933594 C 195.167969 426.933594 159.839844 418.808594 127.578125 401.90625 C 121.75 398.882812 116.089844 395.605469 110.601562 392.078125 C 103.160156 387.296875 96.035156 382.058594 89.273438 376.40625 C 78.542969 366.78125 68.898438 355.957031 60.558594 344.144531 C 56.128906 337.878906 52.066406 331.335938 48.398438 324.546875 C 39.457031 299.925781 31.824219 273.222656 28.359375 246.484375 C 33.167969 262.09375 40.050781 277.285156 48.308594 291.628906 C 50.132812 299.472656 52.085938 307.1875 54.050781 314.722656 C 54.0625 314.769531 54.074219 314.820312 54.085938 314.863281 C 52.171875 321.261719 55.308594 329.53125 60.464844 337.210938 C 65.621094 344.902344 72.242188 351.601562 80.773438 357.898438 C 94.378906 367.949219 109.585938 375.792969 123.402344 385.523438 C 128.011719 388.761719 132.464844 392.214844 136.640625 396.039062 C 160.015625 411.167969 184.71875 416.226562 209.851562 416.226562 C 228.523438 416.226562 247.429688 413.433594 266.207031 409.890625 C 268.136719 409.546875 270.066406 409.175781 271.992188 408.78125 C 290.425781 405.164062 308.707031 401.027344 326.460938 398.328125 C 331.171875 394.742188 335.722656 390.386719 340.351562 386.957031 C 354.664062 382.460938 366.410156 371.863281 372.503906 358.695312 C 374.503906 356.933594 376.472656 355.144531 378.40625 353.304688 C 347.367188 402.695312 289.671875 426.027344 231.261719 426.933594 C 230.984375 426.933594 230.703125 426.933594 230.421875 426.933594 " fill-opacity="1" fill-rule="nonzero"/><path fill="#9e8cb0" d="M 232.453125 406.191406 C 211.253906 406.191406 190.277344 402.753906 170.828125 395.515625 C 195.476562 401.699219 221.132812 405.695312 246.234375 405.710938 C 241.632812 406.03125 237.042969 406.191406 232.453125 406.191406 M 40.109375 247.625 C 30.863281 217.171875 28.046875 185.613281 37.660156 156.339844 C 43.433594 142.59375 51.660156 129.636719 62.878906 117.839844 C 69.636719 110.082031 75.308594 103.730469 81.039062 97.945312 C 92.503906 86.363281 105.425781 76.238281 119.503906 67.855469 C 111.234375 75.1875 104.460938 85.085938 98.597656 93.601562 C 95.597656 97.957031 92.117188 102.390625 86.832031 107.503906 C 39.699219 142.847656 33.402344 195.332031 40.109375 247.625 " fill-opacity="1" fill-rule="nonzero"/><path fill="#bba6d2" d="M 230.097656 413.121094 C 197.984375 413.121094 165.9375 405.339844 137.097656 388.390625 C 132.503906 386.042969 127.964844 383.523438 123.515625 380.8125 C 122.53125 380.203125 121.539062 379.589844 120.554688 378.96875 C 123.203125 380.226562 125.847656 381.433594 128.464844 382.609375 C 142.011719 387.429688 156.238281 391.855469 170.828125 395.515625 C 190.277344 402.753906 211.253906 406.191406 232.453125 406.191406 C 237.042969 406.191406 241.632812 406.03125 246.234375 405.710938 C 246.292969 405.710938 246.355469 405.710938 246.414062 405.710938 C 291.410156 405.710938 334.578125 392.910156 366.769531 356.980469 C 370.027344 354.46875 373.160156 351.191406 376.132812 347.566406 C 375.378906 351.417969 374.144531 355.148438 372.503906 358.695312 C 344.074219 383.714844 308.921875 401.144531 271.992188 408.78125 C 270.066406 409.15625 268.136719 409.53125 266.207031 409.890625 C 254.269531 412.019531 242.175781 413.121094 230.097656 413.121094 " fill-opacity="1" fill-rule="nonzero"/><path fill="#5e17eb" d="M 266.207031 409.890625 C 268.136719 409.53125 270.066406 409.15625 271.992188 408.78125 C 270.066406 409.175781 268.136719 409.546875 266.207031 409.890625 M 372.503906 358.695312 C 374.144531 355.148438 375.378906 351.417969 376.132812 347.566406 C 377.1875 346.292969 378.210938 344.976562 379.214844 343.632812 C 381.855469 341.28125 385.28125 338.734375 387.808594 335.6875 C 385.035156 341.890625 381.886719 347.761719 378.40625 353.304688 C 376.472656 355.144531 374.503906 356.933594 372.503906 358.695312 " fill-opacity="1" fill-rule="nonzero"/><path fill="#bba6d2" d="M 46.488281 283.582031 C 34.65625 255.808594 26.816406 226.179688 27.402344 197.160156 C 28.925781 183.074219 32.195312 169.351562 37.660156 156.339844 C 28.046875 185.613281 30.863281 217.171875 40.109375 247.625 C 41.65625 259.695312 43.898438 271.75 46.488281 283.582031 " fill-opacity="1" fill-rule="nonzero"/><path fill="#bba6d2" d="M 390.425781 329.457031 C 390.726562 328.703125 391.011719 327.953125 391.296875 327.191406 C 391.296875 327.59375 391.273438 327.992188 391.230469 328.375 C 390.964844 328.742188 390.695312 329.09375 390.425781 329.457031 " fill-opacity="1" fill-rule="nonzero"/><path fill="#5e17eb" d="M 387.808594 335.6875 C 388.714844 333.652344 389.597656 331.5625 390.425781 329.457031 C 390.695312 329.09375 390.964844 328.742188 391.230469 328.375 C 390.929688 331.136719 389.589844 333.539062 387.808594 335.6875 " fill-opacity="1" fill-rule="nonzero"/><path fill="#9e8cb0" d="M 327.484375 70.496094 C 327.480469 70.496094 327.460938 70.484375 327.425781 70.460938 C 327.425781 70.445312 327.421875 70.425781 327.421875 70.410156 C 327.472656 70.46875 327.496094 70.496094 327.484375 70.496094 M 327.421875 70.410156 C 327.152344 70.113281 326.171875 69.152344 325.441406 68.578125 C 326.289062 69.058594 327.238281 69.457031 327.421875 70.410156 M 325.441406 68.578125 C 325.214844 68.445312 324.988281 68.316406 324.792969 68.152344 C 324.941406 68.207031 325.171875 68.367188 325.441406 68.578125 " fill-opacity="1" fill-rule="nonzero"/><path fill="#9e8cb0" d="M 328.722656 78.21875 C 326.953125 76.253906 327.0625 75.730469 327.78125 75.730469 C 328.210938 75.730469 328.847656 75.914062 329.441406 76.09375 C 330.042969 76.28125 330.59375 76.472656 330.839844 76.472656 C 330.988281 76.472656 331.027344 76.402344 330.890625 76.21875 C 334.148438 76.460938 331.441406 77.433594 328.722656 78.21875 " fill-opacity="1" fill-rule="nonzero"/><path fill="#9e8cb0" d="M 325.089844 85.65625 C 324.601562 85.65625 324.28125 85.597656 324.289062 85.464844 C 324.585938 85.519531 324.851562 85.539062 325.105469 85.539062 C 327.140625 85.539062 327.769531 84 328.265625 82.464844 C 328.757812 80.929688 329.121094 79.398438 330.613281 79.398438 C 330.988281 79.398438 331.429688 79.496094 331.957031 79.707031 C 329.476562 79.804688 329.609375 82.027344 328.707031 84.984375 C 328.03125 85.371094 326.164062 85.65625 325.089844 85.65625 " fill-opacity="1" fill-rule="nonzero"/><path fill="#9e8cb0" d="M 304.765625 85.429688 C 305.917969 83.109375 307.125 82.464844 308.589844 82.464844 C 310.09375 82.464844 311.859375 83.140625 314.113281 83.382812 C 314.328125 83.351562 314.511719 83.339844 314.648438 83.339844 C 316.308594 83.339844 312.734375 84.917969 310.328125 85.191406 C 307.257812 85.3125 307.257812 85.3125 304.765625 85.429688 " fill-opacity="1" fill-rule="nonzero"/><path fill="#9e8cb0" d="M 325.390625 91.714844 C 325.089844 91.714844 324.832031 91.699219 324.636719 91.660156 C 322.898438 91.207031 322.625 89.132812 320.296875 89.132812 C 320.222656 89.132812 320.148438 89.140625 320.074219 89.140625 C 321.34375 87.875 322.496094 87.421875 323.589844 87.421875 C 324.96875 87.421875 326.230469 88.136719 327.472656 88.851562 C 328.710938 89.570312 329.929688 90.285156 331.207031 90.285156 C 331.394531 90.285156 331.578125 90.269531 331.765625 90.238281 C 332.273438 90.75 327.609375 91.714844 325.390625 91.714844 " fill-opacity="1" fill-rule="nonzero"/><path fill="#9e8cb0" d="M 144.054688 55.519531 C 143.941406 55.519531 143.828125 55.398438 143.90625 55.269531 C 144.828125 53.511719 147.15625 52.039062 149.316406 52.039062 C 150.09375 52.039062 150.851562 52.230469 151.507812 52.664062 C 151.753906 52.824219 151.632812 53.199219 151.367188 53.199219 C 151.347656 53.199219 151.320312 53.199219 151.289062 53.1875 C 150.507812 52.976562 149.703125 52.859375 148.929688 52.859375 C 147.046875 52.859375 145.285156 53.5625 144.195312 55.441406 C 144.160156 55.496094 144.109375 55.519531 144.054688 55.519531 " fill-opacity="1" fill-rule="nonzero"/><path fill="#9e8cb0" d="M 156.339844 49.304688 L 156.144531 49.1875 C 157.304688 46.734375 159.746094 44.960938 162.242188 44.039062 C 162.285156 44.019531 162.320312 44.015625 162.363281 44.015625 C 162.660156 44.015625 162.785156 44.484375 162.511719 44.664062 C 160.257812 46.121094 157.800781 46.867188 156.339844 49.304688 " fill-opacity="1" fill-rule="nonzero"/><path fill="#9e8cb0" d="M 173.308594 42.097656 C 173.082031 42.097656 173.089844 41.765625 173.308594 41.753906 C 175.433594 41.632812 177.28125 40.480469 179.40625 40.363281 C 179.410156 40.355469 179.414062 40.355469 179.425781 40.355469 C 179.84375 40.355469 179.839844 41.050781 179.40625 41.050781 C 177.300781 41.050781 175.414062 42.09375 173.308594 42.097656 " fill-opacity="1" fill-rule="nonzero"/><path fill="#9e8cb0" d="M 179.40625 48.628906 C 179.171875 48.628906 178.933594 48.519531 178.839844 48.308594 L 178.808594 48.226562 C 178.050781 48.445312 177.261719 48.519531 176.429688 48.519531 C 175.820312 48.519531 175.1875 48.480469 174.527344 48.429688 C 174.015625 48.390625 174.015625 47.667969 174.527344 47.628906 C 175.9375 47.519531 177.214844 47.210938 178.523438 46.871094 C 178.496094 46.265625 178.945312 45.960938 179.40625 45.960938 C 179.730469 45.960938 180.070312 46.121094 180.21875 46.4375 L 180.503906 46.367188 C 180.53125 46.359375 180.5625 46.355469 180.597656 46.355469 C 180.972656 46.355469 181.296875 46.855469 180.949219 47.128906 C 180.691406 47.335938 180.425781 47.507812 180.164062 47.65625 C 180.121094 47.878906 180.0625 48.097656 179.972656 48.308594 C 179.875 48.519531 179.640625 48.628906 179.40625 48.628906 " fill-opacity="1" fill-rule="nonzero"/><path fill="#9e8cb0" d="M 187.945312 44.59375 C 187.773438 44.59375 187.609375 44.414062 187.507812 44.339844 C 186.539062 43.664062 186.808594 42.011719 188.113281 42.011719 C 188.117188 42.011719 188.128906 42.011719 188.132812 42.011719 C 188.578125 42.011719 188.929688 42.164062 189.320312 42.347656 C 189.945312 42.640625 189.898438 43.636719 189.320312 43.945312 C 188.855469 44.1875 188.554688 44.445312 187.996094 44.585938 C 187.980469 44.59375 187.964844 44.59375 187.945312 44.59375 " fill-opacity="1" fill-rule="nonzero"/><path fill="#9e8cb0" d="M 192.816406 33.011719 C 191.707031 33.011719 191.707031 31.300781 192.816406 31.300781 C 193.921875 31.300781 193.921875 33.011719 192.816406 33.011719 " fill-opacity="1" fill-rule="nonzero"/><path fill="#9e8cb0" d="M 205.039062 41.433594 C 204.546875 41.433594 204.304688 41.066406 204.304688 40.707031 C 204.304688 40.339844 204.546875 39.972656 205.035156 39.972656 C 205.089844 39.972656 205.144531 39.980469 205.203125 39.992188 C 205.566406 40.039062 205.96875 40.050781 206.316406 40.183594 C 206.832031 40.386719 206.832031 41.027344 206.316406 41.226562 C 205.96875 41.359375 205.566406 41.371094 205.203125 41.421875 C 205.148438 41.425781 205.089844 41.433594 205.039062 41.433594 " fill-opacity="1" fill-rule="nonzero"/><path fill="#9e8cb0" d="M 176.964844 57.316406 C 176.003906 57.316406 176.003906 55.828125 176.964844 55.828125 C 177.921875 55.828125 177.921875 57.316406 176.964844 57.316406 " fill-opacity="1" fill-rule="nonzero"/><path fill="#9e8cb0" d="M 163.671875 66.019531 C 163.570312 66.019531 163.457031 65.996094 163.332031 65.945312 C 162.957031 65.800781 162.597656 65.652344 162.230469 65.511719 C 161.851562 65.355469 161.851562 64.886719 162.230469 64.730469 C 162.597656 64.589844 162.957031 64.433594 163.332031 64.289062 C 163.457031 64.238281 163.570312 64.214844 163.671875 64.214844 C 164.125 64.214844 164.359375 64.667969 164.359375 65.121094 C 164.359375 65.566406 164.128906 66.019531 163.671875 66.019531 " fill-opacity="1" fill-rule="nonzero"/><path fill="#9e8cb0" d="M 149.648438 57.136719 C 149.394531 57.136719 149.121094 57.101562 148.800781 57.019531 C 148.367188 56.898438 148.367188 56.246094 148.800781 56.132812 C 149.121094 56.046875 149.394531 56.011719 149.65625 56.011719 C 150.210938 56.011719 150.671875 56.167969 151.363281 56.230469 C 151.804688 56.269531 151.804688 56.875 151.363281 56.917969 C 150.671875 56.988281 150.210938 57.136719 149.648438 57.136719 " fill-opacity="1" fill-rule="nonzero"/><path fill="#9e8cb0" d="M 130.675781 55.960938 C 130.367188 55.960938 130.070312 55.75 130.070312 55.347656 C 130.070312 54.960938 130.359375 54.742188 130.675781 54.742188 C 130.878906 54.742188 131.09375 54.839844 131.230469 55.042969 C 131.296875 55.132812 131.773438 55.15625 131.902344 55.191406 C 132.070312 55.222656 132.070312 55.480469 131.902344 55.519531 C 131.773438 55.550781 131.296875 55.574219 131.230469 55.667969 C 131.097656 55.871094 130.878906 55.960938 130.675781 55.960938 " fill-opacity="1" fill-rule="nonzero"/><path fill="#9e8cb0" d="M 147.664062 77.839844 C 147.363281 77.839844 147.207031 77.582031 147.207031 77.324219 C 147.207031 77.066406 147.363281 76.8125 147.664062 76.8125 C 147.683594 76.8125 147.695312 76.8125 147.707031 76.8125 C 148.523438 76.867188 149.328125 76.925781 150.144531 76.980469 C 150.585938 77.015625 150.585938 77.640625 150.144531 77.667969 C 149.328125 77.722656 148.523438 77.78125 147.707031 77.839844 C 147.695312 77.839844 147.683594 77.839844 147.664062 77.839844 " fill-opacity="1" fill-rule="nonzero"/><path fill="#9e8cb0" d="M 181.839844 71.867188 C 181.46875 71.867188 181.085938 71.59375 181.183594 71.039062 C 181.257812 70.574219 181.257812 70.101562 181.5625 69.71875 C 181.621094 69.636719 181.734375 69.605469 181.839844 69.605469 C 181.953125 69.605469 182.0625 69.636719 182.125 69.71875 C 182.421875 70.101562 182.421875 70.574219 182.503906 71.039062 C 182.597656 71.59375 182.21875 71.867188 181.839844 71.867188 " fill-opacity="1" fill-rule="nonzero"/><path fill="#9e8cb0" d="M 187.941406 60.921875 C 187.054688 60.921875 187.054688 59.550781 187.941406 59.550781 C 188.820312 59.550781 188.820312 60.921875 187.941406 60.921875 " fill-opacity="1" fill-rule="nonzero"/><path fill="#9e8cb0" d="M 202.570312 63.648438 C 201.3125 63.648438 201.3125 61.703125 202.570312 61.703125 C 203.824219 61.703125 203.824219 63.648438 202.570312 63.648438 " fill-opacity="1" fill-rule="nonzero"/><path fill="#9e8cb0" d="M 214.746094 66.851562 C 214.582031 66.851562 214.414062 66.769531 214.3125 66.597656 L 214.304688 66.574219 L 214.167969 66.59375 L 213.789062 66.570312 C 213.585938 66.558594 213.390625 66.546875 213.199219 66.527344 L 213.019531 66.339844 L 213.199219 66.148438 C 213.390625 66.140625 213.585938 66.128906 213.789062 66.113281 C 213.960938 66.101562 214.140625 66.089844 214.3125 66.078125 C 214.414062 65.910156 214.582031 65.835938 214.746094 65.835938 C 215.007812 65.835938 215.273438 66.023438 215.273438 66.339844 C 215.273438 66.65625 215.007812 66.851562 214.746094 66.851562 " fill-opacity="1" fill-rule="nonzero"/><path fill="#9e8cb0" d="M 211.105469 54.578125 C 210.859375 54.578125 210.621094 54.429688 210.644531 54.132812 C 210.683594 53.722656 210.722656 53.316406 210.757812 52.910156 C 210.78125 52.691406 210.941406 52.578125 211.101562 52.578125 C 211.261719 52.578125 211.425781 52.691406 211.441406 52.910156 C 211.480469 53.316406 211.523438 53.722656 211.558594 54.132812 C 211.585938 54.429688 211.34375 54.578125 211.105469 54.578125 " fill-opacity="1" fill-rule="nonzero"/><path fill="#9e8cb0" d="M 189.160156 59.589844 C 188.421875 59.589844 188.421875 58.445312 189.160156 58.445312 C 189.898438 58.445312 189.898438 59.589844 189.160156 59.589844 " fill-opacity="1" fill-rule="nonzero"/><path fill="#9e8cb0" d="M 183.066406 61.742188 C 182.691406 61.742188 182.691406 61.171875 183.066406 61.171875 C 183.429688 61.171875 183.429688 61.742188 183.066406 61.742188 " fill-opacity="1" fill-rule="nonzero"/><path fill="#9e8cb0" d="M 175.746094 59.46875 C 175.15625 59.46875 175.15625 58.554688 175.746094 58.554688 C 176.335938 58.554688 176.335938 59.46875 175.746094 59.46875 " fill-opacity="1" fill-rule="nonzero"/><g clip-path="url(#f2023e30b8)"><path fill="#9e8cb0" d="M 153.804688 447.339844 C 151.644531 447.339844 149.484375 446.121094 148.902344 443.679688 C 148.621094 442.539062 148.472656 441.28125 148.914062 440.144531 C 149.726562 438.003906 151.367188 436.417969 153.792969 436.417969 C 153.792969 436.417969 153.800781 436.417969 153.800781 436.417969 C 156.222656 436.417969 157.863281 438.007812 158.695312 440.152344 C 159.132812 441.289062 158.984375 442.539062 158.703125 443.679688 C 158.121094 446.121094 155.960938 447.339844 153.804688 447.339844 " fill-opacity="1" fill-rule="nonzero"/></g><path fill="#9e8cb0" d="M 140.394531 422.492188 C 139.210938 422.492188 139.210938 420.660156 140.394531 420.660156 C 141.570312 420.664062 141.570312 422.492188 140.394531 422.492188 " fill-opacity="1" fill-rule="nonzero"/><path fill="#9e8cb0" d="M 140.394531 428.617188 C 139.726562 428.617188 139.054688 428.128906 139.5 427.160156 C 139.648438 426.84375 139.796875 426.523438 139.945312 426.199219 C 140.027344 426.035156 140.210938 425.949219 140.394531 425.949219 C 140.578125 425.949219 140.761719 426.035156 140.832031 426.199219 C 140.980469 426.523438 141.128906 426.84375 141.277344 427.160156 C 141.730469 428.128906 141.0625 428.617188 140.394531 428.617188 " fill-opacity="1" fill-rule="nonzero"/><path fill="#9e8cb0" d="M 125.769531 418.945312 C 125.21875 418.945312 124.734375 418.496094 124.734375 417.917969 C 124.734375 417.320312 125.242188 416.886719 125.78125 416.886719 C 125.945312 416.886719 126.117188 416.933594 126.285156 417.023438 C 126.433594 417.113281 126.558594 417.242188 126.652344 417.394531 L 126.707031 417.527344 L 127.074219 417.585938 C 127.398438 417.636719 127.398438 418.191406 127.074219 418.242188 C 126.972656 418.265625 126.859375 418.316406 126.792969 418.316406 C 126.746094 418.316406 126.722656 418.289062 126.753906 418.183594 C 126.664062 418.535156 126.382812 418.808594 126.03125 418.90625 C 125.945312 418.933594 125.855469 418.945312 125.769531 418.945312 " fill-opacity="1" fill-rule="nonzero"/><path fill="#9e8cb0" d="M 177.167969 436.519531 C 176.980469 436.519531 176.882812 436.183594 176.878906 435.839844 C 176.871094 435.496094 176.953125 435.152344 177.113281 435.152344 C 177.164062 435.152344 177.226562 435.1875 177.292969 435.265625 C 177.316406 435.652344 177.347656 436.027344 177.375 436.414062 C 177.296875 436.492188 177.226562 436.519531 177.167969 436.519531 " fill-opacity="1" fill-rule="nonzero"/><path fill="#9e8cb0" d="M 120.253906 365.890625 C 119.578125 365.539062 118.902344 365.195312 118.226562 364.84375 C 118.292969 364.816406 118.367188 364.800781 118.445312 364.796875 C 118.851562 364.753906 119.257812 364.71875 119.664062 364.679688 C 119.695312 364.679688 119.714844 364.679688 119.738281 364.679688 C 120.164062 364.679688 120.382812 365.050781 120.382812 365.425781 C 120.382812 365.589844 120.335938 365.761719 120.253906 365.890625 " fill-opacity="1" fill-rule="nonzero"/><path fill="#bba6d2" d="M 119.742188 366.167969 C 119.714844 366.167969 119.695312 366.167969 119.664062 366.167969 C 119.257812 366.128906 118.851562 366.085938 118.445312 366.050781 C 117.71875 365.984375 117.644531 365.082031 118.226562 364.84375 C 118.902344 365.195312 119.578125 365.539062 120.253906 365.890625 C 120.144531 366.058594 119.980469 366.167969 119.742188 366.167969 " fill-opacity="1" fill-rule="nonzero"/><path fill="#9e8cb0" d="M 97.859375 340.589844 C 97.078125 340.210938 99.519531 340.210938 98.929688 339.714844 C 99.410156 339.875 98.699219 340.464844 97.859375 340.589844 " fill-opacity="1" fill-rule="nonzero"/><path fill="#9e8cb0" d="M 89.421875 310.132812 C 87.539062 310.132812 88.117188 309.875 89.476562 309.609375 C 90.839844 309.351562 92.980469 309.097656 94.210938 309.097656 C 94.726562 309.097656 95.085938 309.140625 95.160156 309.25 C 95.191406 309.25 95.21875 309.246094 95.242188 309.246094 C 95.828125 309.246094 95.550781 309.78125 94.859375 309.863281 C 92.160156 310.054688 90.433594 310.132812 89.421875 310.132812 " fill-opacity="1" fill-rule="nonzero"/><path fill="#9e8cb0" d="M 67.359375 324.722656 C 64.691406 324.683594 63.636719 324.390625 64.226562 324.101562 C 64.554688 323.941406 65.386719 323.773438 66.734375 323.652344 C 66.941406 324.007812 67.15625 324.367188 67.359375 324.722656 " fill-opacity="1" fill-rule="nonzero"/><path fill="#bba6d2" d="M 68.058594 324.730469 C 67.8125 324.730469 67.585938 324.730469 67.359375 324.722656 C 67.15625 324.367188 66.941406 324.007812 66.734375 323.652344 C 68 323.542969 69.714844 323.46875 71.878906 323.46875 C 72.808594 323.46875 73.820312 323.488281 74.917969 323.515625 C 74.671875 323.859375 74.761719 324.105469 74.621094 324.425781 C 71.914062 324.644531 69.726562 324.730469 68.058594 324.730469 " fill-opacity="1" fill-rule="nonzero"/><path fill="#9e8cb0" d="M 81.445312 346.316406 C 80.511719 346.316406 80.183594 345.917969 80.308594 344.988281 C 80.707031 345.429688 81.117188 345.875 81.523438 346.3125 C 81.492188 346.316406 81.476562 346.316406 81.445312 346.316406 " fill-opacity="1" fill-rule="nonzero"/><path fill="#bba6d2" d="M 81.523438 346.3125 C 81.117188 345.875 80.707031 345.429688 80.308594 344.988281 C 80.328125 344.867188 80.351562 344.734375 80.382812 344.59375 C 80.410156 344.453125 80.53125 344.386719 80.652344 344.386719 C 80.777344 344.386719 80.898438 344.453125 80.933594 344.59375 C 81.09375 345.304688 81.121094 345.417969 81.875 345.492188 C 82.382812 345.542969 82.390625 346.242188 81.875 346.292969 C 81.742188 346.304688 81.628906 346.3125 81.523438 346.3125 " fill-opacity="1" fill-rule="nonzero"/><path fill="#9e8cb0" d="M 73.339844 383.03125 C 72.675781 383.03125 72.675781 382 73.339844 382 C 74.003906 382 74.003906 383.03125 73.339844 383.03125 " fill-opacity="1" fill-rule="nonzero"/><path fill="#9e8cb0" d="M 56.234375 358.703125 C 55.949219 358.703125 55.664062 358.511719 55.644531 358.09375 C 55.59375 357.125 54.46875 356.75 54.59375 355.660156 C 54.628906 355.375 54.855469 355.207031 55.082031 355.207031 C 55.253906 355.207031 55.417969 355.308594 55.492188 355.53125 C 55.792969 356.492188 56.734375 356.886719 56.875 357.929688 C 56.941406 358.429688 56.585938 358.703125 56.234375 358.703125 " fill-opacity="1" fill-rule="nonzero"/><path fill="#9e8cb0" d="M 42.855469 329.714844 C 41.679688 329.714844 41.679688 327.890625 42.855469 327.890625 C 44.039062 327.890625 44.039062 329.714844 42.855469 329.714844 " fill-opacity="1" fill-rule="nonzero"/><path fill="#9e8cb0" d="M 62.761719 368.449219 C 62.636719 368.449219 62.511719 368.4375 62.382812 368.40625 C 62.039062 368.324219 61.792969 367.910156 61.90625 367.570312 C 62.015625 367.25 62.039062 366.902344 62.097656 366.570312 C 62.113281 366.433594 62.238281 366.363281 62.363281 366.363281 C 62.496094 366.363281 62.621094 366.433594 62.644531 366.570312 C 62.75 367.265625 63.027344 367.273438 63.707031 367.421875 C 64.140625 367.519531 64.148438 368.207031 63.707031 368.308594 C 63.394531 368.378906 63.078125 368.449219 62.761719 368.449219 " fill-opacity="1" fill-rule="nonzero"/><path fill="#9e8cb0" d="M 90.410156 386.796875 C 90.015625 386.796875 89.816406 386.488281 89.816406 386.175781 C 89.816406 385.863281 90.011719 385.550781 90.410156 385.550781 C 90.464844 385.550781 90.511719 385.558594 90.578125 385.566406 C 90.957031 385.644531 91.347656 385.714844 91.730469 385.792969 C 92.113281 385.859375 92.113281 386.488281 91.730469 386.566406 C 91.347656 386.632812 90.957031 386.707031 90.578125 386.78125 C 90.519531 386.792969 90.464844 386.796875 90.410156 386.796875 " fill-opacity="1" fill-rule="nonzero"/><path fill="#9e8cb0" d="M 30.417969 333.417969 C 30.332031 333.417969 30.246094 333.40625 30.167969 333.371094 C 29.824219 333.242188 29.492188 333.105469 29.160156 332.960938 C 28.78125 332.789062 28.789062 332.136719 29.160156 331.96875 C 29.421875 331.851562 29.679688 331.730469 29.929688 331.597656 C 30.085938 331.523438 30.257812 331.484375 30.433594 331.484375 C 30.628906 331.484375 30.828125 331.535156 30.988281 331.644531 C 31.207031 331.570312 31.367188 331.421875 31.390625 331.105469 C 31.441406 330.847656 31.640625 330.734375 31.851562 330.734375 C 32.121094 330.734375 32.402344 330.921875 32.402344 331.242188 C 32.402344 332.117188 31.96875 332.617188 31.25 332.921875 C 31.078125 333.207031 30.742188 333.417969 30.417969 333.417969 " fill-opacity="1" fill-rule="nonzero"/><path fill="#9e8cb0" d="M 16.039062 295.011719 C 15.867188 295.011719 15.691406 294.914062 15.660156 294.726562 C 15.617188 294.527344 15.582031 294.308594 15.523438 294.109375 L 15.320312 294.105469 C 15.257812 294.113281 15.199219 294.121094 15.140625 294.121094 C 14.863281 294.121094 14.679688 293.992188 14.457031 293.761719 C 14.261719 293.558594 14.257812 293.238281 14.457031 293.039062 C 14.683594 292.804688 14.992188 292.691406 15.308594 292.691406 C 15.652344 292.691406 16.003906 292.828125 16.265625 293.082031 C 16.703125 293.519531 16.519531 294.195312 16.425781 294.726562 C 16.394531 294.921875 16.21875 295.011719 16.039062 295.011719 " fill-opacity="1" fill-rule="nonzero"/><path fill="#9e8cb0" d="M 105.355469 298.511719 C 104.90625 298.511719 104.421875 298.351562 104.445312 298.050781 C 104.460938 297.726562 105.074219 297.46875 105.46875 297.46875 C 105.691406 297.46875 105.847656 297.554688 105.777344 297.753906 C 106.355469 298.277344 105.886719 298.511719 105.355469 298.511719 " fill-opacity="1" fill-rule="nonzero"/><path fill="#9e8cb0" d="M 376.472656 386.484375 C 376.464844 386.484375 376.324219 385.671875 375.980469 383.484375 C 376.253906 385.035156 376.484375 386.484375 376.472656 386.484375 M 375.34375 385.183594 C 375.34375 385.183594 375.34375 385.183594 375.351562 385.183594 C 375.34375 385.183594 375.34375 385.183594 375.34375 385.183594 M 375.351562 385.183594 C 375.390625 383.105469 375.425781 381.035156 373.167969 379.269531 C 373.648438 379.644531 375.46875 381.089844 375.734375 381.933594 C 375.824219 382.511719 375.902344 383.03125 375.980469 383.484375 C 375.914062 383.140625 375.855469 382.792969 375.785156 382.453125 C 375.398438 383.066406 375.351562 385.132812 375.351562 385.183594 M 373.167969 379.269531 C 373.101562 379.222656 373.066406 379.191406 373.054688 379.1875 C 373.089844 379.214844 373.125 379.242188 373.167969 379.269531 M 373.054688 379.1875 C 373.054688 379.1875 373.054688 379.179688 373.046875 379.179688 C 373.046875 379.179688 373.054688 379.179688 373.054688 379.1875 " fill-opacity="1" fill-rule="nonzero"/><path fill="#9e8cb0" d="M 392.050781 373.949219 C 389.734375 373.949219 388.644531 369.558594 388.636719 365.152344 C 389.386719 364.460938 390.117188 363.777344 390.855469 363.078125 C 392.105469 361.519531 393.3125 359.929688 394.46875 358.285156 C 394.640625 358.527344 394.816406 358.796875 394.996094 359.085938 C 397.109375 358.820312 398.84375 357.285156 400.078125 357.285156 C 400.988281 357.285156 401.632812 358.125 401.953125 360.941406 C 402.136719 360.539062 402.320312 360.03125 402.523438 359.457031 C 402.457031 360.203125 402.378906 361.015625 402.300781 361.902344 C 402.585938 363.398438 402.585938 363.699219 402.308594 363.699219 C 402.207031 363.699219 402.082031 363.664062 401.921875 363.632812 C 401.761719 363.597656 401.570312 363.5625 401.34375 363.5625 C 400.152344 363.5625 398.058594 364.566406 395.113281 371.945312 C 393.925781 373.351562 392.902344 373.949219 392.050781 373.949219 " fill-opacity="1" fill-rule="nonzero"/><path fill="#bba6d2" d="M 388.636719 365.152344 C 388.636719 365.132812 388.636719 365.117188 388.636719 365.097656 C 388.644531 360.671875 389.746094 356.25 391.804688 356.25 C 392.5625 356.25 393.457031 356.855469 394.46875 358.285156 C 393.3125 359.929688 392.105469 361.519531 390.855469 363.078125 C 390.117188 363.777344 389.386719 364.460938 388.636719 365.152344 " fill-opacity="1" fill-rule="nonzero"/><path fill="#9e8cb0" d="M 407.558594 362.210938 C 407.511719 362.210938 407.023438 359.191406 406.558594 358.113281 C 406.441406 355.34375 406.234375 353.738281 405.960938 352.96875 C 405.964844 352.96875 405.972656 352.96875 405.976562 352.96875 C 406.472656 352.96875 406.886719 354.808594 407.1875 358.820312 C 407.488281 361.335938 407.589844 362.210938 407.558594 362.210938 M 403.796875 361.027344 C 403.742188 359.160156 403.699219 357.410156 403.660156 356 C 404.304688 354.058594 404.960938 352.382812 405.484375 352.382812 C 405.65625 352.382812 405.816406 352.5625 405.960938 352.96875 C 405.339844 353.011719 404.597656 355.90625 403.796875 361.027344 M 402.523438 359.457031 C 402.96875 354.625 403.226562 352.757812 403.390625 352.757812 C 403.527344 352.757812 403.597656 354.042969 403.660156 356 C 403.273438 357.164062 402.882812 358.417969 402.523438 359.457031 " fill-opacity="1" fill-rule="nonzero"/><path fill="#9e8cb0" d="M 381.539062 412.636719 C 381.539062 410.425781 377.511719 406.1875 381.925781 406.1875 C 382.367188 406.1875 382.890625 406.226562 383.515625 406.320312 C 383.542969 406.394531 383.566406 406.460938 383.589844 406.53125 C 383.605469 406.664062 383.621094 406.804688 383.644531 406.949219 C 381.539062 407.761719 381.539062 410.199219 381.539062 412.636719 M 383.964844 407.304688 C 383.90625 407.304688 383.78125 407.082031 383.589844 406.53125 C 383.285156 404.234375 383.238281 403.445312 383.320312 403.445312 C 383.402344 403.445312 383.628906 404.40625 383.800781 405.375 C 383.972656 406.335938 384.089844 407.304688 383.964844 407.304688 " fill-opacity="1" fill-rule="nonzero"/><path fill="#9e8cb0" d="M 364.957031 419.742188 C 364.917969 419.742188 364.800781 418.59375 364.832031 417.445312 C 364.972656 419.128906 364.984375 419.742188 364.957031 419.742188 M 364.832031 417.445312 C 364.800781 417.078125 364.761719 416.644531 364.71875 416.167969 C 364.800781 416.074219 364.867188 415.960938 364.910156 415.84375 C 364.894531 416.089844 364.871094 416.421875 364.859375 416.871094 C 364.847656 417.058594 364.835938 417.25 364.832031 417.445312 M 364.910156 415.84375 C 364.945312 415.40625 364.984375 415.25 365.003906 415.25 C 365.03125 415.25 365.027344 415.554688 364.910156 415.84375 " fill-opacity="1" fill-rule="nonzero"/><path fill="#9e8cb0" d="M 395.109375 407.894531 C 394.804688 407.894531 394.179688 406.308594 393.644531 403.324219 C 393.632812 403.257812 393.632812 403.230469 393.640625 403.230469 C 393.65625 403.230469 393.78125 403.746094 393.902344 404.269531 C 394.019531 404.789062 394.148438 405.3125 394.164062 405.3125 C 394.179688 405.3125 394.066406 404.625 393.652344 402.460938 C 393.332031 400.699219 393.332031 400.070312 393.460938 400.070312 C 393.652344 400.070312 394.097656 401.265625 394.335938 402.347656 C 394.714844 404.117188 395.066406 405.757812 395.25 406.53125 C 395.332031 407.449219 395.269531 407.894531 395.109375 407.894531 M 395.371094 406.984375 C 395.359375 406.984375 395.320312 406.816406 395.25 406.53125 C 395.222656 406.246094 395.183594 405.914062 395.125 405.53125 C 395.316406 406.554688 395.386719 406.984375 395.371094 406.984375 M 395.125 405.53125 C 395.019531 404.9375 394.871094 404.164062 394.675781 403.152344 C 394.882812 404.085938 395.03125 404.878906 395.125 405.53125 " fill-opacity="1" fill-rule="nonzero"/><path fill="#9e8cb0" d="M 304.890625 88.070312 C 302.371094 87.363281 301.71875 87.179688 300.535156 87.179688 C 300.128906 87.179688 299.660156 87.199219 299.03125 87.226562 C 299.945312 87.1875 300.867188 87.144531 301.722656 87.144531 C 303.191406 87.144531 304.496094 87.269531 305.367188 87.734375 C 305.289062 87.816406 305.136719 87.929688 304.890625 88.070312 M 298.996094 87.234375 C 299.007812 87.226562 299.019531 87.226562 299.03125 87.226562 C 299.019531 87.226562 299.007812 87.226562 298.996094 87.234375 " fill-opacity="1" fill-rule="nonzero"/><path fill="#9e8cb0" d="M 317.050781 80.574219 C 316.960938 80.574219 316.902344 80.5625 316.914062 80.527344 C 317.003906 80.382812 317.949219 74.113281 318.394531 74.113281 C 318.617188 74.113281 318.714844 75.636719 318.523438 80.164062 C 318.53125 80.308594 317.449219 80.574219 317.050781 80.574219 " fill-opacity="1" fill-rule="nonzero"/><path fill="#9e8cb0" d="M 379.210938 61.558594 C 371.378906 61.558594 365.019531 55.199219 365.019531 47.351562 C 365.019531 39.503906 371.378906 33.144531 379.210938 33.144531 C 387.050781 33.144531 393.40625 39.503906 393.40625 47.351562 C 393.40625 55.199219 387.050781 61.558594 379.210938 61.558594 " fill-opacity="1" fill-rule="nonzero"/><path fill="#9e8cb0" d="M 399.675781 77.125 C 396.742188 77.125 394.371094 74.742188 394.371094 71.808594 C 394.371094 68.863281 396.742188 66.488281 399.675781 66.488281 C 402.609375 66.488281 404.984375 68.863281 404.984375 71.808594 C 404.984375 74.742188 402.609375 77.125 399.675781 77.125 " fill-opacity="1" fill-rule="nonzero"/><path fill="#9e8cb0" d="M 259.488281 77.1875 C 256.554688 77.1875 254.175781 74.808594 254.175781 71.867188 C 254.175781 68.9375 256.554688 66.558594 259.488281 66.558594 C 262.417969 66.558594 264.792969 68.9375 264.792969 71.867188 C 264.792969 74.808594 262.417969 77.1875 259.488281 77.1875 " fill-opacity="1" fill-rule="nonzero"/></svg>