<svg xmlns="http://www.w3.org/2000/svg" xmlns:xlink="http://www.w3.org/1999/xlink" width="75" zoomAndPan="magnify" viewBox="0 0 56.25 56.249997" height="75" preserveAspectRatio="xMidYMid meet" version="1.0"><defs><clipPath id="570f92c959"><path d="M 0.00390625 0.269531 L 55.507812 0.269531 L 55.507812 55.511719 L 0.00390625 55.511719 Z M 0.00390625 0.269531 " clip-rule="nonzero"/></clipPath></defs><g clip-path="url(#570f92c959)"><path fill="#9e8cb0" d="M 9.167969 31.679688 C 9.285156 31.648438 9.453125 31.570312 9.398438 31.324219 C 9.328125 31.367188 9.339844 31.332031 9.273438 31.382812 C 9.238281 31.417969 9.207031 31.464844 9.167969 31.492188 C 8.90625 31.628906 8.820312 31.902344 9.167969 31.679688 Z M 13.597656 35.140625 C 13.132812 34.523438 12.710938 34.570312 12.324219 34.65625 C 12.171875 34.683594 12.289062 34.824219 12.152344 34.730469 C 11.972656 34.613281 11.996094 34.59375 11.894531 34.753906 C 11.875 34.785156 11.855469 34.820312 11.835938 34.851562 C 11.886719 34.585938 11.886719 34.265625 11.683594 33.984375 C 11.4375 33.648438 11.285156 34.207031 11.28125 34.398438 C 11.285156 34.683594 11.304688 34.835938 11.328125 34.933594 C 10.964844 34.597656 10.644531 34.308594 10.574219 34.242188 L 10.542969 34.214844 C 10.535156 34.164062 10.519531 34.121094 10.484375 34.058594 C 10.40625 33.910156 10.417969 33.992188 10.386719 33.855469 C 10.324219 33.859375 10.261719 33.851562 10.214844 33.863281 C 9.644531 33.230469 8.75 32.183594 8.625 32.253906 C 8.65625 32.6875 9.859375 34.332031 10.179688 34.835938 C 10.574219 35.429688 11.046875 36.027344 11.546875 36.40625 C 11.589844 36.742188 11.660156 37.058594 11.75 37.210938 C 11.832031 37.34375 11.726562 37.34375 11.863281 37.640625 C 12.210938 38.402344 12.199219 38.339844 12.636719 39.023438 C 12.785156 39.253906 13.148438 39.578125 13.296875 39.554688 C 13.625 39.488281 13.804688 39.835938 13.996094 39.90625 C 14.125 39.960938 14.410156 39.785156 14.527344 39.734375 C 14.804688 39.601562 14.757812 39.457031 14.839844 39.082031 C 14.925781 38.640625 15.128906 38.808594 14.925781 38.183594 C 14.691406 37.453125 15.085938 37.222656 13.597656 35.140625 Z M 11.164062 36.210938 C 10.996094 36.148438 10.941406 36.339844 10.9375 36.535156 C 10.984375 36.59375 11.039062 36.660156 11.09375 36.726562 C 11.164062 36.65625 11.175781 36.359375 11.164062 36.210938 Z M 12.726562 46.25 C 13.515625 45.609375 13.746094 45.644531 13.054688 42.960938 C 11.710938 42.617188 11.664062 43.445312 12.726562 46.25 Z M 9.964844 31.117188 C 9.761719 31.054688 9.625 31.289062 9.488281 31.378906 C 9.53125 31.4375 9.972656 31.386719 9.964844 31.117188 Z M 12.011719 30.46875 C 11.9375 30.363281 11.949219 30.398438 11.933594 30.464844 C 12 30.507812 11.96875 30.53125 12.011719 30.46875 Z M 10.308594 30.726562 C 10.421875 30.726562 10.445312 30.601562 10.425781 30.453125 C 10.34375 29.867188 9.972656 30.066406 10.105469 30.5 C 10.152344 30.621094 10.207031 30.714844 10.308594 30.726562 Z M 10.722656 29.394531 C 10.707031 29.222656 10.675781 29.179688 10.542969 29.070312 C 10.398438 29.261719 10.4375 29.382812 10.617188 29.707031 C 10.75 29.652344 10.75 29.613281 10.722656 29.394531 Z M 5.378906 34.738281 C 5.222656 34.691406 5.316406 34.882812 5.039062 34.761719 C 4.859375 35.058594 5.0625 35.257812 5.113281 35.402344 C 5.132812 35.457031 5.144531 35.5625 5.160156 35.625 C 5.429688 35.890625 5.6875 35.757812 5.648438 35.253906 C 5.625 35.066406 5.5 34.773438 5.378906 34.738281 Z M 3.644531 30.542969 C 3.667969 30.527344 3.652344 30.566406 3.667969 30.527344 C 3.671875 30.5 3.671875 30.5 3.675781 30.480469 C 3.660156 30.484375 3.589844 30.421875 3.644531 30.542969 Z M 37.589844 36.160156 C 35.96875 34.738281 36.511719 35.386719 34.234375 33.511719 C 33.757812 33.125 33.238281 32.734375 32.671875 32.355469 C 32.230469 32.054688 31.75 31.75 31.25 31.46875 C 30.816406 31.210938 29.960938 30.648438 30.171875 31.191406 C 30.261719 31.421875 30.578125 31.742188 30.976562 32.007812 C 32.023438 32.703125 33.855469 33.492188 34.570312 34.535156 C 35.890625 35.945312 37.667969 37.402344 37.589844 36.160156 Z M 8.496094 32.0625 C 8.425781 31.964844 8.1875 31.734375 8.09375 31.691406 C 8.125 31.835938 8.429688 32.296875 8.496094 32.0625 Z M 7.925781 34.695312 C 7.742188 35.015625 7.507812 35.1875 8.003906 35.28125 C 8.214844 35.316406 8.480469 35.671875 8.597656 35.398438 C 8.667969 35.246094 8.679688 35.082031 8.550781 34.847656 C 8.332031 34.46875 8.085938 34.523438 7.925781 34.695312 Z M 47.390625 15.066406 C 47.398438 14.925781 46.4375 14.746094 46.546875 15.003906 C 46.59375 15.085938 46.746094 15.199219 47.027344 15.21875 C 47.332031 15.238281 47.375 15.15625 47.390625 15.066406 Z M 12.054688 47.484375 C 11.632812 46.320312 11.703125 46.601562 11.148438 46.257812 C 10.554688 47.265625 10.933594 46.800781 11.242188 47.546875 C 11.472656 48.082031 11.585938 49.039062 12.199219 50.121094 C 12.421875 49.828125 12.414062 49.75 12.414062 49.347656 C 12.414062 48.542969 12.273438 48.097656 12.054688 47.484375 Z M 5.039062 30.738281 C 5.0625 30.886719 5.199219 31.117188 5.3125 31.207031 C 5.5625 31.398438 5.832031 31.226562 5.824219 30.835938 C 5.777344 30.683594 5.632812 30.453125 5.519531 30.355469 C 5.445312 30.292969 5.351562 30.300781 5.265625 30.34375 C 5.253906 30.324219 5.238281 30.304688 5.21875 30.277344 C 5.113281 30.136719 5.089844 30.125 4.988281 30.195312 C 5.03125 30.332031 5.0625 30.425781 5.105469 30.492188 C 5.054688 30.570312 5.023438 30.660156 5.039062 30.738281 Z M 18.925781 32.871094 C 18.835938 32.492188 18.605469 31.636719 18.636719 31.359375 C 18.652344 31.207031 18.710938 31.109375 18.765625 31.015625 C 18.796875 31.03125 18.828125 31.042969 18.863281 31.046875 C 18.902344 31.058594 18.933594 31.054688 18.957031 31.039062 C 19.15625 31.238281 19.339844 31.417969 19.339844 31.417969 C 19.394531 31.414062 19.449219 31.289062 19.546875 31.195312 C 19.609375 31.292969 19.683594 31.378906 19.773438 31.472656 C 21.222656 32.945312 21.238281 32.460938 21.671875 32.652344 C 22.0625 32.828125 21.914062 32.605469 22.109375 32.457031 C 22.277344 32.34375 22.359375 32.386719 22.351562 32.070312 C 22.339844 31.925781 22.34375 31.613281 22.28125 31.476562 C 22.179688 31.269531 21.957031 31.09375 21.882812 30.734375 C 21.859375 30.640625 21.773438 30.496094 21.679688 30.351562 C 21.777344 30.347656 21.890625 30.367188 22.003906 30.402344 C 22.199219 30.472656 22.339844 30.589844 22.449219 30.726562 C 22.449219 30.785156 22.457031 30.847656 22.5 30.910156 C 22.558594 31.011719 22.621094 31.078125 22.675781 31.113281 C 22.746094 31.25 22.804688 31.390625 22.867188 31.523438 C 23.148438 32.085938 23.140625 31.882812 23.046875 31.527344 C 23.011719 31.40625 22.957031 31.277344 22.910156 31.164062 C 22.949219 31.148438 22.984375 31.128906 22.996094 31.125 C 22.96875 31 22.894531 30.890625 22.808594 30.769531 C 22.800781 30.757812 22.796875 30.757812 22.78125 30.75 C 22.78125 30.710938 22.789062 30.671875 22.800781 30.644531 C 23.011719 30.1875 22.757812 30.21875 22.417969 29.664062 C 22.324219 29.507812 22.296875 29.371094 22.289062 29.253906 C 22.496094 29.390625 22.757812 29.484375 22.917969 29.554688 C 22.828125 29.386719 22.691406 28.96875 22.363281 28.785156 C 22.386719 28.609375 22.328125 28.519531 22.492188 28.445312 C 22.570312 28.414062 22.648438 28.347656 22.667969 28.253906 C 22.890625 28.484375 23.15625 28.761719 23.464844 28.988281 C 23.417969 29.34375 23.820312 30.011719 24.5 30.394531 C 24.671875 30.492188 24.8125 30.546875 24.929688 30.570312 C 25.207031 30.761719 25.320312 30.71875 25.308594 30.65625 C 25.296875 30.601562 25.300781 30.582031 25.28125 30.539062 C 25.273438 30.53125 25.261719 30.523438 25.253906 30.519531 C 25.429688 30.359375 25.332031 29.941406 25.054688 29.554688 C 25.972656 30.082031 26.875 29.898438 26.144531 28.644531 C 26.238281 28.734375 26.339844 28.832031 26.488281 28.960938 C 27.710938 30.039062 29.15625 31.027344 29.480469 31.011719 C 29.921875 30.980469 28.371094 29.636719 27.679688 29.253906 C 27.363281 29.078125 27.117188 28.621094 26.667969 28.316406 C 26.417969 28.15625 25.890625 27.75 25.613281 27.523438 C 25.386719 27.363281 25.207031 27.183594 25.03125 27.003906 C 24.996094 26.824219 25.007812 26.652344 24.984375 26.492188 C 24.96875 26.375 24.894531 26.023438 24.8125 25.828125 C 25.285156 26.085938 25.792969 26.175781 26.066406 25.84375 C 26.457031 25.355469 25.625 24.085938 24.328125 23.183594 L 24.3125 23.171875 C 24.242188 22.933594 23.84375 22.605469 23.75 22.4375 C 23.636719 22.246094 23.695312 22.226562 23.390625 22.03125 C 23.214844 21.917969 22.886719 21.765625 22.652344 21.679688 C 22.605469 21.410156 22.535156 21.125 22.3125 20.832031 C 22.386719 20.871094 22.433594 20.894531 22.4375 20.894531 C 22.550781 20.890625 22.726562 20.726562 23.039062 20.691406 C 23.199219 20.667969 23.71875 20.761719 23.992188 20.761719 C 24.121094 20.757812 24.257812 20.75 24.398438 20.734375 C 24.390625 20.765625 24.382812 20.796875 24.359375 20.820312 C 24.121094 21.144531 25.285156 21.417969 24.726562 20.863281 C 24.683594 20.816406 24.621094 20.777344 24.519531 20.71875 C 24.867188 20.667969 25.199219 20.570312 25.367188 20.449219 C 25.453125 20.386719 25.507812 20.34375 25.558594 20.3125 C 25.617188 20.363281 25.6875 20.421875 25.765625 20.484375 C 26.144531 20.789062 26.535156 20.789062 26.804688 20.761719 C 26.972656 20.742188 26.867188 20.535156 27.148438 20.632812 C 27.394531 20.726562 27.53125 20.820312 27.8125 20.890625 C 27.855469 20.898438 27.902344 20.910156 27.941406 20.917969 C 27.976562 20.976562 28.011719 21.039062 28.054688 21.097656 C 28.355469 21.535156 28.410156 21.378906 28.363281 21.105469 C 28.355469 21.054688 28.335938 21.003906 28.316406 20.953125 C 28.710938 20.953125 28.914062 20.792969 28.746094 20.527344 C 28.679688 20.417969 28.585938 20.324219 28.480469 20.246094 C 28.628906 20.070312 28.269531 20.015625 27.96875 19.667969 C 27.757812 19.421875 28.011719 19.238281 28.191406 19.066406 C 28.242188 19.132812 28.308594 19.222656 28.480469 19.351562 C 28.59375 19.363281 28.585938 19.34375 28.601562 19.308594 C 28.632812 19.234375 28.582031 19.175781 28.5 19.089844 C 28.40625 18.988281 28.378906 18.960938 28.304688 18.929688 C 28.371094 18.828125 28.359375 18.765625 28.65625 18.710938 C 28.816406 18.679688 28.992188 18.621094 29.070312 18.535156 C 29.394531 18.746094 29.75 18.957031 30.21875 19.125 C 29.949219 19.410156 30.371094 19.945312 31.488281 20.261719 C 33.140625 20.730469 33.621094 20.0625 32.964844 19.5 C 33.0625 19.480469 33.164062 19.449219 33.242188 19.410156 C 33.523438 19.277344 33.773438 19.140625 34.113281 19.023438 C 34.570312 18.859375 34.390625 18.765625 35.097656 18.625 C 35.28125 18.585938 35.441406 18.570312 35.597656 18.558594 C 35.800781 18.691406 36.007812 18.816406 36.417969 19.019531 C 38.402344 19.988281 40.960938 20.898438 41.707031 20.886719 C 42.769531 20.859375 40.203125 19.613281 38.90625 19.261719 C 38.3125 19.109375 38.113281 18.691406 37.308594 18.433594 C 36.851562 18.285156 36.015625 17.949219 35.578125 17.765625 C 35.15625 17.59375 34.867188 17.425781 34.570312 17.242188 C 34.609375 17.0625 34.738281 16.875 34.792969 16.707031 C 34.847656 16.5625 34.949219 16.082031 34.8125 15.929688 C 34.726562 15.824219 34.53125 15.863281 34.46875 15.753906 C 34.402344 15.636719 34.453125 15.554688 34.351562 15.421875 C 34.296875 15.347656 32.535156 15.136719 33.429688 14.621094 C 33.960938 14.308594 35.753906 14.578125 33.84375 13.667969 C 33.496094 13.269531 32.769531 13.332031 32.410156 13.121094 C 32.382812 13.105469 32.375 13.085938 32.363281 13.058594 C 32.402344 12.976562 32.394531 12.890625 32.304688 12.796875 C 32.324219 12.40625 32.570312 11.796875 32.597656 11.609375 C 32.652344 11.15625 32.765625 10.652344 32.167969 10.1875 C 31.804688 9.902344 31.28125 9.769531 30.738281 9.648438 C 30.742188 9.628906 30.746094 9.617188 30.753906 9.601562 C 30.820312 9.257812 30.59375 9.234375 30.824219 8.832031 C 30.835938 8.8125 30.847656 8.796875 30.859375 8.78125 C 30.824219 8.886719 30.769531 8.992188 30.757812 9.078125 C 30.757812 9.15625 30.828125 9.214844 30.941406 9.238281 C 31.214844 9.285156 31.230469 9.128906 31.257812 9.054688 C 31.292969 8.960938 31.308594 8.875 31.304688 8.789062 C 31.300781 8.6875 31.265625 8.589844 31.214844 8.511719 C 31.199219 8.492188 31.195312 8.480469 31.1875 8.46875 C 31.300781 8.394531 31.410156 8.316406 31.507812 8.207031 C 31.507812 8.203125 31.511719 8.203125 31.515625 8.199219 C 31.8125 8.136719 31.976562 7.949219 32.089844 7.878906 C 31.574219 7.777344 30.488281 7.46875 30.496094 7.925781 C 30.496094 7.953125 30.515625 7.984375 30.558594 8.015625 L 30.539062 8.019531 C 30.492188 8.03125 30.445312 8.042969 30.402344 8.050781 C 30.3125 8.050781 30.214844 8.066406 30.097656 8.101562 C 29.246094 8.1875 28.886719 7.753906 28.566406 7.367188 C 28.601562 7.335938 28.628906 7.304688 28.65625 7.265625 C 28.558594 7.230469 28.480469 7.203125 28.414062 7.183594 C 28.394531 7.164062 28.375 7.140625 28.359375 7.121094 C 28.226562 6.976562 27.746094 6.507812 27.503906 6.417969 C 27.34375 6.355469 27.269531 6.453125 27.109375 6.378906 C 26.945312 6.300781 26.882812 6.203125 26.671875 6.121094 C 26.542969 6.070312 25.277344 6.488281 25.265625 5.742188 C 25.265625 5.710938 25.269531 5.679688 25.28125 5.648438 C 25.417969 5.550781 25.511719 5.472656 25.917969 5.347656 C 26.214844 5.265625 26.4375 5.246094 26.675781 5.222656 C 26.449219 5.351562 26.480469 5.582031 27.085938 5.453125 C 27.875 5.304688 27.640625 5.15625 27.199219 5.140625 C 27.785156 4.992188 27.152344 4.800781 26.714844 4.738281 C 25.386719 4.550781 26.101562 3.929688 26.382812 3.488281 C 26.472656 3.347656 26.714844 2.886719 26.660156 2.753906 C 26.625 2.667969 26.464844 2.714844 26.453125 2.621094 C 26.445312 2.523438 26.519531 2.4375 26.488281 2.328125 C 26.46875 2.261719 25.175781 2.222656 26.019531 1.6875 C 26.542969 1.367188 27.851562 1.4375 26.652344 0.824219 C 26.53125 0.519531 25.964844 0.640625 25.773438 0.496094 C 25.734375 0.464844 25.75 0.382812 25.796875 0.269531 L 8.261719 0.269531 C 8.289062 0.308594 8.320312 0.339844 8.316406 0.382812 C 8.316406 0.398438 8.300781 0.417969 8.273438 0.445312 C 8.269531 0.441406 8.261719 0.4375 8.253906 0.4375 C 8.183594 0.429688 8.121094 0.464844 8.203125 0.503906 C 8.199219 0.507812 8.191406 0.515625 8.1875 0.519531 C 8.082031 0.566406 8.007812 0.617188 7.96875 0.664062 C 7.964844 0.660156 7.964844 0.65625 7.960938 0.652344 C 7.921875 0.550781 7.882812 0.589844 7.78125 0.539062 C 7.691406 0.496094 7.683594 0.472656 7.574219 0.480469 C 7.523438 0.484375 7.40625 0.488281 7.375 0.507812 C 7.332031 0.53125 7.320312 0.578125 7.253906 0.605469 C 7.222656 0.542969 7.199219 0.472656 7.195312 0.410156 C 7.191406 0.386719 7.191406 0.367188 7.195312 0.347656 C 7.347656 0.425781 7.488281 0.472656 7.546875 0.445312 C 7.613281 0.417969 7.597656 0.351562 7.535156 0.269531 L 0 0.269531 L 0 3.5 C 0 3.503906 0.00390625 3.503906 0.0078125 3.507812 C 0.101562 3.585938 0.199219 3.53125 0.304688 3.585938 C 0.3125 3.585938 0.316406 3.589844 0.324219 3.59375 C 0.265625 3.644531 0.21875 3.699219 0.179688 3.765625 C 0.167969 3.757812 0.160156 3.753906 0.144531 3.75 C 0.0664062 3.722656 0.0390625 3.730469 0 3.738281 L 0 4.625 C 0.0195312 4.621094 0.0390625 4.617188 0.0585938 4.613281 C 0.164062 4.664062 0.296875 4.679688 0.425781 4.6875 C 0.652344 4.703125 0.574219 4.714844 0.679688 4.859375 C 0.753906 4.960938 0.832031 5.019531 0.851562 5.148438 C 0.941406 5.644531 0.328125 5.226562 0.125 5.222656 C 0.0664062 5.222656 0.0273438 5.230469 0 5.238281 L 0 5.347656 C 0.101562 5.449219 0.375 5.589844 0.519531 5.664062 C 0.375 5.65625 0.117188 5.65625 0 5.660156 L 0 23.9375 C 0.0742188 24.015625 0.128906 24.035156 0.316406 24.046875 C 0.394531 24.050781 0.460938 24.074219 0.523438 24.09375 C 0.511719 24.511719 0.699219 24.390625 0.792969 24.101562 C 0.804688 24.074219 0.808594 24.042969 0.808594 24.015625 C 0.820312 24 0.828125 23.984375 0.839844 23.964844 C 0.996094 23.65625 1.195312 23.6875 1.386719 23.53125 C 1.417969 23.527344 1.445312 23.527344 1.460938 23.535156 C 1.722656 23.628906 1.875 24.226562 1.785156 24.542969 C 1.78125 24.546875 1.550781 25.007812 1.550781 25.007812 C 1.527344 25.042969 1.492188 25.074219 1.453125 25.105469 C 1.398438 24.960938 1.164062 25.191406 1.027344 25.433594 C 0.964844 25.539062 0.859375 25.769531 0.914062 25.886719 C 0.875 26.023438 0.816406 26.179688 0.71875 26.34375 C 0.496094 26.6875 0.28125 27.328125 0.589844 27.710938 C 1 28.183594 1.171875 27.722656 1.167969 27.125 C 1.164062 26.765625 1.101562 26.292969 1.125 25.933594 C 1.222656 25.863281 1.320312 25.714844 1.382812 25.5625 L 1.453125 25.53125 C 1.722656 25.636719 1.804688 25.808594 1.980469 26.148438 C 2.007812 26.203125 2.039062 26.25 2.0625 26.296875 C 2.054688 26.289062 2.042969 26.285156 2.03125 26.277344 C 1.835938 26.179688 1.785156 26.523438 1.753906 26.632812 C 1.902344 26.699219 2.257812 26.953125 2.203125 26.496094 C 2.460938 26.832031 2.675781 26.851562 3.078125 27.378906 C 2.996094 27.355469 2.929688 27.34375 2.898438 27.335938 C 2.804688 27.304688 2.761719 27.261719 2.726562 27.421875 C 2.773438 27.484375 2.773438 27.460938 2.8125 27.503906 C 2.863281 27.574219 2.847656 27.597656 2.953125 27.699219 C 2.910156 27.699219 2.875 27.710938 2.839844 27.734375 C 2.765625 27.761719 2.613281 27.863281 2.734375 27.992188 C 2.832031 28.105469 3.03125 27.980469 3.09375 27.875 C 3.101562 27.867188 3.105469 27.84375 3.113281 27.835938 C 3.203125 27.894531 3.375 27.945312 3.429688 27.863281 C 3.542969 28.015625 3.476562 27.953125 3.574219 28.519531 C 3.300781 28.816406 3.046875 28.816406 3.023438 29.429688 C 3.214844 29.515625 3.449219 29.425781 3.617188 29.308594 C 3.875 29.097656 3.953125 29.210938 4.203125 29.238281 C 4.195312 29.269531 4.191406 29.308594 4.1875 29.335938 C 4.105469 30.128906 5.03125 30.632812 5.070312 29.699219 C 5.078125 29.542969 5.058594 29.421875 5.023438 29.308594 C 5.164062 29.359375 5.292969 29.441406 5.40625 29.601562 C 5.882812 30.316406 5.589844 30.6875 6.449219 30.574219 C 6.78125 30.511719 7.117188 31.050781 7.535156 31.367188 C 7.976562 31.695312 8.285156 31.800781 7.691406 31.105469 C 7.242188 30.539062 6.605469 30.128906 6.816406 29.285156 C 6.898438 28.976562 7.117188 28.722656 7.308594 28.527344 C 7.402344 28.410156 7.472656 28.34375 7.53125 28.300781 C 7.832031 28.507812 8.105469 28.386719 8.324219 28.226562 C 8.363281 28.195312 8.4375 28.15625 8.527344 28.105469 C 8.542969 28.164062 8.578125 28.222656 8.644531 28.226562 C 8.691406 28.148438 8.675781 28.117188 8.648438 28.023438 C 8.796875 27.921875 8.933594 27.804688 8.953125 27.71875 C 8.972656 27.707031 8.992188 27.683594 9.011719 27.664062 C 9.050781 27.785156 9.191406 27.6875 9.195312 27.628906 C 9.15625 27.621094 9.0625 27.640625 9.019531 27.65625 C 9.136719 27.542969 9.246094 27.417969 9.324219 27.304688 C 9.425781 27.140625 9.519531 26.839844 9.601562 26.632812 C 9.675781 26.75 9.742188 26.871094 9.78125 26.992188 C 9.933594 27.453125 9.605469 27.417969 9.382812 27.503906 C 9.105469 27.617188 9.257812 27.667969 9.476562 27.671875 C 9.691406 27.683594 9.851562 27.5625 10.042969 27.703125 C 10.527344 28.054688 10.347656 27.789062 10.613281 27.636719 C 10.777344 27.535156 11.074219 27.753906 11.308594 27.875 C 11.484375 27.964844 11.527344 27.925781 11.703125 28.128906 C 11.804688 28.242188 11.96875 28.398438 12.09375 28.4375 C 12.101562 28.46875 12.109375 28.484375 12.128906 28.515625 C 11.566406 28.796875 12.726562 29.566406 12.421875 30.015625 C 12.277344 30.230469 12.136719 30.253906 12.085938 30.597656 C 12.074219 30.664062 11.964844 31.414062 11.964844 31.414062 C 12.023438 31.503906 12.308594 31.710938 12.523438 32.015625 C 12.628906 32.167969 12.808594 32.628906 12.949219 32.871094 C 13.214844 33.320312 13.683594 33.902344 14.03125 34.167969 C 14.351562 34.417969 14.371094 34.398438 14.640625 34.78125 C 14.699219 34.863281 14.761719 34.957031 14.820312 35.058594 C 14.847656 35.175781 14.894531 35.332031 14.953125 35.5 C 14.941406 35.527344 14.929688 35.5625 14.917969 35.59375 C 14.96875 35.675781 15.015625 35.738281 15.054688 35.785156 C 15.109375 35.9375 15.171875 36.09375 15.230469 36.238281 C 15.15625 36.425781 14.90625 36.410156 14.730469 36.496094 C 14.375 36.652344 14.59375 36.742188 14.886719 36.785156 C 15.105469 36.804688 15.269531 36.71875 15.453125 36.777344 C 15.546875 36.996094 15.621094 37.15625 15.640625 37.210938 C 15.765625 37.519531 16.175781 38.734375 16.488281 39.5 C 16.03125 39.085938 15.476562 38.804688 15.238281 38.820312 C 15.246094 38.839844 15.691406 39.722656 15.761719 39.839844 C 16.027344 40.339844 16.113281 40.566406 16.382812 40.96875 C 18.476562 43.964844 18.015625 41.5 16.867188 39.914062 C 16.859375 39.902344 16.847656 39.890625 16.839844 39.875 C 16.796875 39.289062 16.402344 37.917969 16.304688 37.503906 C 16.28125 37.378906 16.253906 37.25 16.222656 37.125 C 16.253906 37.042969 16.285156 36.929688 16.402344 36.839844 C 16.613281 36.695312 17.054688 37.078125 17.394531 37.300781 C 17.660156 37.476562 17.703125 37.414062 17.980469 37.75 C 18.152344 37.953125 18.382812 38.179688 18.554688 38.234375 C 18.476562 37.761719 18.234375 37.59375 17.933594 37.1875 C 17.972656 36.667969 17.84375 36.898438 18.199219 36.683594 C 18.691406 36.382812 18.945312 36.707031 19.269531 36.367188 C 19.429688 36.210938 19.492188 36.109375 19.78125 36.207031 L 20.105469 36.539062 C 20.253906 36.894531 20.210938 37.351562 20.246094 37.722656 C 20.28125 38.195312 20.542969 38.777344 20.957031 38.675781 C 21.28125 38.605469 20.941406 37.839844 20.667969 37.40625 C 20.296875 36.820312 20.367188 36.554688 20.070312 36.214844 C 19.9375 36.0625 19.71875 35.820312 19.609375 35.664062 L 19.296875 35.074219 C 19.144531 34.699219 19.234375 34.257812 19.519531 34.367188 C 19.621094 34.398438 20.203125 34.867188 20.503906 35 C 20.789062 35.144531 21.292969 35.472656 21.503906 35.410156 C 21.484375 34.816406 19.238281 34.195312 18.925781 32.871094 Z M 23.757812 24.722656 C 23.761719 24.738281 23.769531 24.753906 23.773438 24.769531 C 23.738281 24.722656 23.710938 24.675781 23.699219 24.625 C 23.726562 24.652344 23.75 24.6875 23.757812 24.722656 Z M 28.003906 17.910156 C 28.289062 18.027344 28.554688 18.199219 28.839844 18.390625 C 28.472656 18.3125 28.300781 18.402344 27.972656 18.445312 C 27.335938 18.128906 27.648438 18.363281 27.292969 17.921875 C 27.136719 17.738281 27.0625 17.601562 27.015625 17.492188 C 27.320312 17.644531 27.722656 17.796875 28.003906 17.910156 Z M 1.839844 22.234375 C 1.839844 22.265625 1.835938 22.292969 1.828125 22.320312 C 1.808594 22.226562 1.773438 22.152344 1.714844 22 C 1.535156 21.535156 1.539062 21.414062 1.25 21.125 C 1.273438 21.125 1.292969 21.121094 1.304688 21.109375 C 1.507812 21.042969 1.453125 21.199219 1.574219 21.277344 C 1.585938 21.273438 1.90625 21.117188 1.949219 21.089844 C 1.929688 21.453125 1.867188 21.953125 1.839844 22.234375 Z M 2.285156 4.1875 C 2.265625 4.191406 2.25 4.199219 2.230469 4.203125 C 2.226562 4.203125 2.21875 4.203125 2.214844 4.203125 L 2.210938 4.207031 C 1.984375 4.261719 1.933594 4.109375 1.886719 3.910156 C 2.023438 3.917969 2.0625 3.925781 2.164062 4.019531 C 2.253906 4.105469 2.304688 4.117188 2.410156 4.140625 C 2.371094 4.15625 2.332031 4.171875 2.285156 4.1875 Z M 12.820312 28.445312 C 12.59375 28.605469 12.589844 28.648438 12.355469 28.558594 C 12.324219 28.472656 12.273438 28.382812 12.21875 28.3125 L 12.078125 28.328125 C 12.03125 28.089844 11.878906 27.992188 11.726562 27.785156 C 11.808594 27.460938 11.6875 27.605469 11.972656 27.457031 C 12.230469 27.320312 12.382812 27.355469 12.542969 27.328125 C 12.675781 27.46875 12.835938 27.589844 13.175781 27.6875 C 13.125 27.714844 13.082031 27.746094 13.082031 27.746094 C 13.0625 27.796875 13.140625 28.140625 13.347656 28.183594 C 13.171875 28.253906 12.863281 28.40625 12.820312 28.445312 Z M 18.816406 1.765625 C 18.886719 1.757812 18.941406 1.746094 18.984375 1.738281 C 19.011719 1.765625 19.03125 1.796875 19.03125 1.847656 C 19.039062 2.023438 19.097656 2.058594 19.324219 2.117188 C 19.496094 2.167969 19.585938 2.296875 19.675781 2.414062 C 19.699219 2.441406 19.703125 2.476562 19.695312 2.511719 C 19.671875 2.511719 19.648438 2.511719 19.625 2.511719 C 19.449219 2.449219 19.136719 2.429688 18.949219 2.402344 C 18.863281 2.386719 18.738281 2.378906 18.617188 2.371094 C 18.609375 2.316406 18.601562 2.257812 18.597656 2.238281 C 18.570312 2.105469 18.632812 2.082031 18.605469 1.964844 C 18.582031 1.867188 18.546875 1.855469 18.496094 1.839844 C 18.597656 1.808594 18.695312 1.777344 18.816406 1.765625 Z M 18.476562 2.652344 C 18.492188 2.640625 18.511719 2.628906 18.523438 2.617188 C 18.582031 2.617188 18.640625 2.621094 18.695312 2.625 C 18.617188 2.636719 18.539062 2.652344 18.460938 2.664062 C 18.464844 2.660156 18.46875 2.65625 18.476562 2.652344 Z M 39.171875 15.640625 C 39.507812 15.65625 39.261719 15.355469 39.140625 15.28125 C 38.878906 15.128906 38.453125 15.046875 38.144531 15.082031 C 37.457031 15.160156 38 15.578125 39.171875 15.640625 Z M 46.945312 17.109375 C 46.882812 17.1875 46.820312 17.199219 47.144531 17.257812 C 47.792969 17.371094 47.113281 16.933594 46.945312 17.109375 Z M 38.296875 13.351562 C 38.601562 13.542969 39.019531 13.640625 39.566406 13.628906 C 39.378906 12.996094 37.433594 12.78125 38.296875 13.351562 Z M 41.945312 27.265625 C 41.398438 27.125 41.191406 27.132812 41.128906 27.191406 C 40.761719 27.585938 42.394531 27.9375 43.132812 28.148438 C 42.996094 27.960938 42.886719 27.496094 41.945312 27.265625 Z M 19.089844 37.695312 C 19.121094 38.066406 19.183594 38.164062 19.496094 38.546875 C 19.78125 38.921875 19.859375 38.9375 20.054688 38.902344 C 19.78125 38.132812 19.585938 37.980469 19.089844 37.695312 Z M 41.097656 18.382812 C 41.164062 18.554688 41.808594 18.757812 42.148438 18.773438 C 44.597656 18.890625 40.757812 17.542969 41.097656 18.382812 Z M 36.21875 37.628906 C 36.308594 37.621094 36.335938 37.617188 36.460938 37.621094 C 36.636719 37.628906 36.605469 37.300781 35.714844 36.667969 C 35.601562 36.941406 35.503906 37.011719 36.21875 37.628906 Z M 55.035156 25.414062 C 54.726562 25.320312 54.648438 25.292969 54.402344 25.21875 C 53.613281 25.273438 53.984375 25.421875 54.71875 25.792969 C 55.953125 25.855469 55.464844 25.539062 55.035156 25.414062 Z M 2.828125 38.753906 C 2.851562 39.117188 2.949219 39.507812 3.15625 39.527344 C 3.28125 39.523438 3.320312 39.378906 3.332031 39.183594 C 3.359375 38.828125 3.140625 38.703125 3.027344 38.429688 C 2.792969 37.894531 2.839844 38.277344 2.828125 38.753906 Z M 20.128906 37.28125 C 20.222656 37.347656 20.1875 37.378906 20.21875 37.285156 C 20.105469 37.140625 20.121094 37.1875 20.128906 37.28125 Z M 50.632812 23.945312 C 49.953125 23.632812 49.382812 23.484375 48.90625 23.488281 C 47.589844 23.503906 50.027344 24.363281 50.632812 23.945312 Z M 47.023438 7.769531 C 46.902344 7.898438 46.800781 7.925781 47.328125 7.964844 C 48.417969 8.042969 47.289062 7.464844 47.023438 7.769531 Z M 50.671875 16.484375 C 50.03125 16.523438 49.730469 16.515625 50.242188 16.90625 C 50.4375 16.9375 50.5 16.941406 50.746094 16.984375 C 51.085938 17.039062 51.546875 16.9375 50.671875 16.484375 Z M 44.347656 10.816406 C 44.046875 10.984375 43.152344 10.519531 42.644531 10.667969 C 42.359375 10.75 41.667969 10.828125 41.316406 10.867188 C 40.25 10.960938 39 10.191406 37.808594 10.9375 C 37.175781 11.324219 37.539062 11.5 38.367188 11.949219 C 39.15625 12.347656 40.28125 12.273438 41.125 12.164062 C 41.621094 12.101562 41.5625 11.785156 42.316406 11.890625 C 43.011719 11.988281 43.285156 12.101562 44.066406 12.136719 C 46.050781 12.21875 47.839844 11.820312 47.6875 11.289062 C 47.472656 10.558594 44.972656 10.449219 44.347656 10.816406 Z M 34.863281 5.445312 C 35.058594 5.480469 35.011719 5.445312 35.128906 5.503906 C 35.332031 5.417969 35.609375 5.378906 35.527344 5.273438 C 35.453125 5.167969 35.171875 5.082031 34.96875 5.089844 C 34.640625 5.09375 34.441406 5.367188 34.863281 5.445312 Z M 33.324219 8.90625 C 32.90625 9.121094 33.695312 9.191406 33.828125 9.042969 C 33.976562 8.863281 33.789062 8.667969 33.324219 8.90625 Z M 34.332031 5.917969 C 34.242188 5.984375 34.203125 6.101562 34.441406 6.195312 C 34.699219 6.300781 34.882812 6.25 35.035156 6.179688 C 35.28125 6.082031 34.628906 5.699219 34.332031 5.917969 Z M 35.921875 1.066406 C 36.011719 1.117188 36.015625 1.089844 36.027344 1.144531 C 36.261719 1.128906 36.496094 1.152344 36.558594 1.074219 C 36.628906 1 36.542969 0.902344 36.410156 0.871094 C 36.183594 0.816406 35.734375 0.949219 35.921875 1.066406 Z M 34.4375 0.769531 C 34.679688 0.804688 34.644531 0.785156 34.757812 0.667969 C 34.835938 0.589844 34.824219 0.554688 34.554688 0.566406 C 34.03125 0.589844 34.132812 0.675781 34.4375 0.769531 Z M 33.230469 1.851562 C 33.828125 1.863281 34.335938 1.933594 33.800781 1.683594 C 33.570312 1.574219 33.628906 1.382812 33.175781 1.390625 C 32.949219 1.398438 32.753906 1.433594 32.652344 1.539062 C 32.488281 1.71875 32.828125 1.8125 33.230469 1.851562 Z M 35.160156 12.734375 C 35.042969 12.652344 34.890625 12.597656 34.53125 12.488281 C 34.417969 12.585938 34.386719 12.664062 34.265625 12.734375 C 33.398438 13.246094 36.175781 13.453125 35.160156 12.734375 Z M 37.230469 4.183594 C 37.414062 4.214844 37.332031 4.167969 37.503906 4.222656 C 37.5625 4.140625 37.554688 4.054688 37.308594 4.023438 C 37.160156 4.078125 37.203125 4.097656 37.230469 4.183594 Z M 45.535156 1.460938 C 45.800781 1.417969 45.605469 1.402344 45.910156 1.378906 C 45.789062 1.28125 45.597656 1.203125 45.28125 1.273438 C 45.226562 1.394531 45.316406 1.398438 45.535156 1.460938 Z M 42.882812 4.433594 C 42.914062 4.390625 42.878906 4.355469 42.792969 4.320312 C 42.582031 4.253906 42.402344 4.269531 42.160156 4.324219 C 42.015625 4.503906 42.710938 4.667969 42.882812 4.433594 Z M 47.109375 4.792969 C 47.621094 4.769531 47.699219 4.621094 47.710938 4.476562 C 47.726562 4.253906 46.203125 4.175781 46.394531 4.550781 C 46.449219 4.660156 46.671875 4.804688 47.109375 4.792969 Z M 36.878906 3.207031 C 37.058594 3.3125 37.160156 3.210938 37.445312 3.40625 C 38.140625 3.441406 38.070312 3.257812 38.164062 3.195312 C 38.199219 3.164062 38.324219 3.128906 38.382812 3.105469 C 38.269531 2.863281 37.679688 2.746094 37.121094 2.910156 C 36.914062 2.972656 36.734375 3.125 36.878906 3.207031 Z M 2.308594 27.3125 C 2.265625 27.253906 2.144531 27.167969 2.089844 27.183594 L 2.082031 27.308594 C 2.148438 27.375 2.25 27.40625 2.308594 27.3125 Z M 40.65625 10.539062 C 40.800781 10.574219 40.761719 10.550781 40.851562 10.589844 C 40.988281 10.542969 41.1875 10.53125 41.128906 10.453125 C 41.070312 10.378906 40.875 10.308594 40.738281 10.300781 C 40.496094 10.289062 40.351562 10.464844 40.65625 10.539062 Z M 37.863281 9.5625 C 37.710938 10.058594 39.285156 10.277344 40.164062 9.660156 C 40.410156 9.476562 39.316406 9.246094 39.015625 9.234375 C 38.425781 9.203125 37.9375 9.339844 37.863281 9.5625 Z M 38.828125 10.304688 C 38.445312 10.398438 38.652344 10.464844 39.035156 10.503906 C 39.304688 10.496094 39.234375 10.484375 39.160156 10.363281 C 39.105469 10.28125 39.039062 10.25 38.828125 10.304688 Z M 27.992188 1.902344 C 28.015625 1.824219 27.953125 1.761719 27.824219 1.621094 C 27.613281 1.675781 27.484375 1.722656 27.308594 1.753906 C 26.078125 1.988281 27.816406 2.582031 27.992188 1.902344 Z M 29.433594 0.566406 C 30.027344 0.453125 29.933594 0.425781 30.109375 0.378906 C 30.214844 0.34375 30.210938 0.367188 30.324219 0.320312 C 30.320312 0.300781 30.3125 0.285156 30.300781 0.269531 L 29.734375 0.269531 C 29.382812 0.296875 28.816406 0.347656 28.695312 0.519531 C 28.585938 0.65625 29.242188 0.605469 29.433594 0.566406 Z M 29.925781 3.390625 C 29.777344 3.292969 29.546875 3.246094 29.070312 3.160156 C 28.917969 3.328125 28.863281 3.4375 28.707031 3.5625 C 27.546875 4.460938 31.242188 4.234375 29.925781 3.390625 Z M 32.472656 5.285156 C 31.953125 5.457031 32.238281 5.527344 32.738281 5.550781 C 33.066406 5.511719 32.992188 5.503906 32.890625 5.339844 C 32.824219 5.222656 32.734375 5.191406 32.472656 5.285156 Z M 0.535156 31.1875 C 0.371094 31.175781 0.148438 31.0625 -0.00390625 31.054688 L -0.00390625 31.816406 C 0.15625 32.144531 0.410156 32.492188 0.695312 32.796875 C 0.695312 32.898438 0.703125 33.015625 0.722656 33.148438 C 0.824219 33.160156 0.921875 33.132812 0.996094 33.0625 C 1.554688 33.542969 2.144531 33.8125 2.3125 33.585938 C 2.761719 32.976562 0.875 31.191406 0.535156 31.1875 Z M 0.105469 29.351562 C 0.113281 29.347656 0.140625 29.320312 0.171875 29.277344 C 0.558594 29.203125 0.949219 29.042969 1.050781 28.917969 C 1.238281 28.679688 1.699219 28.488281 1.355469 28.226562 C 1.140625 28.078125 0.734375 28.117188 0.339844 28.246094 C 0.234375 27.589844 -0.0625 26.863281 0.03125 26.265625 C 0.0703125 26.011719 0.128906 25.8125 0.144531 25.632812 C 0.214844 25.621094 0.269531 25.585938 0.292969 25.507812 C 0.253906 25.425781 0.207031 25.414062 0.148438 25.410156 C 0.136719 25.269531 0.09375 25.136719 -0.00390625 24.988281 L -0.00390625 29.304688 C 0.00390625 29.304688 0.0117188 29.304688 0.015625 29.304688 C 0.046875 29.324219 0.0664062 29.359375 0.105469 29.351562 Z M -0.00390625 42.027344 L -0.00390625 43.042969 C 0.1875 42.867188 0.355469 42.539062 0.441406 42.140625 C 0.113281 41.511719 0.078125 41.84375 -0.00390625 42.027344 Z M 27.640625 5.1875 C 27.558594 5.304688 27.71875 5.378906 27.914062 5.429688 C 28.550781 5.601562 28.796875 5.148438 28.246094 5.058594 C 28 5.019531 27.722656 5.078125 27.640625 5.1875 Z M 31.757812 0.269531 L 31.320312 0.269531 C 31.421875 0.3125 31.601562 0.300781 31.757812 0.269531 Z M 32.160156 4.464844 C 32.320312 4.40625 32.4375 4.261719 32.394531 4.160156 C 32.296875 3.949219 31.726562 3.824219 31.230469 3.921875 C 31.085938 3.984375 30.992188 4.132812 31.019531 4.226562 C 31.054688 4.410156 31.90625 4.546875 32.160156 4.464844 Z M 32.804688 5.082031 C 32.855469 5.066406 32.886719 5.042969 32.867188 5.007812 C 32.839844 4.929688 32.734375 4.894531 32.566406 4.867188 C 32.316406 4.917969 32.492188 5.15625 32.804688 5.082031 Z M 29.445312 5.191406 C 29.269531 5.34375 29.3125 5.417969 29.605469 5.484375 C 30.183594 5.621094 30.238281 5.511719 30.511719 5.296875 C 30.5 5.199219 30.332031 5.109375 30.121094 5.070312 C 29.894531 5.023438 29.613281 5.042969 29.445312 5.191406 Z M 29.867188 7.398438 C 30.027344 7.449219 30.128906 7.449219 30.195312 7.429688 C 30.566406 7.3125 30.042969 7.1875 29.824219 7.117188 C 29.785156 7.179688 29.585938 7.320312 29.867188 7.398438 Z M 31.4375 7.492188 C 31.261719 7.523438 31.195312 7.511719 31.386719 7.640625 C 31.765625 7.90625 31.824219 7.414062 31.4375 7.492188 Z M 7.796875 32.042969 C 7.289062 32.289062 7.03125 32.683594 6.40625 32.867188 C 5.3125 33.183594 5.507812 34.261719 6.011719 34.363281 C 6.625 34.484375 6.835938 33.660156 7.402344 33.367188 C 7.730469 33.207031 8.632812 31.617188 7.796875 32.042969 Z M 23.6875 36.097656 C 24.089844 36.460938 23.835938 35.925781 23.5625 35.542969 C 23.429688 35.371094 23.113281 34.96875 23.105469 35.226562 C 23.117188 35.433594 23.488281 35.914062 23.6875 36.097656 Z M 22.804688 34.0625 C 22.859375 34.105469 22.90625 34.125 22.9375 34.097656 C 23 34.046875 22.964844 33.949219 22.875 33.785156 C 22.636719 33.585938 22.492188 33.796875 22.804688 34.0625 Z M 21.230469 32.738281 C 20.875 33.078125 21.917969 33.851562 22.046875 33.574219 C 22.128906 33.402344 22.171875 33.191406 21.863281 32.886719 C 21.582031 32.609375 21.347656 32.640625 21.230469 32.738281 Z M 24.417969 38.617188 C 24.15625 38.152344 23.675781 36.898438 23.308594 36.78125 C 23.246094 37.101562 23.734375 37.425781 24.0625 38.519531 C 24.347656 39.484375 24.84375 39.554688 24.539062 38.851562 Z M 23.085938 33.851562 C 23.34375 33.933594 23.195312 33.546875 22.878906 33.546875 C 22.523438 33.554688 22.304688 33.214844 22.203125 33.324219 C 22.347656 33.617188 22.808594 33.710938 22.996094 33.816406 Z M 22.558594 38.421875 C 22.5625 38.148438 22.445312 37.867188 22.234375 37.605469 C 21.679688 36.96875 21.859375 37.957031 22.558594 38.421875 Z M 23.53125 36.289062 C 23.453125 36.210938 23.371094 36.140625 23.292969 36.066406 C 23.28125 35.914062 23.171875 35.703125 22.9375 35.601562 C 22.886719 35.585938 22.832031 35.5625 22.785156 35.5625 C 21.34375 34.007812 22.0625 36.808594 23.230469 36.675781 C 23.371094 36.664062 23.429688 36.550781 23.53125 36.289062 Z M 25.347656 27.132812 C 25.351562 26.933594 25.242188 27 25.203125 26.984375 C 25.222656 27.023438 25.21875 27.023438 25.277344 27.085938 C 25.359375 27.175781 25.265625 27.082031 25.347656 27.132812 Z M 24.984375 22.613281 C 24.910156 22.628906 24.859375 22.714844 24.914062 22.789062 C 25.15625 23.089844 25.585938 22.996094 25.648438 22.992188 C 25.648438 22.898438 25.566406 22.816406 25.46875 22.71875 C 25.320312 22.660156 25.089844 22.589844 24.984375 22.613281 Z M 24.679688 32.9375 C 24.695312 33.109375 25.003906 33.460938 25.191406 33.574219 C 26.445312 34.265625 24.597656 32.039062 24.679688 32.9375 Z M 25.875 20.75 C 25.882812 20.558594 25.523438 20.515625 25.519531 20.660156 C 25.605469 20.746094 25.679688 20.792969 25.796875 20.796875 C 25.847656 20.796875 25.875 20.78125 25.875 20.75 Z M 26.125 23.425781 C 26 23.347656 26.09375 23.378906 25.992188 23.289062 C 25.875 23.285156 25.832031 23.273438 25.808594 23.359375 C 25.925781 23.480469 26.042969 23.472656 26.125 23.425781 Z M 24.179688 30.578125 C 23.847656 31.117188 25.066406 32.378906 25.546875 32.035156 C 26.097656 31.597656 24.503906 30.050781 24.179688 30.578125 Z M 25.921875 27.527344 C 25.578125 27.617188 26.460938 28.207031 26.476562 27.796875 C 26.222656 27.585938 26.042969 27.492188 25.921875 27.527344 Z M 24.753906 33.964844 C 24.265625 33.710938 24.429688 34.335938 24.949219 34.710938 C 25.460938 35.066406 25.324219 34.261719 24.753906 33.964844 Z M 44.480469 36.605469 C 44.34375 36.535156 44.316406 36.523438 44.199219 36.457031 C 44.042969 36.578125 44.21875 36.707031 44.625 37.023438 C 44.972656 37 44.660156 36.710938 44.480469 36.605469 Z M 41.785156 40.492188 C 41.644531 40.507812 41.695312 40.746094 42.132812 41.398438 C 42.882812 42.511719 44.0625 42.921875 44.546875 43.175781 C 43.898438 42.292969 42.664062 40.34375 41.785156 40.492188 Z M 37.550781 48.585938 C 37.078125 48.292969 36.683594 48.207031 37.027344 48.875 C 37.222656 49.28125 37.523438 49.589844 37.824219 49.832031 C 38.375 50.265625 38.167969 49.667969 38.386719 49.601562 C 38.847656 49.394531 38.289062 49.128906 37.550781 48.585938 Z M 42.433594 49.566406 C 42.296875 49.34375 42.226562 48.96875 41.457031 48.425781 C 41.28125 48.683594 41.09375 48.335938 40.953125 48.441406 C 40.847656 48.511719 41.167969 49.042969 41.441406 49.363281 C 42.222656 50.261719 42.832031 50.480469 42.75 49.972656 C 42.675781 49.859375 42.511719 49.675781 42.433594 49.566406 Z M 44.246094 14.628906 C 44.261719 14.605469 44.246094 14.578125 44.1875 14.550781 C 44.058594 14.488281 43.925781 14.484375 43.777344 14.496094 C 43.691406 14.601562 44.140625 14.769531 44.246094 14.628906 Z M 45.808594 12.796875 C 45.777344 12.871094 45.839844 12.882812 45.972656 12.941406 C 46.148438 12.933594 46.023438 12.914062 46.214844 12.921875 C 46.140625 12.851562 46.023438 12.777344 45.808594 12.796875 Z M 44.515625 21.90625 C 44.6875 22.324219 44.0625 22.253906 44.363281 22.484375 C 44.917969 22.605469 44.898438 22.144531 45.019531 22.027344 C 45.035156 22.011719 45.050781 21.988281 45.074219 21.964844 C 45.117188 21.734375 44.359375 21.523438 44.515625 21.90625 Z M 25.8125 45.539062 C 25.964844 45.648438 25.992188 45.539062 25.953125 45.421875 C 25.914062 45.289062 25.90625 45.242188 25.867188 45.125 C 25.464844 44.65625 25.46875 44.8125 25.445312 45.121094 C 25.492188 45.1875 25.53125 45.222656 25.574219 45.289062 C 25.34375 45.074219 25.125 44.9375 25.027344 45.015625 C 24.003906 45.921875 28.34375 50.003906 26.242188 46.152344 C 26.140625 45.949219 25.988281 45.742188 25.8125 45.539062 Z M 38.476562 34.363281 C 38.0625 34.046875 37.800781 33.902344 37.652344 33.945312 C 37.210938 34.058594 38.585938 34.9375 38.476562 34.363281 Z M 28.257812 51.054688 C 28.378906 51.355469 28.386719 51.222656 28.472656 51.527344 C 28.652344 51.605469 28.78125 51.570312 28.589844 51.160156 C 28.332031 50.910156 28.351562 50.996094 28.257812 51.054688 Z M 27.667969 44.089844 C 26.824219 42.925781 25.828125 42.476562 27.355469 44.582031 C 27.550781 44.855469 27.675781 44.972656 27.917969 45.253906 C 27.96875 45.308594 28.507812 45.886719 28.507812 45.886719 C 28.453125 45.546875 28.023438 44.585938 27.667969 44.089844 Z M 28.8125 46.695312 C 28.753906 46.996094 29.957031 50.003906 32.296875 53.359375 C 35.996094 58.457031 35.152344 57.433594 32.585938 52.90625 C 30.347656 48.992188 28.878906 46.378906 28.8125 46.695312 Z M 35.988281 51.269531 C 36.179688 51.511719 36.621094 51.984375 36.773438 52.074219 L 36.699219 51.789062 C 36.433594 51.472656 36.101562 51.171875 35.988281 51.269531 Z M 35.75 54.402344 C 35.59375 54.3125 35.496094 54.3125 35.5625 54.515625 C 35.617188 54.707031 35.75 54.863281 35.863281 54.964844 C 36.34375 55.386719 36.332031 54.761719 35.75 54.402344 Z M 35.699219 42.917969 C 35.691406 42.738281 35.519531 42.367188 35.332031 42.140625 C 35.015625 41.753906 34.164062 41.324219 34.179688 41.652344 C 34.203125 41.816406 34.367188 42.199219 34.546875 42.441406 C 35.109375 43.039062 35.664062 43.246094 35.699219 42.917969 Z M 32.496094 38.460938 C 32.207031 38.351562 32.171875 38.4375 32.382812 38.8125 C 32.554688 39.15625 32.84375 39.386719 33.070312 39.484375 C 33.246094 39.546875 33.386719 39.523438 33.375 39.378906 C 33.089844 38.863281 33.011719 38.648438 32.496094 38.460938 Z M 25.785156 31.386719 C 26.101562 31.984375 26.6875 32.527344 26.398438 31.609375 C 26.203125 30.867188 25.5625 30.949219 25.785156 31.386719 Z M 26.90625 26.6875 C 27.515625 27.167969 27.898438 26.703125 27.179688 26.28125 C 27.089844 26.226562 27.007812 26.109375 26.835938 26.085938 C 26.414062 26.019531 26.558594 26.414062 26.90625 26.6875 Z M 27.667969 24.390625 C 27.609375 24.5 27.972656 24.753906 28.207031 24.832031 C 29.960938 25.429688 27.96875 23.832031 27.667969 24.390625 Z M 26.667969 31.371094 C 26.765625 31.375 27.023438 31.53125 27.019531 31.503906 C 26.996094 31.308594 26.925781 31.117188 26.667969 30.980469 C 26.351562 30.800781 26.101562 31.199219 26.570312 31.507812 C 26.628906 31.554688 26.570312 31.386719 26.667969 31.371094 Z M 27.871094 28.910156 C 28.019531 29.015625 28.242188 29.292969 28.285156 29.292969 C 28.5 29.304688 28.625 29.226562 28.398438 28.941406 C 28.113281 28.59375 27.164062 28.226562 27.53125 28.757812 C 27.578125 28.828125 27.695312 28.792969 27.871094 28.910156 Z M 27.828125 21.320312 C 27.433594 21.0625 27.410156 21.003906 27.320312 21.140625 C 27.335938 21.269531 27.375 21.390625 27.445312 21.476562 C 27.339844 21.675781 27.960938 21.90625 28.015625 21.769531 C 28.046875 21.714844 28.066406 21.65625 28.042969 21.597656 C 28.148438 21.550781 28.050781 21.464844 27.828125 21.320312 Z M 27.003906 22.980469 C 26.859375 22.851562 26.671875 22.773438 26.570312 22.796875 C 26.328125 22.832031 26.660156 23.183594 27.113281 23.253906 C 27.246094 23.269531 27.070312 23.03125 27.003906 22.980469 Z M 27.03125 37.769531 C 27.117188 37.9375 27.128906 37.859375 27.1875 38.039062 C 27.328125 38.078125 27.441406 38.066406 27.289062 37.8125 C 27.109375 37.6875 27.109375 37.726562 27.03125 37.769531 Z M 33.167969 35.003906 C 32.960938 34.851562 32.40625 34.378906 32.324219 34.59375 C 32.269531 34.71875 32.316406 34.835938 32.425781 34.960938 C 33.074219 35.703125 33.105469 35.179688 33.167969 35.003906 Z M 32.398438 47.914062 C 32.613281 48.582031 33.886719 49.628906 34.183594 49.914062 C 34.480469 50.1875 34.640625 50.375 34.632812 50.078125 C 34.457031 49.832031 34.46875 49.890625 34.304688 49.671875 C 34.027344 49.324219 34.152344 49.355469 33.285156 48.382812 C 33.066406 48.148438 32.261719 47.476562 32.398438 47.914062 Z M 27.511719 41.089844 C 27.539062 41.265625 27.554688 41.320312 27.722656 41.527344 C 27.933594 41.78125 27.980469 41.828125 28.152344 41.851562 C 27.945312 41.4375 27.855469 41.289062 27.511719 41.089844 Z M 33.253906 35.511719 C 32.9375 35.371094 32.835938 35.398438 32.859375 35.503906 C 32.945312 36.132812 33.867188 36.457031 34.308594 36.664062 C 34.125 36.402344 33.777344 35.738281 33.253906 35.511719 Z M 27.410156 34.050781 C 27.785156 34.371094 28.078125 34.445312 28.277344 34.261719 C 27.363281 33.011719 26.339844 33.140625 27.410156 34.050781 Z M 29.839844 34.140625 C 29.660156 34.363281 28.683594 33.617188 28.15625 33.324219 C 27.96875 33.222656 27.835938 33.210938 27.835938 33.304688 C 27.832031 33.546875 28.261719 33.789062 28.480469 33.933594 C 28.738281 34.089844 28.972656 34.21875 29.1875 34.328125 C 29.460938 34.476562 29.699219 34.5625 29.902344 34.617188 C 30.78125 34.867188 30.644531 34.953125 31.210938 35.0625 C 30.921875 34.316406 30.246094 34.097656 29.839844 34.140625 Z M 29.835938 37.007812 C 30.453125 37.519531 30.90625 37.605469 29.960938 36.617188 C 29.066406 35.6875 29.332031 36.578125 29.835938 37.007812 Z M 31.300781 23.703125 C 31.324219 23.113281 30.089844 23.101562 30.308594 23.472656 C 30.550781 23.917969 31.289062 24.335938 31.300781 23.703125 Z M 31.175781 38.136719 C 31.714844 38.394531 31.40625 37.496094 30.789062 37.28125 C 30.605469 37.21875 30.449219 37.222656 30.550781 37.46875 C 30.65625 37.71875 30.933594 38.011719 31.175781 38.136719 Z M 28.464844 22.550781 C 28.460938 22.621094 28.671875 22.757812 28.667969 22.664062 C 28.667969 22.644531 28.65625 22.628906 28.621094 22.601562 C 28.554688 22.554688 28.515625 22.550781 28.464844 22.550781 Z M 30.597656 24.78125 C 30.863281 24.886719 30.464844 24.523438 30.480469 24.664062 C 30.476562 24.714844 30.457031 24.722656 30.597656 24.78125 Z M 34.65625 22.734375 C 34.441406 22.546875 34.160156 22.410156 33.921875 22.382812 C 33.351562 22.324219 33.78125 22.722656 33.972656 22.925781 C 34.179688 23.15625 34.410156 23.378906 34.648438 23.589844 C 34.941406 23.84375 35.28125 24.082031 35.640625 24.304688 C 37.140625 25.234375 36.589844 25.042969 37.6875 25.671875 C 39.019531 25.621094 37.875 24.890625 36.738281 24.394531 C 35.691406 24.113281 35.199219 23.226562 34.65625 22.734375 Z M 35.273438 21.464844 C 35.320312 21.519531 35.59375 21.496094 35.867188 21.609375 C 36.117188 21.710938 36.378906 21.964844 36.480469 21.96875 C 36.945312 22 37.296875 21.945312 37.011719 21.679688 C 36.652344 21.335938 34.914062 20.988281 35.273438 21.464844 Z M 36.460938 19.113281 C 36.300781 19.050781 36.199219 18.925781 35.847656 18.898438 C 34.921875 18.832031 34.945312 19.25 35.539062 19.539062 C 36.535156 20.039062 37.839844 19.585938 36.460938 19.113281 Z M 31.859375 28.484375 C 31.414062 28.3125 31.292969 28.621094 31.515625 28.925781 C 31.523438 28.9375 31.53125 28.949219 31.535156 28.960938 C 31.773438 29.371094 31.511719 29.320312 31.714844 29.535156 C 31.910156 29.609375 31.835938 29.339844 31.796875 29.167969 C 31.953125 29.269531 32.148438 29.34375 32.394531 29.378906 C 33.65625 29.570312 32.757812 28.828125 31.859375 28.484375 Z M 30.644531 29.546875 C 30.910156 29.519531 30.730469 29.324219 30.605469 29.253906 C 30.527344 29.210938 30.5 29.195312 30.425781 29.148438 C 30.285156 29.246094 30.402344 29.328125 30.644531 29.546875 Z M 29.042969 19.460938 C 28.804688 19.367188 28.839844 19.402344 28.84375 19.511719 C 28.855469 19.769531 29.519531 19.636719 29.042969 19.460938 Z M 28.734375 21.554688 C 28.789062 21.558594 28.734375 21.535156 28.804688 21.550781 C 28.757812 21.496094 28.695312 21.445312 28.628906 21.445312 C 28.648438 21.496094 28.664062 21.503906 28.734375 21.554688 Z M 28.964844 32.660156 C 28.703125 32.351562 28.710938 32.113281 28.597656 32.046875 C 27.632812 31.5 28.542969 33.226562 29.210938 33.652344 C 29.757812 34.003906 29.816406 33.730469 29.71875 33.332031 C 29.699219 33.238281 29.179688 32.914062 28.964844 32.660156 Z M 29.335938 25.96875 C 30.273438 26.066406 28.390625 24.90625 28.816406 25.640625 C 28.890625 25.785156 29.199219 25.953125 29.335938 25.96875 Z M 27.722656 30.230469 C 27.554688 30.027344 27.355469 29.875 27.234375 29.859375 C 26.949219 29.824219 27.304688 30.257812 27.453125 30.472656 C 27.636719 30.738281 27.828125 30.984375 28.046875 31.238281 C 28.320312 31.570312 28.617188 31.882812 28.882812 32.136719 C 30.03125 33.253906 29.691406 33.050781 30.503906 33.789062 C 31.078125 33.585938 30.226562 32.753906 29.449219 32.179688 C 28.824219 31.882812 28.152344 30.757812 27.722656 30.230469 Z M 29.773438 23.167969 C 29.898438 23.207031 29.875 23.136719 29.84375 23.070312 C 29.789062 22.953125 29.421875 22.808594 29.539062 22.988281 C 29.574219 23.046875 29.675781 23.136719 29.773438 23.167969 " fill-opacity="1" fill-rule="evenodd"/></g></svg>