<svg xmlns="http://www.w3.org/2000/svg" xmlns:xlink="http://www.w3.org/1999/xlink" width="450" zoomAndPan="magnify" viewBox="0 0 337.5 74.999997" height="100" preserveAspectRatio="xMidYMid meet" version="1.0"><defs><g/></defs><g fill="#ffffff" fill-opacity="1"><g transform="translate(1.43492, 51.57801)"><g><path d="M 18.8125 0.90625 C 13.96875 0.90625 10.226562 -0.238281 7.59375 -2.53125 C 4.96875 -4.820312 3.675781 -8.257812 3.71875 -12.84375 L 11.890625 -12.84375 C 11.859375 -10.9375 12.425781 -9.476562 13.59375 -8.46875 C 14.769531 -7.46875 16.410156 -6.96875 18.515625 -6.96875 C 20.253906 -6.96875 21.625 -7.253906 22.625 -7.828125 C 23.625 -8.398438 24.125 -9.269531 24.125 -10.4375 C 24.125 -11.40625 23.613281 -12.101562 22.59375 -12.53125 C 21.582031 -12.96875 20.570312 -13.28125 19.5625 -13.46875 C 18.5625 -13.65625 17.941406 -13.765625 17.703125 -13.796875 C 15.128906 -14.296875 12.90625 -14.90625 11.03125 -15.625 C 9.164062 -16.34375 7.597656 -17.4375 6.328125 -18.90625 C 5.054688 -20.382812 4.421875 -22.328125 4.421875 -24.734375 C 4.421875 -27.140625 5.054688 -29.1875 6.328125 -30.875 C 7.597656 -32.570312 9.289062 -33.835938 11.40625 -34.671875 C 13.53125 -35.503906 15.847656 -35.921875 18.359375 -35.921875 C 21.398438 -35.921875 24.03125 -35.351562 26.25 -34.21875 C 28.476562 -33.082031 30.234375 -31.359375 31.515625 -29.046875 C 32.148438 -27.941406 32.53125 -26.878906 32.65625 -25.859375 C 32.789062 -24.835938 32.859375 -23.84375 32.859375 -22.875 L 24.6875 -22.875 C 24.6875 -24.6875 24.203125 -26.015625 23.234375 -26.859375 C 22.265625 -27.710938 20.757812 -28.140625 18.71875 -28.140625 C 17.070312 -28.140625 15.796875 -27.851562 14.890625 -27.28125 C 13.992188 -26.71875 13.546875 -25.953125 13.546875 -24.984375 C 13.546875 -23.910156 14.144531 -23.125 15.34375 -22.625 C 16.550781 -22.125 18.078125 -21.671875 19.921875 -21.265625 C 22.929688 -20.671875 25.28125 -20.097656 26.96875 -19.546875 C 28.65625 -18.992188 30.117188 -18.015625 31.359375 -16.609375 C 32.597656 -15.203125 33.21875 -13.226562 33.21875 -10.6875 C 33.21875 -8.28125 32.546875 -6.207031 31.203125 -4.46875 C 29.867188 -2.726562 28.101562 -1.394531 25.90625 -0.46875 C 23.71875 0.445312 21.351562 0.90625 18.8125 0.90625 Z M 18.8125 0.90625 "/></g></g></g><g fill="#ffffff" fill-opacity="1"><g transform="translate(38.55813, 51.57801)"><g><path d="M 4.015625 -21.328125 C 4.015625 -23.929688 4.664062 -26.351562 5.96875 -28.59375 C 7.269531 -30.832031 9.03125 -32.601562 11.25 -33.90625 C 13.476562 -35.21875 15.914062 -35.875 18.5625 -35.875 C 21.207031 -35.875 23.640625 -35.21875 25.859375 -33.90625 C 28.085938 -32.601562 29.851562 -30.832031 31.15625 -28.59375 C 32.457031 -26.351562 33.109375 -23.929688 33.109375 -21.328125 L 33.109375 -13.59375 C 33.109375 -10.988281 32.457031 -8.5625 31.15625 -6.3125 C 29.851562 -4.070312 28.085938 -2.300781 25.859375 -1 C 23.640625 0.300781 21.207031 0.953125 18.5625 0.953125 C 15.914062 0.953125 13.476562 0.300781 11.25 -1 C 9.03125 -2.300781 7.269531 -4.070312 5.96875 -6.3125 C 4.664062 -8.5625 4.015625 -10.988281 4.015625 -13.59375 Z M 13.140625 -13.59375 C 13.140625 -11.988281 13.640625 -10.617188 14.640625 -9.484375 C 15.648438 -8.347656 16.957031 -7.78125 18.5625 -7.78125 C 20.132812 -7.78125 21.421875 -8.347656 22.421875 -9.484375 C 23.429688 -10.617188 23.9375 -11.988281 23.9375 -13.59375 L 23.9375 -21.375 C 23.9375 -23.007812 23.429688 -24.378906 22.421875 -25.484375 C 21.421875 -26.585938 20.132812 -27.140625 18.5625 -27.140625 C 16.957031 -27.140625 15.648438 -26.585938 14.640625 -25.484375 C 13.640625 -24.378906 13.140625 -23.007812 13.140625 -21.375 Z M 13.140625 -13.59375 "/></g></g></g><g fill="#ffffff" fill-opacity="1"><g transform="translate(75.681341, 51.57801)"><g><path d="M 4.46875 -34.96875 L 6.46875 -34.96875 L 18.65625 -13.390625 L 30.8125 -34.96875 L 32.65625 -34.96875 L 32.65625 -0.046875 L 4.46875 -0.046875 Z M 6.328125 -1.859375 L 30.8125 -1.859375 L 30.8125 -31.203125 L 19.515625 -11.34375 L 17.765625 -11.34375 L 6.328125 -31.515625 Z M 6.328125 -1.859375 "/></g></g></g><g fill="#ffffff" fill-opacity="1"><g transform="translate(112.804552, 51.57801)"><g><path d="M 4.46875 -34.96875 L 6.46875 -34.96875 L 18.65625 -13.390625 L 30.8125 -34.96875 L 32.65625 -34.96875 L 32.65625 -0.046875 L 4.46875 -0.046875 Z M 6.328125 -1.859375 L 30.8125 -1.859375 L 30.8125 -31.203125 L 19.515625 -11.34375 L 17.765625 -11.34375 L 6.328125 -31.515625 Z M 6.328125 -1.859375 "/></g></g></g><g fill="#ffffff" fill-opacity="1"><g transform="translate(149.927763, 51.57801)"><g><path d="M 32.96875 -13.1875 C 33 -8.8125 31.742188 -5.394531 29.203125 -2.9375 C 26.660156 -0.476562 23.164062 0.75 18.71875 0.75 C 16.070312 0.75 13.632812 0.148438 11.40625 -1.046875 C 9.1875 -2.253906 7.425781 -3.960938 6.125 -6.171875 C 4.820312 -8.378906 4.171875 -10.921875 4.171875 -13.796875 L 4.171875 -21.125 C 4.171875 -23.96875 4.796875 -26.492188 6.046875 -28.703125 C 7.296875 -30.910156 9.015625 -32.625 11.203125 -33.84375 C 13.398438 -35.0625 15.851562 -35.671875 18.5625 -35.671875 C 23.007812 -35.671875 26.492188 -34.457031 29.015625 -32.03125 C 31.546875 -29.601562 32.828125 -26.1875 32.859375 -21.78125 L 23.828125 -21.78125 C 23.796875 -23.476562 23.335938 -24.796875 22.453125 -25.734375 C 21.566406 -26.671875 20.269531 -27.140625 18.5625 -27.140625 C 17.019531 -27.140625 15.75 -26.65625 14.75 -25.6875 C 13.75 -24.71875 13.25 -23.347656 13.25 -21.578125 L 13.25 -13.390625 C 13.25 -11.617188 13.773438 -10.238281 14.828125 -9.25 C 15.878906 -8.269531 17.175781 -7.78125 18.71875 -7.78125 C 22.226562 -7.78125 23.984375 -9.582031 23.984375 -13.1875 Z M 32.96875 -13.1875 "/></g></g></g><g fill="#ffffff" fill-opacity="1"><g transform="translate(187.050963, 51.57801)"><g><path d="M 4.015625 -21.328125 C 4.015625 -23.929688 4.664062 -26.351562 5.96875 -28.59375 C 7.269531 -30.832031 9.03125 -32.601562 11.25 -33.90625 C 13.476562 -35.21875 15.914062 -35.875 18.5625 -35.875 C 21.207031 -35.875 23.640625 -35.21875 25.859375 -33.90625 C 28.085938 -32.601562 29.851562 -30.832031 31.15625 -28.59375 C 32.457031 -26.351562 33.109375 -23.929688 33.109375 -21.328125 L 33.109375 -13.59375 C 33.109375 -10.988281 32.457031 -8.5625 31.15625 -6.3125 C 29.851562 -4.070312 28.085938 -2.300781 25.859375 -1 C 23.640625 0.300781 21.207031 0.953125 18.5625 0.953125 C 15.914062 0.953125 13.476562 0.300781 11.25 -1 C 9.03125 -2.300781 7.269531 -4.070312 5.96875 -6.3125 C 4.664062 -8.5625 4.015625 -10.988281 4.015625 -13.59375 Z M 13.140625 -13.59375 C 13.140625 -11.988281 13.640625 -10.617188 14.640625 -9.484375 C 15.648438 -8.347656 16.957031 -7.78125 18.5625 -7.78125 C 20.132812 -7.78125 21.421875 -8.347656 22.421875 -9.484375 C 23.429688 -10.617188 23.9375 -11.988281 23.9375 -13.59375 L 23.9375 -21.375 C 23.9375 -23.007812 23.429688 -24.378906 22.421875 -25.484375 C 21.421875 -26.585938 20.132812 -27.140625 18.5625 -27.140625 C 16.957031 -27.140625 15.648438 -26.585938 14.640625 -25.484375 C 13.640625 -24.378906 13.140625 -23.007812 13.140625 -21.375 Z M 13.140625 -13.59375 "/></g></g></g><g fill="#ffffff" fill-opacity="1"><g transform="translate(224.174164, 51.57801)"><g><path d="M 6.015625 0 L 6.015625 -34.921875 L 19.015625 -34.921875 C 21.554688 -34.921875 23.90625 -34.285156 26.0625 -33.015625 C 28.21875 -31.742188 29.929688 -30.03125 31.203125 -27.875 C 32.472656 -25.71875 33.109375 -23.367188 33.109375 -20.828125 L 33.109375 -14.09375 C 33.109375 -11.550781 32.472656 -9.203125 31.203125 -7.046875 C 29.929688 -4.890625 28.21875 -3.175781 26.0625 -1.90625 C 23.90625 -0.632812 21.554688 0 19.015625 0 Z M 6.015625 0 "/></g></g></g><g fill="#ffffff" fill-opacity="1"><g transform="translate(261.297364, 51.57801)"><g><path d="M 6.515625 -34.921875 L 31.109375 -34.921875 L 31.109375 -33.0625 L 8.375 -33.0625 L 8.375 -18.921875 L 28.140625 -18.921875 L 28.140625 -17.0625 L 8.375 -17.0625 L 8.375 -1.859375 L 31.109375 -1.859375 L 31.109375 0 L 6.515625 0 Z M 6.515625 -34.921875 "/></g></g></g><g fill="#ffffff" fill-opacity="1"><g transform="translate(298.420564, 51.57801)"><g><path d="M 33.015625 0 L 6.171875 0 L 6.171875 -34.921875 L 19.765625 -34.921875 C 22.671875 -34.921875 25.046875 -34.398438 26.890625 -33.359375 C 28.691406 -32.359375 30.09375 -30.988281 31.09375 -29.25 C 32.101562 -27.507812 32.609375 -25.585938 32.609375 -23.484375 C 32.609375 -20.867188 31.804688 -18.53125 30.203125 -16.46875 C 28.597656 -14.414062 26.570312 -13.054688 24.125 -12.390625 Z M 9.328125 -33.0625 L 22.984375 -14 C 25.222656 -14.46875 27.078125 -15.585938 28.546875 -17.359375 C 30.015625 -19.128906 30.75 -21.171875 30.75 -23.484375 C 30.75 -25.316406 30.296875 -26.984375 29.390625 -28.484375 C 28.492188 -29.992188 27.226562 -31.148438 25.59375 -31.953125 C 24.113281 -32.691406 22.1875 -33.0625 19.8125 -33.0625 Z M 8.03125 -31.859375 L 8.03125 -13.84375 L 20.921875 -13.84375 Z M 8.03125 -1.859375 L 29.5 -1.859375 L 22.171875 -12.046875 L 20.625 -11.984375 L 8.03125 -11.984375 Z M 8.03125 -1.859375 "/></g></g></g><path stroke-linecap="butt" transform="matrix(0, -1.423796, 1.423796, 0, 93.670287, 70.554954)" fill="none" stroke-linejoin="miter" d="M 0.000187073 0.500441 L 13.47374 0.500441 " stroke="#ffffff" stroke-width="1" stroke-opacity="1" stroke-miterlimit="4"/><path stroke-linecap="butt" transform="matrix(0, -1.423796, 1.423796, 0, 130.984371, 70.554954)" fill="none" stroke-linejoin="miter" d="M 0.000187073 0.499328 L 13.47374 0.499328 " stroke="#ffffff" stroke-width="1" stroke-opacity="1" stroke-miterlimit="4"/><path stroke-linecap="butt" transform="matrix(-1.423796, 0, 0, -1.423796, 103.97056, 73.405389)" fill="none" stroke-linejoin="miter" d="M 0.00127153 1.00079 L 13.472081 1.00079 " stroke="#ffffff" stroke-width="2" stroke-opacity="1" stroke-miterlimit="4"/><path stroke-linecap="butt" transform="matrix(-1.423796, 0, 0, -1.423796, 141.284644, 73.405389)" fill="none" stroke-linejoin="miter" d="M -0.000359553 1.00079 L 13.473194 1.00079 " stroke="#ffffff" stroke-width="2" stroke-opacity="1" stroke-miterlimit="4"/><g fill="#ffffff" fill-opacity="1"><g transform="translate(184.274659, 70.77299)"><g><path d="M 7.90625 0 L 5.265625 0 L 4.578125 -5.421875 L 3.84375 0 L 1.25 0 L 0.046875 -8.0625 L 2.25 -8.0625 L 2.765625 -1.5 L 3.625 -7.046875 L 5.640625 -7.046875 L 6.40625 -1.5 L 6.9375 -8.0625 L 9.0625 -8.0625 Z M 7.90625 0 "/></g></g></g><g fill="#ffffff" fill-opacity="1"><g transform="translate(193.384665, 70.77299)"><g><path d="M 3.140625 -3.328125 C 3.203125 -2.890625 3.316406 -2.535156 3.484375 -2.265625 C 3.660156 -1.992188 3.882812 -1.796875 4.15625 -1.671875 C 4.4375 -1.546875 4.742188 -1.484375 5.078125 -1.484375 C 5.453125 -1.484375 5.8125 -1.546875 6.15625 -1.671875 C 6.5 -1.796875 6.828125 -1.957031 7.140625 -2.15625 L 8.109375 -0.84375 C 7.734375 -0.519531 7.273438 -0.253906 6.734375 -0.046875 C 6.191406 0.160156 5.578125 0.265625 4.890625 0.265625 C 3.972656 0.265625 3.203125 0.0820312 2.578125 -0.28125 C 1.953125 -0.65625 1.484375 -1.160156 1.171875 -1.796875 C 0.859375 -2.441406 0.703125 -3.1875 0.703125 -4.03125 C 0.703125 -4.820312 0.851562 -5.539062 1.15625 -6.1875 C 1.457031 -6.84375 1.898438 -7.363281 2.484375 -7.75 C 3.066406 -8.132812 3.78125 -8.328125 4.625 -8.328125 C 5.394531 -8.328125 6.0625 -8.160156 6.625 -7.828125 C 7.195312 -7.503906 7.632812 -7.03125 7.9375 -6.40625 C 8.25 -5.789062 8.40625 -5.050781 8.40625 -4.1875 C 8.40625 -4.050781 8.398438 -3.90625 8.390625 -3.75 C 8.390625 -3.59375 8.382812 -3.453125 8.375 -3.328125 Z M 4.625 -6.71875 C 4.195312 -6.71875 3.851562 -6.5625 3.59375 -6.25 C 3.332031 -5.945312 3.171875 -5.457031 3.109375 -4.78125 L 6.078125 -4.78125 C 6.066406 -5.363281 5.953125 -5.832031 5.734375 -6.1875 C 5.515625 -6.539062 5.144531 -6.71875 4.625 -6.71875 Z M 4.625 -6.71875 "/></g></g></g><g fill="#ffffff" fill-opacity="1"><g transform="translate(202.494671, 70.77299)"><g><path d="M 3.46875 -7.234375 C 3.71875 -7.566406 4.019531 -7.832031 4.375 -8.03125 C 4.726562 -8.226562 5.113281 -8.328125 5.53125 -8.328125 C 6.21875 -8.328125 6.78125 -8.148438 7.21875 -7.796875 C 7.65625 -7.453125 7.976562 -6.960938 8.1875 -6.328125 C 8.394531 -5.691406 8.5 -4.9375 8.5 -4.0625 C 8.5 -3.226562 8.375 -2.484375 8.125 -1.828125 C 7.882812 -1.179688 7.523438 -0.671875 7.046875 -0.296875 C 6.566406 0.078125 5.976562 0.265625 5.28125 0.265625 C 4.4375 0.265625 3.769531 -0.0664062 3.28125 -0.734375 L 3.1875 0 L 1.0625 0 L 1.0625 -11.265625 L 3.46875 -11.515625 Z M 4.640625 -1.484375 C 5.066406 -1.484375 5.40625 -1.679688 5.65625 -2.078125 C 5.90625 -2.472656 6.03125 -3.125 6.03125 -4.03125 C 6.03125 -4.695312 5.976562 -5.210938 5.875 -5.578125 C 5.769531 -5.941406 5.625 -6.195312 5.4375 -6.34375 C 5.25 -6.488281 5.023438 -6.5625 4.765625 -6.5625 C 4.492188 -6.5625 4.253906 -6.476562 4.046875 -6.3125 C 3.835938 -6.144531 3.644531 -5.914062 3.46875 -5.625 L 3.46875 -2.21875 C 3.613281 -1.988281 3.78125 -1.804688 3.96875 -1.671875 C 4.15625 -1.546875 4.378906 -1.484375 4.640625 -1.484375 Z M 4.640625 -1.484375 "/></g></g></g><g fill="#ffffff" fill-opacity="1"><g transform="translate(211.604676, 70.77299)"><g/></g></g><g fill="#ffffff" fill-opacity="1"><g transform="translate(220.714682, 70.77299)"><g><path d="M 4.296875 -1.453125 C 4.691406 -1.453125 5.015625 -1.515625 5.265625 -1.640625 C 5.515625 -1.773438 5.640625 -1.96875 5.640625 -2.21875 C 5.640625 -2.382812 5.585938 -2.523438 5.484375 -2.640625 C 5.390625 -2.765625 5.207031 -2.878906 4.9375 -2.984375 C 4.664062 -3.085938 4.257812 -3.210938 3.71875 -3.359375 C 3.226562 -3.492188 2.796875 -3.660156 2.421875 -3.859375 C 2.046875 -4.066406 1.75 -4.328125 1.53125 -4.640625 C 1.320312 -4.960938 1.21875 -5.363281 1.21875 -5.84375 C 1.21875 -6.320312 1.351562 -6.75 1.625 -7.125 C 1.894531 -7.5 2.289062 -7.789062 2.8125 -8 C 3.332031 -8.21875 3.96875 -8.328125 4.71875 -8.328125 C 5.4375 -8.328125 6.0625 -8.234375 6.59375 -8.046875 C 7.132812 -7.867188 7.597656 -7.632812 7.984375 -7.34375 L 7.03125 -5.9375 C 6.695312 -6.144531 6.335938 -6.3125 5.953125 -6.4375 C 5.566406 -6.5625 5.179688 -6.625 4.796875 -6.625 C 4.398438 -6.625 4.109375 -6.570312 3.921875 -6.46875 C 3.734375 -6.363281 3.640625 -6.207031 3.640625 -6 C 3.640625 -5.863281 3.6875 -5.742188 3.78125 -5.640625 C 3.882812 -5.546875 4.070312 -5.445312 4.34375 -5.34375 C 4.613281 -5.238281 5.015625 -5.109375 5.546875 -4.953125 C 6.066406 -4.804688 6.519531 -4.632812 6.90625 -4.4375 C 7.289062 -4.25 7.585938 -3.992188 7.796875 -3.671875 C 8.015625 -3.359375 8.125 -2.9375 8.125 -2.40625 C 8.125 -1.820312 7.945312 -1.328125 7.59375 -0.921875 C 7.25 -0.523438 6.785156 -0.226562 6.203125 -0.03125 C 5.628906 0.164062 5 0.265625 4.3125 0.265625 C 3.53125 0.265625 2.84375 0.15625 2.25 -0.0625 C 1.65625 -0.289062 1.144531 -0.585938 0.71875 -0.953125 L 1.921875 -2.3125 C 2.242188 -2.0625 2.601562 -1.851562 3 -1.6875 C 3.394531 -1.53125 3.828125 -1.453125 4.296875 -1.453125 Z M 4.296875 -1.453125 "/></g></g></g><g fill="#ffffff" fill-opacity="1"><g transform="translate(229.824688, 70.77299)"><g><path d="M 3.140625 -3.328125 C 3.203125 -2.890625 3.316406 -2.535156 3.484375 -2.265625 C 3.660156 -1.992188 3.882812 -1.796875 4.15625 -1.671875 C 4.4375 -1.546875 4.742188 -1.484375 5.078125 -1.484375 C 5.453125 -1.484375 5.8125 -1.546875 6.15625 -1.671875 C 6.5 -1.796875 6.828125 -1.957031 7.140625 -2.15625 L 8.109375 -0.84375 C 7.734375 -0.519531 7.273438 -0.253906 6.734375 -0.046875 C 6.191406 0.160156 5.578125 0.265625 4.890625 0.265625 C 3.972656 0.265625 3.203125 0.0820312 2.578125 -0.28125 C 1.953125 -0.65625 1.484375 -1.160156 1.171875 -1.796875 C 0.859375 -2.441406 0.703125 -3.1875 0.703125 -4.03125 C 0.703125 -4.820312 0.851562 -5.539062 1.15625 -6.1875 C 1.457031 -6.84375 1.898438 -7.363281 2.484375 -7.75 C 3.066406 -8.132812 3.78125 -8.328125 4.625 -8.328125 C 5.394531 -8.328125 6.0625 -8.160156 6.625 -7.828125 C 7.195312 -7.503906 7.632812 -7.03125 7.9375 -6.40625 C 8.25 -5.789062 8.40625 -5.050781 8.40625 -4.1875 C 8.40625 -4.050781 8.398438 -3.90625 8.390625 -3.75 C 8.390625 -3.59375 8.382812 -3.453125 8.375 -3.328125 Z M 4.625 -6.71875 C 4.195312 -6.71875 3.851562 -6.5625 3.59375 -6.25 C 3.332031 -5.945312 3.171875 -5.457031 3.109375 -4.78125 L 6.078125 -4.78125 C 6.066406 -5.363281 5.953125 -5.832031 5.734375 -6.1875 C 5.515625 -6.539062 5.144531 -6.71875 4.625 -6.71875 Z M 4.625 -6.71875 "/></g></g></g><g fill="#ffffff" fill-opacity="1"><g transform="translate(238.934693, 70.77299)"><g><path d="M 1.140625 0 L 1.140625 -1.609375 L 2.203125 -1.609375 L 2.203125 -6.46875 L 1.140625 -6.46875 L 1.140625 -8.0625 L 4.03125 -8.0625 L 4.46875 -6.25 C 4.757812 -6.945312 5.128906 -7.460938 5.578125 -7.796875 C 6.023438 -8.140625 6.570312 -8.3125 7.21875 -8.3125 C 7.488281 -8.3125 7.726562 -8.285156 7.9375 -8.234375 C 8.15625 -8.191406 8.359375 -8.132812 8.546875 -8.0625 L 7.828125 -6.078125 C 7.671875 -6.117188 7.519531 -6.148438 7.375 -6.171875 C 7.226562 -6.191406 7.066406 -6.203125 6.890625 -6.203125 C 6.367188 -6.203125 5.90625 -5.984375 5.5 -5.546875 C 5.101562 -5.117188 4.804688 -4.578125 4.609375 -3.921875 L 4.609375 -1.609375 L 6.203125 -1.609375 L 6.203125 0 Z M 6.59375 -4.6875 L 6.59375 -7.046875 L 6.953125 -8.0625 L 8.546875 -8.0625 L 8.109375 -4.6875 Z M 6.59375 -4.6875 "/></g></g></g><g fill="#ffffff" fill-opacity="1"><g transform="translate(248.044699, 70.77299)"><g><path d="M 8.671875 -8.0625 L 5.984375 0 L 3.15625 0 L 0.4375 -8.0625 L 3.03125 -8.0625 L 4.609375 -1.84375 L 6.234375 -8.0625 Z M 8.671875 -8.0625 "/></g></g></g><g fill="#ffffff" fill-opacity="1"><g transform="translate(257.154705, 70.77299)"><g><path d="M 5.984375 -8.0625 L 5.984375 -1.640625 L 8.046875 -1.640625 L 8.046875 0 L 1.3125 0 L 1.3125 -1.640625 L 3.59375 -1.640625 L 3.59375 -6.421875 L 1.375 -6.421875 L 1.375 -8.0625 Z M 4.546875 -12.28125 C 4.953125 -12.28125 5.285156 -12.148438 5.546875 -11.890625 C 5.816406 -11.640625 5.953125 -11.320312 5.953125 -10.9375 C 5.953125 -10.550781 5.816406 -10.226562 5.546875 -9.96875 C 5.285156 -9.707031 4.953125 -9.578125 4.546875 -9.578125 C 4.117188 -9.578125 3.769531 -9.707031 3.5 -9.96875 C 3.238281 -10.226562 3.109375 -10.550781 3.109375 -10.9375 C 3.109375 -11.320312 3.238281 -11.640625 3.5 -11.890625 C 3.769531 -12.148438 4.117188 -12.28125 4.546875 -12.28125 Z M 4.546875 -12.28125 "/></g></g></g><g fill="#ffffff" fill-opacity="1"><g transform="translate(266.26471, 70.77299)"><g><path d="M 5.34375 -1.625 C 5.664062 -1.625 5.972656 -1.6875 6.265625 -1.8125 C 6.554688 -1.945312 6.847656 -2.117188 7.140625 -2.328125 L 8.203125 -0.8125 C 7.847656 -0.5 7.414062 -0.238281 6.90625 -0.03125 C 6.40625 0.164062 5.835938 0.265625 5.203125 0.265625 C 4.335938 0.265625 3.59375 0.0859375 2.96875 -0.265625 C 2.351562 -0.628906 1.878906 -1.128906 1.546875 -1.765625 C 1.210938 -2.398438 1.046875 -3.140625 1.046875 -3.984375 C 1.046875 -4.816406 1.210938 -5.5625 1.546875 -6.21875 C 1.890625 -6.875 2.375 -7.390625 3 -7.765625 C 3.632812 -8.140625 4.382812 -8.328125 5.25 -8.328125 C 5.863281 -8.328125 6.410156 -8.242188 6.890625 -8.078125 C 7.367188 -7.910156 7.804688 -7.65625 8.203125 -7.3125 L 7.171875 -5.875 C 6.898438 -6.070312 6.609375 -6.222656 6.296875 -6.328125 C 5.992188 -6.429688 5.679688 -6.484375 5.359375 -6.484375 C 4.816406 -6.484375 4.378906 -6.289062 4.046875 -5.90625 C 3.710938 -5.53125 3.546875 -4.890625 3.546875 -3.984375 C 3.546875 -3.390625 3.625 -2.921875 3.78125 -2.578125 C 3.9375 -2.234375 4.148438 -1.988281 4.421875 -1.84375 C 4.691406 -1.695312 5 -1.625 5.34375 -1.625 Z M 5.34375 -1.625 "/></g></g></g><g fill="#ffffff" fill-opacity="1"><g transform="translate(275.374716, 70.77299)"><g><path d="M 3.140625 -3.328125 C 3.203125 -2.890625 3.316406 -2.535156 3.484375 -2.265625 C 3.660156 -1.992188 3.882812 -1.796875 4.15625 -1.671875 C 4.4375 -1.546875 4.742188 -1.484375 5.078125 -1.484375 C 5.453125 -1.484375 5.8125 -1.546875 6.15625 -1.671875 C 6.5 -1.796875 6.828125 -1.957031 7.140625 -2.15625 L 8.109375 -0.84375 C 7.734375 -0.519531 7.273438 -0.253906 6.734375 -0.046875 C 6.191406 0.160156 5.578125 0.265625 4.890625 0.265625 C 3.972656 0.265625 3.203125 0.0820312 2.578125 -0.28125 C 1.953125 -0.65625 1.484375 -1.160156 1.171875 -1.796875 C 0.859375 -2.441406 0.703125 -3.1875 0.703125 -4.03125 C 0.703125 -4.820312 0.851562 -5.539062 1.15625 -6.1875 C 1.457031 -6.84375 1.898438 -7.363281 2.484375 -7.75 C 3.066406 -8.132812 3.78125 -8.328125 4.625 -8.328125 C 5.394531 -8.328125 6.0625 -8.160156 6.625 -7.828125 C 7.195312 -7.503906 7.632812 -7.03125 7.9375 -6.40625 C 8.25 -5.789062 8.40625 -5.050781 8.40625 -4.1875 C 8.40625 -4.050781 8.398438 -3.90625 8.390625 -3.75 C 8.390625 -3.59375 8.382812 -3.453125 8.375 -3.328125 Z M 4.625 -6.71875 C 4.195312 -6.71875 3.851562 -6.5625 3.59375 -6.25 C 3.332031 -5.945312 3.171875 -5.457031 3.109375 -4.78125 L 6.078125 -4.78125 C 6.066406 -5.363281 5.953125 -5.832031 5.734375 -6.1875 C 5.515625 -6.539062 5.144531 -6.71875 4.625 -6.71875 Z M 4.625 -6.71875 "/></g></g></g><g fill="#ffffff" fill-opacity="1"><g transform="translate(284.484722, 70.77299)"><g><path d="M 4.296875 -1.453125 C 4.691406 -1.453125 5.015625 -1.515625 5.265625 -1.640625 C 5.515625 -1.773438 5.640625 -1.96875 5.640625 -2.21875 C 5.640625 -2.382812 5.585938 -2.523438 5.484375 -2.640625 C 5.390625 -2.765625 5.207031 -2.878906 4.9375 -2.984375 C 4.664062 -3.085938 4.257812 -3.210938 3.71875 -3.359375 C 3.226562 -3.492188 2.796875 -3.660156 2.421875 -3.859375 C 2.046875 -4.066406 1.75 -4.328125 1.53125 -4.640625 C 1.320312 -4.960938 1.21875 -5.363281 1.21875 -5.84375 C 1.21875 -6.320312 1.351562 -6.75 1.625 -7.125 C 1.894531 -7.5 2.289062 -7.789062 2.8125 -8 C 3.332031 -8.21875 3.96875 -8.328125 4.71875 -8.328125 C 5.4375 -8.328125 6.0625 -8.234375 6.59375 -8.046875 C 7.132812 -7.867188 7.597656 -7.632812 7.984375 -7.34375 L 7.03125 -5.9375 C 6.695312 -6.144531 6.335938 -6.3125 5.953125 -6.4375 C 5.566406 -6.5625 5.179688 -6.625 4.796875 -6.625 C 4.398438 -6.625 4.109375 -6.570312 3.921875 -6.46875 C 3.734375 -6.363281 3.640625 -6.207031 3.640625 -6 C 3.640625 -5.863281 3.6875 -5.742188 3.78125 -5.640625 C 3.882812 -5.546875 4.070312 -5.445312 4.34375 -5.34375 C 4.613281 -5.238281 5.015625 -5.109375 5.546875 -4.953125 C 6.066406 -4.804688 6.519531 -4.632812 6.90625 -4.4375 C 7.289062 -4.25 7.585938 -3.992188 7.796875 -3.671875 C 8.015625 -3.359375 8.125 -2.9375 8.125 -2.40625 C 8.125 -1.820312 7.945312 -1.328125 7.59375 -0.921875 C 7.25 -0.523438 6.785156 -0.226562 6.203125 -0.03125 C 5.628906 0.164062 5 0.265625 4.3125 0.265625 C 3.53125 0.265625 2.84375 0.15625 2.25 -0.0625 C 1.65625 -0.289062 1.144531 -0.585938 0.71875 -0.953125 L 1.921875 -2.3125 C 2.242188 -2.0625 2.601562 -1.851562 3 -1.6875 C 3.394531 -1.53125 3.828125 -1.453125 4.296875 -1.453125 Z M 4.296875 -1.453125 "/></g></g></g></svg>