<svg xmlns="http://www.w3.org/2000/svg" xmlns:xlink="http://www.w3.org/1999/xlink" width="450" zoomAndPan="magnify" viewBox="0 0 337.5 74.999997" height="100" preserveAspectRatio="xMidYMid meet" version="1.0"><defs><g/></defs><g fill="#ffffff" fill-opacity="1"><g transform="translate(1.43492, 50.970887)"><g><path d="M 18.8125 0.90625 C 13.96875 0.90625 10.226562 -0.238281 7.59375 -2.53125 C 4.96875 -4.820312 3.675781 -8.257812 3.71875 -12.84375 L 11.890625 -12.84375 C 11.859375 -10.9375 12.425781 -9.476562 13.59375 -8.46875 C 14.769531 -7.46875 16.410156 -6.96875 18.515625 -6.96875 C 20.253906 -6.96875 21.625 -7.253906 22.625 -7.828125 C 23.625 -8.398438 24.125 -9.269531 24.125 -10.4375 C 24.125 -11.40625 23.613281 -12.101562 22.59375 -12.53125 C 21.582031 -12.96875 20.570312 -13.28125 19.5625 -13.46875 C 18.5625 -13.65625 17.941406 -13.765625 17.703125 -13.796875 C 15.128906 -14.296875 12.90625 -14.90625 11.03125 -15.625 C 9.164062 -16.34375 7.597656 -17.4375 6.328125 -18.90625 C 5.054688 -20.382812 4.421875 -22.328125 4.421875 -24.734375 C 4.421875 -27.140625 5.054688 -29.1875 6.328125 -30.875 C 7.597656 -32.570312 9.289062 -33.835938 11.40625 -34.671875 C 13.53125 -35.503906 15.847656 -35.921875 18.359375 -35.921875 C 21.398438 -35.921875 24.03125 -35.351562 26.25 -34.21875 C 28.476562 -33.082031 30.234375 -31.359375 31.515625 -29.046875 C 32.148438 -27.941406 32.53125 -26.878906 32.65625 -25.859375 C 32.789062 -24.835938 32.859375 -23.84375 32.859375 -22.875 L 24.6875 -22.875 C 24.6875 -24.6875 24.203125 -26.015625 23.234375 -26.859375 C 22.265625 -27.710938 20.757812 -28.140625 18.71875 -28.140625 C 17.070312 -28.140625 15.796875 -27.851562 14.890625 -27.28125 C 13.992188 -26.71875 13.546875 -25.953125 13.546875 -24.984375 C 13.546875 -23.910156 14.144531 -23.125 15.34375 -22.625 C 16.550781 -22.125 18.078125 -21.671875 19.921875 -21.265625 C 22.929688 -20.671875 25.28125 -20.097656 26.96875 -19.546875 C 28.65625 -18.992188 30.117188 -18.015625 31.359375 -16.609375 C 32.597656 -15.203125 33.21875 -13.226562 33.21875 -10.6875 C 33.21875 -8.28125 32.546875 -6.207031 31.203125 -4.46875 C 29.867188 -2.726562 28.101562 -1.394531 25.90625 -0.46875 C 23.71875 0.445312 21.351562 0.90625 18.8125 0.90625 Z M 18.8125 0.90625 "/></g></g></g><g fill="#ffffff" fill-opacity="1"><g transform="translate(38.55813, 50.970887)"><g><path d="M 4.015625 -21.328125 C 4.015625 -23.929688 4.664062 -26.351562 5.96875 -28.59375 C 7.269531 -30.832031 9.03125 -32.601562 11.25 -33.90625 C 13.476562 -35.21875 15.914062 -35.875 18.5625 -35.875 C 21.207031 -35.875 23.640625 -35.21875 25.859375 -33.90625 C 28.085938 -32.601562 29.851562 -30.832031 31.15625 -28.59375 C 32.457031 -26.351562 33.109375 -23.929688 33.109375 -21.328125 L 33.109375 -13.59375 C 33.109375 -10.988281 32.457031 -8.5625 31.15625 -6.3125 C 29.851562 -4.070312 28.085938 -2.300781 25.859375 -1 C 23.640625 0.300781 21.207031 0.953125 18.5625 0.953125 C 15.914062 0.953125 13.476562 0.300781 11.25 -1 C 9.03125 -2.300781 7.269531 -4.070312 5.96875 -6.3125 C 4.664062 -8.5625 4.015625 -10.988281 4.015625 -13.59375 Z M 13.140625 -13.59375 C 13.140625 -11.988281 13.640625 -10.617188 14.640625 -9.484375 C 15.648438 -8.347656 16.957031 -7.78125 18.5625 -7.78125 C 20.132812 -7.78125 21.421875 -8.347656 22.421875 -9.484375 C 23.429688 -10.617188 23.9375 -11.988281 23.9375 -13.59375 L 23.9375 -21.375 C 23.9375 -23.007812 23.429688 -24.378906 22.421875 -25.484375 C 21.421875 -26.585938 20.132812 -27.140625 18.5625 -27.140625 C 16.957031 -27.140625 15.648438 -26.585938 14.640625 -25.484375 C 13.640625 -24.378906 13.140625 -23.007812 13.140625 -21.375 Z M 13.140625 -13.59375 "/></g></g></g><g fill="#ffffff" fill-opacity="1"><g transform="translate(75.681341, 50.970887)"><g><path d="M 4.46875 -34.96875 L 6.46875 -34.96875 L 18.65625 -13.390625 L 30.8125 -34.96875 L 32.65625 -34.96875 L 32.65625 -0.046875 L 4.46875 -0.046875 Z M 6.328125 -1.859375 L 30.8125 -1.859375 L 30.8125 -31.203125 L 19.515625 -11.34375 L 17.765625 -11.34375 L 6.328125 -31.515625 Z M 6.328125 -1.859375 "/></g></g></g><g fill="#ffffff" fill-opacity="1"><g transform="translate(112.804552, 50.970887)"><g><path d="M 4.46875 -34.96875 L 6.46875 -34.96875 L 18.65625 -13.390625 L 30.8125 -34.96875 L 32.65625 -34.96875 L 32.65625 -0.046875 L 4.46875 -0.046875 Z M 6.328125 -1.859375 L 30.8125 -1.859375 L 30.8125 -31.203125 L 19.515625 -11.34375 L 17.765625 -11.34375 L 6.328125 -31.515625 Z M 6.328125 -1.859375 "/></g></g></g><g fill="#ffffff" fill-opacity="1"><g transform="translate(149.927763, 50.970887)"><g><path d="M 32.96875 -13.1875 C 33 -8.8125 31.742188 -5.394531 29.203125 -2.9375 C 26.660156 -0.476562 23.164062 0.75 18.71875 0.75 C 16.070312 0.75 13.632812 0.148438 11.40625 -1.046875 C 9.1875 -2.253906 7.425781 -3.960938 6.125 -6.171875 C 4.820312 -8.378906 4.171875 -10.921875 4.171875 -13.796875 L 4.171875 -21.125 C 4.171875 -23.96875 4.796875 -26.492188 6.046875 -28.703125 C 7.296875 -30.910156 9.015625 -32.625 11.203125 -33.84375 C 13.398438 -35.0625 15.851562 -35.671875 18.5625 -35.671875 C 23.007812 -35.671875 26.492188 -34.457031 29.015625 -32.03125 C 31.546875 -29.601562 32.828125 -26.1875 32.859375 -21.78125 L 23.828125 -21.78125 C 23.796875 -23.476562 23.335938 -24.796875 22.453125 -25.734375 C 21.566406 -26.671875 20.269531 -27.140625 18.5625 -27.140625 C 17.019531 -27.140625 15.75 -26.65625 14.75 -25.6875 C 13.75 -24.71875 13.25 -23.347656 13.25 -21.578125 L 13.25 -13.390625 C 13.25 -11.617188 13.773438 -10.238281 14.828125 -9.25 C 15.878906 -8.269531 17.175781 -7.78125 18.71875 -7.78125 C 22.226562 -7.78125 23.984375 -9.582031 23.984375 -13.1875 Z M 32.96875 -13.1875 "/></g></g></g><g fill="#ffffff" fill-opacity="1"><g transform="translate(187.050963, 50.970887)"><g><path d="M 4.015625 -21.328125 C 4.015625 -23.929688 4.664062 -26.351562 5.96875 -28.59375 C 7.269531 -30.832031 9.03125 -32.601562 11.25 -33.90625 C 13.476562 -35.21875 15.914062 -35.875 18.5625 -35.875 C 21.207031 -35.875 23.640625 -35.21875 25.859375 -33.90625 C 28.085938 -32.601562 29.851562 -30.832031 31.15625 -28.59375 C 32.457031 -26.351562 33.109375 -23.929688 33.109375 -21.328125 L 33.109375 -13.59375 C 33.109375 -10.988281 32.457031 -8.5625 31.15625 -6.3125 C 29.851562 -4.070312 28.085938 -2.300781 25.859375 -1 C 23.640625 0.300781 21.207031 0.953125 18.5625 0.953125 C 15.914062 0.953125 13.476562 0.300781 11.25 -1 C 9.03125 -2.300781 7.269531 -4.070312 5.96875 -6.3125 C 4.664062 -8.5625 4.015625 -10.988281 4.015625 -13.59375 Z M 13.140625 -13.59375 C 13.140625 -11.988281 13.640625 -10.617188 14.640625 -9.484375 C 15.648438 -8.347656 16.957031 -7.78125 18.5625 -7.78125 C 20.132812 -7.78125 21.421875 -8.347656 22.421875 -9.484375 C 23.429688 -10.617188 23.9375 -11.988281 23.9375 -13.59375 L 23.9375 -21.375 C 23.9375 -23.007812 23.429688 -24.378906 22.421875 -25.484375 C 21.421875 -26.585938 20.132812 -27.140625 18.5625 -27.140625 C 16.957031 -27.140625 15.648438 -26.585938 14.640625 -25.484375 C 13.640625 -24.378906 13.140625 -23.007812 13.140625 -21.375 Z M 13.140625 -13.59375 "/></g></g></g><g fill="#ffffff" fill-opacity="1"><g transform="translate(224.174164, 50.970887)"><g><path d="M 6.015625 0 L 6.015625 -34.921875 L 19.015625 -34.921875 C 21.554688 -34.921875 23.90625 -34.285156 26.0625 -33.015625 C 28.21875 -31.742188 29.929688 -30.03125 31.203125 -27.875 C 32.472656 -25.71875 33.109375 -23.367188 33.109375 -20.828125 L 33.109375 -14.09375 C 33.109375 -11.550781 32.472656 -9.203125 31.203125 -7.046875 C 29.929688 -4.890625 28.21875 -3.175781 26.0625 -1.90625 C 23.90625 -0.632812 21.554688 0 19.015625 0 Z M 6.015625 0 "/></g></g></g><g fill="#ffffff" fill-opacity="1"><g transform="translate(261.297364, 50.970887)"><g><path d="M 6.515625 -34.921875 L 31.109375 -34.921875 L 31.109375 -33.0625 L 8.375 -33.0625 L 8.375 -18.921875 L 28.140625 -18.921875 L 28.140625 -17.0625 L 8.375 -17.0625 L 8.375 -1.859375 L 31.109375 -1.859375 L 31.109375 0 L 6.515625 0 Z M 6.515625 -34.921875 "/></g></g></g><g fill="#ffffff" fill-opacity="1"><g transform="translate(298.420564, 50.970887)"><g><path d="M 33.015625 0 L 6.171875 0 L 6.171875 -34.921875 L 19.765625 -34.921875 C 22.671875 -34.921875 25.046875 -34.398438 26.890625 -33.359375 C 28.691406 -32.359375 30.09375 -30.988281 31.09375 -29.25 C 32.101562 -27.507812 32.609375 -25.585938 32.609375 -23.484375 C 32.609375 -20.867188 31.804688 -18.53125 30.203125 -16.46875 C 28.597656 -14.414062 26.570312 -13.054688 24.125 -12.390625 Z M 9.328125 -33.0625 L 22.984375 -14 C 25.222656 -14.46875 27.078125 -15.585938 28.546875 -17.359375 C 30.015625 -19.128906 30.75 -21.171875 30.75 -23.484375 C 30.75 -25.316406 30.296875 -26.984375 29.390625 -28.484375 C 28.492188 -29.992188 27.226562 -31.148438 25.59375 -31.953125 C 24.113281 -32.691406 22.1875 -33.0625 19.8125 -33.0625 Z M 8.03125 -31.859375 L 8.03125 -13.84375 L 20.921875 -13.84375 Z M 8.03125 -1.859375 L 29.5 -1.859375 L 22.171875 -12.046875 L 20.625 -11.984375 L 8.03125 -11.984375 Z M 8.03125 -1.859375 "/></g></g></g><path stroke-linecap="butt" transform="matrix(-0.748891, -0.00000000130706, 0.00000000130706, -0.748891, 140.552165, 67.455616)" fill="none" stroke-linejoin="miter" d="M 0.00184734 0.999592 L 24.01654 0.999592 " stroke="#ffffff" stroke-width="2" stroke-opacity="1" stroke-miterlimit="4"/><path stroke-linecap="butt" transform="matrix(0, -0.748891, 0.748891, 0, 93.942447, 67.454358)" fill="none" stroke-linejoin="miter" d="M 0.00164625 1.000092 L 21.470906 1.000092 " stroke="#ffffff" stroke-width="2" stroke-opacity="1" stroke-miterlimit="4"/><path stroke-linecap="butt" transform="matrix(0, -0.748891, 0.748891, 0, 130.970519, 67.454358)" fill="none" stroke-linejoin="miter" d="M 0.00164625 0.999119 L 21.470906 0.999119 " stroke="#ffffff" stroke-width="2" stroke-opacity="1" stroke-miterlimit="4"/><path stroke-linecap="butt" transform="matrix(-0.748891, -0.00000000130706, 0.00000000130706, -0.748891, 103.673856, 67.455616)" fill="none" stroke-linejoin="miter" d="M -0.00257083 0.999592 L 24.012122 0.999592 " stroke="#ffffff" stroke-width="2" stroke-opacity="1" stroke-miterlimit="4"/></svg>