<svg xmlns="http://www.w3.org/2000/svg" xmlns:xlink="http://www.w3.org/1999/xlink" width="400" zoomAndPan="magnify" viewBox="0 0 300 374.999991" height="500" preserveAspectRatio="xMidYMid meet" version="1.0"><defs><clipPath id="16f76d8936"><path d="M 253 0 L 296.695312 0 L 296.695312 49 L 253 49 Z M 253 0 " clip-rule="nonzero"/></clipPath><clipPath id="aee4b5f087"><path d="M 63 0 L 296.695312 0 L 296.695312 218 L 63 218 Z M 63 0 " clip-rule="nonzero"/></clipPath><clipPath id="db7a59610b"><path d="M 3.445312 238 L 16 238 L 16 241 L 3.445312 241 Z M 3.445312 238 " clip-rule="nonzero"/></clipPath></defs><g clip-path="url(#16f76d8936)"><path fill="#cb8e8c" d="M 464.683594 -186.496094 C 467.402344 -181.589844 465.984375 -178.285156 462.929688 -175.042969 C 451.539062 -162.941406 451.792969 -162.390625 465.4375 -154.445312 C 472.78125 -150.167969 479.617188 -145.019531 486.421875 -140.441406 C 485.457031 -124.273438 485.457031 -124.273438 501.351562 -109.195312 C 496.664062 -98.445312 499.527344 -88.734375 509.183594 -80.492188 C 506.390625 -76.085938 504.257812 -72.101562 501.53125 -68.585938 C 498.421875 -64.578125 498.511719 -60.183594 498.429688 -55.523438 C 498.339844 -50.84375 500.992188 -48.492188 504.054688 -45.617188 C 508.1875 -41.734375 507.820312 -41.34375 503.839844 -30.082031 C 501.191406 -30.488281 498.472656 -30.90625 495.722656 -31.328125 C 493.234375 -28.667969 493.847656 -25.851562 496.273438 -23.945312 C 499.839844 -21.144531 503.972656 -19.074219 507.671875 -16.425781 C 509.222656 -15.308594 510.285156 -13.5 511.789062 -11.753906 C 506.414062 -8.777344 503.140625 -11.605469 499.667969 -13.355469 C 496.160156 -15.121094 492.65625 -16.910156 489.457031 -18.53125 C 474.859375 -6.765625 473.703125 -3.320312 477.867188 16.730469 C 475.550781 16.601562 473.222656 17.113281 471.671875 16.242188 C 468.734375 14.582031 466.242188 12.132812 463.84375 10.226562 C 454.285156 10.667969 449.992188 15.8125 449.570312 24.789062 C 445.496094 26.847656 441.542969 28.847656 437.042969 31.121094 C 438.394531 35.9375 439.601562 40.238281 440.765625 44.394531 C 437.722656 47.394531 435.480469 46.277344 433.578125 43.636719 C 431.105469 40.210938 433.382812 33.789062 425.820312 32.824219 C 422.828125 37.4375 419.589844 42.4375 415.652344 48.511719 C 411.675781 44.441406 408.65625 41.351562 405.019531 37.632812 C 397.421875 40.507812 389.960938 43.328125 381.347656 46.585938 C 376.71875 42.964844 371.488281 38.867188 365.3125 34.035156 C 363.296875 39.019531 361.75 42.84375 360.21875 46.640625 C 358.195312 45.917969 356.820312 45.855469 356.351562 45.171875 C 355.40625 43.78125 354.992188 42.039062 354.289062 40.472656 C 349.140625 28.992188 348.070312 28.453125 333.480469 30.699219 C 329.664062 24.886719 327.179688 16.113281 316.339844 16.769531 C 312.722656 19.742188 308.546875 23.175781 304.230469 26.722656 C 300.445312 20.746094 305.457031 18.589844 306.980469 15.308594 C 309.570312 9.738281 309.507812 6.105469 304.28125 3.582031 C 297.378906 0.242188 294.835938 -6.054688 290.984375 -12.886719 C 286.472656 -11.117188 282.542969 -9.316406 278.4375 -8.132812 C 277.222656 -7.78125 274.835938 -8.777344 274.21875 -9.859375 C 273.675781 -10.8125 274.390625 -13.226562 275.355469 -14.160156 C 278.132812 -16.84375 281.316406 -19.101562 285.058594 -22.105469 C 282.71875 -26.730469 281.53125 -31.597656 278.460938 -34.421875 C 275.636719 -37.011719 270.792969 -37.402344 265.433594 -39.246094 C 268.355469 -41.992188 269.824219 -43.695312 271.601562 -44.957031 C 273.410156 -46.238281 275.527344 -47.085938 277.320312 -48.023438 C 275.59375 -60.753906 274.070312 -62.277344 264.351562 -61.398438 C 261.542969 -61.144531 258.75 -60.53125 255.9375 -60.472656 C 255.152344 -60.457031 253.539062 -62.066406 253.675781 -62.515625 C 254.101562 -63.917969 254.96875 -65.992188 256.042969 -66.253906 C 260.394531 -67.304688 264.910156 -67.667969 269.308594 -68.546875 C 270.273438 -68.734375 271.023438 -69.976562 272.171875 -71.003906 C 275.226562 -80.273438 271.21875 -87.152344 263.664062 -92.285156 C 265.972656 -101.113281 274.203125 -95.320312 278.910156 -99.796875 C 277.144531 -102.761719 275.261719 -105.914062 273.347656 -109.128906 C 275.609375 -114.191406 283.273438 -111.386719 284.691406 -118.144531 C 286.242188 -125.539062 288.9375 -132.484375 284.570312 -139.769531 C 283.824219 -141.011719 284.152344 -142.898438 284.019531 -144.128906 C 288.683594 -149.164062 292.859375 -143.351562 297.101562 -144.429688 C 304.707031 -147.488281 308.882812 -153.222656 309.511719 -161.992188 C 312.195312 -162.355469 314.359375 -162.566406 316.5 -162.945312 C 324.773438 -164.417969 326.527344 -167.121094 324.210938 -174.394531 C 323.015625 -178.140625 322.078125 -181.96875 320.976562 -185.742188 C 320.660156 -186.816406 320.402344 -188.027344 319.71875 -188.835938 C 317.476562 -191.488281 310.996094 -192.445312 315.289062 -197.710938 C 318.78125 -201.988281 323.691406 -200.210938 328.058594 -198.429688 C 329.074219 -198.019531 329.917969 -197.171875 331.84375 -195.824219 C 330.300781 -193.257812 328.71875 -190.628906 326.5625 -187.042969 C 328.355469 -183.347656 330.550781 -178.816406 332.546875 -174.699219 C 342.761719 -174.378906 343 -174.378906 342.96875 -181.4375 C 342.953125 -184.449219 342.425781 -187.148438 346.523438 -188.5 C 352.375 -187.855469 351.296875 -179.902344 357.703125 -177.601562 C 360.339844 -178.253906 364.289062 -178.84375 367.941406 -180.230469 C 373.746094 -182.425781 377.03125 -186.613281 377.65625 -193.15625 C 378.304688 -199.964844 379.789062 -206.695312 380.964844 -213.804688 C 389.957031 -205.824219 384.964844 -195.152344 387.667969 -185.265625 C 391.808594 -187.21875 395.203125 -188.816406 398.546875 -190.398438 C 405.242188 -180.421875 405.242188 -180.421875 417.660156 -181.597656 C 420.425781 -188.328125 423.226562 -195.160156 426.027344 -201.988281 C 426.605469 -201.894531 427.183594 -201.800781 427.757812 -201.707031 C 427.566406 -198.0625 428.082031 -194.199219 427.027344 -190.824219 C 424.96875 -184.238281 427.195312 -179.652344 432.226562 -175.796875 C 434.054688 -174.394531 435.855469 -172.945312 437.804688 -171.734375 C 444.632812 -167.484375 449.398438 -168.46875 453.730469 -175.277344 C 456.441406 -179.53125 457.480469 -185.167969 464.683594 -186.496094 " fill-opacity="1" fill-rule="nonzero"/></g><g clip-path="url(#aee4b5f087)"><path fill="#cb8e8c" d="M 119.304688 78.535156 C 126.878906 75.371094 126.878906 75.371094 134.261719 78.941406 C 136.683594 80.113281 139.097656 81.308594 142.191406 82.820312 C 142.90625 81.164062 143.550781 79.792969 144.097656 78.382812 C 144.691406 76.867188 145.195312 75.316406 145.914062 73.28125 C 138.664062 69.554688 131.335938 68.558594 123.921875 69.21875 C 119.414062 69.621094 115.261719 69.054688 110.894531 68.230469 C 105.613281 67.226562 100.109375 66.5625 94.761719 66.863281 C 84.144531 67.460938 74.015625 64.964844 63.636719 63.054688 C 65.523438 61.832031 67.617188 61.652344 69.667969 61.722656 C 80.828125 62.09375 92.09375 61.726562 103 64.546875 C 110.402344 66.460938 117.851562 64.722656 125.246094 65.660156 C 129.933594 66.257812 134.714844 66.039062 139.429688 66.453125 C 143.550781 66.820312 146.769531 65.675781 149.121094 61.664062 C 145.863281 57.996094 139.289062 58.816406 137.121094 53.363281 C 141.085938 50.449219 143.953125 55.28125 147.660156 54.746094 C 150.40625 53.765625 150.503906 51.273438 150.164062 48.921875 C 149.929688 47.3125 149.148438 45.628906 148.175781 44.296875 C 141.753906 35.5 134.84375 27.121094 124.863281 22.109375 C 118.804688 19.066406 112.683594 16.046875 106.332031 13.738281 C 102.085938 12.199219 98.40625 9.964844 94.78125 7.488281 C 91.613281 5.320312 91.066406 3.769531 92.425781 1.800781 C 93.789062 -0.171875 95.390625 -0.617188 98.75 0.9375 C 103.652344 3.207031 108.566406 5.550781 113.144531 8.390625 C 119.46875 12.304688 125.417969 16.8125 131.664062 20.859375 C 134.78125 22.882812 138.070312 24.769531 141.511719 26.148438 C 151.875 30.304688 162.351562 34.175781 173.378906 38.386719 C 175.40625 35.234375 177.363281 31.964844 179.550781 28.855469 C 181.9375 25.457031 185.046875 24.277344 189.285156 25.5625 C 193.476562 26.832031 197.832031 27.65625 202.171875 28.347656 C 204.894531 28.777344 206.679688 27.195312 207.242188 24.535156 C 207.378906 23.878906 207.335938 23.1875 207.425781 22.515625 C 208.097656 17.597656 209.183594 15.480469 210.589844 16.28125 C 213.355469 17.863281 212.097656 20.402344 211.886719 22.640625 C 211.757812 23.984375 211.296875 25.300781 211.230469 26.640625 C 210.980469 31.394531 212.902344 33.199219 217.949219 33 C 218.929688 32.964844 219.90625 32.683594 221.136719 32.472656 C 223.632812 35.527344 226.132812 38.59375 228.839844 41.90625 C 230.4375 41.828125 232.320312 41.734375 234.65625 41.621094 C 234.09375 43.980469 233.632812 45.898438 233.019531 48.457031 C 234.503906 50.109375 236.230469 52.035156 238.207031 54.238281 C 242.484375 52.386719 246.453125 50.664062 250.5625 48.886719 C 252.035156 51.089844 250.191406 52.132812 248.921875 52.492188 C 244.953125 53.617188 241.023438 54.589844 238.761719 59.1875 C 240.175781 63.082031 239.363281 68.621094 246.003906 69.703125 C 247.292969 73.71875 248.609375 77.816406 250.070312 82.359375 C 249.480469 85.675781 240.835938 86 245.71875 92.113281 C 241.273438 94.328125 239.761719 98.101562 239.273438 102.230469 C 243.558594 105.207031 247.34375 107.917969 251.210938 110.503906 C 255.664062 113.488281 258.265625 118.011719 259.027344 122.859375 C 260.160156 130.117188 263.835938 135.566406 269.183594 139.808594 C 274.042969 143.65625 277.894531 148.246094 281.84375 152.886719 C 284.828125 156.402344 287.292969 160.71875 292.378906 161.832031 C 293.125 167.078125 298.457031 168.8125 300.84375 172.84375 C 301.851562 174.546875 303.785156 175.671875 304.9375 177.316406 C 305.609375 178.273438 305.558594 179.734375 305.9375 181.429688 C 304.507812 181.257812 303.335938 181.480469 302.777344 180.996094 C 300.242188 178.785156 297.78125 176.46875 295.46875 174.023438 C 287.550781 165.65625 279.710938 157.210938 271.828125 148.804688 C 269.28125 146.089844 266.757812 143.347656 264.117188 140.726562 C 262.746094 139.371094 261.136719 138.257812 259.851562 137.214844 C 259.265625 141.058594 258.730469 144.566406 258.0625 148.929688 C 262.753906 151.242188 265.007812 156.136719 266.089844 162.0625 C 266.988281 166.992188 268.792969 171.75 270.433594 177.394531 C 269.582031 178.285156 268.246094 179.6875 266.441406 181.574219 C 266.980469 183.085938 267.628906 184.914062 268.300781 186.8125 C 268.074219 187.304688 267.96875 188.175781 267.519531 188.421875 C 265.054688 189.789062 262.917969 191.300781 262.898438 194.507812 C 262.882812 197.933594 260.519531 199.730469 258.269531 201.921875 C 253.085938 206.972656 246.714844 210.109375 240.621094 213.6875 C 239.277344 214.476562 237.117188 215.113281 235.855469 214.582031 C 230.550781 212.34375 225.925781 213.496094 221.425781 217.277344 C 220.261719 215.820312 219.320312 214.921875 218.710938 213.832031 C 216.394531 209.667969 214.667969 208.933594 210.90625 210.851562 C 210.011719 211.304688 209.285156 212.070312 208.460938 212.664062 C 207.921875 213.050781 207.34375 213.378906 206.417969 213.960938 C 204.5625 213.039062 202.511719 212.015625 200.464844 210.996094 C 201.511719 204.496094 201.472656 204.535156 196.488281 200.1875 C 194.199219 198.1875 192.0625 196.019531 189.921875 193.863281 C 189.46875 193.410156 189.308594 192.675781 189.015625 192.070312 C 189.03125 191.40625 188.855469 190.667969 189.082031 190.089844 C 191.859375 182.996094 191.878906 183 185.859375 177.292969 C 187.261719 175.253906 189.640625 173.261719 189.902344 171.019531 C 190.175781 168.707031 188.390625 166.148438 187.425781 163.46875 C 189.300781 161.65625 191.777344 159.828125 193.46875 157.445312 C 194.9375 155.378906 194.84375 151.652344 196.632812 150.476562 C 200.085938 148.210938 198.488281 145.046875 199.402344 142.246094 C 200.921875 142.011719 202.46875 141.777344 204.015625 141.539062 C 204.015625 140.898438 204.265625 140.003906 203.96875 139.75 C 202.464844 138.449219 200.683594 137.453125 199.257812 136.082031 C 197.753906 134.636719 196.789062 132.839844 197.921875 130.621094 C 199.089844 128.332031 200.550781 126.746094 203.488281 127.457031 C 204.3125 127.65625 205.289062 127.226562 206.367188 127.058594 C 205.839844 124.03125 203.695312 124.582031 201.851562 124.214844 C 199.941406 123.839844 198.148438 122.871094 195.789062 121.964844 C 193.914062 123.367188 191.824219 124.929688 189.253906 126.851562 C 187.6875 125.050781 186.238281 123.382812 184.820312 121.75 C 181.980469 121.652344 180.519531 123.496094 179.113281 125.480469 C 177.957031 127.117188 176.765625 128.742188 175.4375 130.234375 C 175.15625 130.558594 174.101562 130.507812 173.613281 130.242188 C 173.125 129.972656 172.507812 129.117188 172.625 128.707031 C 172.984375 127.441406 173.714844 126.285156 174.207031 125.050781 C 174.769531 123.632812 175.226562 122.175781 175.929688 120.164062 C 166.429688 123.503906 166.429688 123.503906 155.261719 122.738281 C 155.539062 121.152344 155.519531 119.503906 156.148438 118.152344 C 156.847656 116.652344 158.242188 115.492188 159.136719 114.0625 C 160.597656 111.726562 159.105469 109.398438 156.148438 109.414062 C 153.808594 109.421875 151.46875 109.632812 148.4375 109.789062 C 148.695312 107.070312 149.007812 104.828125 149.085938 102.582031 C 149.164062 100.257812 147.558594 98.6875 145.285156 98.882812 C 143.050781 99.078125 140.835938 99.527344 138.730469 99.84375 C 138.460938 98.628906 138.121094 97.96875 138.222656 97.382812 C 138.4375 96.140625 139.40625 94.78125 139.101562 93.765625 C 138.761719 92.648438 137.484375 91.546875 136.347656 91.007812 C 134.539062 90.152344 132.519531 89.6875 130.550781 89.210938 C 128.917969 88.816406 127.21875 88.6875 125.566406 88.363281 C 119.371094 87.160156 118.460938 85.710938 119.332031 78.527344 L 119.304688 78.535156 " fill-opacity="1" fill-rule="nonzero"/></g><path fill="#cb8e8c" d="M 171.214844 300.625 C 170.621094 301.796875 171.535156 303.667969 170.085938 304.265625 C 168.222656 305.03125 167.835938 302.789062 166.699219 302.011719 C 166.230469 301.695312 165.78125 301.34375 165.167969 300.894531 C 163.597656 302.789062 162.394531 304.863281 160.164062 305.925781 C 159.304688 306.339844 159.328125 307.375 159.132812 308.257812 C 158.636719 310.503906 158.324219 310.675781 156.140625 310.421875 C 155.554688 310.351562 154.972656 310.089844 154.398438 310.125 C 152.914062 310.226562 151.785156 311.996094 152.28125 313.414062 C 152.472656 313.964844 152.96875 314.414062 153.117188 314.960938 C 153.371094 315.933594 153.535156 316.9375 153.582031 317.933594 C 153.597656 318.230469 153.136719 318.734375 152.8125 318.804688 C 152.46875 318.890625 151.859375 318.699219 151.667969 318.417969 C 151.167969 317.703125 150.742188 316.90625 150.46875 316.085938 C 150.019531 314.722656 149.195312 313.765625 147.660156 313.085938 C 144.6875 314.640625 141.648438 316.289062 140.070312 319.613281 C 137.917969 319.515625 137.746094 317.167969 135.683594 316.628906 C 132.066406 318.679688 128.273438 321.1875 124.316406 322.839844 C 122.015625 322.039062 123.035156 319.851562 122.085938 318.628906 C 120.605469 318.382812 119.277344 320.289062 117.800781 318.726562 C 116.839844 317.863281 117.753906 316.902344 117.8125 315.925781 C 117.875 314.984375 117.550781 314.140625 116.597656 313.761719 C 115.359375 313.261719 114.117188 312.734375 112.824219 312.425781 C 111.054688 312.003906 109.3125 311.960938 107.789062 313.332031 C 107.117188 313.9375 106.175781 314.253906 105.332031 313.648438 C 104.316406 312.925781 104.453125 311.84375 104.769531 310.816406 C 105.027344 309.964844 105.371094 309.148438 105.628906 308.441406 C 104.992188 306.601562 103.785156 305.972656 102.097656 306.320312 C 100.328125 306.683594 98.726562 307.375 97.484375 308.792969 C 96.921875 309.4375 96.199219 310.023438 95.433594 310.367188 C 95.050781 310.542969 94.199219 310.265625 93.921875 309.910156 C 93.644531 309.550781 93.609375 308.757812 93.8125 308.308594 C 94.332031 307.148438 95.445312 306.621094 96.617188 306.3125 C 98.1875 305.890625 99.257812 304.960938 99.722656 303.421875 C 99.824219 303.085938 99.71875 302.488281 99.480469 302.296875 C 99.242188 302.101562 98.621094 302.121094 98.335938 302.304688 C 97.71875 302.699219 97.21875 303.277344 96.644531 303.738281 C 96.035156 304.238281 95.191406 304.589844 94.6875 303.921875 C 94.328125 303.453125 94.214844 302.375 94.511719 301.898438 C 95.867188 299.726562 96.101562 297.578125 95.367188 295.109375 C 94.824219 293.277344 94.148438 291.808594 92.214844 291.175781 C 91.816406 291.050781 91.5 290.667969 91.105469 290.378906 C 91.039062 289.953125 90.890625 289.519531 90.914062 289.09375 C 91.109375 285.511719 90.832031 285.300781 87.273438 286.285156 C 86.570312 286.480469 85.824219 286.71875 85.125 286.65625 C 84.628906 286.613281 83.9375 286.183594 83.765625 285.757812 C 83.609375 285.355469 83.910156 284.644531 84.214844 284.226562 C 84.78125 283.453125 85.65625 283.296875 86.601562 283.320312 C 87.949219 283.351562 89.289062 283.261719 90.589844 282.027344 C 89.875 279.285156 91.234375 276.167969 89.722656 273.058594 C 88.511719 272.972656 87.339844 272.996094 86.214844 272.765625 C 85.769531 272.671875 85.179688 272.0625 85.117188 271.617188 C 85.058594 271.164062 85.429688 270.433594 85.835938 270.175781 C 86.425781 269.796875 87.210938 269.65625 87.929688 269.574219 C 88.957031 269.453125 90.007812 269.398438 91.035156 269.46875 C 93.117188 269.59375 94.273438 266.742188 93.351562 265.195312 C 92.769531 264.210938 91.640625 263.460938 92.148438 261.914062 C 92.390625 261.738281 92.722656 261.316406 93.09375 261.273438 C 95.945312 260.921875 96.808594 259.214844 96.425781 256.546875 C 95.5625 255.59375 94.601562 254.675781 93.820312 253.621094 C 93.542969 253.257812 93.496094 252.40625 93.738281 252.054688 C 93.988281 251.683594 94.773438 251.421875 95.234375 251.523438 C 96.085938 251.699219 96.851562 252.253906 97.699219 252.503906 C 98.386719 252.714844 99.140625 252.714844 99.9375 252.816406 C 100.613281 252.175781 101.195312 251.492188 101.902344 250.980469 C 103.996094 249.464844 105.152344 247.832031 104.246094 244.957031 C 103.570312 242.828125 106.027344 239.253906 108.382812 238.378906 C 110.914062 237.433594 112.128906 235.753906 112.132812 233.160156 C 110.703125 232.078125 109.445312 232.539062 108.246094 233.171875 C 106.875 233.90625 105.464844 234.128906 103.941406 233.875 C 101.738281 233.507812 100.460938 231.320312 101.792969 229.644531 C 102.949219 228.199219 103.414062 226.53125 104.25 225 C 105.816406 222.125 107.851562 219.550781 110.648438 217.746094 C 111.621094 217.121094 112.796875 216.78125 113.914062 216.4375 C 114.246094 216.335938 114.957031 216.546875 115.066406 216.800781 C 115.273438 217.277344 115.351562 217.96875 115.148438 218.421875 C 114.859375 219.078125 114.300781 219.625 113.800781 220.167969 C 113.207031 220.8125 112.554688 221.410156 111.75 222.203125 C 112.277344 223.125 112.644531 224.117188 113.316406 224.804688 C 113.742188 225.234375 114.789062 225.578125 115.273438 225.351562 C 117.117188 224.5 118.886719 224.773438 120.808594 224.832031 C 122.535156 224.882812 124.714844 223.859375 125.972656 222.597656 C 128.453125 220.101562 131.617188 218.851562 134.4375 216.996094 C 134.910156 216.6875 135.332031 216.296875 135.980469 215.78125 C 135.125 215.117188 134.464844 214.5625 133.765625 214.066406 C 133.144531 213.636719 132.339844 213.1875 132.601562 212.390625 C 132.835938 211.671875 133.527344 211.101562 134.191406 210.242188 C 134.917969 210.988281 135.507812 211.433594 135.878906 212.015625 C 136.632812 213.210938 137.726562 213.890625 138.953125 214.480469 C 140.144531 215.0625 141.234375 214.988281 142.308594 214.269531 C 142.679688 214.023438 143.058594 213.785156 143.394531 213.492188 C 145.046875 212.0625 146.808594 211.90625 148.757812 212.878906 C 149.378906 213.1875 150.121094 213.25 150.96875 213.46875 C 152.222656 211.25 153.050781 209.355469 152 206.757812 C 151.074219 204.46875 150.605469 202.023438 149.445312 199.75 C 148.445312 197.78125 149.40625 195.542969 150.714844 193.992188 C 153.324219 190.902344 158.21875 191.128906 160.9375 194.183594 C 163.753906 197.347656 162.71875 202.472656 158.886719 204.304688 C 158.492188 204.492188 158.035156 204.554688 157.613281 204.691406 C 155.859375 205.253906 155.019531 206.550781 154.734375 208.292969 C 154.472656 209.890625 154.203125 211.480469 153.917969 213.074219 C 153.699219 214.300781 154.25 215.398438 155.480469 215.917969 C 157.390625 216.71875 159.335938 217.425781 161.238281 218.238281 C 162.488281 218.777344 163.585938 218.421875 164.613281 217.792969 C 165.628906 217.179688 166.523438 216.382812 167.511719 215.722656 C 167.953125 215.425781 168.5 215.28125 169.140625 215.007812 C 169.507812 217.898438 166.402344 218.089844 165.824219 220.195312 C 167.375 222.589844 170.84375 220.5625 172.171875 223.519531 C 173.503906 222.105469 174.332031 221.101562 175.289062 220.238281 C 176.351562 219.28125 178.296875 219.964844 178.355469 221.382812 C 178.410156 222.667969 178.078125 223.988281 177.808594 225.273438 C 177.730469 225.667969 177.261719 225.964844 177.027344 226.335938 C 175.59375 228.652344 175.625 229.402344 177.5 231.394531 C 178.515625 232.476562 179.617188 233.503906 180.804688 234.375 C 183.1875 236.117188 184.902344 238.191406 185.214844 241.269531 C 185.316406 242.28125 185.71875 243.285156 186.109375 244.238281 C 186.929688 246.257812 187.230469 248.246094 185.988281 249.972656 C 186.757812 251.667969 187.410156 253.09375 188.09375 254.605469 C 188.519531 254.71875 189.074219 254.867188 189.613281 255.003906 C 189.957031 256.058594 188.957031 256.214844 188.601562 256.777344 C 188.253906 257.324219 188.613281 258.238281 187.6875 258.660156 C 186.78125 257.761719 185.90625 256.886719 184.976562 255.964844 C 183.050781 259.460938 180.53125 267.535156 179.867188 272.152344 C 180.980469 273.257812 182.15625 274.324219 183.203125 275.511719 C 183.539062 275.890625 183.542969 276.5625 183.71875 277.175781 C 181.949219 277.652344 181.128906 276.332031 180.027344 275.742188 C 177.9375 274.617188 176.71875 274.765625 175.640625 276.910156 C 174.582031 279.003906 173.863281 281.292969 173.164062 283.550781 C 172.976562 284.152344 173.285156 285.011719 173.578125 285.652344 C 173.929688 286.433594 174.507812 287.097656 174.917969 287.71875 C 174.253906 290.050781 172.242188 290.667969 170.617188 291.976562 C 170.53125 292.546875 170.230469 293.296875 170.355469 293.976562 C 170.695312 295.875 170.863281 297.753906 170.660156 299.671875 C 170.621094 300.027344 171.027344 300.429688 171.230469 300.800781 L 171.214844 300.625 " fill-opacity="1" fill-rule="nonzero"/><path fill="#cb8e8c" d="M 271.726562 210.898438 C 273.332031 210.722656 274.941406 210.546875 276.707031 210.355469 C 277 209.058594 277.160156 207.929688 277.515625 206.863281 C 278.636719 203.5 282.089844 202.253906 285.515625 203.851562 C 288.308594 205.160156 288.886719 209.5 286.753906 211.949219 C 285.144531 213.796875 282.492188 214.386719 280.285156 213.308594 C 279.363281 212.855469 278.523438 212.238281 277.507812 211.617188 C 275.765625 211.753906 273.886719 211.902344 272.003906 212.050781 C 271.910156 211.667969 271.820312 211.28125 271.726562 210.898438 " fill-opacity="1" fill-rule="nonzero"/><path fill="#cb8e8c" d="M 164.558594 355.171875 C 166.542969 359.703125 166.660156 364.039062 166.109375 368.402344 C 166.058594 368.789062 165.339844 369.28125 164.867188 369.378906 C 164.09375 369.535156 163.351562 369.105469 163.199219 368.304688 C 163.035156 367.460938 163.089844 366.570312 163.132812 365.699219 C 163.265625 362.773438 163.394531 359.851562 163.636719 356.933594 C 163.6875 356.320312 164.238281 355.753906 164.558594 355.171875 " fill-opacity="1" fill-rule="nonzero"/><path fill="#cb8e8c" d="M 64.5625 320.5 C 65.148438 322.574219 64.4375 323.90625 63.371094 324.933594 C 62.214844 326.042969 60.890625 327.03125 59.492188 327.808594 C 58.925781 328.121094 57.960938 327.714844 56.832031 327.597656 C 58.46875 323.886719 60.273438 321.058594 64.5625 320.5 " fill-opacity="1" fill-rule="nonzero"/><path fill="#cb8e8c" d="M 92.933594 316.128906 C 92.398438 316.589844 91.160156 317.820312 89.761719 318.824219 C 89.257812 319.191406 88.351562 319.210938 87.695312 319.066406 C 87.332031 318.988281 86.777344 318.121094 86.882812 317.820312 C 87.746094 315.390625 89.636719 313.765625 91.605469 312.242188 C 92.34375 311.671875 93.707031 311.785156 93.941406 312.453125 C 94.15625 313.050781 94.003906 313.800781 93.929688 314.476562 C 93.898438 314.734375 93.644531 314.972656 92.933594 316.128906 " fill-opacity="1" fill-rule="nonzero"/><path fill="#cb8e8c" d="M 56.507812 292.167969 C 55.144531 294.351562 51.125 296.261719 48.863281 295.882812 C 48.214844 295.769531 47.628906 294.554688 48.097656 294.140625 C 50.152344 292.320312 52.105469 290.234375 55.15625 290.285156 C 55.640625 290.289062 56.234375 290.664062 56.554688 291.050781 C 56.75 291.28125 56.53125 291.863281 56.507812 292.167969 " fill-opacity="1" fill-rule="nonzero"/><path fill="#cb8e8c" d="M 116.84375 340.105469 C 115.105469 344.925781 112.875 349.550781 110.855469 354.257812 C 110.800781 354.382812 110.339844 354.34375 109.808594 354.410156 C 109.414062 352.964844 109.617188 351.496094 110.265625 350.246094 C 112.097656 346.707031 114.097656 343.265625 116.03125 339.789062 C 116.304688 339.894531 116.574219 340 116.84375 340.105469 " fill-opacity="1" fill-rule="nonzero"/><path fill="#cb8e8c" d="M 193.9375 260.8125 C 194.917969 261.503906 195.429688 262.855469 195.058594 263.886719 C 194.652344 265.027344 193.660156 265.40625 192.609375 265.363281 C 191.773438 265.335938 190.863281 265.132812 190.136719 264.730469 C 188.878906 264.050781 188.867188 262.378906 189.984375 261.429688 C 191.492188 260.148438 192.746094 259.953125 193.9375 260.8125 " fill-opacity="1" fill-rule="nonzero"/><path fill="#cb8e8c" d="M 234.21875 249.363281 C 230.472656 250.054688 227.375 249.46875 224.65625 246.859375 C 225.0625 246.480469 225.351562 245.96875 225.660156 245.964844 C 228.476562 245.863281 231.089844 246.796875 233.667969 247.789062 C 233.96875 247.902344 234.003906 248.710938 234.21875 249.363281 " fill-opacity="1" fill-rule="nonzero"/><path fill="#cb8e8c" d="M 153.300781 330.464844 C 153.902344 333.957031 154.914062 337.265625 154.109375 340.632812 C 154.011719 341.054688 153.820312 341.484375 153.558594 341.820312 C 153.421875 342 153.035156 342.113281 152.789062 342.074219 C 152.535156 342.027344 152.148438 341.785156 152.121094 341.585938 C 151.992188 340.730469 151.894531 339.859375 151.933594 339 C 152.050781 336.640625 152.195312 334.28125 152.4375 331.933594 C 152.488281 331.417969 153.003906 330.949219 153.300781 330.464844 " fill-opacity="1" fill-rule="nonzero"/><path fill="#cb8e8c" d="M 188.941406 281.933594 C 188.652344 281.957031 188.097656 282.171875 187.855469 281.992188 C 187.210938 281.492188 186.292969 280.867188 186.21875 280.210938 C 186.085938 278.96875 186.398438 277.652344 186.660156 276.398438 C 186.820312 275.632812 188.207031 275.378906 188.886719 275.90625 C 190.3125 276.996094 190.417969 280.605469 188.941406 281.933594 " fill-opacity="1" fill-rule="nonzero"/><path fill="#cb8e8c" d="M 55.460938 278.316406 C 56.550781 277.535156 56.863281 277.171875 57.25 277.050781 C 60.316406 276.101562 63.394531 275.1875 66.480469 274.316406 C 66.832031 274.21875 67.269531 274.421875 67.738281 274.492188 C 65.933594 276.234375 65.792969 276.582031 64.242188 276.796875 C 61.582031 277.175781 59.207031 279.058594 55.460938 278.316406 " fill-opacity="1" fill-rule="nonzero"/><g clip-path="url(#db7a59610b)"><path fill="#cb8e8c" d="M 2.519531 238.648438 C 6.894531 238.902344 10.695312 239.105469 14.492188 239.363281 C 14.878906 239.386719 15.257812 239.714844 15.621094 239.941406 C 15.722656 240.003906 15.738281 240.199219 15.890625 240.566406 C 15.164062 240.699219 14.476562 240.972656 13.816406 240.921875 C 10.300781 240.65625 6.796875 240.320312 3.289062 239.960938 C 3.128906 239.945312 3.011719 239.503906 2.519531 238.648438 " fill-opacity="1" fill-rule="nonzero"/></g><path fill="#cb8e8c" d="M 75.933594 165.492188 C 76.757812 165.492188 77.285156 165.324219 77.550781 165.519531 C 79.277344 166.789062 80.96875 168.109375 82.613281 169.488281 C 82.824219 169.664062 82.6875 170.261719 82.730469 170.925781 C 79.925781 169.722656 77.640625 168.269531 75.933594 165.492188 " fill-opacity="1" fill-rule="nonzero"/><path fill="#cb8e8c" d="M 239.308594 265.546875 C 246.296875 265.355469 246.558594 265.433594 247.585938 267.585938 C 244.65625 267.847656 243.925781 267.683594 239.308594 265.546875 " fill-opacity="1" fill-rule="nonzero"/><path fill="#cb8e8c" d="M 82.601562 233.480469 C 79.6875 232.679688 77.480469 232.070312 75.398438 231.5 C 75.152344 230.355469 75.796875 230.167969 76.34375 230.207031 C 77.652344 230.292969 78.976562 230.417969 80.246094 230.730469 C 81.199219 230.960938 82.0625 231.523438 82.601562 233.480469 " fill-opacity="1" fill-rule="nonzero"/><path fill="#cb8e8c" d="M 15.945312 221.347656 C 18.914062 219.632812 20.914062 219.714844 23.363281 221.394531 C 20.988281 222.675781 20.988281 222.675781 15.945312 221.347656 " fill-opacity="1" fill-rule="nonzero"/><path fill="#cb8e8c" d="M 171.90625 209.347656 C 172.914062 209.910156 173.355469 211.074219 172.902344 211.96875 C 172.335938 213.09375 170.96875 213.5625 169.894531 213.003906 C 169.019531 212.550781 168.753906 211.304688 169.3125 210.289062 C 169.898438 209.21875 170.972656 208.828125 171.90625 209.347656 " fill-opacity="1" fill-rule="nonzero"/><path fill="#cb8e8c" d="M 138.867188 168.234375 C 140.574219 170.121094 140.882812 172.359375 141.113281 174.527344 C 140.207031 175.183594 139.847656 174.777344 139.617188 174.195312 C 138.859375 172.300781 138.191406 170.382812 138.867188 168.234375 " fill-opacity="1" fill-rule="nonzero"/><path fill="#cb8e8c" d="M 128.160156 207.707031 C 128.105469 207.1875 127.742188 206.300781 127.988281 205.640625 C 128.378906 204.59375 130.003906 204.5 131.078125 205.3125 C 131.742188 205.816406 131.9375 206.546875 131.601562 207.277344 C 131.136719 208.308594 129.578125 208.597656 128.160156 207.707031 " fill-opacity="1" fill-rule="nonzero"/><path fill="#cb8e8c" d="M 10.605469 279.460938 C 12.703125 277.867188 15.171875 277.738281 17.871094 277.4375 C 16.140625 279.40625 15.671875 279.558594 10.738281 280.03125 C 10.695312 279.839844 10.648438 279.648438 10.605469 279.460938 " fill-opacity="1" fill-rule="nonzero"/><path fill="#cb8e8c" d="M 10.738281 280.03125 C 9.453125 281.054688 7.980469 281.5625 6.347656 281.484375 C 6 281.464844 5.671875 281.097656 5.328125 280.886719 C 5.53125 280.570312 5.699219 280.007812 5.941406 279.96875 C 7.488281 279.734375 9.050781 279.617188 10.605469 279.460938 C 10.648438 279.648438 10.695312 279.839844 10.738281 280.03125 " fill-opacity="1" fill-rule="nonzero"/><path fill="#cb8e8c" d="M 114.335938 167.453125 C 113.347656 166.445312 112.332031 165.460938 111.382812 164.417969 C 111.105469 164.113281 111.019531 163.644531 110.703125 162.9375 C 111.34375 162.867188 111.992188 162.589844 112.277344 162.800781 C 113.726562 163.882812 114.21875 165.527344 114.335938 167.453125 " fill-opacity="1" fill-rule="nonzero"/><path fill="#cb8e8c" d="M 75.878906 239.492188 C 74.167969 240.523438 72.574219 240.488281 70.589844 239.238281 C 72.722656 238.136719 74.335938 238.171875 75.878906 239.492188 " fill-opacity="1" fill-rule="nonzero"/><path fill="#cb8e8c" d="M 181.089844 217.445312 C 181.085938 217.003906 180.816406 216.074219 181.128906 215.800781 C 181.554688 215.421875 182.457031 215.371094 183.089844 215.496094 C 183.789062 215.632812 183.914062 216.753906 183.359375 217.316406 C 182.796875 217.886719 182.144531 218.140625 181.089844 217.445312 " fill-opacity="1" fill-rule="nonzero"/><path fill="#cb8e8c" d="M 107.65625 371.558594 C 106.714844 369.667969 106.6875 369.640625 109.605469 368.332031 C 109.417969 369.808594 108.773438 370.8125 107.65625 371.558594 " fill-opacity="1" fill-rule="nonzero"/><path fill="#cb8e8c" d="M 171.230469 300.800781 C 171.566406 300.554688 171.898438 300.3125 172.320312 299.996094 C 172.488281 300.4375 172.691406 300.789062 172.742188 301.152344 C 172.777344 301.382812 172.597656 301.652344 172.515625 301.90625 C 172.183594 301.742188 171.808594 301.644531 171.542969 301.414062 C 171.355469 301.253906 171.316406 300.914062 171.214844 300.640625 C 171.214844 300.625 171.230469 300.800781 171.230469 300.800781 " fill-opacity="1" fill-rule="nonzero"/><path fill="#cb8e8c" d="M 190.152344 327.609375 C 190.066406 327.582031 189.90625 327.558594 189.902344 327.53125 C 189.894531 327.421875 189.9375 327.300781 189.964844 327.191406 C 190.105469 327.238281 190.25 327.289062 190.390625 327.335938 C 190.3125 327.429688 190.234375 327.519531 190.152344 327.609375 " fill-opacity="1" fill-rule="nonzero"/><path fill="#cb8e8c" d="M 228.183594 290.15625 C 227.949219 290.238281 227.71875 290.332031 227.488281 290.414062 C 227.472656 290.164062 227.371094 289.851562 227.476562 289.675781 C 227.582031 289.507812 227.914062 289.488281 228.144531 289.398438 C 228.15625 289.648438 228.171875 289.902344 228.183594 290.15625 " fill-opacity="1" fill-rule="nonzero"/></svg>